<?xml version="1.0" encoding="UTF-8" standalone="no"?>
<!-- Created with Inkscape (http://www.inkscape.org/) -->
<svg
   xmlns:dc="http://purl.org/dc/elements/1.1/"
   xmlns:cc="http://web.resource.org/cc/"
   xmlns:rdf="http://www.w3.org/1999/02/22-rdf-syntax-ns#"
   xmlns:svg="http://www.w3.org/2000/svg"
   xmlns="http://www.w3.org/2000/svg"
   xmlns:xlink="http://www.w3.org/1999/xlink"
   xmlns:sodipodi="http://inkscape.sourceforge.net/DTD/sodipodi-0.dtd"
   xmlns:inkscape="http://www.inkscape.org/namespaces/inkscape"
   inkscape:export-ydpi="90"
   inkscape:export-xdpi="90"
   inkscape:export-filename="/media/hdb2/home/vinicius/Backup/Documentos/Vinicius/tango-icon-theme-code/32x32/application-x-php.png"
   sodipodi:docname="application-x-php.svg"
   sodipodi:docbase="/media/hdb2/home/vinicius/Backup/Documentos/Vinicius/tango-icon-theme-code/32x32"
   inkscape:version="0.43"
   sodipodi:version="0.32"
   id="svg249"
   height="32"
   width="32"
   version="1.0">
  <defs
     id="defs3">
    <linearGradient
       inkscape:collect="always"
       xlink:href="#linearGradient4350"
       id="linearGradient3392"
       gradientUnits="userSpaceOnUse"
       gradientTransform="matrix(0.647511,0,0,0.647511,-1.6379,-11.30872)"
       x1="95.03125"
       y1="57.906303"
       x2="95.03125"
       y2="44.592937" />
    <linearGradient
       id="linearGradient3369">
      <stop
         style="stop-color:#ffffff;stop-opacity:1;"
         offset="0"
         id="stop3371" />
      <stop
         style="stop-color:#ffffff;stop-opacity:0.41525424;"
         offset="1"
         id="stop3373" />
    </linearGradient>
    <linearGradient
       inkscape:collect="always"
       xlink:href="#linearGradient3369"
       id="linearGradient3390"
       gradientUnits="userSpaceOnUse"
       x1="60.128986"
       y1="15.048645"
       x2="60.128986"
       y2="27.844255" />
    <linearGradient
       inkscape:collect="always"
       id="linearGradient4350">
      <stop
         style="stop-color:#ffffff;stop-opacity:1;"
         offset="0"
         id="stop4352" />
      <stop
         style="stop-color:#ffffff;stop-opacity:0;"
         offset="1"
         id="stop4354" />
    </linearGradient>
    <linearGradient
       inkscape:collect="always"
       xlink:href="#linearGradient4350"
       id="linearGradient3388"
       gradientUnits="userSpaceOnUse"
       gradientTransform="matrix(0.610648,0,0,0.608553,1.862,-9.433891)"
       x1="97.728783"
       y1="54.517036"
       x2="97.728783"
       y2="42.400635" />
    <linearGradient
       id="linearGradient4114"
       inkscape:collect="always">
      <stop
         id="stop4116"
         offset="0"
         style="stop-color:#000000;stop-opacity:1;" />
      <stop
         id="stop4118"
         offset="1"
         style="stop-color:#000000;stop-opacity:0;" />
    </linearGradient>
    <radialGradient
       inkscape:collect="always"
       xlink:href="#linearGradient4114"
       id="radialGradient3386"
       gradientUnits="userSpaceOnUse"
       gradientTransform="scale(1.64399,0.608276)"
       cx="15.115514"
       cy="63.965388"
       fx="15.115514"
       fy="63.965388"
       r="12.289036" />
    <linearGradient
       id="linearGradient3702">
      <stop
         style="stop-color:black;stop-opacity:0;"
         offset="0"
         id="stop3704" />
      <stop
         id="stop3710"
         offset="0.5"
         style="stop-color:black;stop-opacity:1;" />
      <stop
         style="stop-color:black;stop-opacity:0;"
         offset="1"
         id="stop3706" />
    </linearGradient>
    <linearGradient
       inkscape:collect="always"
       id="linearGradient3688">
      <stop
         style="stop-color:black;stop-opacity:1;"
         offset="0"
         id="stop3690" />
      <stop
         style="stop-color:black;stop-opacity:0;"
         offset="1"
         id="stop3692" />
    </linearGradient>
    <linearGradient
       inkscape:collect="always"
       id="linearGradient4790">
      <stop
         style="stop-color:#000000;stop-opacity:1;"
         offset="0"
         id="stop4792" />
      <stop
         style="stop-color:#000000;stop-opacity:0;"
         offset="1"
         id="stop4794" />
    </linearGradient>
    <linearGradient
       inkscape:collect="always"
       id="linearGradient2251">
      <stop
         style="stop-color:#ffffff;stop-opacity:1;"
         offset="0"
         id="stop2253" />
      <stop
         style="stop-color:#ffffff;stop-opacity:0;"
         offset="1"
         id="stop2255" />
    </linearGradient>
    <linearGradient
       id="linearGradient15662">
      <stop
         id="stop15664"
         offset="0.0000000"
         style="stop-color:#ffffff;stop-opacity:1.0000000;" />
      <stop
         id="stop15666"
         offset="1.0000000"
         style="stop-color:#f8f8f8;stop-opacity:1.0000000;" />
    </linearGradient>
    <linearGradient
       id="linearGradient269">
      <stop
         id="stop270"
         offset="0.0000000"
         style="stop-color:#a3a3a3;stop-opacity:1.0000000;" />
      <stop
         id="stop271"
         offset="1"
         style="stop-color:#8a8a8a;stop-opacity:1;" />
    </linearGradient>
    <linearGradient
       id="linearGradient259">
      <stop
         id="stop260"
         offset="0.0000000"
         style="stop-color:#fafafa;stop-opacity:1.0000000;" />
      <stop
         id="stop261"
         offset="1.0000000"
         style="stop-color:#bbbbbb;stop-opacity:1.0000000;" />
    </linearGradient>
    <radialGradient
       inkscape:collect="always"
       xlink:href="#linearGradient3688"
       id="radialGradient1941"
       gradientUnits="userSpaceOnUse"
       gradientTransform="matrix(2.003784,0,0,1.4,27.98813,-17.4)"
       cx="4.9929786"
       cy="43.5"
       fx="4.9929786"
       fy="43.5"
       r="2.5" />
    <radialGradient
       inkscape:collect="always"
       xlink:href="#linearGradient3688"
       id="radialGradient1943"
       gradientUnits="userSpaceOnUse"
       gradientTransform="matrix(2.003784,0,0,1.4,-20.01187,-104.4)"
       cx="4.9929786"
       cy="43.5"
       fx="4.9929786"
       fy="43.5"
       r="2.5" />
    <linearGradient
       inkscape:collect="always"
       xlink:href="#linearGradient3702"
       id="linearGradient1945"
       gradientUnits="userSpaceOnUse"
       x1="25.058096"
       y1="47.027729"
       x2="25.058096"
       y2="39.999443" />
    <linearGradient
       inkscape:collect="always"
       xlink:href="#linearGradient2251"
       id="linearGradient1966"
       gradientUnits="userSpaceOnUse"
       gradientTransform="matrix(-1.92714e-2,-0.573924,0.587597,-1.882297e-2,2.420403,26.69984)"
       x1="33.396004"
       y1="36.921333"
       x2="34.170048"
       y2="38.070381" />
    <radialGradient
       inkscape:collect="always"
       xlink:href="#linearGradient259"
       id="radialGradient1969"
       gradientUnits="userSpaceOnUse"
       gradientTransform="matrix(9.897811e-2,6.749534e-3,-7.368489e-3,0.108596,16.59403,8.644111)"
       cx="30.653816"
       cy="14.9373"
       fx="30.653816"
       fy="14.9373"
       r="86.70845" />
    <radialGradient
       inkscape:collect="always"
       xlink:href="#linearGradient269"
       id="radialGradient1971"
       gradientUnits="userSpaceOnUse"
       gradientTransform="matrix(0.221324,0,0,0.236656,13.2883,6.480565)"
       cx="31.863327"
       cy="2.3667307"
       fx="31.863327"
       fy="2.3667307"
       r="37.751713" />
    <radialGradient
       inkscape:collect="always"
       xlink:href="#linearGradient4790"
       id="radialGradient1974"
       gradientUnits="userSpaceOnUse"
       gradientTransform="matrix(1.163103,0,0,0.855889,-17.72172,-2.318907)"
       cx="37.030354"
       cy="12.98915"
       fx="37.030354"
       fy="12.98915"
       r="4.2929163" />
    <radialGradient
       inkscape:collect="always"
       xlink:href="#linearGradient15662"
       id="radialGradient1977"
       gradientUnits="userSpaceOnUse"
       gradientTransform="matrix(0.61826,0,0,0.664962,2.818403,0.964783)"
       cx="8.1435566"
       cy="7.2678967"
       fx="8.1435566"
       fy="7.2678967"
       r="38.158695" />
    <radialGradient
       inkscape:collect="always"
       xlink:href="#linearGradient259"
       id="radialGradient1980"
       gradientUnits="userSpaceOnUse"
       gradientTransform="matrix(0.631936,0,0,0.686693,0.21009,0.105241)"
       cx="33.966679"
       cy="35.736916"
       fx="33.966679"
       fy="35.736916"
       r="86.70845" />
    <radialGradient
       inkscape:collect="always"
       xlink:href="#linearGradient269"
       id="radialGradient1982"
       gradientUnits="userSpaceOnUse"
       gradientTransform="matrix(0.637055,0,0,0.681177,2.416486,0.531615)"
       cx="8.824419"
       cy="3.7561285"
       fx="8.824419"
       fy="3.7561285"
       r="37.751713" />
    <radialGradient
       inkscape:collect="always"
       xlink:href="#linearGradient4114"
       id="radialGradient1666"
       gradientUnits="userSpaceOnUse"
       gradientTransform="scale(1.64399,0.608276)"
       cx="15.115514"
       cy="63.965388"
       fx="15.115514"
       fy="63.965388"
       r="12.289036" />
    <linearGradient
       inkscape:collect="always"
       xlink:href="#linearGradient4350"
       id="linearGradient1668"
       gradientUnits="userSpaceOnUse"
       gradientTransform="matrix(0.610648,0,0,0.608553,1.862,-9.433891)"
       x1="97.728783"
       y1="54.517036"
       x2="97.728783"
       y2="42.400635" />
    <linearGradient
       inkscape:collect="always"
       xlink:href="#linearGradient3369"
       id="linearGradient1670"
       gradientUnits="userSpaceOnUse"
       x1="60.128986"
       y1="15.048645"
       x2="60.128986"
       y2="27.844255" />
    <linearGradient
       inkscape:collect="always"
       xlink:href="#linearGradient4350"
       id="linearGradient1672"
       gradientUnits="userSpaceOnUse"
       gradientTransform="matrix(0.647511,0,0,0.647511,-1.6379,-11.30872)"
       x1="95.03125"
       y1="57.906303"
       x2="95.03125"
       y2="44.592937" />
  </defs>
  <sodipodi:namedview
     inkscape:window-y="0"
     inkscape:window-x="0"
     inkscape:window-height="714"
     inkscape:window-width="1014"
     inkscape:document-units="px"
     inkscape:grid-bbox="true"
     showgrid="false"
     inkscape:current-layer="layer2"
     inkscape:cy="5.4346208"
     inkscape:cx="6.3211345"
     inkscape:zoom="2.8284271"
     inkscape:pageshadow="2"
     inkscape:pageopacity="0.0"
     borderopacity="1"
     bordercolor="#666"
     pagecolor="#ffffff"
     id="base"
     inkscape:showpageshadow="false"
     width="32px"
     height="32px"
     showborder="false" />
  <metadata
     id="metadata4">
    <rdf:RDF>
      <cc:Work
         rdf:about="">
        <dc:format>image/svg+xml</dc:format>
        <dc:type
           rdf:resource="http://purl.org/dc/dcmitype/StillImage" />
        <dc:title>PHP script</dc:title>
        <dc:subject>
          <rdf:Bag>
            <rdf:li>PHP</rdf:li>
            <rdf:li>script</rdf:li>
            <rdf:li>web</rdf:li>
            <rdf:li>server-side</rdf:li>
            <rdf:li>programing language</rdf:li>
          </rdf:Bag>
        </dc:subject>
        <cc:license
           rdf:resource="http://creativecommons.org/licenses/GPL/2.0/" />
        <dc:creator>
          <cc:Agent>
            <dc:title>Vinicius Depizzol</dc:title>
          </cc:Agent>
        </dc:creator>
        <dc:source>vdepizzol@gmail.com</dc:source>
        <dc:contributor>
          <cc:Agent>
            <dc:title>Paper sheet by Jakub Steiner</dc:title>
          </cc:Agent>
        </dc:contributor>
        <dc:date>2007-02-16</dc:date>
      </cc:Work>
      <cc:License
         rdf:about="http://creativecommons.org/licenses/GPL/2.0/">
        <cc:permits
           rdf:resource="http://web.resource.org/cc/Reproduction" />
        <cc:permits
           rdf:resource="http://web.resource.org/cc/Distribution" />
        <cc:requires
           rdf:resource="http://web.resource.org/cc/Notice" />
        <cc:permits
           rdf:resource="http://web.resource.org/cc/DerivativeWorks" />
        <cc:requires
           rdf:resource="http://web.resource.org/cc/ShareAlike" />
        <cc:requires
           rdf:resource="http://web.resource.org/cc/SourceCode" />
      </cc:License>
    </rdf:RDF>
  </metadata>
  <g
     inkscape:groupmode="layer"
     id="layer6"
     inkscape:label="Shadow" />
  <g
     style="display:inline"
     inkscape:groupmode="layer"
     inkscape:label="Base"
     id="layer1" />
  <g
     inkscape:groupmode="layer"
     id="layer5"
     inkscape:label="Text"
     style="display:inline">
    <g
       id="g3712"
       style="opacity:0.4"
       transform="matrix(0.701755,0,0,0.857142,-0.842106,-8.952364)">
      <rect
         y="40"
         x="38"
         height="7"
         width="5"
         id="rect2801"
         style="opacity:1;fill:url(#radialGradient1941);fill-opacity:1;stroke:none;stroke-width:1;stroke-linecap:round;stroke-linejoin:miter;stroke-miterlimit:4;stroke-dasharray:none;stroke-opacity:1" />
      <rect
         transform="scale(-1,-1)"
         y="-47"
         x="-10"
         height="7"
         width="5"
         id="rect3696"
         style="opacity:1;fill:url(#radialGradient1943);fill-opacity:1;stroke:none;stroke-width:1;stroke-linecap:round;stroke-linejoin:miter;stroke-miterlimit:4;stroke-dasharray:none;stroke-opacity:1" />
      <rect
         y="40"
         x="10"
         height="7.0000005"
         width="28"
         id="rect3700"
         style="opacity:1;fill:url(#linearGradient1945);fill-opacity:1;stroke:none;stroke-width:1;stroke-linecap:round;stroke-linejoin:miter;stroke-miterlimit:4;stroke-dasharray:none;stroke-opacity:1" />
    </g>
    <path
       style="color:black;fill:url(#radialGradient1980);fill-opacity:1;fill-rule:nonzero;stroke:url(#radialGradient1982);stroke-width:1.00000072;stroke-linecap:round;stroke-linejoin:round;marker:none;marker-start:none;marker-mid:none;marker-end:none;stroke-miterlimit:4;stroke-dashoffset:0;stroke-opacity:1;visibility:visible;display:block;overflow:visible"
       d="M 5.310745,2.5103061 L 20.737197,2.5000005 C 20.737197,2.5000005 27.5,8.7946899 27.5,9.2145506 L 27.5,28.742123 C 27.5,29.161983 27.162828,29.499993 26.744008,29.499993 L 5.310745,29.499993 C 4.8919257,29.499993 4.5547534,29.161983 4.5547534,28.742123 L 4.5547534,3.2681773 C 4.5547534,2.8483168 4.8919257,2.5103061 5.310745,2.5103061 z "
       id="rect15391"
       sodipodi:nodetypes="ccccccccc" />
    <path
       style="color:black;fill:none;fill-opacity:1;fill-rule:nonzero;stroke:url(#radialGradient1977);stroke-width:1.00000012;stroke-linecap:round;stroke-linejoin:round;marker:none;marker-start:none;marker-mid:none;marker-end:none;stroke-miterlimit:4;stroke-dashoffset:0;stroke-opacity:1;visibility:visible;display:block;overflow:visible"
       d="M 5.6671808,3.4999984 L 21.551196,3.4999984 C 21.551196,3.4999984 26.499993,8.6647089 26.499993,8.7178748 L 26.499993,28.480219 C 26.499993,28.533385 26.457547,28.576186 26.404822,28.576186 L 5.6671808,28.576186 C 5.6144565,28.576186 5.5720107,28.533385 5.5720107,28.480219 L 5.5720107,3.5959654 C 5.5720107,3.5427997 5.6144565,3.4999984 5.6671808,3.4999984 z "
       id="rect15660"
       sodipodi:nodetypes="ccccccccc" />
    <path
       inkscape:r_cy="true"
       inkscape:r_cx="true"
       style="opacity:0.35714285;color:black;fill:url(#radialGradient1974);fill-opacity:1;fill-rule:evenodd;stroke:none;stroke-width:1.00000024;stroke-linecap:butt;stroke-linejoin:miter;marker:none;marker-start:none;marker-mid:none;marker-end:none;stroke-miterlimit:4;stroke-dasharray:none;stroke-dashoffset:0;stroke-opacity:1;visibility:visible;display:inline;overflow:visible"
       d="M 27.323473,9.240968 C 26.837898,8.3432155 23.254826,6.7539594 21.389767,6.220942 C 21.502773,7.269573 21.307915,10.432965 21.307915,10.432965 C 22.682915,9.5162974 26.803003,9.1328919 27.323473,9.240968 z "
       id="path5348"
       sodipodi:nodetypes="cccc" />
    <path
       style="color:black;fill:url(#radialGradient1969);fill-opacity:1;fill-rule:nonzero;stroke:url(#radialGradient1971);stroke-width:1.00000095;stroke-linecap:butt;stroke-linejoin:round;marker:none;marker-start:none;marker-mid:none;marker-end:none;stroke-miterlimit:4;stroke-dasharray:none;stroke-dashoffset:0;stroke-opacity:1;visibility:visible;display:block;overflow:visible"
       d="M 27.50257,9.260921 C 27.511353,8.3144143 23.264343,2.4338801 20.673998,2.5030914 C 21.32318,2.6589282 21.841783,6.6285296 20.914603,8.509648 C 22.749322,8.509648 26.859507,8.0180959 27.50257,9.260921 z "
       id="path2210"
       sodipodi:nodetypes="cccc"
       inkscape:r_cx="true"
       inkscape:r_cy="true" />
    <path
       sodipodi:nodetypes="cccc"
       id="path2247"
       d="M 25.837661,7.4765493 C 25.409447,6.7032728 23.392805,4.5654531 22.262495,3.8551134 C 22.40297,4.6738812 22.578236,5.9696806 22.216294,7.4410802 C 22.216294,7.4410802 25.378675,7.3834583 25.837661,7.4765493 z "
       style="color:black;fill:none;fill-opacity:1;fill-rule:evenodd;stroke:url(#linearGradient1966);stroke-width:1.00000107;stroke-linecap:butt;stroke-linejoin:miter;marker:none;marker-start:none;marker-mid:none;marker-end:none;stroke-miterlimit:4;stroke-dasharray:none;stroke-dashoffset:0;stroke-opacity:1;visibility:visible;display:inline;overflow:visible"
       inkscape:r_cx="true"
       inkscape:r_cy="true" />
    <rect
       style="opacity:0.2;fill:black;fill-opacity:1;stroke:none;stroke-width:1;stroke-linecap:round;stroke-linejoin:miter;stroke-miterlimit:4;stroke-dasharray:none;stroke-dashoffset:1.20000057;stroke-opacity:1;display:inline"
       id="rect1930"
       width="8.96875"
       height="1"
       x="9"
       y="9"
       rx="0.5"
       ry="0.5" />
    <rect
       style="opacity:0.2;fill:black;fill-opacity:1;stroke:none;stroke-width:1;stroke-linecap:round;stroke-linejoin:miter;stroke-miterlimit:4;stroke-dasharray:none;stroke-dashoffset:1.20000057;stroke-opacity:1;display:inline"
       id="rect1932"
       width="8.96875"
       height="1"
       x="9"
       y="11"
       rx="0.5"
       ry="0.5" />
    <rect
       style="opacity:0.2;fill:black;fill-opacity:1;stroke:none;stroke-width:1;stroke-linecap:round;stroke-linejoin:miter;stroke-miterlimit:4;stroke-dasharray:none;stroke-dashoffset:1.20000057;stroke-opacity:1;display:inline"
       id="rect1934"
       width="14"
       height="1"
       x="9"
       y="13"
       rx="0.5"
       ry="0.5" />
    <rect
       style="opacity:0.2;fill:black;fill-opacity:1;stroke:none;stroke-width:1;stroke-linecap:round;stroke-linejoin:miter;stroke-miterlimit:4;stroke-dasharray:none;stroke-dashoffset:1.20000057;stroke-opacity:1;display:inline"
       id="rect1936"
       width="14"
       height="1"
       x="9"
       y="15"
       rx="0.5"
       ry="0.5" />
    <rect
       style="opacity:0.2;fill:black;fill-opacity:1;stroke:none;stroke-width:1;stroke-linecap:round;stroke-linejoin:miter;stroke-miterlimit:4;stroke-dasharray:none;stroke-dashoffset:1.20000057;stroke-opacity:1;display:inline"
       id="rect1938"
       width="14"
       height="1"
       x="9"
       y="17"
       rx="0.5"
       ry="0.5" />
    <rect
       style="opacity:0.2;fill:black;fill-opacity:1;stroke:none;stroke-width:1;stroke-linecap:round;stroke-linejoin:miter;stroke-miterlimit:4;stroke-dasharray:none;stroke-dashoffset:1.20000057;stroke-opacity:1;display:inline"
       id="rect1942"
       width="14"
       height="1"
       x="9"
       y="19"
       rx="0.5"
       ry="0.5" />
    <rect
       style="opacity:0.2;fill:black;fill-opacity:1;stroke:none;stroke-width:1;stroke-linecap:round;stroke-linejoin:miter;stroke-miterlimit:4;stroke-dasharray:none;stroke-dashoffset:1.20000057;stroke-opacity:1;display:inline"
       id="rect1944"
       width="14"
       height="1"
       x="9"
       y="21"
       rx="0.5"
       ry="0.5" />
    <rect
       style="opacity:0.2;fill:black;fill-opacity:1;stroke:none;stroke-width:1;stroke-linecap:round;stroke-linejoin:miter;stroke-miterlimit:4;stroke-dasharray:none;stroke-dashoffset:1.20000057;stroke-opacity:1;display:inline"
       id="rect1948"
       width="8"
       height="1"
       x="9"
       y="23"
       rx="0.5"
       ry="0.5" />
    <rect
       style="opacity:0.2;fill:black;fill-opacity:1;stroke:none;stroke-width:1;stroke-linecap:round;stroke-linejoin:miter;stroke-miterlimit:4;stroke-dasharray:none;stroke-dashoffset:1.20000057;stroke-opacity:1;display:inline"
       id="rect2857"
       width="8.96875"
       height="1"
       x="9"
       y="7"
       rx="0.5"
       ry="0.5" />
  </g>
  <g
     inkscape:groupmode="layer"
     id="layer2"
     inkscape:label="emblem">
    <g
       id="g3377"
       transform="translate(1.7e-4,0.999993)">
      <g
         id="g1657"
         transform="translate(-40,0)">
        <path
           transform="matrix(0.506561,0,0,0.54581,48.178,5.68329)"
           d="M 45.052803 38.908627 A 20.203051 7.4751287 0 1 1  4.6467018,38.908627 A 20.203051 7.4751287 0 1 1  45.052803 38.908627 z"
           sodipodi:ry="7.4751287"
           sodipodi:rx="20.203051"
           sodipodi:cy="38.908627"
           sodipodi:cx="24.849752"
           id="path3827"
           style="opacity:0.83257919;fill:url(#radialGradient1666);fill-opacity:1;stroke:none;stroke-opacity:1"
           sodipodi:type="arc" />
        <path
           sodipodi:type="arc"
           style="fill:#5d65b4;fill-opacity:1;fill-rule:nonzero;stroke:#3d4384;stroke-width:1.53422523;stroke-linecap:round;stroke-linejoin:round;stroke-miterlimit:4;stroke-dasharray:none;stroke-dashoffset:0;stroke-opacity:1"
           id="path2928"
           sodipodi:cx="97.492348"
           sodipodi:cy="33.06237"
           sodipodi:rx="17.500893"
           sodipodi:ry="9.9878836"
           d="M 114.99324 33.06237 A 17.500893 9.9878836 0 1 1  79.991455,33.06237 A 17.500893 9.9878836 0 1 1  114.99324 33.06237 z"
           transform="matrix(0.60212,0,0,0.603767,2.297779,2.544669)" />
        <path
           transform="matrix(0.545281,0,0,0.505406,7.873066,5.757726)"
           d="M 114.99324 33.06237 A 17.500893 9.9878836 0 1 1  79.991455,33.06237 A 17.500893 9.9878836 0 1 1  114.99324 33.06237 z"
           sodipodi:ry="9.9878836"
           sodipodi:rx="17.500893"
           sodipodi:cy="33.06237"
           sodipodi:cx="97.492348"
           id="path2930"
           style="fill:none;fill-opacity:1;fill-rule:nonzero;stroke:#9ca1d2;stroke-width:1.90488839;stroke-linecap:round;stroke-linejoin:round;stroke-miterlimit:4;stroke-dasharray:none;stroke-dashoffset:0;stroke-opacity:1"
           sodipodi:type="arc" />
        <path
           style="opacity:0.69098666;fill:url(#linearGradient1668);fill-opacity:1;fill-rule:evenodd;stroke:none;stroke-width:1px;stroke-linecap:butt;stroke-linejoin:miter;stroke-opacity:1"
           d="M 60.961198,17.000133 C 55.446109,17.038242 51.000001,19.500952 51,22.515145 C 51,23.120358 51.183548,23.700906 51.515235,24.245718 C 54.024304,21.792413 58.069397,22.419305 61.400101,22.819422 C 64.742795,23.220978 68.606339,23.555069 70.893766,21.506056 C 70.89829,21.501997 70.888923,21.490691 70.893766,21.487038 C 69.942003,18.986629 65.964311,17.000133 61.094778,17.000133 C 61.051222,17.000133 61.004624,16.999833 60.961198,17.000133 z "
           id="path2932"
           sodipodi:nodetypes="cscsscsc" />
        <path
           style="opacity:0.84978536;fill:#000000;fill-opacity:1;fill-rule:evenodd;stroke:url(#linearGradient1670);stroke-width:2;stroke-linecap:round;stroke-linejoin:round;stroke-miterlimit:4;stroke-dasharray:none;stroke-opacity:1"
           d="M 59.976822,18.630773 L 59.329311,21.868328 C 59.38669,20.832954 58.619747,20.087673 57.852176,20.087673 L 55.181193,20.087673 L 54.128988,25.571281 L 55.444245,25.591516 L 55.727531,24.175086 L 57.143961,24.175086 C 57.915224,24.175086 58.841763,23.568668 59.207902,22.475369 L 58.884147,24.175086 L 60.199403,24.175086 L 60.78621,21.099408 L 61.615834,21.099408 C 61.781094,21.100687 61.918185,21.121207 62.020528,21.160113 C 62.03965,21.167982 62.065008,21.190652 62.081232,21.200582 C 62.084357,21.202655 62.098464,21.19842 62.101467,21.200582 C 62.104347,21.202835 62.118946,21.218472 62.121702,21.220817 C 62.124332,21.223255 62.139433,21.238518 62.141936,21.241051 C 62.144181,21.243781 62.160057,21.258457 62.162171,21.261286 C 62.164153,21.264218 62.160324,21.278486 62.162171,21.281521 C 62.163883,21.284661 62.180831,21.298508 62.182406,21.301756 C 62.183843,21.305111 62.181108,21.318525 62.182406,21.32199 C 62.185877,21.332721 62.200463,21.350696 62.202641,21.36246 C 62.2038,21.370539 62.202076,21.394368 62.202641,21.402929 C 62.202904,21.411736 62.202988,21.434091 62.202641,21.443399 C 62.201984,21.452962 62.203925,21.473783 62.202641,21.483868 C 62.200238,21.499393 62.186263,21.527824 62.182406,21.544572 L 61.696773,24.175086 L 63.032264,24.175086 L 63.517897,21.524338 C 63.616673,21.0117 63.515558,20.673278 63.31555,20.451897 C 63.011658,20.128752 62.483733,20.054573 62.060998,20.047203 L 60.968323,20.047203 L 61.251609,18.630773 L 59.976822,18.630773 z M 64.145174,20.087673 L 63.092968,25.571281 L 64.408225,25.591516 L 64.671276,24.175086 L 66.107941,24.175086 C 66.93062,24.175086 67.92507,23.489491 68.232587,22.252787 C 68.540106,21.016083 67.67799,20.087673 66.816157,20.087673 L 64.145174,20.087673 z M 56.294103,21.079174 L 57.103492,21.079174 C 57.294386,21.079174 57.466277,21.110135 57.589125,21.160113 C 57.611915,21.170055 57.649707,21.188974 57.670064,21.200582 C 57.694751,21.215604 57.730094,21.243756 57.751003,21.261286 C 57.761479,21.270984 57.781921,21.291319 57.791472,21.301756 C 57.794553,21.305316 57.808727,21.318349 57.811707,21.32199 C 57.814586,21.325712 57.829163,21.338424 57.831941,21.342225 C 57.858722,21.381038 57.875632,21.437297 57.892646,21.483868 C 57.895858,21.493333 57.910046,21.514573 57.91288,21.524338 C 57.967142,21.727554 57.93941,21.999194 57.852176,22.313492 C 57.7967,22.51337 57.722414,22.679436 57.629594,22.799125 C 57.621746,22.808852 57.597193,22.830352 57.589125,22.839594 C 57.572771,22.8576 57.545614,22.884153 57.528421,22.900298 C 57.520098,22.907576 57.496521,22.933855 57.487951,22.940768 C 57.227143,23.142772 56.851379,23.183584 56.354807,23.183584 C 55.533301,23.183584 55.889408,23.183584 55.889408,23.183584 L 56.294103,21.079174 z M 65.258083,21.079174 L 66.067472,21.079174 C 66.358359,21.079174 66.581171,21.149093 66.714983,21.261286 C 66.72546,21.270984 66.745902,21.291319 66.755452,21.301756 C 66.78935,21.340917 66.814506,21.394686 66.836391,21.443399 C 66.840177,21.452409 66.853223,21.474554 66.856626,21.483868 C 66.859838,21.493333 66.874027,21.514573 66.876861,21.524338 C 66.931122,21.727554 66.903391,21.999194 66.816157,22.313492 C 66.753747,22.538355 66.662029,22.714829 66.553105,22.839594 C 66.544928,22.848597 66.521026,22.871531 66.512636,22.880064 C 66.508389,22.884214 66.496699,22.896262 66.492401,22.900298 C 66.480103,22.911493 66.464786,22.930399 66.451932,22.940768 C 66.191124,23.142772 65.81536,23.183584 65.318787,23.183584 C 64.497282,23.183584 64.853389,23.183584 64.853389,23.183584 L 65.258083,21.079174 z "
           id="path2934" />
        <path
           style="fill:#000000;fill-opacity:1;fill-rule:evenodd;stroke:none;stroke-width:1.99168754;stroke-linecap:butt;stroke-linejoin:miter;stroke-miterlimit:4;stroke-dasharray:none;stroke-opacity:1"
           d="M 59.976822,18.630773 L 59.329311,21.868328 C 59.38669,20.832954 58.619747,20.087673 57.852176,20.087673 L 55.181193,20.087673 L 54.128988,25.571281 L 55.444245,25.591516 L 55.727531,24.175086 L 57.143961,24.175086 C 57.915224,24.175086 58.841763,23.568668 59.207902,22.475369 L 58.884147,24.175086 L 60.199403,24.175086 L 60.78621,21.099408 L 61.615834,21.099408 C 61.921719,21.100687 62.237044,21.289543 62.182406,21.544572 L 61.696773,24.175086 L 63.032264,24.175086 L 63.517897,21.524338 C 63.616673,21.0117 63.515558,20.673278 63.31555,20.451897 C 63.011658,20.128752 62.483733,20.054573 62.060998,20.047203 L 60.968323,20.047203 L 61.251609,18.630773 L 59.976822,18.630773 z M 64.145174,20.087673 L 63.092968,25.571281 L 64.408225,25.591516 L 64.671276,24.175086 L 66.107941,24.175086 C 66.93062,24.175086 67.92507,23.489491 68.232587,22.252787 C 68.540106,21.016083 67.67799,20.087673 66.816157,20.087673 L 64.145174,20.087673 z M 56.294103,21.079174 L 57.103492,21.079174 C 57.294386,21.079174 57.466277,21.110135 57.589125,21.160113 C 57.611915,21.170055 57.649707,21.188974 57.670064,21.200582 C 57.694751,21.215604 57.730094,21.243756 57.751003,21.261286 C 57.761479,21.270984 57.781921,21.291319 57.791472,21.301756 C 57.794553,21.305316 57.808727,21.318349 57.811707,21.32199 C 57.814586,21.325712 57.829163,21.338424 57.831941,21.342225 C 57.858722,21.381038 57.875632,21.437297 57.892646,21.483868 C 57.895858,21.493333 57.910046,21.514573 57.91288,21.524338 C 57.967142,21.727554 57.93941,21.999194 57.852176,22.313492 C 57.7967,22.51337 57.722414,22.679436 57.629594,22.799125 C 57.621746,22.808852 57.597193,22.830352 57.589125,22.839594 C 57.572771,22.8576 57.545614,22.884153 57.528421,22.900298 C 57.520098,22.907576 57.496521,22.933855 57.487951,22.940768 C 57.227143,23.142772 56.851379,23.183584 56.354807,23.183584 C 55.533301,23.183584 55.889408,23.183584 55.889408,23.183584 L 56.294103,21.079174 z M 65.258083,21.079174 L 66.067472,21.079174 C 66.358359,21.079174 66.581171,21.149093 66.714983,21.261286 C 66.72546,21.270984 66.745902,21.291319 66.755452,21.301756 C 66.78935,21.340917 66.814506,21.394686 66.836391,21.443399 C 66.840177,21.452409 66.853223,21.474554 66.856626,21.483868 C 66.859838,21.493333 66.874027,21.514573 66.876861,21.524338 C 66.931122,21.727554 66.903391,21.999194 66.816157,22.313492 C 66.753747,22.538355 66.662029,22.714829 66.553105,22.839594 C 66.544928,22.848597 66.521026,22.871531 66.512636,22.880064 C 66.508389,22.884214 66.496699,22.896262 66.492401,22.900298 C 66.480103,22.911493 66.464786,22.930399 66.451932,22.940768 C 66.191124,23.142772 65.81536,23.183584 65.318787,23.183584 C 64.497282,23.183584 64.853389,23.183584 64.853389,23.183584 L 65.258083,21.079174 z "
           id="path2936"
           sodipodi:nodetypes="cccccccccccccccccscccccccccsccccssssssssssssssccccssssssssssscc" />
        <path
           style="opacity:0.12217198;fill:url(#linearGradient1672);fill-opacity:1;fill-rule:evenodd;stroke:none;stroke-width:1.99168754;stroke-linecap:butt;stroke-linejoin:miter;stroke-miterlimit:4;stroke-dasharray:none;stroke-opacity:1"
           d="M 59.97682,18.638665 L 59.329309,21.815515 C 59.360633,20.805966 58.607753,20.095564 57.852175,20.095564 L 55.181192,20.095564 L 54.675324,22.766547 C 55.106494,22.692773 55.542807,22.648514 55.990581,22.624904 L 56.294101,21.087066 L 57.10349,21.087066 C 57.292964,21.087065 57.463491,21.119337 57.589123,21.168004 C 57.605104,21.174619 57.635087,21.18083 57.649828,21.188239 C 57.668921,21.19847 57.693731,21.217083 57.710532,21.228709 C 57.717654,21.232027 57.74403,21.245526 57.751001,21.248943 C 57.755047,21.252487 57.767422,21.265361 57.771236,21.269178 C 57.774847,21.27322 57.788033,21.285194 57.791471,21.289413 C 57.804647,21.306796 57.819889,21.332651 57.83194,21.350117 C 57.835474,21.357161 57.84874,21.383464 57.852175,21.390586 C 57.856738,21.398979 57.868236,21.422353 57.87241,21.431056 C 57.876095,21.434561 57.888984,21.447766 57.892644,21.451291 C 57.898035,21.465035 57.908344,21.497572 57.912879,21.511995 C 57.972403,21.717049 57.941536,21.99942 57.852175,22.321383 C 57.820392,22.435898 57.775588,22.537686 57.730767,22.624904 C 58.193883,22.647421 58.646418,22.681286 59.106727,22.726078 C 59.134811,22.662729 59.163699,22.611305 59.187666,22.543965 L 59.147197,22.726078 C 59.582649,22.768881 60.017208,22.83689 60.442219,22.887956 L 60.786209,21.1073 L 61.615833,21.1073 C 61.930627,21.103575 62.231935,21.25507 62.182405,21.532229 L 61.899119,23.049833 C 62.333345,23.099596 62.767712,23.153195 63.214375,23.191476 L 63.517896,21.532229 C 63.589556,21.160317 63.556799,20.872236 63.457192,20.662136 C 63.426506,20.600789 63.377185,20.529757 63.335784,20.480024 C 63.320412,20.462302 63.291669,20.435627 63.275079,20.41932 C 63.268747,20.413334 63.245242,20.389437 63.23461,20.37885 C 63.229767,20.374763 63.219296,20.362603 63.214375,20.358616 C 62.904326,20.117518 62.43819,20.061672 62.060996,20.055095 L 60.968322,20.055095 L 61.251608,18.638665 L 59.97682,18.638665 z M 64.145172,20.095564 L 63.538131,23.211711 C 64.993548,23.32292 66.477539,23.340319 67.848126,23.130772 C 68.010651,22.884659 68.150902,22.589178 68.232586,22.260679 C 68.540101,21.023977 67.677992,20.095564 66.816155,20.095564 L 64.145172,20.095564 z M 65.258082,21.087066 L 66.067471,21.087066 C 66.249272,21.087065 66.412821,21.102302 66.532869,21.14777 C 66.55583,21.158081 66.595464,21.178442 66.613808,21.188239 C 66.629076,21.196946 66.66061,21.219087 66.674512,21.228709 C 66.681635,21.232027 66.708008,21.245526 66.714982,21.248943 C 66.716924,21.251228 66.7335,21.266659 66.735216,21.269178 C 66.739671,21.277415 66.750342,21.302217 66.755451,21.309647 C 66.759077,21.313202 66.772086,21.326308 66.775686,21.329882 C 66.779318,21.333426 66.792307,21.346553 66.795921,21.350117 C 66.799456,21.357161 66.812723,21.383464 66.816155,21.390586 C 66.82072,21.398979 66.83222,21.422353 66.83639,21.431056 C 66.931885,21.643622 66.918281,21.953425 66.816155,22.321383 C 66.765306,22.504606 66.696372,22.651323 66.613808,22.766547 C 66.592375,22.7953 66.559514,22.837432 66.532869,22.867721 C 66.522354,22.879109 66.502074,22.899108 66.4924,22.90819 C 66.488301,22.911922 66.476322,22.924788 66.472165,22.928425 C 66.210752,23.148147 65.831913,23.191476 65.318786,23.191476 C 64.497282,23.191477 64.853388,23.191476 64.853388,23.191476 L 65.258082,21.087066 z "
           id="path2938"
           sodipodi:nodetypes="ccccccccsssssssssssscccccccccccssssscccccccsccccsssssssssssssssscc" />
      </g>
    </g>
  </g>
</svg>
