<?xml version="1.0" encoding="UTF-8" standalone="no"?>
<!-- Created with Inkscape (http://www.inkscape.org/) -->
<svg
   xmlns:i="http://ns.adobe.com/AdobeIllustrator/10.0/"
   xmlns:dc="http://purl.org/dc/elements/1.1/"
   xmlns:cc="http://web.resource.org/cc/"
   xmlns:rdf="http://www.w3.org/1999/02/22-rdf-syntax-ns#"
   xmlns:svg="http://www.w3.org/2000/svg"
   xmlns="http://www.w3.org/2000/svg"
   xmlns:xlink="http://www.w3.org/1999/xlink"
   xmlns:sodipodi="http://inkscape.sourceforge.net/DTD/sodipodi-0.dtd"
   xmlns:inkscape="http://www.inkscape.org/namespaces/inkscape"
   inkscape:export-ydpi="240.00000"
   inkscape:export-xdpi="240.00000"
   inkscape:export-filename="/home/jimmac/gfx/novell/pdes/trunk/docs/BIGmime-text.png"
   sodipodi:docname="text-x-python.svg"
   sodipodi:docbase="/media/hdb2/home/vinicius/Backup/Documentos/Vinicius/tango-icon-theme-code/32x32"
   inkscape:version="0.43"
   sodipodi:version="0.32"
   id="svg249"
   height="32"
   width="32"
   version="1.0">
  <defs
     id="defs3">
    <linearGradient
       id="linearGradient4114"
       inkscape:collect="always">
      <stop
         id="stop4116"
         offset="0"
         style="stop-color:#000000;stop-opacity:1;" />
      <stop
         id="stop4118"
         offset="1"
         style="stop-color:#000000;stop-opacity:0;" />
    </linearGradient>
    <radialGradient
       inkscape:collect="always"
       xlink:href="#linearGradient4114"
       id="radialGradient24190"
       gradientUnits="userSpaceOnUse"
       gradientTransform="scale(1.64399,0.608276)"
       cx="15.115514"
       cy="63.965388"
       fx="15.115514"
       fy="63.965388"
       r="12.289036" />
    <linearGradient
       inkscape:collect="always"
       xlink:href="#linearGradient4126"
       id="linearGradient9798"
       gradientUnits="userSpaceOnUse"
       gradientTransform="matrix(0.153802,0,0,0.151264,76.26115,-4.599054)"
       x1="94.693123"
       y1="112.51051"
       x2="94.693123"
       y2="64.052887" />
    <linearGradient
       id="linearGradient4126">
      <stop
         id="stop4128"
         offset="0.0000000"
         style="stop-color:#ffffff;stop-opacity:1.0000000;" />
      <stop
         id="stop4130"
         offset="1.0000000"
         style="stop-color:#ffffff;stop-opacity:0.16494845;" />
    </linearGradient>
    <linearGradient
       inkscape:collect="always"
       xlink:href="#linearGradient4126"
       id="linearGradient9796"
       gradientUnits="userSpaceOnUse"
       gradientTransform="matrix(0.153802,0,0,0.151264,71.56479,-9.200291)"
       x1="94.693123"
       y1="112.51051"
       x2="94.693123"
       y2="64.052887" />
    <linearGradient
       id="linearGradient4076">
      <stop
         id="stop4078"
         offset="0"
         style="stop-color:#ffe253;stop-opacity:1;" />
      <stop
         id="stop4080"
         offset="1"
         style="stop-color:#ffca1c;stop-opacity:1;" />
    </linearGradient>
    <linearGradient
       inkscape:collect="always"
       xlink:href="#linearGradient4076"
       id="linearGradient9794"
       gradientUnits="userSpaceOnUse"
       gradientTransform="matrix(0.153802,0,0,0.151264,71.87462,-9.482136)"
       x1="119.1908"
       y1="89.130005"
       x2="116.9651"
       y2="169.27855" />
    <linearGradient
       id="linearGradient4092">
      <stop
         id="stop4094"
         offset="0"
         style="stop-color:#3778ae;stop-opacity:1;" />
      <stop
         id="stop4096"
         offset="1"
         style="stop-color:#366c99;stop-opacity:1;" />
    </linearGradient>
    <linearGradient
       inkscape:collect="always"
       xlink:href="#linearGradient4092"
       id="linearGradient9792"
       gradientUnits="userSpaceOnUse"
       gradientTransform="matrix(0.153802,0,0,0.151264,71.56479,-9.200291)"
       x1="59.728527"
       y1="101.99766"
       x2="142.62"
       y2="101.99766" />
    <linearGradient
       id="linearGradient3702">
      <stop
         style="stop-color:black;stop-opacity:0;"
         offset="0"
         id="stop3704" />
      <stop
         id="stop3710"
         offset="0.5"
         style="stop-color:black;stop-opacity:1;" />
      <stop
         style="stop-color:black;stop-opacity:0;"
         offset="1"
         id="stop3706" />
    </linearGradient>
    <linearGradient
       inkscape:collect="always"
       id="linearGradient3688">
      <stop
         style="stop-color:black;stop-opacity:1;"
         offset="0"
         id="stop3690" />
      <stop
         style="stop-color:black;stop-opacity:0;"
         offset="1"
         id="stop3692" />
    </linearGradient>
    <linearGradient
       inkscape:collect="always"
       id="linearGradient4790">
      <stop
         style="stop-color:#000000;stop-opacity:1;"
         offset="0"
         id="stop4792" />
      <stop
         style="stop-color:#000000;stop-opacity:0;"
         offset="1"
         id="stop4794" />
    </linearGradient>
    <linearGradient
       inkscape:collect="always"
       id="linearGradient2251">
      <stop
         style="stop-color:#ffffff;stop-opacity:1;"
         offset="0"
         id="stop2253" />
      <stop
         style="stop-color:#ffffff;stop-opacity:0;"
         offset="1"
         id="stop2255" />
    </linearGradient>
    <linearGradient
       id="linearGradient15662">
      <stop
         id="stop15664"
         offset="0.0000000"
         style="stop-color:#ffffff;stop-opacity:1.0000000;" />
      <stop
         id="stop15666"
         offset="1.0000000"
         style="stop-color:#f8f8f8;stop-opacity:1.0000000;" />
    </linearGradient>
    <linearGradient
       id="linearGradient269">
      <stop
         id="stop270"
         offset="0.0000000"
         style="stop-color:#a3a3a3;stop-opacity:1.0000000;" />
      <stop
         id="stop271"
         offset="1"
         style="stop-color:#8a8a8a;stop-opacity:1;" />
    </linearGradient>
    <linearGradient
       id="linearGradient259">
      <stop
         id="stop260"
         offset="0.0000000"
         style="stop-color:#fafafa;stop-opacity:1.0000000;" />
      <stop
         id="stop261"
         offset="1.0000000"
         style="stop-color:#bbbbbb;stop-opacity:1.0000000;" />
    </linearGradient>
    <radialGradient
       inkscape:collect="always"
       xlink:href="#linearGradient3688"
       id="radialGradient1941"
       gradientUnits="userSpaceOnUse"
       gradientTransform="matrix(2.003784,0,0,1.4,27.98813,-17.4)"
       cx="4.9929786"
       cy="43.5"
       fx="4.9929786"
       fy="43.5"
       r="2.5" />
    <radialGradient
       inkscape:collect="always"
       xlink:href="#linearGradient3688"
       id="radialGradient1943"
       gradientUnits="userSpaceOnUse"
       gradientTransform="matrix(2.003784,0,0,1.4,-20.01187,-104.4)"
       cx="4.9929786"
       cy="43.5"
       fx="4.9929786"
       fy="43.5"
       r="2.5" />
    <linearGradient
       inkscape:collect="always"
       xlink:href="#linearGradient3702"
       id="linearGradient1945"
       gradientUnits="userSpaceOnUse"
       x1="25.058096"
       y1="47.027729"
       x2="25.058096"
       y2="39.999443" />
    <linearGradient
       inkscape:collect="always"
       xlink:href="#linearGradient2251"
       id="linearGradient1966"
       gradientUnits="userSpaceOnUse"
       gradientTransform="matrix(-1.92714e-2,-0.573924,0.587597,-1.882297e-2,2.420403,26.69984)"
       x1="33.396004"
       y1="36.921333"
       x2="34.170048"
       y2="38.070381" />
    <radialGradient
       inkscape:collect="always"
       xlink:href="#linearGradient259"
       id="radialGradient1969"
       gradientUnits="userSpaceOnUse"
       gradientTransform="matrix(9.897811e-2,6.749534e-3,-7.368489e-3,0.108596,16.59403,8.644111)"
       cx="30.653816"
       cy="14.9373"
       fx="30.653816"
       fy="14.9373"
       r="86.70845" />
    <radialGradient
       inkscape:collect="always"
       xlink:href="#linearGradient269"
       id="radialGradient1971"
       gradientUnits="userSpaceOnUse"
       gradientTransform="matrix(0.221324,0,0,0.236656,13.2883,6.480565)"
       cx="31.863327"
       cy="2.3667307"
       fx="31.863327"
       fy="2.3667307"
       r="37.751713" />
    <radialGradient
       inkscape:collect="always"
       xlink:href="#linearGradient4790"
       id="radialGradient1974"
       gradientUnits="userSpaceOnUse"
       gradientTransform="matrix(1.163103,0,0,0.855889,-17.72172,-2.318907)"
       cx="37.030354"
       cy="12.98915"
       fx="37.030354"
       fy="12.98915"
       r="4.2929163" />
    <radialGradient
       inkscape:collect="always"
       xlink:href="#linearGradient15662"
       id="radialGradient1977"
       gradientUnits="userSpaceOnUse"
       gradientTransform="matrix(0.61826,0,0,0.664962,2.818403,0.964783)"
       cx="8.1435566"
       cy="7.2678967"
       fx="8.1435566"
       fy="7.2678967"
       r="38.158695" />
    <radialGradient
       inkscape:collect="always"
       xlink:href="#linearGradient259"
       id="radialGradient1980"
       gradientUnits="userSpaceOnUse"
       gradientTransform="matrix(0.631936,0,0,0.686693,0.21009,0.105241)"
       cx="33.966679"
       cy="35.736916"
       fx="33.966679"
       fy="35.736916"
       r="86.70845" />
    <radialGradient
       inkscape:collect="always"
       xlink:href="#linearGradient269"
       id="radialGradient1982"
       gradientUnits="userSpaceOnUse"
       gradientTransform="matrix(0.637055,0,0,0.681177,2.416486,0.531615)"
       cx="8.824419"
       cy="3.7561285"
       fx="8.824419"
       fy="3.7561285"
       r="37.751713" />
  </defs>
  <sodipodi:namedview
     inkscape:window-y="0"
     inkscape:window-x="0"
     inkscape:window-height="714"
     inkscape:window-width="1014"
     inkscape:document-units="px"
     inkscape:grid-bbox="true"
     showgrid="false"
     inkscape:current-layer="layer5"
     inkscape:cy="19.34527"
     inkscape:cx="18.240356"
     inkscape:zoom="1"
     inkscape:pageshadow="2"
     inkscape:pageopacity="0.0"
     borderopacity="1"
     bordercolor="#666"
     pagecolor="#ffffff"
     id="base"
     inkscape:showpageshadow="false"
     width="32px"
     height="32px"
     showborder="false" />
  <metadata
     id="metadata4">
    <rdf:RDF>
      <cc:Work
         rdf:about="">
        <dc:format>image/svg+xml</dc:format>
        <dc:type
           rdf:resource="http://purl.org/dc/dcmitype/StillImage" />
        <dc:title>Python script</dc:title>
        <dc:subject>
          <rdf:Bag>
            <rdf:li>Python</rdf:li>
            <rdf:li>script</rdf:li>
            <rdf:li>programing language</rdf:li>
          </rdf:Bag>
        </dc:subject>
        <cc:license
           rdf:resource="http://creativecommons.org/licenses/GPL/2.0/" />
        <dc:creator>
          <cc:Agent>
            <dc:title>Vinicius Depizzol</dc:title>
          </cc:Agent>
        </dc:creator>
        <dc:source>vdepizzol@gmail.com</dc:source>
        <dc:contributor>
          <cc:Agent>
            <dc:title>Paper sheet by Jakub Steiner</dc:title>
          </cc:Agent>
        </dc:contributor>
        <dc:date>2007-02-16</dc:date>
      </cc:Work>
      <cc:License
         rdf:about="http://creativecommons.org/licenses/GPL/2.0/">
        <cc:permits
           rdf:resource="http://web.resource.org/cc/Reproduction" />
        <cc:permits
           rdf:resource="http://web.resource.org/cc/Distribution" />
        <cc:requires
           rdf:resource="http://web.resource.org/cc/Notice" />
        <cc:permits
           rdf:resource="http://web.resource.org/cc/DerivativeWorks" />
        <cc:requires
           rdf:resource="http://web.resource.org/cc/ShareAlike" />
        <cc:requires
           rdf:resource="http://web.resource.org/cc/SourceCode" />
      </cc:License>
    </rdf:RDF>
  </metadata>
  <g
     inkscape:groupmode="layer"
     id="layer6"
     inkscape:label="Shadow" />
  <g
     style="display:inline"
     inkscape:groupmode="layer"
     inkscape:label="Base"
     id="layer1" />
  <g
     inkscape:groupmode="layer"
     id="layer5"
     inkscape:label="Text"
     style="display:inline">
    <g
       id="g3712"
       style="opacity:0.4"
       transform="matrix(0.701755,0,0,0.857142,-0.842106,-8.952364)">
      <rect
         y="40"
         x="38"
         height="7"
         width="5"
         id="rect2801"
         style="opacity:1;fill:url(#radialGradient1941);fill-opacity:1;stroke:none;stroke-width:1;stroke-linecap:round;stroke-linejoin:miter;stroke-miterlimit:4;stroke-dasharray:none;stroke-opacity:1" />
      <rect
         transform="scale(-1,-1)"
         y="-47"
         x="-10"
         height="7"
         width="5"
         id="rect3696"
         style="opacity:1;fill:url(#radialGradient1943);fill-opacity:1;stroke:none;stroke-width:1;stroke-linecap:round;stroke-linejoin:miter;stroke-miterlimit:4;stroke-dasharray:none;stroke-opacity:1" />
      <rect
         y="40"
         x="10"
         height="7.0000005"
         width="28"
         id="rect3700"
         style="opacity:1;fill:url(#linearGradient1945);fill-opacity:1;stroke:none;stroke-width:1;stroke-linecap:round;stroke-linejoin:miter;stroke-miterlimit:4;stroke-dasharray:none;stroke-opacity:1" />
    </g>
    <path
       style="color:black;fill:url(#radialGradient1980);fill-opacity:1;fill-rule:nonzero;stroke:url(#radialGradient1982);stroke-width:1.00000072;stroke-linecap:round;stroke-linejoin:round;marker:none;marker-start:none;marker-mid:none;marker-end:none;stroke-miterlimit:4;stroke-dashoffset:0;stroke-opacity:1;visibility:visible;display:block;overflow:visible"
       d="M 5.310745,2.5103061 L 20.737197,2.5000005 C 20.737197,2.5000005 27.5,8.7946899 27.5,9.2145506 L 27.5,28.742123 C 27.5,29.161983 27.162828,29.499993 26.744008,29.499993 L 5.310745,29.499993 C 4.8919257,29.499993 4.5547534,29.161983 4.5547534,28.742123 L 4.5547534,3.2681773 C 4.5547534,2.8483168 4.8919257,2.5103061 5.310745,2.5103061 z "
       id="rect15391"
       sodipodi:nodetypes="ccccccccc" />
    <path
       style="color:black;fill:none;fill-opacity:1;fill-rule:nonzero;stroke:url(#radialGradient1977);stroke-width:1.00000012;stroke-linecap:round;stroke-linejoin:round;marker:none;marker-start:none;marker-mid:none;marker-end:none;stroke-miterlimit:4;stroke-dashoffset:0;stroke-opacity:1;visibility:visible;display:block;overflow:visible"
       d="M 5.6671808,3.4999984 L 21.551196,3.4999984 C 21.551196,3.4999984 26.499993,8.6647089 26.499993,8.7178748 L 26.499993,28.480219 C 26.499993,28.533385 26.457547,28.576186 26.404822,28.576186 L 5.6671808,28.576186 C 5.6144565,28.576186 5.5720107,28.533385 5.5720107,28.480219 L 5.5720107,3.5959654 C 5.5720107,3.5427997 5.6144565,3.4999984 5.6671808,3.4999984 z "
       id="rect15660"
       sodipodi:nodetypes="ccccccccc" />
    <path
       inkscape:r_cy="true"
       inkscape:r_cx="true"
       style="opacity:0.35714285;color:black;fill:url(#radialGradient1974);fill-opacity:1;fill-rule:evenodd;stroke:none;stroke-width:1.00000024;stroke-linecap:butt;stroke-linejoin:miter;marker:none;marker-start:none;marker-mid:none;marker-end:none;stroke-miterlimit:4;stroke-dasharray:none;stroke-dashoffset:0;stroke-opacity:1;visibility:visible;display:inline;overflow:visible"
       d="M 27.323473,9.240968 C 26.837898,8.3432155 23.254826,6.7539594 21.389767,6.220942 C 21.502773,7.269573 21.307915,10.432965 21.307915,10.432965 C 22.682915,9.5162974 26.803003,9.1328919 27.323473,9.240968 z "
       id="path5348"
       sodipodi:nodetypes="cccc" />
    <path
       style="color:black;fill:url(#radialGradient1969);fill-opacity:1;fill-rule:nonzero;stroke:url(#radialGradient1971);stroke-width:1.00000095;stroke-linecap:butt;stroke-linejoin:round;marker:none;marker-start:none;marker-mid:none;marker-end:none;stroke-miterlimit:4;stroke-dasharray:none;stroke-dashoffset:0;stroke-opacity:1;visibility:visible;display:block;overflow:visible"
       d="M 27.50257,9.260921 C 27.511353,8.3144143 23.264343,2.4338801 20.673998,2.5030914 C 21.32318,2.6589282 21.841783,6.6285296 20.914603,8.509648 C 22.749322,8.509648 26.859507,8.0180959 27.50257,9.260921 z "
       id="path2210"
       sodipodi:nodetypes="cccc"
       inkscape:r_cx="true"
       inkscape:r_cy="true" />
    <path
       sodipodi:nodetypes="cccc"
       id="path2247"
       d="M 25.837661,7.4765493 C 25.409447,6.7032728 23.392805,4.5654531 22.262495,3.8551134 C 22.40297,4.6738812 22.578236,5.9696806 22.216294,7.4410802 C 22.216294,7.4410802 25.378675,7.3834583 25.837661,7.4765493 z "
       style="color:black;fill:none;fill-opacity:1;fill-rule:evenodd;stroke:url(#linearGradient1966);stroke-width:1.00000107;stroke-linecap:butt;stroke-linejoin:miter;marker:none;marker-start:none;marker-mid:none;marker-end:none;stroke-miterlimit:4;stroke-dasharray:none;stroke-dashoffset:0;stroke-opacity:1;visibility:visible;display:inline;overflow:visible"
       inkscape:r_cx="true"
       inkscape:r_cy="true" />
    <rect
       style="opacity:0.2;fill:black;fill-opacity:1;stroke:none;stroke-width:1;stroke-linecap:round;stroke-linejoin:miter;stroke-miterlimit:4;stroke-dasharray:none;stroke-dashoffset:1.20000057;stroke-opacity:1;display:inline"
       id="rect1930"
       width="8.96875"
       height="1"
       x="9"
       y="9"
       rx="0.5"
       ry="0.5" />
    <rect
       style="opacity:0.2;fill:black;fill-opacity:1;stroke:none;stroke-width:1;stroke-linecap:round;stroke-linejoin:miter;stroke-miterlimit:4;stroke-dasharray:none;stroke-dashoffset:1.20000057;stroke-opacity:1;display:inline"
       id="rect1934"
       width="14"
       height="1"
       x="9"
       y="13"
       rx="0.5"
       ry="0.5" />
    <rect
       style="opacity:0.2;fill:black;fill-opacity:1;stroke:none;stroke-width:1;stroke-linecap:round;stroke-linejoin:miter;stroke-miterlimit:4;stroke-dasharray:none;stroke-dashoffset:1.20000057;stroke-opacity:1;display:inline"
       id="rect1936"
       width="14"
       height="1"
       x="9"
       y="15"
       rx="0.5"
       ry="0.5" />
    <rect
       style="opacity:0.2;fill:black;fill-opacity:1;stroke:none;stroke-width:1;stroke-linecap:round;stroke-linejoin:miter;stroke-miterlimit:4;stroke-dasharray:none;stroke-dashoffset:1.20000057;stroke-opacity:1;display:inline"
       id="rect1938"
       width="14"
       height="1"
       x="9"
       y="17"
       rx="0.5"
       ry="0.5" />
    <rect
       style="opacity:0.2;fill:black;fill-opacity:1;stroke:none;stroke-width:1;stroke-linecap:round;stroke-linejoin:miter;stroke-miterlimit:4;stroke-dasharray:none;stroke-dashoffset:1.20000057;stroke-opacity:1;display:inline"
       id="rect1942"
       width="14"
       height="1"
       x="9"
       y="19"
       rx="0.5"
       ry="0.5" />
    <rect
       style="opacity:0.2;fill:black;fill-opacity:1;stroke:none;stroke-width:1;stroke-linecap:round;stroke-linejoin:miter;stroke-miterlimit:4;stroke-dasharray:none;stroke-dashoffset:1.20000057;stroke-opacity:1;display:inline"
       id="rect1944"
       width="14"
       height="1"
       x="9"
       y="21"
       rx="0.5"
       ry="0.5" />
    <rect
       style="opacity:0.2;fill:black;fill-opacity:1;stroke:none;stroke-width:1;stroke-linecap:round;stroke-linejoin:miter;stroke-miterlimit:4;stroke-dasharray:none;stroke-dashoffset:1.20000057;stroke-opacity:1;display:inline"
       id="rect1948"
       width="8"
       height="1"
       x="9"
       y="23"
       rx="0.5"
       ry="0.5" />
    <rect
       style="opacity:0.2;fill:black;fill-opacity:1;stroke:none;stroke-width:1;stroke-linecap:round;stroke-linejoin:miter;stroke-miterlimit:4;stroke-dasharray:none;stroke-dashoffset:1.20000057;stroke-opacity:1;display:inline"
       id="rect2857"
       width="8.96875"
       height="1"
       x="9"
       y="7"
       rx="0.5"
       ry="0.5" />
    <rect
       ry="0.5"
       rx="0.5"
       y="11"
       x="9"
       height="1"
       width="14"
       id="rect4958"
       style="opacity:0.2;fill:#000000;fill-opacity:1;stroke:none;stroke-width:1;stroke-linecap:round;stroke-linejoin:miter;stroke-miterlimit:4;stroke-dasharray:none;stroke-dashoffset:1.20000057;stroke-opacity:1;display:inline" />
  </g>
  <g
     inkscape:groupmode="layer"
     id="layer4"
     inkscape:label="emblem">
    <path
       transform="matrix(0.519723,0,0,0.430594,8.585002,12.02741)"
       d="M 45.052803 38.908627 A 20.203051 7.4751287 0 1 1  4.6467018,38.908627 A 20.203051 7.4751287 0 1 1  45.052803 38.908627 z"
       sodipodi:ry="7.4751287"
       sodipodi:rx="20.203051"
       sodipodi:cy="38.908627"
       sodipodi:cx="24.849752"
       id="path4112"
       style="opacity:0.3372549;fill:url(#radialGradient24190);fill-opacity:1;stroke:none;stroke-opacity:1;display:inline"
       sodipodi:type="arc" />
    <g
       id="g9770"
       transform="translate(-68,14)">
      <path
         style="fill:url(#linearGradient9792);fill-opacity:1;stroke:none;stroke-opacity:1"
         id="path9772"
         d="M 85.19624,2.2261712 C 85.19624,1.0584155 85.51461,0.42310798 87.272565,0.1205799 C 88.466067,-0.08513872 89.996395,-0.11085302 91.423676,0.1205799 C 92.551043,0.30360914 93.5,1.1295092 93.5,2.2261712 L 93.5,6.0788572 C 93.5,7.2087968 92.578727,7.6262976 91.423676,7.6262976 L 87.272565,7.6262976 C 85.86374,7.6262976 84.67639,9.3159002 84.67639,10.651558 L 84.67639,12.5 L 83.249109,12.5 C 82.041765,12.5 81.33889,11.643848 81.043591,10.44584 C 80.645244,8.8363941 80.662162,7.8773826 81.043591,6.3360051 C 81.374265,4.9912707 82.430884,4.2818445 83.638227,4.2818445 L 85.19624,4.2818445 L 85.19624,4.2681617 L 85.19624,2.2261712 L 85.19624,2.2261712 z "
         i:knockout="Off"
         sodipodi:nodetypes="csscccccccssccccc" />
      <path
         style="fill:url(#linearGradient9794);fill-opacity:1;stroke:none;stroke-opacity:1"
         id="path9774"
         d="M 93.809835,14.27383 C 93.809835,15.441586 92.779362,16.033026 91.73351,16.32799 C 90.160118,16.772706 88.897405,16.704637 87.582399,16.32799 C 86.484254,16.013362 85.506074,15.370492 85.506074,14.27383 L 85.506074,10.421144 C 85.506074,9.3123811 86.445803,8.3654698 87.582399,8.3654698 L 91.73351,8.3654698 C 93.116188,8.3654698 94.329685,7.1901514 94.329685,5.7970127 L 94.329685,4 L 95.886159,4 C 97.095037,4 97.664106,4.8833799 97.962482,6.0541606 C 98.377745,7.6802451 98.396208,8.8964058 97.962482,10.163995 C 97.542601,11.395282 97.093501,11.405656 95.886159,11.405656 L 93.809835,11.397574 L 93.809835,14.27383 z "
         i:knockout="Off"
         sodipodi:nodetypes="csscccccccssccc" />
      <path
         style="fill:#ffffff"
         id="path9776"
         d="M 86.234403,1.9705353 C 86.234403,1.5439714 86.581995,1.1990902 87.01264,1.1990902 C 87.441746,1.1990902 87.790877,1.5439714 87.790877,1.9705353 C 87.790877,2.3955858 87.441746,2.740467 87.01264,2.740467 C 86.581995,2.740467 86.234403,2.3955858 86.234403,1.9705353 z "
         i:knockout="Off" />
      <path
         style="fill:#ffffff"
         id="path9778"
         d="M 91,14.228556 C 91,13.803505 91.34913,13.458623 91.778237,13.458623 C 92.208882,13.458623 92.556474,13.803505 92.556474,14.228556 C 92.556474,14.655119 92.208882,15 91.778237,15 C 91.34913,15 91,14.655119 91,14.228556 z "
         i:knockout="Off" />
      <path
         style="opacity:0.37674417;fill:url(#linearGradient9796);fill-opacity:1;stroke:none;stroke-opacity:1"
         d="M 88.991611,-0.0497388 C 88.377348,-0.03510451 87.787548,0.03438589 87.265391,0.1243877 C 85.507436,0.42691578 85.207206,1.0679165 85.207205,2.2356715 L 85.207205,4.2598921 L 85.207205,4.2816579 L 83.635902,4.2816579 C 82.428558,4.2816579 81.377245,4.9829091 81.046571,6.3276442 C 80.822084,7.2348092 80.720489,7.945076 80.758868,8.7001178 C 83.493641,5.6515807 86.428061,5.42879 87.88506,5.4352459 C 90.769856,5.447751 92.128539,4.7500811 93.506342,3.2151331 L 93.506342,2.2356715 C 93.506342,1.1390096 92.553394,0.30741625 91.426025,0.1243877 C 90.623179,-0.00579345 89.781378,-0.06855421 88.991611,-0.0497388 z "
         id="path9780"
         sodipodi:nodetypes="csccccscsccsc" />
      <path
         style="opacity:0.83720931;fill:url(#linearGradient9798);fill-opacity:1;stroke:none;stroke-opacity:1;display:inline"
         d="M 94.481438,3.5238792 L 94.324278,6.8742443 C 92.726248,10.122135 85.092369,6.7608186 85.73835,10.920231 L 85.517039,13.227407 C 88.23344,10.246336 91.131222,10.021427 92.576838,10.027832 C 95.461633,10.040337 96.820315,9.3426676 98.198119,7.8077195 C 98.193763,7.7775754 97.981215,7.024814 97.954678,6.6323656 C 97.670944,2.4363097 95.729316,4.234181 94.481438,3.5238792 z "
         id="path9782"
         sodipodi:nodetypes="ccccscsc" />
      <path
         style="fill:none;fill-opacity:1;stroke:#bb9400;stroke-opacity:1"
         id="path9784"
         d="M 93.494401,13.773829 C 93.494401,14.941585 93.198128,15.621086 91.440173,15.923614 C 90.246671,16.129333 89.003605,16.110853 87.576324,15.87942 C 86.448957,15.696391 85.5,14.870491 85.5,13.773829 L 85.5,10.539861 C 85.5,9.2220326 86.233773,8.4841878 87.576324,8.4841878 L 91.727435,8.4841878 C 92.861917,8.4841878 94.47986,7.2715682 94.47986,5.96716 L 94.47986,3.5 L 95.750891,3.5 C 96.958235,3.5 97.637061,4.362337 97.956409,5.55416 C 98.252142,6.6578497 98.213236,8.7055036 97.956409,9.6639949 C 97.597998,11.001604 96.569116,11.475087 95.361773,11.475087 L 93.494401,11.475087 L 90.512897,11.475087 L 90.512897,11.48877 L 93.494401,11.48877 L 93.494401,13.773829 L 93.494401,13.773829 z "
         i:knockout="Off"
         sodipodi:nodetypes="csscccccccssccccccc" />
      <path
         sodipodi:nodetypes="csscccccccssccccccc"
         i:knockout="Off"
         d="M 85.505599,2.2261712 C 85.505599,1.0584155 85.801872,0.37891381 87.559827,0.076385726 C 88.753329,-0.12933289 89.996395,-0.11085302 91.423676,0.1205799 C 92.551043,0.30360914 93.5,1.1295092 93.5,2.2261712 L 93.5,5.4601388 C 93.5,6.7779674 92.766227,7.5158122 91.423676,7.5158122 L 87.272565,7.5158122 C 86.138083,7.5158122 84.52014,8.7284318 84.52014,10.03284 L 84.52014,12.5 L 83.249109,12.5 C 82.041765,12.5 81.362939,11.637663 81.043591,10.44584 C 80.747858,9.3421503 80.786764,7.2944964 81.043591,6.3360051 C 81.402002,4.9983963 82.430884,4.5249125 83.638227,4.5249125 L 85.505599,4.5249125 L 88.487103,4.5249125 L 88.487103,4.5112297 L 85.505599,4.5112297 L 85.505599,2.2261712 L 85.505599,2.2261712 z "
         id="path9786"
         style="fill:none;fill-opacity:1;stroke:#274e70;stroke-opacity:1" />
      <path
         style="fill:#ffffff;fill-opacity:0.16470588;stroke:none;stroke-opacity:1"
         d="M 88.625,0.4375 C 88.29675,0.45710952 87.97443,0.50765744 87.65625,0.5625 C 86.96274,0.68184743 86.56007,0.87542935 86.34375,1.0625 C 86.32869,1.076371 86.29447,1.1111379 86.28125,1.125 C 86.27509,1.1319196 86.25573,1.149348 86.25,1.15625 C 86.24427,1.163152 86.22426,1.1804384 86.21875,1.1875 C 86.06025,1.404434 86,1.7110065 86,2.21875 L 86,4 L 88.5,4 L 89,4 L 89,4.5 L 89,4.53125 L 89,5.03125 L 88.5,5.03125 L 85.5,5.03125 L 83.625,5.03125 C 83.08669,5.03125 82.62991,5.1239276 82.28125,5.34375 C 81.93259,5.5635724 81.68332,5.901234 81.53125,6.46875 C 81.31723,7.2674691 81.27837,9.3687338 81.53125,10.3125 C 81.6758,10.851982 81.87968,11.282842 82.15625,11.5625 C 82.43282,11.842158 82.76537,12 83.25,12 L 84.03125,12 L 84.03125,10.03125 C 84.03125,9.1723187 84.53367,8.4375597 85.15625,7.90625 C 85.77883,7.3749403 86.53586,7.0312499 87.28125,7.03125 L 91.4375,7.03125 C 91.98095,7.03125 92.35416,6.8705711 92.59375,6.65625 C 92.60148,6.6489621 92.61753,6.6324257 92.625,6.625 C 92.63247,6.6175743 92.64898,6.6014031 92.65625,6.59375 C 92.69157,6.5543172 92.75119,6.4832204 92.78125,6.4375 C 92.92033,6.2115719 93,5.8933354 93,5.46875 L 93,2.21875 C 93,1.4105279 92.28006,0.77701297 91.34375,0.625 C 90.34745,0.46345057 89.46387,0.38738679 88.625,0.4375 z M 88.78125,1.4375 C 89.51036,1.3933419 90.29107,1.4483937 91.1875,1.59375 C 91.56854,1.6556121 91.824,1.8290745 91.9375,2 C 91.9514,2.0233818 91.95955,2.0704612 91.96875,2.09375 C 91.9764,2.1169031 91.99696,2.1650682 92,2.1875 C 92.00051,2.1948622 92,2.2115203 92,2.21875 L 92,5.46875 C 92,5.6352245 91.98702,5.7494619 91.96875,5.8125 C 91.96335,5.8274999 91.94285,5.8651137 91.9375,5.875 C 91.93513,5.8779918 91.90836,5.9040068 91.90625,5.90625 C 91.9025,5.9106584 91.88183,5.931301 91.875,5.9375 C 91.8618,5.9476875 91.83718,5.9577104 91.8125,5.96875 C 91.80801,5.9705695 91.78614,5.9982136 91.78125,6 C 91.77594,6.0017408 91.75575,5.9983175 91.75,6 C 91.73759,6.0032232 91.70183,5.9971359 91.6875,6 C 91.62611,6.0105868 91.53662,6.03125 91.4375,6.03125 L 90,6.03125 L 90,4.53125 L 90,4.5 L 90,3 L 88.5,3 L 87,3 L 87,2.21875 C 87,1.9616743 87.01892,1.8294732 87.03125,1.78125 C 87.07984,1.7545675 87.2816,1.6538637 87.8125,1.5625 C 88.12715,1.5082656 88.44984,1.4575719 88.78125,1.4375 z M 83.34375,6.03125 C 83.42808,6.0235018 83.5231,6.03125 83.625,6.03125 L 85.5,6.03125 L 86.96875,6.03125 C 86.00333,6.1078914 85.20249,6.5567499 84.5,7.15625 C 83.72484,7.8177674 83.03125,8.7588643 83.03125,10.03125 L 83.03125,10.9375 C 83.0087,10.929762 82.96623,10.915688 82.9375,10.90625 C 82.93395,10.904874 82.90973,10.907859 82.90625,10.90625 C 82.8995,10.902491 82.88116,10.880068 82.875,10.875 C 82.76636,10.76515 82.61431,10.489122 82.5,10.0625 C 82.33282,9.4385804 82.3716,7.1979248 82.5,6.71875 C 82.54278,6.5590892 82.58366,6.4497072 82.625,6.375 C 82.63396,6.3598834 82.6469,6.3252671 82.65625,6.3125 C 82.6626,6.3044381 82.6809,6.2885216 82.6875,6.28125 C 82.7212,6.2465952 82.76872,6.2151009 82.8125,6.1875 C 82.91757,6.1212577 83.09075,6.0544946 83.34375,6.03125 z "
         id="path9788"
         sodipodi:nodetypes="csssssccccccccccsssscccsccssssccsccssssccssssssssccccccccsscccccsccsssssssssc" />
      <path
         sodipodi:nodetypes="csssssccccccccccsssscccsccssssccsccssssccssssssssccccccccsscccccsccsssssssssc"
         id="path9790"
         d="M 90.375,15.5625 C 90.70325,15.54289 91.02557,15.492342 91.34375,15.4375 C 92.03726,15.318152 92.43993,15.12457 92.65625,14.9375 C 92.67131,14.923629 92.70553,14.888862 92.71875,14.875 C 92.72491,14.86808 92.74427,14.850652 92.75,14.84375 C 92.75573,14.836848 92.77574,14.819561 92.78125,14.8125 C 92.93975,14.595566 93,14.288993 93,13.78125 L 93,12 L 90.5,12 L 90,12 L 90,11.5 L 90,11.46875 L 90,10.96875 L 90.5,10.96875 L 93.5,10.96875 L 95.375,10.96875 C 95.91331,10.96875 96.37009,10.876072 96.71875,10.65625 C 97.06741,10.436428 97.31668,10.098766 97.46875,9.53125 C 97.68277,8.7325309 97.72163,6.6312662 97.46875,5.6875 C 97.3242,5.148018 97.12032,4.717158 96.84375,4.4375 C 96.56718,4.157842 96.23463,4 95.75,4 L 94.96875,4 L 94.96875,5.96875 C 94.96875,6.8276813 94.46633,7.5624403 93.84375,8.09375 C 93.22117,8.6250597 92.46414,8.9687501 91.71875,8.96875 L 87.5625,8.96875 C 87.01905,8.96875 86.64584,9.1294289 86.40625,9.34375 C 86.39852,9.3510379 86.38247,9.3675743 86.375,9.375 C 86.36753,9.3824257 86.35102,9.3985969 86.34375,9.40625 C 86.30843,9.4456828 86.24881,9.5167796 86.21875,9.5625 C 86.07967,9.7884281 86,10.106665 86,10.53125 L 86,13.78125 C 86,14.589472 86.71994,15.222987 87.65625,15.375 C 88.65255,15.536549 89.53613,15.612613 90.375,15.5625 z M 90.21875,14.5625 C 89.48964,14.606658 88.70893,14.551606 87.8125,14.40625 C 87.43146,14.344387 87.176,14.170925 87.0625,14 C 87.0486,13.976618 87.04045,13.929538 87.03125,13.90625 C 87.0236,13.883096 87.00304,13.834931 87,13.8125 C 86.99949,13.805137 87,13.788479 87,13.78125 L 87,10.53125 C 87,10.364775 87.01298,10.250538 87.03125,10.1875 C 87.03665,10.1725 87.05715,10.134886 87.0625,10.125 C 87.06487,10.122008 87.09164,10.095993 87.09375,10.09375 C 87.0975,10.089342 87.11817,10.068699 87.125,10.0625 C 87.1382,10.052312 87.16282,10.04229 87.1875,10.03125 C 87.19199,10.02943 87.21386,10.001786 87.21875,10 C 87.22406,9.9982592 87.24425,10.001682 87.25,10 C 87.26241,9.9967768 87.29817,10.002864 87.3125,10 C 87.37389,9.9894132 87.46338,9.96875 87.5625,9.96875 L 89,9.96875 L 89,11.46875 L 89,11.5 L 89,13 L 90.5,13 L 92,13 L 92,13.78125 C 92,14.038325 91.98108,14.170526 91.96875,14.21875 C 91.92016,14.245432 91.7184,14.346136 91.1875,14.4375 C 90.87285,14.491734 90.55016,14.542428 90.21875,14.5625 z M 95.65625,9.96875 C 95.57192,9.9764982 95.4769,9.96875 95.375,9.96875 L 93.5,9.96875 L 92.03125,9.96875 C 92.99667,9.8921086 93.79751,9.4432501 94.5,8.84375 C 95.27516,8.1822326 95.96875,7.2411357 95.96875,5.96875 L 95.96875,5.0625 C 95.9913,5.070238 96.03377,5.084312 96.0625,5.09375 C 96.06605,5.095126 96.09027,5.092141 96.09375,5.09375 C 96.1005,5.097509 96.11884,5.119932 96.125,5.125 C 96.23364,5.23485 96.38569,5.510878 96.5,5.9375 C 96.66718,6.5614196 96.6284,8.8020752 96.5,9.28125 C 96.45722,9.4409108 96.41634,9.5502928 96.375,9.625 C 96.36604,9.6401166 96.3531,9.6747329 96.34375,9.6875 C 96.3374,9.6955619 96.3191,9.7114784 96.3125,9.71875 C 96.2788,9.7534048 96.23128,9.7848991 96.1875,9.8125 C 96.08243,9.8787423 95.90925,9.9455054 95.65625,9.96875 z "
         style="fill:#ffffff;fill-opacity:0.375;stroke:none;stroke-opacity:1" />
    </g>
  </g>
</svg>
