<?xml version="1.0" encoding="UTF-8" standalone="no"?>
<!-- Created with Inkscape (http://www.inkscape.org/) -->
<svg
   xmlns:dc="http://purl.org/dc/elements/1.1/"
   xmlns:cc="http://web.resource.org/cc/"
   xmlns:rdf="http://www.w3.org/1999/02/22-rdf-syntax-ns#"
   xmlns:svg="http://www.w3.org/2000/svg"
   xmlns="http://www.w3.org/2000/svg"
   xmlns:xlink="http://www.w3.org/1999/xlink"
   xmlns:sodipodi="http://sodipodi.sourceforge.net/DTD/sodipodi-0.dtd"
   xmlns:inkscape="http://www.inkscape.org/namespaces/inkscape"
   width="32"
   height="32"
   id="svg2"
   sodipodi:version="0.32"
   inkscape:version="0.45.1"
   version="1.0"
   sodipodi:docbase="/home/ulisse/Desktop/logitech-rumblepad2/32x32"
   sodipodi:docname="input-gaming-logitech-cordless-rumblepad2.svg"
   inkscape:output_extension="org.inkscape.output.svg.inkscape">
  <defs
     id="defs4">
    <linearGradient
       id="linearGradient3237"
       inkscape:collect="always">
      <stop
         id="stop3239"
         offset="0"
         style="stop-color:#ffffff;stop-opacity:1;" />
      <stop
         id="stop3241"
         offset="1"
         style="stop-color:#ffffff;stop-opacity:0.07843138" />
    </linearGradient>
    <linearGradient
       id="linearGradient3240"
       inkscape:collect="always">
      <stop
         id="stop3242"
         offset="0"
         style="stop-color:#dcdfdf;stop-opacity:1" />
      <stop
         id="stop3244"
         offset="1"
         style="stop-color:#1f2225;stop-opacity:1" />
    </linearGradient>
    <linearGradient
       id="linearGradient3547">
      <stop
         id="stop3549"
         offset="0"
         style="stop-color:#e0e0e0;stop-opacity:1;" />
      <stop
         id="stop3551"
         offset="1"
         style="stop-color:#eaeaea;stop-opacity:0;" />
    </linearGradient>
    <linearGradient
       id="linearGradient3381"
       inkscape:collect="always">
      <stop
         id="stop3383"
         offset="0"
         style="stop-color:#95bce7;stop-opacity:1" />
      <stop
         id="stop3385"
         offset="1"
         style="stop-color:#3327a8;stop-opacity:1" />
    </linearGradient>
    <linearGradient
       id="linearGradient3305">
      <stop
         style="stop-color:#e3e3e3;stop-opacity:1;"
         offset="0"
         id="stop3307" />
      <stop
         style="stop-color:#ffffff;stop-opacity:0.05660377"
         offset="1"
         id="stop3309" />
    </linearGradient>
    <linearGradient
       id="linearGradient3291">
      <stop
         style="stop-color:#6c7682;stop-opacity:1"
         offset="0"
         id="stop3293" />
      <stop
         id="stop3314"
         offset="0.62921351"
         style="stop-color:#929ba5;stop-opacity:1;" />
      <stop
         style="stop-color:#57616e;stop-opacity:1"
         offset="1"
         id="stop3295" />
    </linearGradient>
    <linearGradient
       inkscape:collect="always"
       id="linearGradient3272">
      <stop
         style="stop-color:#cacecf;stop-opacity:1"
         offset="0"
         id="stop3274" />
      <stop
         style="stop-color:#363b41;stop-opacity:1"
         offset="1"
         id="stop3276" />
    </linearGradient>
    <radialGradient
       inkscape:collect="always"
       xlink:href="#linearGradient5060"
       id="radialGradient3527"
       gradientUnits="userSpaceOnUse"
       gradientTransform="matrix(-2.03716,0,0,2.018058,-423.3185,-879.5624)"
       cx="605.71429"
       cy="486.64789"
       fx="605.71429"
       fy="486.64789"
       r="117.14286" />
    <linearGradient
       inkscape:collect="always"
       id="linearGradient5060">
      <stop
         style="stop-color:black;stop-opacity:1;"
         offset="0"
         id="stop5062" />
      <stop
         style="stop-color:black;stop-opacity:0;"
         offset="1"
         id="stop5064" />
    </linearGradient>
    <radialGradient
       inkscape:collect="always"
       xlink:href="#linearGradient5060"
       id="radialGradient3525"
       gradientUnits="userSpaceOnUse"
       gradientTransform="matrix(2.03716,0,0,1.969706,-1052.701,-856.2756)"
       cx="605.71429"
       cy="486.64789"
       fx="605.71429"
       fy="486.64789"
       r="117.14286" />
    <linearGradient
       id="linearGradient5048">
      <stop
         style="stop-color:black;stop-opacity:0;"
         offset="0"
         id="stop5050" />
      <stop
         id="stop5056"
         offset="0.5"
         style="stop-color:black;stop-opacity:1;" />
      <stop
         style="stop-color:black;stop-opacity:0;"
         offset="1"
         id="stop5052" />
    </linearGradient>
    <linearGradient
       inkscape:collect="always"
       xlink:href="#linearGradient5048"
       id="linearGradient3523"
       gradientUnits="userSpaceOnUse"
       gradientTransform="matrix(3.781761,0,0,1.969706,-2104.846,-856.0366)"
       x1="302.85715"
       y1="366.64789"
       x2="302.85715"
       y2="609.50507" />
    <radialGradient
       inkscape:collect="always"
       xlink:href="#linearGradient3291"
       id="radialGradient3303"
       gradientUnits="userSpaceOnUse"
       gradientTransform="matrix(0.6957433,0,0,0.65902,-0.6761903,4.1012967)"
       cx="23.981812"
       cy="7.0927701"
       fx="24.241272"
       fy="0.82238239"
       r="23.025204" />
    <linearGradient
       inkscape:collect="always"
       xlink:href="#linearGradient3237"
       id="linearGradient3311"
       x1="17.873205"
       y1="4.4863181"
       x2="27.565001"
       y2="37"
       gradientUnits="userSpaceOnUse" />
    <linearGradient
       inkscape:collect="always"
       xlink:href="#linearGradient3240"
       id="linearGradient3322"
       x1="20.407118"
       y1="-8.7263527"
       x2="27.275034"
       y2="-2.9218237"
       gradientUnits="userSpaceOnUse" />
    <linearGradient
       inkscape:collect="always"
       xlink:href="#linearGradient3381"
       id="linearGradient3379"
       gradientUnits="userSpaceOnUse"
       x1="71.930679"
       y1="12.944366"
       x2="73.208023"
       y2="18.612705" />
    <linearGradient
       inkscape:collect="always"
       xlink:href="#linearGradient3381"
       id="linearGradient3391"
       x1="72.217941"
       y1="20.643417"
       x2="72.251732"
       y2="15.362213"
       gradientUnits="userSpaceOnUse" />
    <linearGradient
       inkscape:collect="always"
       xlink:href="#linearGradient3381"
       id="linearGradient3395"
       gradientUnits="userSpaceOnUse"
       x1="72.217941"
       y1="20.643417"
       x2="72.251732"
       y2="15.362213" />
    <linearGradient
       inkscape:collect="always"
       xlink:href="#linearGradient3381"
       id="linearGradient3397"
       gradientUnits="userSpaceOnUse"
       x1="71.930679"
       y1="12.944366"
       x2="73.208023"
       y2="18.612705" />
    <linearGradient
       inkscape:collect="always"
       xlink:href="#linearGradient3305"
       id="linearGradient3421"
       gradientUnits="userSpaceOnUse"
       x1="19.53125"
       y1="7.5"
       x2="20.609375"
       y2="8.6875" />
    <linearGradient
       inkscape:collect="always"
       xlink:href="#linearGradient3305"
       id="linearGradient3433"
       gradientUnits="userSpaceOnUse"
       x1="19.53125"
       y1="7.5"
       x2="20.609375"
       y2="8.6875" />
    <linearGradient
       inkscape:collect="always"
       xlink:href="#linearGradient3305"
       id="linearGradient3485"
       gradientUnits="userSpaceOnUse"
       x1="19.53125"
       y1="7.5"
       x2="20.609375"
       y2="8.6875" />
    <linearGradient
       inkscape:collect="always"
       xlink:href="#linearGradient3305"
       id="linearGradient3493"
       gradientUnits="userSpaceOnUse"
       x1="19.53125"
       y1="7.5"
       x2="20.609375"
       y2="8.6875" />
    <linearGradient
       inkscape:collect="always"
       xlink:href="#linearGradient3237"
       id="linearGradient3526"
       x1="23.635185"
       y1="17"
       x2="23.812389"
       y2="15.234835"
       gradientUnits="userSpaceOnUse"
       gradientTransform="matrix(0.75,0,0,0.6568543,-2.0000002,-0.18124)" />
    <linearGradient
       inkscape:collect="always"
       xlink:href="#linearGradient3305"
       id="linearGradient3535"
       gradientUnits="userSpaceOnUse"
       x1="17.125"
       y1="27.3125"
       x2="29.875"
       y2="26.0625"
       gradientTransform="matrix(0.9996539,0,0,1.0528164,0.5041548,-2.1369592)" />
    <radialGradient
       inkscape:collect="always"
       xlink:href="#linearGradient3547"
       id="radialGradient3545"
       cx="-6"
       cy="21.706213"
       fx="-6.2578349"
       fy="20.763403"
       r="3"
       gradientTransform="matrix(1,0,0,2.4312623,0,-31.067285)"
       gradientUnits="userSpaceOnUse" />
    <radialGradient
       inkscape:collect="always"
       xlink:href="#linearGradient3547"
       id="radialGradient3561"
       gradientUnits="userSpaceOnUse"
       gradientTransform="matrix(1,0,0,2.4312623,0,-31.067285)"
       cx="-6"
       cy="21.706213"
       fx="-6.7346997"
       fy="20.483507"
       r="3" />
    <radialGradient
       inkscape:collect="always"
       xlink:href="#linearGradient3272"
       id="radialGradient3246"
       cx="30.045397"
       cy="-4.034656"
       fx="30.045397"
       fy="-4.034656"
       r="4.8357038"
       gradientTransform="matrix(1.603168,-6.4143595e-2,4.6823281e-2,1.0385219,-16.725133,2.2826062)"
       gradientUnits="userSpaceOnUse" />
    <linearGradient
       inkscape:collect="always"
       xlink:href="#linearGradient3305"
       id="linearGradient2281"
       gradientUnits="userSpaceOnUse"
       x1="19.53125"
       y1="7.5"
       x2="20.609375"
       y2="8.6875" />
    <linearGradient
       inkscape:collect="always"
       xlink:href="#linearGradient3305"
       id="linearGradient2289"
       gradientUnits="userSpaceOnUse"
       x1="19.53125"
       y1="7.5"
       x2="20.609375"
       y2="8.6875" />
    <linearGradient
       inkscape:collect="always"
       xlink:href="#linearGradient3305"
       id="linearGradient2297"
       gradientUnits="userSpaceOnUse"
       x1="19.53125"
       y1="7.5"
       x2="20.609375"
       y2="8.6875" />
    <linearGradient
       inkscape:collect="always"
       xlink:href="#linearGradient3305"
       id="linearGradient2305"
       gradientUnits="userSpaceOnUse"
       x1="19.53125"
       y1="7.5"
       x2="20.609375"
       y2="8.6875" />
    <linearGradient
       inkscape:collect="always"
       xlink:href="#linearGradient3305"
       id="linearGradient2313"
       gradientUnits="userSpaceOnUse"
       x1="19.53125"
       y1="7.5"
       x2="20.609375"
       y2="8.6875" />
  </defs>
  <sodipodi:namedview
     id="base"
     pagecolor="#ffffff"
     bordercolor="#f6aaaa"
     borderopacity="1"
     inkscape:pageopacity="0.0"
     inkscape:pageshadow="2"
     inkscape:zoom="11.313708"
     inkscape:cx="23.875154"
     inkscape:cy="0.90396025"
     inkscape:document-units="px"
     inkscape:current-layer="layer1"
     width="32px"
     height="32px"
     inkscape:showpageshadow="false"
     showgrid="true"
     gridspacingx="0.5px"
     gridspacingy="0.5px"
     gridempspacing="2"
     inkscape:grid-points="true"
     inkscape:window-width="1044"
     inkscape:window-height="853"
     inkscape:window-x="192"
     inkscape:window-y="44"
     showguides="true"
     inkscape:guide-bbox="true" />
  <metadata
     id="metadata7">
    <rdf:RDF>
      <cc:Work
         rdf:about="">
        <dc:format>image/svg+xml</dc:format>
        <dc:type
           rdf:resource="http://purl.org/dc/dcmitype/StillImage" />
        <dc:creator>
          <cc:Agent>
            <dc:title>Ulisse Perusin</dc:title>
          </cc:Agent>
        </dc:creator>
        <cc:license
           rdf:resource="http://creativecommons.org/licenses/GPL/2.0/" />
        <dc:title>input-gaming-logitech-cordless-rumblepad2</dc:title>
        <dc:subject>
          <rdf:Bag>
            <rdf:li>input gaming logitech rumblepad</rdf:li>
          </rdf:Bag>
        </dc:subject>
        <dc:source>uli.peru@gmail.com</dc:source>
      </cc:Work>
      <cc:License
         rdf:about="http://creativecommons.org/licenses/GPL/2.0/">
        <cc:permits
           rdf:resource="http://web.resource.org/cc/Reproduction" />
        <cc:permits
           rdf:resource="http://web.resource.org/cc/Distribution" />
        <cc:requires
           rdf:resource="http://web.resource.org/cc/Notice" />
        <cc:permits
           rdf:resource="http://web.resource.org/cc/DerivativeWorks" />
        <cc:requires
           rdf:resource="http://web.resource.org/cc/ShareAlike" />
        <cc:requires
           rdf:resource="http://web.resource.org/cc/SourceCode" />
      </cc:License>
    </rdf:RDF>
  </metadata>
  <g
     inkscape:label="Livello 1"
     inkscape:groupmode="layer"
     id="layer1"
     style="display:inline">
    <g
       style="opacity:0.44827588;display:inline"
       transform="matrix(1.3143111e-2,0,0,1.8805647e-2,-14.966886,23.771282)"
       id="g2612">
      <g
         transform="translate(0,-59.82244)"
         id="g2623">
        <g
           id="g3518"
           transform="matrix(1.043479,0,0,1,3126.228,-59.82246)">
          <rect
             style="opacity:0.40206185;color:#000000;fill:url(#linearGradient3523);fill-opacity:1;fill-rule:nonzero;stroke:none;stroke-width:1;stroke-linecap:round;stroke-linejoin:miter;marker:none;marker-start:none;marker-mid:none;marker-end:none;stroke-miterlimit:4;stroke-dasharray:none;stroke-dashoffset:0;stroke-opacity:1;visibility:visible;display:inline;overflow:visible"
             id="rect6709"
             width="1826.0504"
             height="478.35718"
             x="-1651.0347"
             y="-133.84804" />
          <path
             style="opacity:0.40206185;color:#000000;fill:url(#radialGradient3525);fill-opacity:1;fill-rule:nonzero;stroke:none;stroke-width:1;stroke-linecap:round;stroke-linejoin:miter;marker:none;marker-start:none;marker-mid:none;marker-end:none;stroke-miterlimit:4;stroke-dasharray:none;stroke-dashoffset:0;stroke-opacity:1;visibility:visible;display:inline;overflow:visible"
             d="M 175.01578,-134.07052 C 175.01578,-134.07052 175.01578,344.26027 175.01578,344.26027 C 279.92447,345.16072 428.63395,237.09061 428.63389,105.06409 C 428.63389,-26.962449 311.56369,-134.0705 175.01578,-134.07052 z "
             id="path6711"
             sodipodi:nodetypes="cccc" />
          <path
             sodipodi:nodetypes="cccc"
             id="path6713"
             d="M -1651.0346,-133.82723 C -1651.0346,-133.82723 -1651.0346,344.50356 -1651.0346,344.50356 C -1755.9433,345.40401 -1904.6528,237.3339 -1904.6528,105.30739 C -1904.6528,-26.719152 -1787.5825,-133.82721 -1651.0346,-133.82723 z "
             style="opacity:0.40206185;color:#000000;fill:url(#radialGradient3527);fill-opacity:1;fill-rule:nonzero;stroke:none;stroke-width:1;stroke-linecap:round;stroke-linejoin:miter;marker:none;marker-start:none;marker-mid:none;marker-end:none;stroke-miterlimit:4;stroke-dasharray:none;stroke-dashoffset:0;stroke-opacity:1;visibility:visible;display:inline;overflow:visible" />
        </g>
      </g>
    </g>
    <g
       id="g3531"
       transform="matrix(0.6264794,0,0,0.5936457,0.6387048,1.5810972)">
      <path
         sodipodi:nodetypes="cccscc"
         id="rect3247"
         d="M 12.500001,19.212556 L 36.491695,19.212556 L 36.491695,24.372248 C 30.753673,24.888217 32.012546,28.500001 24.459304,28.500001 C 16.906059,28.500001 18.164933,24.888217 12.500001,24.372248 L 12.500001,19.212556 z "
         style="fill:#5775a2;fill-opacity:1;stroke:#3d5477;stroke-width:1.63977003;stroke-linejoin:round;stroke-miterlimit:4;stroke-opacity:1" />
      <path
         sodipodi:nodetypes="cccscc"
         id="path3495"
         d="M 13.99948,18.392962 L 34.992213,18.392962 L 34.992213,23.072147 C 29.971444,23.540065 31.072958,26.815494 24.46387,26.815494 C 17.854782,26.815494 18.956295,23.540065 13.99948,23.072147 L 13.99948,18.392962 z "
         style="opacity:0.48275859;fill:none;fill-opacity:1;stroke:url(#linearGradient3535);stroke-width:1.63976991;stroke-linejoin:round;stroke-miterlimit:4;stroke-opacity:1;display:inline" />
    </g>
    <path
       style="fill:url(#radialGradient3303);fill-opacity:1;stroke:#3e434b;stroke-width:1;stroke-linejoin:round;stroke-miterlimit:4;stroke-opacity:1"
       d="M 8.6641162,5.5036668 C 11.331706,5.5036668 12.998961,6.5 16,6.5 C 19.001038,6.5 21.335169,5.5036668 24.002759,5.5036668 C 30.671734,6.1594398 32.672426,24.830791 29.671388,24.502905 C 27.337246,24.502905 25.5,18 22.5,17.5 C 19.591883,16.153139 12.584835,16.141392 9.5,17.5 C 6.5,18 4.6627311,24.502905 2.3285898,24.502905 C -0.67244906,24.830791 1.3282435,6.1594398 8.6641162,5.5036668 z "
       id="rect3242"
       sodipodi:nodetypes="cscccccc" />
    <path
       sodipodi:type="arc"
       style="opacity:0.60919542;fill:url(#radialGradient3561);fill-opacity:1;stroke:none;stroke-width:1;stroke-linejoin:round;stroke-miterlimit:4;stroke-dasharray:none;stroke-opacity:1;display:inline"
       id="path3559"
       sodipodi:cx="-6"
       sodipodi:cy="21.706213"
       sodipodi:rx="3"
       sodipodi:ry="7.293787"
       d="M -3 21.706213 A 3 7.293787 0 1 1  -9,21.706213 A 3 7.293787 0 1 1  -3 21.706213 z"
       transform="matrix(-0.7683147,0,0.2633454,0.8226179,16.17388,-2.8559204)" />
    <path
       sodipodi:type="arc"
       style="opacity:0.70582371;fill:url(#radialGradient3545);fill-opacity:1;stroke:none;stroke-width:1;stroke-linejoin:round;stroke-miterlimit:4;stroke-dasharray:none;stroke-opacity:1"
       id="path3537"
       sodipodi:cx="-6"
       sodipodi:cy="21.706213"
       sodipodi:rx="3"
       sodipodi:ry="7.293787"
       d="M -3 21.706213 A 3 7.293787 0 1 1  -9,21.706213 A 3 7.293787 0 1 1  -3 21.706213 z"
       transform="matrix(0.7048665,0,-0.2415981,0.822618,15.221123,-2.8559213)" />
    <path
       sodipodi:type="inkscape:offset"
       inkscape:radius="-1.0047024"
       inkscape:original="M 8.65625 5.5 C 1.3203773 6.155773 -0.65728898 24.827886 2.34375 24.5 C 4.6778913 24.5 6.5 18 9.5 17.5 C 12.584835 16.141392 19.591883 16.153139 22.5 17.5 C 25.5 18 27.322107 24.5 29.65625 24.5 C 32.657288 24.827886 30.668974 6.1557729 24 5.5 C 21.33241 5.5 19.001038 6.5 16 6.5 C 12.998961 6.5 11.32384 5.4999999 8.65625 5.5 z "
       xlink:href="#rect3242"
       style="opacity:0.48275859;fill:none;fill-opacity:1;stroke:url(#linearGradient3311);stroke-width:1;stroke-linejoin:round;stroke-miterlimit:4;stroke-opacity:1"
       id="path3301"
       inkscape:href="#rect3242"
       d="M 8.71875,6.5 C 7.3135103,6.6374999 6.0685896,7.6655951 5,9.34375 C 3.924276,11.033109 3.0934424,13.323052 2.59375,15.59375 C 2.0940576,17.864448 1.9191999,20.112588 2.03125,21.6875 C 2.087275,22.474956 2.242716,23.084521 2.375,23.375 C 2.3970473,23.423413 2.3886112,23.409336 2.40625,23.4375 C 2.5455036,23.414828 2.8480381,23.302251 3.28125,22.8125 C 3.7496604,22.282956 4.2794277,21.473524 4.84375,20.625 C 5.4080723,19.776476 6.0125954,18.887855 6.71875,18.125 C 7.3654173,17.426409 8.1396433,16.83186 9.09375,16.59375 C 9.1128038,16.588995 9.1370396,16.598197 9.15625,16.59375 C 9.22553,16.577711 9.272393,16.511893 9.34375,16.5 L 9.34375,16.53125 C 11.13109,15.80534 13.572031,15.467288 16.0625,15.46875 C 18.535728,15.470202 20.934866,15.777342 22.65625,16.5 C 22.738539,16.534546 22.858468,16.557147 22.9375,16.59375 C 22.941336,16.594742 22.933671,16.623996 22.9375,16.625 C 23.872838,16.870293 24.64365,17.436204 25.28125,18.125 C 25.987404,18.887855 26.591928,19.776476 27.15625,20.625 C 27.720572,21.473524 28.25034,22.282957 28.71875,22.8125 C 29.151962,23.302251 29.454496,23.414828 29.59375,23.4375 C 29.611549,23.409155 29.60276,23.423612 29.625,23.375 C 29.758441,23.083329 29.908291,22.476345 29.96875,21.6875 C 30.089667,20.109809 29.930454,17.837761 29.46875,15.5625 C 29.007046,13.287239 28.242493,11.005387 27.25,9.3125 C 26.264797,7.6320478 25.137675,6.6307667 23.9375,6.5 C 23.928619,6.4990324 23.915137,6.5008739 23.90625,6.5 C 21.521181,6.5243454 19.183982,7.5 16,7.5 C 12.81959,7.5 11.114937,6.5264473 8.75,6.5 C 8.7391387,6.4998785 8.7296395,6.5000813 8.71875,6.5 z " />
    <g
       id="g3368"
       transform="matrix(0.6316135,0,0,0.6300927,-0.3687147,-0.2868074)">
      <path
         transform="matrix(0.9275363,0,0,0.9846154,-11.326089,20.115387)"
         d="M 30 -4.6875029 A 4.3124995 4.0625 0 1 1  21.375,-4.6875029 A 4.3124995 4.0625 0 1 1  30 -4.6875029 z"
         sodipodi:ry="4.0625"
         sodipodi:rx="4.3124995"
         sodipodi:cy="-4.6875029"
         sodipodi:cx="25.6875"
         id="path3270"
         style="opacity:1;fill:url(#radialGradient3246);fill-opacity:1;stroke:url(#linearGradient3322);stroke-width:1.65872085;stroke-linejoin:round;stroke-miterlimit:4;stroke-dasharray:none;stroke-opacity:1"
         sodipodi:type="arc" />
      <path
         sodipodi:nodetypes="csssc"
         id="path3280"
         d="M 13.24974,12.358193 C 13.24974,12.796224 12.895093,14.738795 12.458117,14.738795 C 12.021141,14.738795 11.666493,12.796224 11.666493,12.358193 C 11.666493,11.920162 12.021141,11.564659 12.458117,11.564659 C 12.895093,11.564659 13.24974,11.920162 13.24974,12.358193 z "
         style="fill:#1d2024;fill-opacity:1;stroke:none;stroke-width:1;stroke-linejoin:round;stroke-miterlimit:4;stroke-opacity:1" />
      <path
         sodipodi:nodetypes="csssc"
         id="path3283"
         d="M 11.666493,18.706466 C 11.666493,18.268435 12.021141,16.325863 12.458117,16.325863 C 12.895092,16.325863 13.24974,18.268435 13.24974,18.706466 C 13.24974,19.144497 12.895092,19.5 12.458117,19.5 C 12.021141,19.5 11.666493,19.144497 11.666493,18.706466 z "
         style="fill:#1d2024;fill-opacity:1;stroke:none;stroke-width:1;stroke-linejoin:round;stroke-miterlimit:4;stroke-opacity:1;display:inline" />
      <path
         sodipodi:nodetypes="csssc"
         id="path3285"
         d="M 15.62461,16.325863 C 15.187634,16.325863 13.24974,15.97036 13.24974,15.53233 C 13.24974,15.094298 15.187634,14.738795 15.62461,14.738795 C 16.061586,14.738795 16.416234,15.094298 16.416234,15.53233 C 16.416234,15.97036 16.061586,16.325863 15.62461,16.325863 z "
         style="fill:#1d2024;fill-opacity:1;stroke:none;stroke-width:1;stroke-linejoin:round;stroke-miterlimit:4;stroke-opacity:1;display:inline" />
      <path
         sodipodi:nodetypes="csssc"
         id="path3287"
         d="M 9.2916232,14.738795 C 9.7285994,14.738795 11.666493,15.094298 11.666493,15.53233 C 11.666493,15.97036 9.7285994,16.325863 9.2916232,16.325863 C 8.8546472,16.325863 8.4999999,15.97036 8.4999999,15.53233 C 8.4999999,15.094298 8.8546472,14.738795 9.2916232,14.738795 z "
         style="fill:#1d2024;fill-opacity:1;stroke:none;stroke-width:1;stroke-linejoin:round;stroke-miterlimit:4;stroke-opacity:1;display:inline" />
    </g>
    <path
       sodipodi:type="arc"
       style="opacity:1;fill:url(#linearGradient3391);fill-opacity:1;stroke:url(#linearGradient3379);stroke-width:1.24999988;stroke-linejoin:round;stroke-miterlimit:4;stroke-dasharray:none;stroke-opacity:1;display:inline"
       id="path3375"
       sodipodi:cx="72.5"
       sodipodi:cy="18.5"
       sodipodi:rx="2.5"
       sodipodi:ry="2.5"
       d="M 75 18.5 A 2.5 2.5 0 1 1  70,18.5 A 2.5 2.5 0 1 1  75 18.5 z"
       transform="matrix(0.8000004,0,0,0.8,-38.500029,-1.2999993)" />
    <path
       sodipodi:type="arc"
       style="opacity:1;fill:url(#linearGradient3395);fill-opacity:1;stroke:url(#linearGradient3397);stroke-width:1.25;stroke-linejoin:round;stroke-miterlimit:4;stroke-dasharray:none;stroke-opacity:1;display:inline"
       id="path3393"
       sodipodi:cx="72.5"
       sodipodi:cy="18.5"
       sodipodi:rx="2.5"
       sodipodi:ry="2.5"
       d="M 75 18.5 A 2.5 2.5 0 1 1  70,18.5 A 2.5 2.5 0 1 1  75 18.5 z"
       transform="matrix(0.8,0,0,0.8,-45.5,-1.3)" />
    <g
       id="g3475"
       transform="matrix(0.6668975,0,0,0.6568543,0.160665,-3.91059e-2)">
      <path
         transform="matrix(0.6666667,0,0,1,12.666666,5)"
         d="M 21.5 8 A 1.5 1 0 1 1  18.5,8 A 1.5 1 0 1 1  21.5 8 z"
         sodipodi:ry="1"
         sodipodi:rx="1.5"
         sodipodi:cy="8"
         sodipodi:cx="20"
         id="path3401"
         style="opacity:1;fill:#2b2f34;fill-opacity:1;stroke:none;stroke-width:1;stroke-linejoin:round;stroke-miterlimit:4;stroke-dasharray:none;stroke-opacity:1;display:inline"
         sodipodi:type="arc" />
      <path
         transform="matrix(0.666667,0,0,0.5,12.66666,8.5)"
         d="M 21.5 8 A 1.5 1 0 1 1  18.5,8 A 1.5 1 0 1 1  21.5 8 z"
         sodipodi:ry="1"
         sodipodi:rx="1.5"
         sodipodi:cy="8"
         sodipodi:cx="20"
         id="path3419"
         style="opacity:0.41762456;fill:url(#linearGradient3421);fill-opacity:1;stroke:none;stroke-width:1;stroke-linejoin:round;stroke-miterlimit:4;stroke-dasharray:none;stroke-opacity:1;display:inline"
         sodipodi:type="arc" />
    </g>
    <g
       id="g3429"
       transform="matrix(0.6666667,0,0,0.6666667,-0.6666677,0.3333328)">
      <path
         transform="matrix(0.9999997,0,0,1.5,12.500006,2.5)"
         d="M 21.5 8 A 1.5 1 0 1 1  18.5,8 A 1.5 1 0 1 1  21.5 8 z"
         sodipodi:ry="1"
         sodipodi:rx="1.5"
         sodipodi:cy="8"
         sodipodi:cx="20"
         id="path3423"
         style="opacity:1;fill:#2b2f34;fill-opacity:1;stroke:none;stroke-width:1;stroke-linejoin:round;stroke-miterlimit:4;stroke-dasharray:none;stroke-opacity:1;display:inline"
         sodipodi:type="arc" />
      <path
         transform="translate(12.5,6)"
         d="M 21.5 8 A 1.5 1 0 1 1  18.5,8 A 1.5 1 0 1 1  21.5 8 z"
         sodipodi:ry="1"
         sodipodi:rx="1.5"
         sodipodi:cy="8"
         sodipodi:cx="20"
         id="path3425"
         style="opacity:0.41762456;fill:url(#linearGradient3433);fill-opacity:1;stroke:none;stroke-width:1;stroke-linejoin:round;stroke-miterlimit:4;stroke-dasharray:none;stroke-opacity:1;display:inline"
         sodipodi:type="arc" />
    </g>
    <g
       style="display:inline"
       id="g3479"
       transform="matrix(0.6668975,0,0,0.6568543,-2.839335,-3.91059e-2)">
      <path
         transform="matrix(0.6666667,0,0,1,12.666666,5)"
         d="M 21.5 8 A 1.5 1 0 1 1  18.5,8 A 1.5 1 0 1 1  21.5 8 z"
         sodipodi:ry="1"
         sodipodi:rx="1.5"
         sodipodi:cy="8"
         sodipodi:cx="20"
         id="path3481"
         style="opacity:1;fill:#2b2f34;fill-opacity:1;stroke:none;stroke-width:1;stroke-linejoin:round;stroke-miterlimit:4;stroke-dasharray:none;stroke-opacity:1;display:inline"
         sodipodi:type="arc" />
      <path
         transform="matrix(0.6666667,0,0,0.5,12.666666,8.5)"
         d="M 21.5 8 A 1.5 1 0 1 1  18.5,8 A 1.5 1 0 1 1  21.5 8 z"
         sodipodi:ry="1"
         sodipodi:rx="1.5"
         sodipodi:cy="8"
         sodipodi:cx="20"
         id="path3483"
         style="opacity:0.41762456;fill:url(#linearGradient3485);fill-opacity:1;stroke:none;stroke-width:1;stroke-linejoin:round;stroke-miterlimit:4;stroke-dasharray:none;stroke-opacity:1;display:inline"
         sodipodi:type="arc" />
    </g>
    <g
       style="display:inline"
       id="g3487"
       transform="matrix(0.6668975,0,0,0.6568543,-4.839335,0.9608941)">
      <path
         transform="matrix(0.6666667,0,0,1,12.666666,5)"
         d="M 21.5 8 A 1.5 1 0 1 1  18.5,8 A 1.5 1 0 1 1  21.5 8 z"
         sodipodi:ry="1"
         sodipodi:rx="1.5"
         sodipodi:cy="8"
         sodipodi:cx="20"
         id="path3489"
         style="opacity:1;fill:#2b2f34;fill-opacity:1;stroke:none;stroke-width:1;stroke-linejoin:round;stroke-miterlimit:4;stroke-dasharray:none;stroke-opacity:1;display:inline"
         sodipodi:type="arc" />
      <path
         transform="matrix(0.666667,0,0,0.5,12.66666,8.5)"
         d="M 21.5 8 A 1.5 1 0 1 1  18.5,8 A 1.5 1 0 1 1  21.5 8 z"
         sodipodi:ry="1"
         sodipodi:rx="1.5"
         sodipodi:cy="8"
         sodipodi:cx="20"
         id="path3491"
         style="opacity:0.41762456;fill:url(#linearGradient3493);fill-opacity:1;stroke:none;stroke-width:1;stroke-linejoin:round;stroke-miterlimit:4;stroke-dasharray:none;stroke-opacity:1;display:inline"
         sodipodi:type="arc" />
    </g>
    <rect
       style="opacity:0.49808427;fill:url(#linearGradient3526);fill-opacity:1;stroke:none;stroke-width:1;stroke-linejoin:round;stroke-miterlimit:4;stroke-dasharray:none;stroke-opacity:1"
       id="rect3518"
       width="3"
       height="0.98528135"
       x="14.5"
       y="10"
       ry="0" />
    <rect
       style="opacity:0.41762456;fill:#eeeeec;fill-opacity:1;stroke:none;stroke-width:1;stroke-linejoin:round;stroke-miterlimit:4;stroke-dasharray:none;stroke-opacity:1"
       id="rect3528"
       width="0"
       height="0.65685427"
       x="15.66654"
       y="10.264935" />
    <g
       style="display:inline"
       id="g2275"
       transform="matrix(0.6666667,0,0,0.6666667,1.3333323,-0.6666672)">
      <path
         transform="matrix(0.9999997,0,0,1.5,12.500006,2.5)"
         d="M 21.5 8 A 1.5 1 0 1 1  18.5,8 A 1.5 1 0 1 1  21.5 8 z"
         sodipodi:ry="1"
         sodipodi:rx="1.5"
         sodipodi:cy="8"
         sodipodi:cx="20"
         id="path2277"
         style="opacity:1;fill:#2b2f34;fill-opacity:1;stroke:none;stroke-width:1;stroke-linejoin:round;stroke-miterlimit:4;stroke-dasharray:none;stroke-opacity:1;display:inline"
         sodipodi:type="arc" />
      <path
         transform="translate(12.5,6)"
         d="M 21.5 8 A 1.5 1 0 1 1  18.5,8 A 1.5 1 0 1 1  21.5 8 z"
         sodipodi:ry="1"
         sodipodi:rx="1.5"
         sodipodi:cy="8"
         sodipodi:cx="20"
         id="path2279"
         style="opacity:0.41762456;fill:url(#linearGradient2281);fill-opacity:1;stroke:none;stroke-width:1;stroke-linejoin:round;stroke-miterlimit:4;stroke-dasharray:none;stroke-opacity:1;display:inline"
         sodipodi:type="arc" />
    </g>
    <g
       style="display:inline"
       id="g2283"
       transform="matrix(0.6666667,0,0,0.6666667,3.3333323,-1.6666672)">
      <path
         transform="matrix(0.9999997,0,0,1.5,12.500006,2.5)"
         d="M 21.5 8 A 1.5 1 0 1 1  18.5,8 A 1.5 1 0 1 1  21.5 8 z"
         sodipodi:ry="1"
         sodipodi:rx="1.5"
         sodipodi:cy="8"
         sodipodi:cx="20"
         id="path2285"
         style="opacity:1;fill:#2b2f34;fill-opacity:1;stroke:none;stroke-width:1;stroke-linejoin:round;stroke-miterlimit:4;stroke-dasharray:none;stroke-opacity:1;display:inline"
         sodipodi:type="arc" />
      <path
         transform="translate(12.5,6)"
         d="M 21.5 8 A 1.5 1 0 1 1  18.5,8 A 1.5 1 0 1 1  21.5 8 z"
         sodipodi:ry="1"
         sodipodi:rx="1.5"
         sodipodi:cy="8"
         sodipodi:cx="20"
         id="path2287"
         style="opacity:0.41762456;fill:url(#linearGradient2289);fill-opacity:1;stroke:none;stroke-width:1;stroke-linejoin:round;stroke-miterlimit:4;stroke-dasharray:none;stroke-opacity:1;display:inline"
         sodipodi:type="arc" />
    </g>
    <g
       style="display:inline"
       id="g2291"
       transform="matrix(0.6666667,0,0,0.6666667,1.3333323,2.3333328)">
      <path
         transform="matrix(0.9999997,0,0,1.5,12.500006,2.5)"
         d="M 21.5 8 A 1.5 1 0 1 1  18.5,8 A 1.5 1 0 1 1  21.5 8 z"
         sodipodi:ry="1"
         sodipodi:rx="1.5"
         sodipodi:cy="8"
         sodipodi:cx="20"
         id="path2293"
         style="opacity:1;fill:#2b2f34;fill-opacity:1;stroke:none;stroke-width:1;stroke-linejoin:round;stroke-miterlimit:4;stroke-dasharray:none;stroke-opacity:1;display:inline"
         sodipodi:type="arc" />
      <path
         transform="translate(12.5,6)"
         d="M 21.5 8 A 1.5 1 0 1 1  18.5,8 A 1.5 1 0 1 1  21.5 8 z"
         sodipodi:ry="1"
         sodipodi:rx="1.5"
         sodipodi:cy="8"
         sodipodi:cx="20"
         id="path2295"
         style="opacity:0.41762456;fill:url(#linearGradient2297);fill-opacity:1;stroke:none;stroke-width:1;stroke-linejoin:round;stroke-miterlimit:4;stroke-dasharray:none;stroke-opacity:1;display:inline"
         sodipodi:type="arc" />
    </g>
    <g
       style="display:inline"
       id="g2299"
       transform="matrix(0.6666667,0,0,0.6666667,3.3333323,1.3333328)">
      <path
         transform="matrix(0.9999997,0,0,1.5,12.500006,2.5)"
         d="M 21.5 8 A 1.5 1 0 1 1  18.5,8 A 1.5 1 0 1 1  21.5 8 z"
         sodipodi:ry="1"
         sodipodi:rx="1.5"
         sodipodi:cy="8"
         sodipodi:cx="20"
         id="path2301"
         style="opacity:1;fill:#2b2f34;fill-opacity:1;stroke:none;stroke-width:1;stroke-linejoin:round;stroke-miterlimit:4;stroke-dasharray:none;stroke-opacity:1;display:inline"
         sodipodi:type="arc" />
      <path
         transform="translate(12.5,6)"
         d="M 21.5 8 A 1.5 1 0 1 1  18.5,8 A 1.5 1 0 1 1  21.5 8 z"
         sodipodi:ry="1"
         sodipodi:rx="1.5"
         sodipodi:cy="8"
         sodipodi:cx="20"
         id="path2303"
         style="opacity:0.41762456;fill:url(#linearGradient2305);fill-opacity:1;stroke:none;stroke-width:1;stroke-linejoin:round;stroke-miterlimit:4;stroke-dasharray:none;stroke-opacity:1;display:inline"
         sodipodi:type="arc" />
    </g>
    <g
       style="display:inline"
       id="g2307"
       transform="matrix(0.6666667,0,0,0.6666667,5.3333323,0.3333328)">
      <path
         transform="matrix(0.9999997,0,0,1.5,12.500006,2.5)"
         d="M 21.5 8 A 1.5 1 0 1 1  18.5,8 A 1.5 1 0 1 1  21.5 8 z"
         sodipodi:ry="1"
         sodipodi:rx="1.5"
         sodipodi:cy="8"
         sodipodi:cx="20"
         id="path2309"
         style="opacity:1;fill:#2b2f34;fill-opacity:1;stroke:none;stroke-width:1;stroke-linejoin:round;stroke-miterlimit:4;stroke-dasharray:none;stroke-opacity:1;display:inline"
         sodipodi:type="arc" />
      <path
         transform="translate(12.5,6)"
         d="M 21.5 8 A 1.5 1 0 1 1  18.5,8 A 1.5 1 0 1 1  21.5 8 z"
         sodipodi:ry="1"
         sodipodi:rx="1.5"
         sodipodi:cy="8"
         sodipodi:cx="20"
         id="path2311"
         style="opacity:0.41762456;fill:url(#linearGradient2313);fill-opacity:1;stroke:none;stroke-width:1;stroke-linejoin:round;stroke-miterlimit:4;stroke-dasharray:none;stroke-opacity:1;display:inline"
         sodipodi:type="arc" />
    </g>
  </g>
</svg>
