<?xml version="1.0" encoding="UTF-8" standalone="no"?>
<!-- Created with Inkscape (http://www.inkscape.org/) -->
<svg
   xmlns:dc="http://purl.org/dc/elements/1.1/"
   xmlns:cc="http://web.resource.org/cc/"
   xmlns:rdf="http://www.w3.org/1999/02/22-rdf-syntax-ns#"
   xmlns:svg="http://www.w3.org/2000/svg"
   xmlns="http://www.w3.org/2000/svg"
   xmlns:xlink="http://www.w3.org/1999/xlink"
   xmlns:sodipodi="http://sodipodi.sourceforge.net/DTD/sodipodi-0.dtd"
   xmlns:inkscape="http://www.inkscape.org/namespaces/inkscape"
   width="32"
   height="32"
   id="svg2"
   sodipodi:version="0.32"
   inkscape:version="0.45+devel"
   version="1.0"
   sodipodi:docbase="/home/ulisse/Desktop/sidewinder/32x32"
   sodipodi:docname="input-gaming-microsoft-sidewinder-gamepad.svg"
   inkscape:output_extension="org.inkscape.output.svg.inkscape">
  <defs
     id="defs4">
    <linearGradient
       inkscape:collect="always"
       id="linearGradient5205">
      <stop
         style="stop-color:#ffffff;stop-opacity:1;"
         offset="0"
         id="stop5207" />
      <stop
         style="stop-color:#ffffff;stop-opacity:0;"
         offset="1"
         id="stop5209" />
    </linearGradient>
    <radialGradient
       inkscape:collect="always"
       xlink:href="#linearGradient5060"
       id="radialGradient3527"
       gradientUnits="userSpaceOnUse"
       gradientTransform="matrix(-2.03716,0,0,2.018058,-423.3185,-879.5624)"
       cx="605.71429"
       cy="486.64789"
       fx="605.71429"
       fy="486.64789"
       r="117.14286" />
    <linearGradient
       inkscape:collect="always"
       id="linearGradient5060">
      <stop
         style="stop-color:black;stop-opacity:1;"
         offset="0"
         id="stop5062" />
      <stop
         style="stop-color:black;stop-opacity:0;"
         offset="1"
         id="stop5064" />
    </linearGradient>
    <radialGradient
       inkscape:collect="always"
       xlink:href="#linearGradient5060"
       id="radialGradient3525"
       gradientUnits="userSpaceOnUse"
       gradientTransform="matrix(2.03716,0,0,1.969706,-1052.701,-856.2756)"
       cx="605.71429"
       cy="486.64789"
       fx="605.71429"
       fy="486.64789"
       r="117.14286" />
    <linearGradient
       id="linearGradient5048">
      <stop
         style="stop-color:black;stop-opacity:0;"
         offset="0"
         id="stop5050" />
      <stop
         id="stop5056"
         offset="0.5"
         style="stop-color:black;stop-opacity:1;" />
      <stop
         style="stop-color:black;stop-opacity:0;"
         offset="1"
         id="stop5052" />
    </linearGradient>
    <linearGradient
       inkscape:collect="always"
       xlink:href="#linearGradient5048"
       id="linearGradient3523"
       gradientUnits="userSpaceOnUse"
       gradientTransform="matrix(3.781761,0,0,1.969706,-2104.846,-856.0366)"
       x1="302.85715"
       y1="366.64789"
       x2="302.85715"
       y2="609.50507" />
    <linearGradient
       inkscape:collect="always"
       id="linearGradient3324">
      <stop
         style="stop-color:#2e3436;stop-opacity:1;"
         offset="0"
         id="stop3326" />
      <stop
         style="stop-color:#222728;stop-opacity:1"
         offset="1"
         id="stop3328" />
    </linearGradient>
    <linearGradient
       id="linearGradient3314">
      <stop
         style="stop-color:#222627;stop-opacity:1"
         offset="0"
         id="stop3316" />
      <stop
         id="stop3322"
         offset="0.5955056"
         style="stop-color:#717374;stop-opacity:0.49803922;" />
      <stop
         style="stop-color:#ffffff;stop-opacity:0"
         offset="1"
         id="stop3318" />
    </linearGradient>
    <linearGradient
       inkscape:collect="always"
       id="linearGradient3286">
      <stop
         style="stop-color:#d3e757;stop-opacity:1"
         offset="0"
         id="stop3288" />
      <stop
         style="stop-color:#8ae234;stop-opacity:1"
         offset="1"
         id="stop3290" />
    </linearGradient>
    <linearGradient
       inkscape:collect="always"
       id="linearGradient3270">
      <stop
         style="stop-color:#ffffff;stop-opacity:1;"
         offset="0"
         id="stop3272" />
      <stop
         style="stop-color:#ffffff;stop-opacity:0.14117648"
         offset="1"
         id="stop3274" />
    </linearGradient>
    <linearGradient
       id="linearGradient3258">
      <stop
         style="stop-color:#eeeeec;stop-opacity:0"
         offset="0"
         id="stop3260" />
      <stop
         id="stop3266"
         offset="0.89887643"
         style="stop-color:#eeeeec;stop-opacity:0;" />
      <stop
         style="stop-color:#eeeeec;stop-opacity:1"
         offset="1"
         id="stop3262" />
    </linearGradient>
    <linearGradient
       id="linearGradient3179">
      <stop
         style="stop-color:#ffffff;stop-opacity:0.51479292;"
         offset="0"
         id="stop3181" />
      <stop
         style="stop-color:#ffffff;stop-opacity:0;"
         offset="1"
         id="stop3183" />
    </linearGradient>
    <linearGradient
       id="linearGradient3171"
       inkscape:collect="always">
      <stop
         id="stop3173"
         offset="0"
         style="stop-color:#282d2f;stop-opacity:1" />
      <stop
         id="stop3175"
         offset="1"
         style="stop-color:#80888a;stop-opacity:1" />
    </linearGradient>
    <radialGradient
       inkscape:collect="always"
       xlink:href="#linearGradient3171"
       id="radialGradient3157"
       cx="14.931802"
       cy="16.32811"
       fx="14.931802"
       fy="16.32811"
       r="3.3772664"
       gradientTransform="matrix(1.5308029,-1.753324e-8,1.145226e-8,0.7539781,-7.9256967,4.3002166)"
       gradientUnits="userSpaceOnUse" />
    <linearGradient
       inkscape:collect="always"
       xlink:href="#linearGradient3179"
       id="linearGradient3234"
       gradientUnits="userSpaceOnUse"
       x1="21.75"
       y1="14.969669"
       x2="22.417242"
       y2="16.681803" />
    <linearGradient
       inkscape:collect="always"
       xlink:href="#linearGradient3179"
       id="linearGradient3242"
       gradientUnits="userSpaceOnUse"
       x1="21.75"
       y1="14.969669"
       x2="22.417242"
       y2="16.681803" />
    <radialGradient
       inkscape:collect="always"
       xlink:href="#linearGradient3258"
       id="radialGradient3264"
       cx="24.5"
       cy="42.253849"
       fx="24.5"
       fy="42.253849"
       r="6.5"
       gradientTransform="matrix(1.0497265,0,0,0.6341823,-9.5587366,-7.497681)"
       gradientUnits="userSpaceOnUse" />
    <linearGradient
       inkscape:collect="always"
       xlink:href="#linearGradient3270"
       id="linearGradient3276"
       x1="18.351845"
       y1="4.8864646"
       x2="24.373028"
       y2="24.18222"
       gradientUnits="userSpaceOnUse" />
    <radialGradient
       inkscape:collect="always"
       xlink:href="#linearGradient3286"
       id="radialGradient3292"
       cx="24.5"
       cy="13.5"
       fx="24.5"
       fy="13.5"
       r="1.5"
       gradientTransform="matrix(0.4653376,-4.7522041e-7,2.3153034e-7,0.5101103,4.5992244,2.6135219)"
       gradientUnits="userSpaceOnUse" />
    <radialGradient
       inkscape:collect="always"
       xlink:href="#linearGradient3314"
       id="radialGradient3320"
       cx="24"
       cy="13.625989"
       fx="24"
       fy="13.625989"
       r="19"
       gradientTransform="matrix(0.6315858,1.0268554e-7,-5.5530101e-8,0.360244,0.8419409,5.7528516)"
       gradientUnits="userSpaceOnUse" />
    <radialGradient
       inkscape:collect="always"
       xlink:href="#linearGradient3324"
       id="radialGradient3368"
       cx="23.996136"
       cy="16.498117"
       fx="23.996136"
       fy="16.498117"
       r="22.996136"
       gradientTransform="matrix(0.6445552,-3.8892175e-8,1.9947287e-8,0.3581377,0.5331671,6.4854282)"
       gradientUnits="userSpaceOnUse" />
    <linearGradient
       inkscape:collect="always"
       xlink:href="#linearGradient3179"
       id="linearGradient3219"
       gradientUnits="userSpaceOnUse"
       x1="21.75"
       y1="14.969669"
       x2="22.417242"
       y2="16.681803" />
    <linearGradient
       inkscape:collect="always"
       xlink:href="#linearGradient3179"
       id="linearGradient3227"
       gradientUnits="userSpaceOnUse"
       x1="21.75"
       y1="14.969669"
       x2="22.417242"
       y2="16.681803" />
    <linearGradient
       inkscape:collect="always"
       xlink:href="#linearGradient3179"
       id="linearGradient3229"
       gradientUnits="userSpaceOnUse"
       x1="21.75"
       y1="14.969669"
       x2="22.417242"
       y2="16.681803" />
    <linearGradient
       inkscape:collect="always"
       xlink:href="#linearGradient3179"
       id="linearGradient3237"
       gradientUnits="userSpaceOnUse"
       x1="21.75"
       y1="14.969669"
       x2="22.417242"
       y2="16.681803" />
    <linearGradient
       inkscape:collect="always"
       xlink:href="#linearGradient3179"
       id="linearGradient3245"
       gradientUnits="userSpaceOnUse"
       x1="21.75"
       y1="14.969669"
       x2="22.417242"
       y2="16.681803" />
    <linearGradient
       inkscape:collect="always"
       xlink:href="#linearGradient3179"
       id="linearGradient3253"
       gradientUnits="userSpaceOnUse"
       x1="21.75"
       y1="14.969669"
       x2="22.417242"
       y2="16.681803" />
    <radialGradient
       inkscape:collect="always"
       xlink:href="#linearGradient5205"
       id="radialGradient5211"
       cx="6.6875"
       cy="22.3125"
       fx="6.6875"
       fy="22.3125"
       r="0.8125"
       gradientTransform="matrix(1,0,0,6.5384615,0,-123.57692)"
       gradientUnits="userSpaceOnUse" />
    <radialGradient
       inkscape:collect="always"
       xlink:href="#linearGradient5205"
       id="radialGradient5215"
       gradientUnits="userSpaceOnUse"
       gradientTransform="matrix(1,0,0,6.5384615,0,-123.57692)"
       cx="6.6875"
       cy="22.3125"
       fx="6.6875"
       fy="22.3125"
       r="0.8125" />
  </defs>
  <sodipodi:namedview
     id="base"
     pagecolor="#ffffff"
     bordercolor="#f6aaaa"
     borderopacity="1"
     inkscape:pageopacity="0.0"
     inkscape:pageshadow="2"
     inkscape:zoom="1"
     inkscape:cx="20.928986"
     inkscape:cy="3.9476325"
     inkscape:document-units="px"
     inkscape:current-layer="layer1"
     width="32px"
     height="32px"
     inkscape:showpageshadow="false"
     showgrid="false"
     gridspacingx="0.5px"
     gridspacingy="0.5px"
     gridempspacing="2"
     inkscape:grid-points="true"
     inkscape:window-width="1019"
     inkscape:window-height="726"
     inkscape:window-x="351"
     inkscape:window-y="132"
     showguides="true"
     inkscape:guide-bbox="true" />
  <metadata
     id="metadata7">
    <rdf:RDF>
      <cc:Work
         rdf:about="">
        <dc:format>image/svg+xml</dc:format>
        <dc:type
           rdf:resource="http://purl.org/dc/dcmitype/StillImage" />
        <dc:creator>
          <cc:Agent>
            <dc:title>Ulisse Perusin</dc:title>
          </cc:Agent>
        </dc:creator>
        <cc:license
           rdf:resource="http://creativecommons.org/licenses/GPL/2.0/" />
        <dc:title>Microsoft Sidewinder Gamepad</dc:title>
        <dc:source>uli.peru@gmail.com</dc:source>
        <dc:subject>
          <rdf:Bag>
            <rdf:li>Microsoft Sidewinder Gamepad</rdf:li>
          </rdf:Bag>
        </dc:subject>
      </cc:Work>
      <cc:License
         rdf:about="http://creativecommons.org/licenses/GPL/2.0/">
        <cc:permits
           rdf:resource="http://web.resource.org/cc/Reproduction" />
        <cc:permits
           rdf:resource="http://web.resource.org/cc/Distribution" />
        <cc:requires
           rdf:resource="http://web.resource.org/cc/Notice" />
        <cc:permits
           rdf:resource="http://web.resource.org/cc/DerivativeWorks" />
        <cc:requires
           rdf:resource="http://web.resource.org/cc/ShareAlike" />
        <cc:requires
           rdf:resource="http://web.resource.org/cc/SourceCode" />
      </cc:License>
    </rdf:RDF>
  </metadata>
  <g
     inkscape:label="Livello 1"
     inkscape:groupmode="layer"
     id="layer1">
    <path
       style="opacity:1;fill:url(#radialGradient3368);fill-opacity:1;fill-rule:evenodd;stroke:#1c2021;stroke-width:1;stroke-linecap:round;stroke-linejoin:round;stroke-miterlimit:4;stroke-dashoffset:0;stroke-opacity:1"
       d="M 30.500001,23.949175 C 30.443029,28.645329 26.867331,26.885989 23,18.5 C 19.847867,21.283106 12.346942,21.214908 9,18.5 C 5.1326689,26.885989 1.5000001,28.595015 1.5000001,24.284614 C 1.5000001,16.599153 6.5,5.5 16,5.5 C 25.5,5.5 30.500001,16.569505 30.500001,23.949175 z "
       id="path2167"
       sodipodi:nodetypes="cccczc" />
    <path
       style="opacity:0.57088126;fill:url(#radialGradient3320);fill-opacity:1;fill-rule:evenodd;stroke:none;stroke-width:1;stroke-linecap:round;stroke-linejoin:round;stroke-miterlimit:4;stroke-dashoffset:0;stroke-opacity:1"
       d="M 4,15.100005 C 6.451762,10.181185 10.831539,6.0000173 16.31579,6.0000173 C 21.874211,6.0000173 25.751831,10.17588 28,15.100005 C 22.134431,15.07534 22.947369,19 16,19 C 9.6842107,19 10.583167,15.142877 4,15.100005 z "
       id="path3312"
       sodipodi:nodetypes="czcsc" />
    <path
       sodipodi:type="inkscape:offset"
       inkscape:radius="-0.97389001"
       inkscape:original="M 16 5.5 C 6.5 5.5 1.5 16.595788 1.5 24.28125 C 1.5 28.591651 5.1326689 26.885989 9 18.5 C 12.346942 21.214908 19.847867 21.283106 23 18.5 C 26.867331 26.885989 30.443027 28.633654 30.5 23.9375 C 30.5 16.55783 25.5 5.5 16 5.5 z "
       xlink:href="#path2167"
       style="opacity:0.27203064;fill:none;fill-opacity:1;fill-rule:evenodd;stroke:url(#linearGradient3276);stroke-width:1;stroke-linecap:round;stroke-linejoin:round;stroke-miterlimit:4;stroke-dashoffset:0;stroke-opacity:1"
       id="path3268"
       inkscape:href="#path2167"
       d="M 16,6.46875 C 11.629161,6.46875 8.3165917,8.9818706 6,12.53125 C 3.6834083,16.080629 2.46875,20.649716 2.46875,24.28125 C 2.46875,25.203228 2.745481,25.568575 2.78125,25.59375 C 2.7991345,25.606337 2.7873301,25.607893 2.90625,25.59375 C 3.0251699,25.579607 3.2371127,25.494008 3.53125,25.3125 C 4.7077993,24.586467 6.7360657,22.189748 8.625,18.09375 C 8.7474813,17.826023 8.9844911,17.628066 9.2697535,17.555233 C 9.555016,17.4824 9.857915,17.542508 10.09375,17.71875 C 11.655311,18.905739 13.992423,19.585864 16.25,19.59375 C 18.507577,19.601636 20.62545,18.918244 21.8125,17.78125 C 22.042221,17.56268 22.36396,17.469616 22.67489,17.531802 C 22.98582,17.593988 23.247016,17.803639 23.375,18.09375 C 25.264955,22.191961 27.297087,24.602693 28.4375,25.28125 C 28.722603,25.450889 28.928585,25.524449 29.03125,25.53125 C 29.133915,25.538051 29.118589,25.530555 29.15625,25.5 C 29.231573,25.43889 29.518724,24.969967 29.53125,23.9375 C 29.53125,20.467614 28.316036,16.003192 26,12.5 C 23.683964,8.9968085 20.372136,6.46875 16,6.46875 z " />
    <path
       style="opacity:0.18007663;fill:url(#radialGradient3264);fill-opacity:1;fill-rule:evenodd;stroke:none;stroke-width:1;stroke-linecap:round;stroke-linejoin:round;stroke-miterlimit:4;stroke-dashoffset:0;stroke-opacity:1"
       d="M 20.446794,16.5 L 11.872332,16.5 C 12.861693,15.666667 14.180841,15 16.159563,15 C 18.138285,15 19.457433,15.666667 20.446794,16.5 z "
       id="path3247"
       sodipodi:nodetypes="ccsc" />
    <g
       id="g3209"
       transform="translate(1.0000006,-1.2e-6)">
      <path
         transform="matrix(0.2327074,0,0,0.2857144,15.207511,8.7142844)"
         d="M 20.594486 18.5 A 4.2972426 3.5 0 1 1  12,18.5 A 4.2972426 3.5 0 1 1  20.594486 18.5 z"
         sodipodi:ry="3.5"
         sodipodi:rx="4.2972426"
         sodipodi:cy="18.5"
         sodipodi:cx="16.297243"
         id="path3167"
         style="opacity:1;fill:#1c2021;fill-opacity:1;fill-rule:evenodd;stroke:none;stroke-width:3.89133692;stroke-linecap:round;stroke-linejoin:round;stroke-miterlimit:4;stroke-dasharray:none;stroke-dashoffset:0;stroke-opacity:1"
         sodipodi:type="arc" />
      <path
         transform="matrix(0.4285716,0,0,0.3809519,9.4285674,7.6666729)"
         d="M 23.5 15.5 A 1.75 1.5 0 1 1  20,15.5 A 1.75 1.5 0 1 1  23.5 15.5 z"
         sodipodi:ry="1.5"
         sodipodi:rx="1.75"
         sodipodi:cy="15.5"
         sodipodi:cx="21.75"
         id="path3177"
         style="opacity:1;fill:url(#linearGradient3229);fill-opacity:1;fill-rule:evenodd;stroke:none;stroke-width:1;stroke-linecap:round;stroke-linejoin:round;stroke-miterlimit:4;stroke-dasharray:none;stroke-dashoffset:0;stroke-opacity:1"
         sodipodi:type="arc" />
    </g>
    <g
       id="g3230"
       transform="matrix(0.9484241,0,0,0.5687106,-15.322766,2.6195757)">
      <path
         transform="matrix(0.4907242,0,0,0.7535841,25.028667,12.223889)"
         d="M 20.594486 18.5 A 4.2972426 3.5 0 1 1  12,18.5 A 4.2972426 3.5 0 1 1  20.594486 18.5 z"
         sodipodi:ry="3.5"
         sodipodi:rx="4.2972426"
         sodipodi:cy="18.5"
         sodipodi:cx="16.297243"
         id="path3224"
         style="opacity:1;fill:#1c2021;fill-opacity:1;fill-rule:evenodd;stroke:none;stroke-width:3.60896707;stroke-linecap:round;stroke-linejoin:round;stroke-miterlimit:4;stroke-dasharray:none;stroke-dashoffset:0;stroke-opacity:1"
         sodipodi:type="arc" />
      <path
         transform="matrix(0.753129,0,0,0.8791818,16.381968,11.219106)"
         d="M 23.5 15.5 A 1.75 1.5 0 1 1  20,15.5 A 1.75 1.5 0 1 1  23.5 15.5 z"
         sodipodi:ry="1.5"
         sodipodi:rx="1.75"
         sodipodi:cy="15.5"
         sodipodi:cx="21.75"
         id="path3226"
         style="opacity:1;fill:url(#linearGradient3234);fill-opacity:1;fill-rule:evenodd;stroke:none;stroke-width:1;stroke-linecap:round;stroke-linejoin:round;stroke-miterlimit:4;stroke-dasharray:none;stroke-dashoffset:0;stroke-opacity:1"
         sodipodi:type="arc" />
    </g>
    <g
       id="g3236"
       transform="matrix(0.372143,0,0,0.3747758,3.7491228,3.2382245)">
      <path
         transform="matrix(0.3555133,0,0,0.4285718,27.178387,18.071422)"
         d="M 20.594486 18.5 A 4.2972426 3.5 0 1 1  12,18.5 A 4.2972426 3.5 0 1 1  20.594486 18.5 z"
         sodipodi:ry="3.5"
         sodipodi:rx="4.2972426"
         sodipodi:cy="18.5"
         sodipodi:cx="16.297243"
         id="path3238"
         style="opacity:1;fill:#2e3436;fill-opacity:1;fill-rule:evenodd;stroke:#1c2021;stroke-width:6.85992908;stroke-linecap:round;stroke-linejoin:round;stroke-miterlimit:4;stroke-dasharray:none;stroke-dashoffset:0;stroke-opacity:1"
         sodipodi:type="arc" />
      <path
         transform="matrix(0.8744763,0,0,0.8894207,12.743146,10.926823)"
         d="M 23.5 15.5 A 1.75 1.5 0 1 1  20,15.5 A 1.75 1.5 0 1 1  23.5 15.5 z"
         sodipodi:ry="1.5"
         sodipodi:rx="1.75"
         sodipodi:cy="15.5"
         sodipodi:cx="21.75"
         id="path3240"
         style="opacity:1;fill:url(#linearGradient3242);fill-opacity:1;fill-rule:evenodd;stroke:none;stroke-width:1;stroke-linecap:round;stroke-linejoin:round;stroke-miterlimit:4;stroke-dasharray:none;stroke-dashoffset:0;stroke-opacity:1"
         sodipodi:type="arc" />
    </g>
    <path
       style="fill:url(#radialGradient3292);fill-opacity:1;fill-rule:evenodd;stroke:none;stroke-width:1;stroke-linecap:round;stroke-linejoin:round;stroke-miterlimit:4;stroke-dashoffset:0;stroke-opacity:1"
       d="M 17,10 L 15,10 C 15,9.4480006 15.447999,9 16,9 C 16.552,9 17,9.4480006 17,10 z "
       id="path3244"
       sodipodi:nodetypes="ccsc" />
    <g
       id="g3364"
       transform="matrix(0.6908767,0,0,0.6906687,-0.3049483,-0.3748853)">
      <path
         transform="matrix(0.8380764,0,0,0.9254989,1.2402478,1.1390237)"
         d="M 20.594486 18.5 A 4.2972426 3.5 0 1 1  12,18.5 A 4.2972426 3.5 0 1 1  20.594486 18.5 z"
         sodipodi:ry="3.5"
         sodipodi:rx="4.2972426"
         sodipodi:cy="18.5"
         sodipodi:cx="16.297243"
         id="path3142"
         style="opacity:1;fill:#3e3e3e;fill-opacity:1;fill-rule:evenodd;stroke:#1c2021;stroke-width:1.64374757;stroke-linecap:round;stroke-linejoin:round;stroke-miterlimit:4;stroke-dasharray:none;stroke-dashoffset:0;stroke-opacity:1"
         sodipodi:type="arc" />
      <path
         sodipodi:nodetypes="ccccc"
         id="path3146"
         d="M 16.363192,18.641188 C 16.344869,20.477828 13.527983,20.648009 13.468321,18.641188 C 11.444521,18.634729 11.609392,15.751629 13.468321,15.745444 C 13.500565,14.763466 16.391194,14.797425 16.363192,15.745444 C 18.34145,15.749279 18.355757,18.637769 16.363192,18.641188 z "
         style="fill:url(#radialGradient3157);fill-opacity:1;fill-rule:evenodd;stroke:none;stroke-width:1.03648961;stroke-linecap:round;stroke-linejoin:round;stroke-miterlimit:4;stroke-dashoffset:0;stroke-opacity:1" />
    </g>
    <text
       xml:space="preserve"
       style="font-size:0.84102118px;font-style:normal;font-variant:normal;font-weight:bold;font-stretch:normal;text-align:start;line-height:125%;writing-mode:lr-tb;text-anchor:start;fill:#797979;fill-opacity:1;stroke:none;stroke-width:1px;stroke-linecap:butt;stroke-linejoin:miter;stroke-opacity:1;font-family:Bitstream Vera Sans"
       x="12.828244"
       y="8.6665993"
       id="text3332"
       sodipodi:linespacing="125%"
       transform="scale(1.0848133,0.9218176)"><tspan
         sodipodi:role="line"
         id="tspan3334"
         x="12.828244"
         y="8.6665993">Microbo</tspan></text>
    <g
       style="opacity:0.44827588;display:inline"
       transform="matrix(1.3143111e-2,0,0,1.671613e-2,-14.966885,25.24114)"
       id="g2612">
      <g
         transform="translate(0,-59.82244)"
         id="g2623">
        <g
           id="g3518"
           transform="matrix(1.043479,0,0,1,3126.228,-59.82246)">
          <rect
             style="opacity:0.40206185;color:#000000;fill:url(#linearGradient3523);fill-opacity:1;fill-rule:nonzero;stroke:none;stroke-width:1;stroke-linecap:round;stroke-linejoin:miter;marker:none;marker-start:none;marker-mid:none;marker-end:none;stroke-miterlimit:4;stroke-dasharray:none;stroke-dashoffset:0;stroke-opacity:1;visibility:visible;display:inline;overflow:visible"
             id="rect6709"
             width="1826.0504"
             height="478.35718"
             x="-1651.0347"
             y="-133.84804" />
          <path
             style="opacity:0.40206185;color:#000000;fill:url(#radialGradient3525);fill-opacity:1;fill-rule:nonzero;stroke:none;stroke-width:1;stroke-linecap:round;stroke-linejoin:miter;marker:none;marker-start:none;marker-mid:none;marker-end:none;stroke-miterlimit:4;stroke-dasharray:none;stroke-dashoffset:0;stroke-opacity:1;visibility:visible;display:inline;overflow:visible"
             d="M 175.01578,-134.07052 C 175.01578,-134.07052 175.01578,344.26027 175.01578,344.26027 C 279.92447,345.16072 428.63395,237.09061 428.63389,105.06409 C 428.63389,-26.962449 311.56369,-134.0705 175.01578,-134.07052 z "
             id="path6711"
             sodipodi:nodetypes="cccc" />
          <path
             sodipodi:nodetypes="cccc"
             id="path6713"
             d="M -1651.0346,-133.82723 C -1651.0346,-133.82723 -1651.0346,344.50356 -1651.0346,344.50356 C -1755.9433,345.40401 -1904.6528,237.3339 -1904.6528,105.30739 C -1904.6528,-26.719152 -1787.5825,-133.82721 -1651.0346,-133.82723 z "
             style="opacity:0.40206185;color:#000000;fill:url(#radialGradient3527);fill-opacity:1;fill-rule:nonzero;stroke:none;stroke-width:1;stroke-linecap:round;stroke-linejoin:miter;marker:none;marker-start:none;marker-mid:none;marker-end:none;stroke-miterlimit:4;stroke-dasharray:none;stroke-dashoffset:0;stroke-opacity:1;visibility:visible;display:inline;overflow:visible" />
        </g>
      </g>
    </g>
    <g
       id="g3213"
       transform="translate(3.0000012,-1.0000024)">
      <path
         transform="matrix(0.2327074,0,0,0.2857144,15.207511,8.7142844)"
         d="M 20.594486 18.5 A 4.2972426 3.5 0 1 1  12,18.5 A 4.2972426 3.5 0 1 1  20.594486 18.5 z"
         sodipodi:ry="3.5"
         sodipodi:rx="4.2972426"
         sodipodi:cy="18.5"
         sodipodi:cx="16.297243"
         id="path3215"
         style="opacity:1;fill:#1c2021;fill-opacity:1;fill-rule:evenodd;stroke:none;stroke-width:3.89133692;stroke-linecap:round;stroke-linejoin:round;stroke-miterlimit:4;stroke-dasharray:none;stroke-dashoffset:0;stroke-opacity:1"
         sodipodi:type="arc" />
      <path
         transform="matrix(0.4285716,0,0,0.3809519,9.4285674,7.6666729)"
         d="M 23.5 15.5 A 1.75 1.5 0 1 1  20,15.5 A 1.75 1.5 0 1 1  23.5 15.5 z"
         sodipodi:ry="1.5"
         sodipodi:rx="1.75"
         sodipodi:cy="15.5"
         sodipodi:cx="21.75"
         id="path3217"
         style="opacity:1;fill:url(#linearGradient3219);fill-opacity:1;fill-rule:evenodd;stroke:none;stroke-width:1;stroke-linecap:round;stroke-linejoin:round;stroke-miterlimit:4;stroke-dasharray:none;stroke-dashoffset:0;stroke-opacity:1"
         sodipodi:type="arc" />
    </g>
    <g
       id="g3221"
       transform="translate(5.0000012,-2.0000024)">
      <path
         transform="matrix(0.2327074,0,0,0.2857144,15.207511,8.7142844)"
         d="M 20.594486 18.5 A 4.2972426 3.5 0 1 1  12,18.5 A 4.2972426 3.5 0 1 1  20.594486 18.5 z"
         sodipodi:ry="3.5"
         sodipodi:rx="4.2972426"
         sodipodi:cy="18.5"
         sodipodi:cx="16.297243"
         id="path3223"
         style="opacity:1;fill:#1c2021;fill-opacity:1;fill-rule:evenodd;stroke:none;stroke-width:3.89133692;stroke-linecap:round;stroke-linejoin:round;stroke-miterlimit:4;stroke-dasharray:none;stroke-dashoffset:0;stroke-opacity:1"
         sodipodi:type="arc" />
      <path
         transform="matrix(0.4285716,0,0,0.3809519,9.4285674,7.6666729)"
         d="M 23.5 15.5 A 1.75 1.5 0 1 1  20,15.5 A 1.75 1.5 0 1 1  23.5 15.5 z"
         sodipodi:ry="1.5"
         sodipodi:rx="1.75"
         sodipodi:cy="15.5"
         sodipodi:cx="21.75"
         id="path3225"
         style="opacity:1;fill:url(#linearGradient3227);fill-opacity:1;fill-rule:evenodd;stroke:none;stroke-width:1;stroke-linecap:round;stroke-linejoin:round;stroke-miterlimit:4;stroke-dasharray:none;stroke-dashoffset:0;stroke-opacity:1"
         sodipodi:type="arc" />
    </g>
    <g
       id="g3231"
       transform="matrix(0.4999997,0,0,0.9999996,13.000005,-3.9999954)">
      <path
         transform="matrix(0.2327074,0,0,0.2857144,15.207511,8.7142844)"
         d="M 20.594486 18.5 A 4.2972426 3.5 0 1 1  12,18.5 A 4.2972426 3.5 0 1 1  20.594486 18.5 z"
         sodipodi:ry="3.5"
         sodipodi:rx="4.2972426"
         sodipodi:cy="18.5"
         sodipodi:cx="16.297243"
         id="path3233"
         style="opacity:1;fill:#1c2021;fill-opacity:1;fill-rule:evenodd;stroke:none;stroke-width:3.89133692;stroke-linecap:round;stroke-linejoin:round;stroke-miterlimit:4;stroke-dasharray:none;stroke-dashoffset:0;stroke-opacity:1"
         sodipodi:type="arc" />
      <path
         transform="matrix(0.5714293,0,0,0.3809519,6.5714131,7.6666729)"
         d="M 23.5 15.5 A 1.75 1.5 0 1 1  20,15.5 A 1.75 1.5 0 1 1  23.5 15.5 z"
         sodipodi:ry="1.5"
         sodipodi:rx="1.75"
         sodipodi:cy="15.5"
         sodipodi:cx="21.75"
         id="path3235"
         style="opacity:1;fill:url(#linearGradient3237);fill-opacity:1;fill-rule:evenodd;stroke:none;stroke-width:1;stroke-linecap:round;stroke-linejoin:round;stroke-miterlimit:4;stroke-dasharray:none;stroke-dashoffset:0;stroke-opacity:1"
         sodipodi:type="arc" />
    </g>
    <g
       id="g3239"
       transform="matrix(0.4999997,0,0,0.9999992,11.000005,-2.9999885)">
      <path
         transform="matrix(0.2327074,0,0,0.2857144,15.207511,8.7142844)"
         d="M 20.594486 18.5 A 4.2972426 3.5 0 1 1  12,18.5 A 4.2972426 3.5 0 1 1  20.594486 18.5 z"
         sodipodi:ry="3.5"
         sodipodi:rx="4.2972426"
         sodipodi:cy="18.5"
         sodipodi:cx="16.297243"
         id="path3241"
         style="opacity:1;fill:#1c2021;fill-opacity:1;fill-rule:evenodd;stroke:none;stroke-width:3.89133692;stroke-linecap:round;stroke-linejoin:round;stroke-miterlimit:4;stroke-dasharray:none;stroke-dashoffset:0;stroke-opacity:1"
         sodipodi:type="arc" />
      <path
         transform="matrix(0.5714293,0,0,0.3809519,6.5714131,7.6666729)"
         d="M 23.5 15.5 A 1.75 1.5 0 1 1  20,15.5 A 1.75 1.5 0 1 1  23.5 15.5 z"
         sodipodi:ry="1.5"
         sodipodi:rx="1.75"
         sodipodi:cy="15.5"
         sodipodi:cx="21.75"
         id="path3243"
         style="opacity:1;fill:url(#linearGradient3245);fill-opacity:1;fill-rule:evenodd;stroke:none;stroke-width:1;stroke-linecap:round;stroke-linejoin:round;stroke-miterlimit:4;stroke-dasharray:none;stroke-dashoffset:0;stroke-opacity:1"
         sodipodi:type="arc" />
    </g>
    <g
       id="g3247"
       transform="matrix(0.4999992,0,0,0.9999994,9.0000151,-1.9999921)">
      <path
         transform="matrix(0.2327074,0,0,0.2857144,15.207511,8.7142844)"
         d="M 20.594486 18.5 A 4.2972426 3.5 0 1 1  12,18.5 A 4.2972426 3.5 0 1 1  20.594486 18.5 z"
         sodipodi:ry="3.5"
         sodipodi:rx="4.2972426"
         sodipodi:cy="18.5"
         sodipodi:cx="16.297243"
         id="path3249"
         style="opacity:1;fill:#1c2021;fill-opacity:1;fill-rule:evenodd;stroke:none;stroke-width:3.89133692;stroke-linecap:round;stroke-linejoin:round;stroke-miterlimit:4;stroke-dasharray:none;stroke-dashoffset:0;stroke-opacity:1"
         sodipodi:type="arc" />
      <path
         transform="matrix(0.571429,0,0,0.3809519,6.5714188,7.6666729)"
         d="M 23.5 15.5 A 1.75 1.5 0 1 1  20,15.5 A 1.75 1.5 0 1 1  23.5 15.5 z"
         sodipodi:ry="1.5"
         sodipodi:rx="1.75"
         sodipodi:cy="15.5"
         sodipodi:cx="21.75"
         id="path3251"
         style="opacity:1;fill:url(#linearGradient3253);fill-opacity:1;fill-rule:evenodd;stroke:none;stroke-width:1;stroke-linecap:round;stroke-linejoin:round;stroke-miterlimit:4;stroke-dasharray:none;stroke-dashoffset:0;stroke-opacity:1"
         sodipodi:type="arc" />
    </g>
    <path
       sodipodi:type="arc"
       style="opacity:0.33333333;color:#000000;fill:url(#radialGradient5211);fill-opacity:1;fill-rule:nonzero;stroke:none;stroke-width:1;stroke-linecap:round;stroke-linejoin:round;marker:none;marker-start:none;marker-mid:none;marker-end:none;stroke-miterlimit:4;stroke-dasharray:none;stroke-dashoffset:0;stroke-opacity:1;visibility:visible;display:inline;overflow:visible;enable-background:accumulate"
       id="path4626"
       sodipodi:cx="6.6875"
       sodipodi:cy="22.3125"
       sodipodi:rx="0.8125"
       sodipodi:ry="5.3125"
       d="M 7.5,22.3125 A 0.8125,5.3125 0 1 1 5.875,22.3125 A 0.8125,5.3125 0 1 1 7.5,22.3125 z"
       transform="matrix(0.8571899,0.5150005,-0.5150005,0.8571899,11.32099,-2.0076154)" />
    <path
       transform="matrix(-0.5631129,0.3249696,0.3383188,0.540894,21.998329,5.4455687)"
       d="M 7.5,22.3125 A 0.8125,5.3125 0 1 1 5.875,22.3125 A 0.8125,5.3125 0 1 1 7.5,22.3125 z"
       sodipodi:ry="5.3125"
       sodipodi:rx="0.8125"
       sodipodi:cy="22.3125"
       sodipodi:cx="6.6875"
       id="path5213"
       style="opacity:0.33333333;color:#000000;fill:url(#radialGradient5215);fill-opacity:1;fill-rule:nonzero;stroke:none;stroke-width:1;stroke-linecap:round;stroke-linejoin:round;marker:none;marker-start:none;marker-mid:none;marker-end:none;stroke-miterlimit:4;stroke-dasharray:none;stroke-dashoffset:0;stroke-opacity:1;visibility:visible;display:inline;overflow:visible;enable-background:accumulate"
       sodipodi:type="arc" />
  </g>
</svg>
