<?xml version="1.0" encoding="UTF-8" standalone="no"?>
<!-- Created with Inkscape (http://www.inkscape.org/) -->
<svg
   xmlns:dc="http://purl.org/dc/elements/1.1/"
   xmlns:cc="http://web.resource.org/cc/"
   xmlns:rdf="http://www.w3.org/1999/02/22-rdf-syntax-ns#"
   xmlns:svg="http://www.w3.org/2000/svg"
   xmlns="http://www.w3.org/2000/svg"
   xmlns:xlink="http://www.w3.org/1999/xlink"
   xmlns:sodipodi="http://sodipodi.sourceforge.net/DTD/sodipodi-0.dtd"
   xmlns:inkscape="http://www.inkscape.org/namespaces/inkscape"
   width="32"
   height="32"
   id="svg7429"
   sodipodi:version="0.32"
   inkscape:version="0.45+devel"
   sodipodi:docbase="C:\Tango\transcend-jetflash-150\32x32"
   sodipodi:docname="transcend-jetflash-150-1GB.svg"
   inkscape:output_extension="org.inkscape.output.svg.inkscape"
   inkscape:export-filename="C:\Tango\transcend-jetflash-150\32x32\transcend-jetflash-150-1GB.png"
   inkscape:export-xdpi="90"
   inkscape:export-ydpi="90"
   version="1.0">
  <defs
     id="defs7431">
    <linearGradient
       inkscape:collect="always"
       id="linearGradient3033">
      <stop
         style="stop-color:#ffffff;stop-opacity:1;"
         offset="0"
         id="stop3035" />
      <stop
         style="stop-color:#ffffff;stop-opacity:0;"
         offset="1"
         id="stop3037" />
    </linearGradient>
    <linearGradient
       id="linearGradient2913">
      <stop
         style="stop-color:#cc0000;stop-opacity:1;"
         offset="0"
         id="stop2915" />
      <stop
         id="stop2921"
         offset="0.5130434"
         style="stop-color:#ef2929;stop-opacity:1;" />
      <stop
         style="stop-color:#cc0000;stop-opacity:1;"
         offset="1"
         id="stop2917" />
    </linearGradient>
    <linearGradient
       inkscape:collect="always"
       id="linearGradient2906">
      <stop
         style="stop-color:#ffffff;stop-opacity:1;"
         offset="0"
         id="stop2908" />
      <stop
         style="stop-color:#ffffff;stop-opacity:0;"
         offset="1"
         id="stop2910" />
    </linearGradient>
    <linearGradient
       id="linearGradient9697">
      <stop
         style="stop-color:#b3b3b3;stop-opacity:1;"
         offset="0"
         id="stop9699" />
      <stop
         id="stop9707"
         offset="1"
         style="stop-color:#b3b3b3;stop-opacity:0;" />
    </linearGradient>
    <linearGradient
       id="linearGradient4862">
      <stop
         style="stop-color:#ffffff;stop-opacity:1;"
         offset="0"
         id="stop4864" />
      <stop
         style="stop-color:#ffffff;stop-opacity:0;"
         offset="1"
         id="stop4866" />
    </linearGradient>
    <linearGradient
       id="linearGradient9203">
      <stop
         style="stop-color:#f9f9f9;stop-opacity:1;"
         offset="0"
         id="stop9205" />
      <stop
         style="stop-color:#f2f2f2;stop-opacity:1.0000000;"
         offset="1.0000000"
         id="stop9207" />
    </linearGradient>
    <radialGradient
       r="21.38998"
       fy="45.25996"
       fx="24.218407"
       cy="45.25996"
       cx="24.218407"
       gradientTransform="matrix(1,0,0,0.128099,0,39.4622)"
       gradientUnits="userSpaceOnUse"
       id="radialGradient6304"
       xlink:href="#linearGradient6125"
       inkscape:collect="always" />
    <linearGradient
       gradientTransform="translate(58.28617,0)"
       gradientUnits="userSpaceOnUse"
       y2="39.508614"
       x2="24.508614"
       y1="12.495212"
       x1="24.508614"
       id="linearGradient6298"
       xlink:href="#linearGradient6292"
       inkscape:collect="always" />
    <linearGradient
       gradientTransform="translate(58.28617,0)"
       gradientUnits="userSpaceOnUse"
       y2="43.375004"
       x2="24.8125"
       y1="41.000004"
       x1="24.8125"
       id="linearGradient6265"
       xlink:href="#linearGradient6259"
       inkscape:collect="always" />
    <linearGradient
       gradientUnits="userSpaceOnUse"
       y2="62.265625"
       x2="34.09375"
       y1="7.515625"
       x1="20.40625"
       id="linearGradient6253"
       xlink:href="#linearGradient6247"
       inkscape:collect="always" />
    <linearGradient
       gradientTransform="translate(58.28617,0)"
       y2="44.992451"
       x2="28.841305"
       y1="6.2555637"
       x1="22.15266"
       gradientUnits="userSpaceOnUse"
       id="linearGradient6245"
       xlink:href="#linearGradient6235"
       inkscape:collect="always" />
    <radialGradient
       r="3.8890872"
       fy="28.603338"
       fx="33.45499"
       cy="28.603338"
       cx="33.45499"
       gradientTransform="matrix(3.657239,0,0,3.657239,-88.89792,-76.00592)"
       gradientUnits="userSpaceOnUse"
       id="radialGradient6218"
       xlink:href="#linearGradient6151"
       inkscape:collect="always" />
    <linearGradient
       gradientUnits="userSpaceOnUse"
       y2="78.505272"
       x2="30.507824"
       y1="8.6784801"
       x1="16.845879"
       id="linearGradient6216"
       xlink:href="#linearGradient6210"
       inkscape:collect="always" />
    <linearGradient
       y2="47.007381"
       x2="26.443777"
       y1="4.6076145"
       x1="21.617008"
       gradientTransform="matrix(1,0,0,0.982516,74,-7.076703e-2)"
       gradientUnits="userSpaceOnUse"
       id="linearGradient6208"
       xlink:href="#linearGradient6115"
       inkscape:collect="always" />
    <linearGradient
       gradientTransform="translate(74,0)"
       gradientUnits="userSpaceOnUse"
       y2="7.6786127"
       x2="22.101643"
       y1="21.741114"
       x1="29.374996"
       id="linearGradient6202"
       xlink:href="#linearGradient6196"
       inkscape:collect="always" />
    <radialGradient
       r="3.8890872"
       fy="27.974968"
       fx="29.61227"
       cy="27.974968"
       cx="29.61227"
       gradientTransform="matrix(8.342154,0,0,8.342154,-153.6289,-207.0663)"
       gradientUnits="userSpaceOnUse"
       id="radialGradient6161"
       xlink:href="#linearGradient6151"
       inkscape:collect="always" />
    <radialGradient
       gradientUnits="userSpaceOnUse"
       gradientTransform="matrix(1,0,0,0.128099,0,39.4622)"
       r="21.38998"
       fy="45.25996"
       fx="24.218407"
       cy="45.25996"
       cx="24.218407"
       id="radialGradient6131"
       xlink:href="#linearGradient6125"
       inkscape:collect="always" />
    <linearGradient
       gradientTransform="matrix(1,0,0,0.934004,74,1.557982)"
       gradientUnits="userSpaceOnUse"
       y2="46.635937"
       x2="22.797205"
       y1="39.679859"
       x1="22.797205"
       id="linearGradient6105"
       xlink:href="#linearGradient6099"
       inkscape:collect="always" />
    <linearGradient
       id="linearGradient6099">
      <stop
         id="stop6101"
         offset="0"
         style="stop-color:#eeeeec;stop-opacity:1;" />
      <stop
         style="stop-color:#dededa;stop-opacity:1;"
         offset="0.8918919"
         id="stop6107" />
      <stop
         id="stop6103"
         offset="1"
         style="stop-color:#838375;stop-opacity:1;" />
    </linearGradient>
    <linearGradient
       id="linearGradient6115">
      <stop
         id="stop6117"
         offset="0"
         style="stop-color:#555753;stop-opacity:1;" />
      <stop
         id="stop6119"
         offset="1"
         style="stop-color:#3e3f3c;stop-opacity:1;" />
    </linearGradient>
    <linearGradient
       id="linearGradient6125"
       inkscape:collect="always">
      <stop
         id="stop6127"
         offset="0"
         style="stop-color:black;stop-opacity:1;" />
      <stop
         id="stop6129"
         offset="1"
         style="stop-color:black;stop-opacity:0;" />
    </linearGradient>
    <linearGradient
       id="linearGradient6151"
       inkscape:collect="always">
      <stop
         id="stop6153"
         offset="0"
         style="stop-color:#2e3436;stop-opacity:1;" />
      <stop
         id="stop6155"
         offset="1"
         style="stop-color:#2e3436;stop-opacity:0;" />
    </linearGradient>
    <linearGradient
       id="linearGradient6196">
      <stop
         id="stop6198"
         offset="0"
         style="stop-color:#edd400;stop-opacity:1;" />
      <stop
         style="stop-color:#c3af07;stop-opacity:1;"
         offset="0.5"
         id="stop6204" />
      <stop
         id="stop6200"
         offset="1"
         style="stop-color:#ffeb3e;stop-opacity:1;" />
    </linearGradient>
    <linearGradient
       id="linearGradient6210"
       inkscape:collect="always">
      <stop
         id="stop6212"
         offset="0"
         style="stop-color:white;stop-opacity:1;" />
      <stop
         id="stop6214"
         offset="1"
         style="stop-color:white;stop-opacity:0;" />
    </linearGradient>
    <linearGradient
       id="linearGradient6235">
      <stop
         id="stop6237"
         offset="0"
         style="stop-color:#3465a4;stop-opacity:1;" />
      <stop
         id="stop6239"
         offset="1"
         style="stop-color:#2d588f;stop-opacity:1;" />
    </linearGradient>
    <linearGradient
       id="linearGradient6247"
       inkscape:collect="always">
      <stop
         id="stop6249"
         offset="0"
         style="stop-color:white;stop-opacity:1;" />
      <stop
         id="stop6251"
         offset="1"
         style="stop-color:white;stop-opacity:0;" />
    </linearGradient>
    <linearGradient
       id="linearGradient6259">
      <stop
         id="stop6261"
         offset="0"
         style="stop-color:#173764;stop-opacity:1;" />
      <stop
         id="stop6263"
         offset="1"
         style="stop-color:#2d69c0;stop-opacity:1;" />
    </linearGradient>
    <linearGradient
       id="linearGradient6292">
      <stop
         id="stop6294"
         offset="0"
         style="stop-color:#f57900;stop-opacity:1;" />
      <stop
         style="stop-color:#ff9f43;stop-opacity:1;"
         offset="0.27027026"
         id="stop6300" />
      <stop
         id="stop6296"
         offset="1"
         style="stop-color:#cb6400;stop-opacity:1;" />
    </linearGradient>
    <linearGradient
       id="linearGradient6324">
      <stop
         id="stop6326"
         offset="0"
         style="stop-color:#396fb5;stop-opacity:1;" />
      <stop
         id="stop6328"
         offset="1"
         style="stop-color:#3465a4;stop-opacity:0;" />
    </linearGradient>
    <linearGradient
       id="linearGradient6368">
      <stop
         id="stop6370"
         offset="0"
         style="stop-color:#5085c8;stop-opacity:1" />
      <stop
         id="stop6372"
         offset="1"
         style="stop-color:#cfdfef;stop-opacity:0.60194176;" />
    </linearGradient>
    <linearGradient
       id="linearGradient3494">
      <stop
         id="stop3496"
         offset="0"
         style="stop-color:#2e3436;stop-opacity:0.82474226;" />
      <stop
         id="stop3498"
         offset="1"
         style="stop-color:#2e3436;stop-opacity:0;" />
    </linearGradient>
    <linearGradient
       id="linearGradient3506">
      <stop
         id="stop3508"
         offset="0"
         style="stop-color:#555753;stop-opacity:1;" />
      <stop
         id="stop3510"
         offset="1"
         style="stop-color:#555753;stop-opacity:0.22680412;" />
    </linearGradient>
    <linearGradient
       id="linearGradient3470">
      <stop
         id="stop3472"
         offset="0"
         style="stop-color:#729fcf;stop-opacity:1;" />
      <stop
         id="stop3474"
         offset="1"
         style="stop-color:#386da5;stop-opacity:1;" />
    </linearGradient>
    <linearGradient
       id="linearGradient3161">
      <stop
         style="stop-color:#d3d7cf;stop-opacity:1;"
         offset="0"
         id="stop3163" />
      <stop
         style="stop-color:#bbc1b5;stop-opacity:1;"
         offset="1"
         id="stop3165" />
    </linearGradient>
    <linearGradient
       gradientUnits="userSpaceOnUse"
       y2="32.576614"
       x2="29.019531"
       y1="19.002398"
       x1="19.003906"
       id="linearGradient6709"
       xlink:href="#linearGradient4862"
       inkscape:collect="always" />
    <linearGradient
       id="linearGradient6698">
      <stop
         id="stop6700"
         offset="0"
         style="stop-color:#d3d7cf;stop-opacity:1;" />
      <stop
         id="stop6702"
         offset="1"
         style="stop-color:#bbc1b5;stop-opacity:1;" />
    </linearGradient>
    <linearGradient
       id="linearGradient6690">
      <stop
         style="stop-color:#729fcf;stop-opacity:1;"
         offset="0"
         id="stop6692" />
      <stop
         style="stop-color:#386da5;stop-opacity:1;"
         offset="1"
         id="stop6694" />
    </linearGradient>
    <linearGradient
       id="linearGradient6684">
      <stop
         style="stop-color:#555753;stop-opacity:1;"
         offset="0"
         id="stop6686" />
      <stop
         style="stop-color:#555753;stop-opacity:0.22680412;"
         offset="1"
         id="stop6688" />
    </linearGradient>
    <linearGradient
       id="linearGradient6678">
      <stop
         style="stop-color:#2e3436;stop-opacity:0.82474226;"
         offset="0"
         id="stop6680" />
      <stop
         style="stop-color:#2e3436;stop-opacity:0;"
         offset="1"
         id="stop6682" />
    </linearGradient>
    <linearGradient
       id="linearGradient6672">
      <stop
         style="stop-color:#5085c8;stop-opacity:1"
         offset="0"
         id="stop6674" />
      <stop
         style="stop-color:#cfdfef;stop-opacity:0.60194176;"
         offset="1"
         id="stop6676" />
    </linearGradient>
    <linearGradient
       id="linearGradient6666">
      <stop
         style="stop-color:#396fb5;stop-opacity:1;"
         offset="0"
         id="stop6668" />
      <stop
         style="stop-color:#3465a4;stop-opacity:0;"
         offset="1"
         id="stop6670" />
    </linearGradient>
    <linearGradient
       id="linearGradient6658">
      <stop
         style="stop-color:#f57900;stop-opacity:1;"
         offset="0"
         id="stop6660" />
      <stop
         id="stop6662"
         offset="0.27027026"
         style="stop-color:#ff9f43;stop-opacity:1;" />
      <stop
         style="stop-color:#cb6400;stop-opacity:1;"
         offset="1"
         id="stop6664" />
    </linearGradient>
    <linearGradient
       id="linearGradient6652">
      <stop
         style="stop-color:#173764;stop-opacity:1;"
         offset="0"
         id="stop6654" />
      <stop
         style="stop-color:#2d69c0;stop-opacity:1;"
         offset="1"
         id="stop6656" />
    </linearGradient>
    <linearGradient
       id="linearGradient6640">
      <stop
         style="stop-color:#3465a4;stop-opacity:1;"
         offset="0"
         id="stop6642" />
      <stop
         style="stop-color:#2d588f;stop-opacity:1;"
         offset="1"
         id="stop6644" />
    </linearGradient>
    <linearGradient
       id="linearGradient6626">
      <stop
         style="stop-color:#edd400;stop-opacity:1;"
         offset="0"
         id="stop6628" />
      <stop
         id="stop6630"
         offset="0.5"
         style="stop-color:#c3af07;stop-opacity:1;" />
      <stop
         style="stop-color:#ffeb3e;stop-opacity:1;"
         offset="1"
         id="stop6632" />
    </linearGradient>
    <linearGradient
       id="linearGradient6608">
      <stop
         style="stop-color:#555753;stop-opacity:1;"
         offset="0"
         id="stop6610" />
      <stop
         style="stop-color:#3e3f3c;stop-opacity:1;"
         offset="1"
         id="stop6612" />
    </linearGradient>
    <linearGradient
       id="linearGradient6600">
      <stop
         style="stop-color:#eeeeec;stop-opacity:1;"
         offset="0"
         id="stop6602" />
      <stop
         id="stop6604"
         offset="0.8918919"
         style="stop-color:#dededa;stop-opacity:1;" />
      <stop
         style="stop-color:#838375;stop-opacity:1;"
         offset="1"
         id="stop6606" />
    </linearGradient>
    <linearGradient
       inkscape:collect="always"
       xlink:href="#linearGradient6099"
       id="linearGradient6598"
       x1="22.797205"
       y1="39.679859"
       x2="22.797205"
       y2="46.635937"
       gradientUnits="userSpaceOnUse"
       gradientTransform="matrix(1,0,0,0.934004,74,1.557982)" />
    <radialGradient
       inkscape:collect="always"
       xlink:href="#linearGradient6125"
       id="radialGradient6596"
       cx="24.218407"
       cy="45.25996"
       fx="24.218407"
       fy="45.25996"
       r="21.38998"
       gradientTransform="matrix(1,0,0,0.128099,0,39.4622)"
       gradientUnits="userSpaceOnUse" />
    <radialGradient
       inkscape:collect="always"
       xlink:href="#linearGradient6151"
       id="radialGradient6594"
       gradientUnits="userSpaceOnUse"
       gradientTransform="matrix(8.342154,0,0,8.342154,-153.6289,-207.0663)"
       cx="29.61227"
       cy="27.974968"
       fx="29.61227"
       fy="27.974968"
       r="3.8890872" />
    <linearGradient
       inkscape:collect="always"
       xlink:href="#linearGradient6196"
       id="linearGradient6592"
       x1="29.374996"
       y1="21.741114"
       x2="22.101643"
       y2="7.6786127"
       gradientUnits="userSpaceOnUse"
       gradientTransform="translate(74,0)" />
    <linearGradient
       inkscape:collect="always"
       xlink:href="#linearGradient6115"
       id="linearGradient6590"
       gradientUnits="userSpaceOnUse"
       gradientTransform="matrix(1,0,0,0.982516,74,-7.076703e-2)"
       x1="21.617008"
       y1="4.6076145"
       x2="26.443777"
       y2="47.007381" />
    <linearGradient
       inkscape:collect="always"
       xlink:href="#linearGradient6210"
       id="linearGradient6588"
       x1="16.845879"
       y1="8.6784801"
       x2="30.507824"
       y2="78.505272"
       gradientUnits="userSpaceOnUse" />
    <radialGradient
       inkscape:collect="always"
       xlink:href="#linearGradient6151"
       id="radialGradient6586"
       gradientUnits="userSpaceOnUse"
       gradientTransform="matrix(3.657239,0,0,3.657239,-88.89792,-76.00592)"
       cx="33.45499"
       cy="28.603338"
       fx="33.45499"
       fy="28.603338"
       r="3.8890872" />
    <linearGradient
       inkscape:collect="always"
       xlink:href="#linearGradient6235"
       id="linearGradient6584"
       gradientUnits="userSpaceOnUse"
       x1="22.15266"
       y1="6.2555637"
       x2="28.841305"
       y2="44.992451"
       gradientTransform="translate(58.28617,0)" />
    <linearGradient
       inkscape:collect="always"
       xlink:href="#linearGradient6247"
       id="linearGradient6582"
       x1="20.40625"
       y1="7.515625"
       x2="34.09375"
       y2="62.265625"
       gradientUnits="userSpaceOnUse" />
    <linearGradient
       inkscape:collect="always"
       xlink:href="#linearGradient6259"
       id="linearGradient6580"
       x1="24.8125"
       y1="41.000004"
       x2="24.8125"
       y2="43.375004"
       gradientUnits="userSpaceOnUse"
       gradientTransform="translate(58.28617,0)" />
    <linearGradient
       inkscape:collect="always"
       xlink:href="#linearGradient6292"
       id="linearGradient6578"
       x1="24.508614"
       y1="12.495212"
       x2="24.508614"
       y2="39.508614"
       gradientUnits="userSpaceOnUse"
       gradientTransform="translate(58.28617,0)" />
    <radialGradient
       inkscape:collect="always"
       xlink:href="#linearGradient6125"
       id="radialGradient6576"
       gradientUnits="userSpaceOnUse"
       gradientTransform="matrix(1,0,0,0.128099,0,39.4622)"
       cx="24.218407"
       cy="45.25996"
       fx="24.218407"
       fy="45.25996"
       r="21.38998" />
    <linearGradient
       id="linearGradient6570">
      <stop
         id="stop6572"
         offset="0"
         style="stop-color:#f9f9f9;stop-opacity:1;" />
      <stop
         id="stop6574"
         offset="1.0000000"
         style="stop-color:#f2f2f2;stop-opacity:1.0000000;" />
    </linearGradient>
    <linearGradient
       inkscape:collect="always"
       xlink:href="#linearGradient9697"
       id="linearGradient9703"
       x1="-4.4651165"
       y1="12.059034"
       x2="8.3291588"
       y2="12.059034"
       gradientUnits="userSpaceOnUse"
       gradientTransform="matrix(1.0942394,0,0,3.3931208,-2.114093,-17.991998)"
       spreadMethod="pad" />
    <linearGradient
       inkscape:collect="always"
       xlink:href="#linearGradient2906"
       id="linearGradient2912"
       x1="10"
       y1="-12"
       x2="30"
       y2="73"
       gradientUnits="userSpaceOnUse"
       gradientTransform="matrix(0.5653173,0,0,0.6509665,2.1497239,-0.1194117)" />
    <linearGradient
       inkscape:collect="always"
       xlink:href="#linearGradient2913"
       id="linearGradient2919"
       x1="14.796515"
       y1="36.837719"
       x2="32.578289"
       y2="36.837719"
       gradientUnits="userSpaceOnUse"
       gradientTransform="matrix(0.6469985,0,0,0.6817949,0.4720392,-1.2039738)" />
    <filter
       inkscape:collect="always"
       x="-0.13639002"
       width="1.2727799"
       y="-0.23358747"
       height="1.4671749"
       id="filter3015">
      <feGaussianBlur
         inkscape:collect="always"
         stdDeviation="0.84215433"
         id="feGaussianBlur3017" />
    </filter>
    <linearGradient
       inkscape:collect="always"
       xlink:href="#linearGradient3033"
       id="linearGradient3039"
       x1="29"
       y1="16"
       x2="29"
       y2="34.027756"
       gradientUnits="userSpaceOnUse"
       gradientTransform="matrix(0.7778063,0,0,0.6985196,-2.6673521,-0.93013)" />
  </defs>
  <sodipodi:namedview
     id="base"
     pagecolor="#ffffff"
     bordercolor="#000000"
     borderopacity="1"
     inkscape:pageopacity="0.0"
     inkscape:pageshadow="2"
     inkscape:zoom="24.984375"
     inkscape:cx="16.04336"
     inkscape:cy="16.042874"
     inkscape:current-layer="layer1"
     showgrid="true"
     inkscape:grid-bbox="true"
     inkscape:document-units="px"
     showguides="true"
     inkscape:guide-bbox="true"
     inkscape:showpageshadow="true"
     inkscape:window-width="1024"
     inkscape:window-height="724"
     inkscape:window-x="56"
     inkscape:window-y="60"
     gridspacingx="1px"
     gridspacingy="1px"
     inkscape:object-points="false"
     objecttolerance="1"
     gridtolerance="1"
     guidetolerance="1"
     width="32px"
     height="32px">
    <inkscape:grid
       type="xygrid"
       id="grid4164" />
  </sodipodi:namedview>
  <metadata
     id="metadata7434">
    <rdf:RDF>
      <cc:Work
         rdf:about="">
        <dc:format>image/svg+xml</dc:format>
        <dc:type
           rdf:resource="http://purl.org/dc/dcmitype/StillImage" />
        <dc:title>Transcend JetFlash150 1GB</dc:title>
        <dc:date>2007/05/30</dc:date>
        <dc:creator>
          <cc:Agent>
            <dc:title>Ricardo 'Rick' González</dc:title>
          </cc:Agent>
        </dc:creator>
        <dc:publisher>
          <cc:Agent>
            <dc:title />
          </cc:Agent>
        </dc:publisher>
        <dc:source />
        <dc:subject>
          <rdf:Bag>
            <rdf:li>usb drive pendrive transcend</rdf:li>
          </rdf:Bag>
        </dc:subject>
        <cc:license
           rdf:resource="http://creativecommons.org/licenses/GPL/2.0/" />
        <dc:contributor>
          <cc:Agent>
            <dc:title>Josef 'cornelius' Vybíral</dc:title>
          </cc:Agent>
        </dc:contributor>
      </cc:Work>
      <cc:License
         rdf:about="http://creativecommons.org/licenses/GPL/2.0/">
        <cc:permits
           rdf:resource="http://web.resource.org/cc/Reproduction" />
        <cc:permits
           rdf:resource="http://web.resource.org/cc/Distribution" />
        <cc:requires
           rdf:resource="http://web.resource.org/cc/Notice" />
        <cc:permits
           rdf:resource="http://web.resource.org/cc/DerivativeWorks" />
        <cc:requires
           rdf:resource="http://web.resource.org/cc/ShareAlike" />
        <cc:requires
           rdf:resource="http://web.resource.org/cc/SourceCode" />
      </cc:License>
    </rdf:RDF>
  </metadata>
  <g
     id="layer1"
     inkscape:label="Layer 1"
     inkscape:groupmode="layer">
    <rect
       ry="1.2492193"
       rx="0.64065903"
       y="0.84322041"
       x="10.239415"
       height="3.220834"
       width="10.614214"
       id="rect2425"
       style="opacity:0.7;fill:#ffffff;fill-opacity:1;stroke:none;stroke-width:0.12834676;stroke-linecap:round;stroke-linejoin:round;stroke-miterlimit:4;stroke-dasharray:none;stroke-opacity:1;display:inline" />
    <rect
       style="opacity:1;fill:#ffffff;fill-opacity:1;fill-rule:nonzero;stroke:none;stroke-width:0.704;stroke-linecap:round;stroke-linejoin:round;stroke-miterlimit:0;stroke-dasharray:none;stroke-dashoffset:0;stroke-opacity:1"
       id="rect3312"
       width="0.0079017347"
       height="0.089420028"
       x="13.532964"
       y="3.3612452"
       rx="0.19140634"
       ry="0.089420028" />
    <rect
       transform="matrix(0.9655172,0,0,0.4272459,2.7241379,27.727541)"
       style="opacity:0.31924881;fill:#000000;fill-opacity:1;stroke:none;stroke-width:0.67364258;stroke-linejoin:miter;stroke-miterlimit:4;stroke-dasharray:none;stroke-opacity:1;filter:url(#filter3015)"
       id="rect3891"
       width="14.5"
       height="7.9696693"
       x="6.5"
       y="2.0303304"
       rx="2.1529291"
       ry="3.4758823"
       inkscape:export-filename="/home/christian/graphics/usb-icons.png"
       inkscape:export-xdpi="90"
       inkscape:export-ydpi="90" />
    <rect
       style="opacity:1;fill:url(#linearGradient2919);fill-opacity:1;stroke:#a40000;stroke-width:1.00102711;stroke-linecap:round;stroke-linejoin:round;stroke-miterlimit:4;stroke-dasharray:none;stroke-opacity:1;display:inline"
       id="rect5391"
       width="10.998973"
       height="29.998974"
       x="10.500513"
       y="0.50051355"
       rx="0.89468628"
       ry="1.4120612" />
    <path
       style="fill:none;fill-opacity:1;fill-rule:evenodd;stroke:#a40000;stroke-width:1;stroke-linecap:square;stroke-linejoin:miter;stroke-miterlimit:4;stroke-dasharray:none;stroke-opacity:1"
       d="M 11.293048,15.50565 L 20.667168,15.50565 L 20.667168,15.50565 L 20.667168,15.50565"
       id="path5495"
       inkscape:export-filename="C:\Tango\transcend-jetflash-150\48x48\path5495.png"
       inkscape:export-xdpi="90"
       inkscape:export-ydpi="90" />
    <rect
       ry="0.53826308"
       rx="0.31210855"
       y="1.5080053"
       x="11.477461"
       height="27.98399"
       width="9.0450783"
       id="rect5433"
       style="opacity:0.5;fill:none;fill-opacity:1;stroke:url(#linearGradient2912);stroke-width:1;stroke-linecap:round;stroke-linejoin:round;stroke-miterlimit:4;stroke-dasharray:none;stroke-opacity:1;display:inline" />
    <text
       xml:space="preserve"
       style="font-size:1.72069025px;fill:#a40000;fill-opacity:1"
       x="14.491652"
       y="4.8169942"
       id="text7751"
       transform="scale(0.9742366,1.0264447)"><tspan
         sodipodi:role="line"
         id="tspan7753"
         x="14.491652"
         y="4.8169942"
         style="font-style:normal;font-weight:bold;text-align:justify;text-anchor:start;fill:#a40000;fill-opacity:1;font-family:Arial">1GB</tspan></text>
    <path
       inkscape:export-ydpi="90"
       inkscape:export-xdpi="90"
       inkscape:export-filename="C:\Tango\transcend-jetflash-150\48x48\path5495.png"
       id="path2905"
       d="M 11.421792,14.493507 L 15.559975,14.493507 L 15.559975,14.493507 L 15.559975,14.493507"
       style="fill:none;fill-opacity:1;fill-rule:evenodd;stroke:#ffffff;stroke-width:1;stroke-linecap:square;stroke-linejoin:miter;stroke-miterlimit:4;stroke-dasharray:none;stroke-opacity:0.16756759" />
    <path
       style="fill:none;fill-opacity:1;fill-rule:evenodd;stroke:#ffffff;stroke-width:1;stroke-linecap:square;stroke-linejoin:miter;stroke-miterlimit:4;stroke-dasharray:none;stroke-opacity:0.16756759"
       d="M 14.953741,16.500003 L 20.519457,16.500003 L 20.519457,16.500003 L 20.519457,16.500003"
       id="path2929"
       inkscape:export-filename="C:\Tango\transcend-jetflash-150\48x48\path5495.png"
       inkscape:export-xdpi="90"
       inkscape:export-ydpi="90" />
    <path
       sodipodi:nodetypes="cccsccc"
       id="path3031"
       d="M 16.000152,8.4999996 C 17.938272,8.4999996 19.498564,9.7584351 19.498564,9.8295298 L 19.498564,21.367288 C 19.555013,21.402882 17.938272,22.470159 16.000152,22.470159 C 14.062033,22.470159 12.439338,21.435441 12.501741,21.367288 L 12.501741,9.8295298 C 12.501741,9.8295298 14.062033,8.4999996 16.000152,8.4999996 z"
       style="opacity:0.90555576;color:#000000;fill:none;fill-opacity:1;fill-rule:nonzero;stroke:url(#linearGradient3039);stroke-width:1;stroke-linecap:butt;stroke-linejoin:round;marker:none;marker-start:none;marker-mid:none;marker-end:none;stroke-miterlimit:4;stroke-dasharray:none;stroke-dashoffset:0;stroke-opacity:0.25405405;visibility:visible;display:inline;overflow:visible;enable-background:accumulate" />
    <path
       style="opacity:0.90555576;fill:#000000;fill-opacity:1;stroke:#a40000;stroke-width:1;stroke-linecap:butt;stroke-linejoin:round;stroke-miterlimit:4;stroke-dasharray:none;stroke-opacity:1"
       d="M 16.000108,9.4999998 C 17.384481,9.4999998 18.498975,10.460126 18.498975,10.526282 L 18.498975,21.473718 C 18.539296,21.506838 17.384481,22.5 16.000108,22.5 C 14.615737,22.5 13.456669,21.537137 13.501244,21.473718 L 13.501244,10.526282 C 13.501244,10.526282 14.615737,9.4999998 16.000108,9.4999998 z"
       id="rect3289"
       sodipodi:nodetypes="cccsccc" />
    <rect
       style="opacity:1;color:#000000;fill:#2e3436;fill-opacity:1;fill-rule:nonzero;stroke:none;stroke-width:1;stroke-linecap:butt;stroke-linejoin:miter;marker:none;marker-start:none;marker-mid:none;marker-end:none;stroke-miterlimit:4;stroke-dasharray:none;stroke-dashoffset:0;stroke-opacity:0.16756759;visibility:visible;display:inline;overflow:visible;enable-background:accumulate"
       id="rect2927"
       width="2"
       height="10"
       x="15"
       y="11"
       rx="1.1940639"
       ry="0.65784615" />
    <path
       transform="matrix(0,-0.9246709,1.0814659,0,0,0)"
       style="font-size:2.18582511px;font-style:italic;font-variant:normal;font-weight:normal;font-stretch:normal;text-align:start;line-height:125%;writing-mode:lr-tb;text-anchor:start;fill:#eeeeec;fill-opacity:1;stroke:none;stroke-width:1px;stroke-linecap:butt;stroke-linejoin:miter;stroke-opacity:1;font-family:Arial"
       d="M -21.405188,15.471731 L -21.115951,14.085312 L -21.629321,14.085312 L -21.591965,13.907073 L -20.360304,13.907073 L -20.39766,14.085312 L -20.90676,14.085312 L -21.195998,15.471731 L -21.405188,15.471731 M -20.654878,15.471731 L -20.417938,14.338261 L -20.247171,14.338261 L -20.295199,14.569865 C -20.236854,14.482347 -20.179931,14.417598 -20.124431,14.375617 C -20.068221,14.333638 -20.010943,14.312647 -19.952596,14.312646 C -19.914175,14.312647 -19.866858,14.326522 -19.810646,14.354271 L -19.889626,14.533577 C -19.923069,14.509386 -19.959713,14.49729 -19.999558,14.497289 C -20.067154,14.49729 -20.136528,14.535001 -20.207681,14.610422 C -20.278834,14.685845 -20.334689,14.821392 -20.375246,15.017062 L -20.471303,15.471731 L -20.654878,15.471731 M -19.160662,15.330848 C -19.227547,15.388482 -19.29194,15.430818 -19.353843,15.457856 C -19.415746,15.484183 -19.481919,15.497346 -19.55236,15.497346 C -19.656955,15.497346 -19.741272,15.46675 -19.805309,15.405559 C -19.869347,15.343656 -19.901366,15.264676 -19.901366,15.168619 C -19.901366,15.105293 -19.887136,15.049438 -19.858674,15.001053 C -19.829502,14.951958 -19.791079,14.912824 -19.743406,14.88365 C -19.695734,14.853767 -19.637388,14.832421 -19.568369,14.819612 C -19.524966,14.811075 -19.442785,14.804315 -19.321824,14.799334 C -19.200153,14.794354 -19.11299,14.781546 -19.060336,14.760911 C -19.045395,14.708259 -19.037924,14.664499 -19.037923,14.629634 C -19.037924,14.584808 -19.054289,14.549587 -19.087018,14.523971 C -19.131846,14.488395 -19.197306,14.470607 -19.283401,14.470606 C -19.364516,14.470607 -19.431044,14.488751 -19.482986,14.525038 C -19.534216,14.560616 -19.571572,14.61149 -19.595052,14.677662 L -19.790367,14.660585 C -19.750522,14.548164 -19.687551,14.462069 -19.601456,14.402299 C -19.514649,14.342532 -19.405429,14.312647 -19.273795,14.312646 C -19.133624,14.312647 -19.022626,14.346089 -18.940798,14.412972 C -18.878185,14.46278 -18.846877,14.52753 -18.846876,14.60722 C -18.846877,14.667701 -18.855772,14.737787 -18.873559,14.817478 L -18.936529,15.099244 C -18.956453,15.188898 -18.966415,15.26183 -18.966414,15.31804 C -18.966415,15.353617 -18.958588,15.404847 -18.942933,15.471731 L -19.138249,15.471731 C -19.148922,15.434732 -19.156393,15.387771 -19.160662,15.330848 M -19.089153,14.897525 C -19.116192,14.908199 -19.145365,14.916381 -19.176671,14.922073 C -19.207268,14.927766 -19.258854,14.933814 -19.331429,14.940217 C -19.443852,14.950179 -19.523188,14.962987 -19.569437,14.97864 C -19.615687,14.993582 -19.650552,15.017774 -19.674032,15.051216 C -19.697513,15.084658 -19.709253,15.121658 -19.709253,15.162215 C -19.709253,15.216292 -19.690753,15.260762 -19.653753,15.295627 C -19.616042,15.330492 -19.562678,15.347925 -19.493659,15.347925 C -19.429621,15.347925 -19.368074,15.331204 -19.309016,15.297762 C -19.24996,15.263608 -19.203354,15.216292 -19.1692,15.155811 C -19.135047,15.095331 -19.108365,15.009236 -19.089153,14.897525 M -18.689984,15.084302 L -18.496803,15.072562 C -18.496803,15.128062 -18.488265,15.175379 -18.471188,15.214513 C -18.454111,15.253647 -18.422804,15.285666 -18.377266,15.310569 C -18.331016,15.335473 -18.277296,15.347925 -18.216104,15.347925 C -18.130721,15.347925 -18.066683,15.330848 -18.02399,15.296694 C -17.981299,15.262541 -17.959953,15.22234 -17.959952,15.17609 C -17.959953,15.142648 -17.972761,15.110985 -17.998375,15.0811 C -18.024702,15.051216 -18.089096,15.014573 -18.191556,14.971169 C -18.293305,14.927054 -18.35841,14.896103 -18.386871,14.878314 C -18.434544,14.849142 -18.470477,14.814988 -18.494668,14.775853 C -18.518861,14.736008 -18.530957,14.69047 -18.530956,14.639239 C -18.530957,14.549587 -18.49538,14.472742 -18.424227,14.408703 C -18.353074,14.344666 -18.25346,14.312647 -18.125383,14.312646 C -17.983078,14.312647 -17.874925,14.345734 -17.800925,14.411905 C -17.726215,14.477367 -17.687437,14.563818 -17.68459,14.671258 L -17.873501,14.684066 C -17.876348,14.61576 -17.90054,14.561683 -17.946077,14.521836 C -17.991616,14.481992 -18.05601,14.462069 -18.139258,14.462068 C -18.206143,14.462069 -18.258085,14.477367 -18.295084,14.507962 C -18.332084,14.538558 -18.350584,14.571645 -18.350583,14.60722 C -18.350584,14.642798 -18.334574,14.674105 -18.302555,14.701142 C -18.281209,14.719643 -18.226066,14.748104 -18.137124,14.786526 C -17.989126,14.850565 -17.895915,14.901083 -17.857492,14.938082 C -17.796301,14.99714 -17.765705,15.069005 -17.765704,15.153677 C -17.765705,15.209888 -17.783138,15.265031 -17.818002,15.319108 C -17.852156,15.373184 -17.904809,15.416588 -17.975962,15.449318 C -18.046404,15.481337 -18.129653,15.497346 -18.225709,15.497346 C -18.356632,15.497346 -18.467986,15.464972 -18.559773,15.400222 C -18.651561,15.335473 -18.694965,15.230166 -18.689984,15.084302 M -16.832886,15.058687 L -16.639705,15.078966 C -16.68809,15.220561 -16.757109,15.325867 -16.846761,15.394886 C -16.935703,15.463193 -17.037096,15.497346 -17.150941,15.497346 C -17.274036,15.497346 -17.374006,15.457501 -17.450851,15.377809 C -17.526985,15.298118 -17.565052,15.186763 -17.565052,15.043745 C -17.565052,14.919939 -17.540504,14.798267 -17.491409,14.678729 C -17.442313,14.559193 -17.372227,14.468473 -17.281151,14.406568 C -17.189364,14.343955 -17.084769,14.312647 -16.967366,14.312646 C -16.845695,14.312647 -16.749282,14.347157 -16.678128,14.416174 C -16.606976,14.484482 -16.571399,14.575202 -16.571398,14.688335 L -16.761377,14.701142 C -16.76209,14.629279 -16.78308,14.573068 -16.824348,14.532509 C -16.864906,14.491953 -16.918626,14.471675 -16.98551,14.471674 C -17.063067,14.471675 -17.130307,14.496222 -17.187229,14.545317 C -17.244152,14.594414 -17.288978,14.669124 -17.321708,14.769449 C -17.353728,14.869065 -17.369737,14.965121 -17.369737,15.05762 C -17.369737,15.154388 -17.348391,15.226965 -17.305699,15.275348 C -17.263007,15.323733 -17.210354,15.347925 -17.147739,15.347925 C -17.085125,15.347925 -17.025356,15.324089 -16.968433,15.276416 C -16.9108,15.228743 -16.865617,15.156167 -16.832886,15.058687 M -15.68981,15.086437 L -15.501966,15.105648 C -15.529005,15.198859 -15.591264,15.287445 -15.688743,15.371405 C -15.785512,15.455366 -15.901136,15.497346 -16.035615,15.497346 C -16.119576,15.497346 -16.196777,15.478135 -16.267218,15.439712 C -16.336949,15.400578 -16.390314,15.344011 -16.427313,15.270012 C -16.463601,15.196013 -16.481745,15.111697 -16.481745,15.017062 C -16.481745,14.893257 -16.453284,14.773364 -16.396361,14.657383 C -16.338728,14.540693 -16.264373,14.454242 -16.173296,14.39803 C -16.082221,14.341109 -15.983674,14.312647 -15.877655,14.312646 C -15.742465,14.312647 -15.634668,14.354628 -15.554264,14.438587 C -15.47315,14.522549 -15.432593,14.637105 -15.432592,14.782257 C -15.432593,14.837757 -15.437574,14.89468 -15.447534,14.953025 L -16.282161,14.953025 C -16.285007,14.975083 -16.28643,14.995005 -16.28643,15.012793 C -16.28643,15.118812 -16.262238,15.199926 -16.213853,15.256137 C -16.164758,15.311637 -16.10499,15.339386 -16.034548,15.339386 C -15.968376,15.339386 -15.903271,15.317685 -15.839232,15.274281 C -15.775195,15.230878 -15.725388,15.168263 -15.68981,15.086437 M -16.251209,14.805738 L -15.6151,14.805738 C -15.614389,14.785815 -15.614033,14.771585 -15.614032,14.763046 C -15.614033,14.666278 -15.638225,14.592279 -15.686609,14.541048 C -15.734994,14.489107 -15.797253,14.463136 -15.873386,14.463135 C -15.955924,14.463136 -16.031346,14.491597 -16.099653,14.548519 C -16.167249,14.605442 -16.217767,14.691182 -16.251209,14.805738 M -15.305584,15.471731 L -15.068644,14.338261 L -14.893607,14.338261 L -14.935232,14.535711 C -14.859098,14.458155 -14.787945,14.401589 -14.721772,14.366011 C -14.6556,14.330436 -14.588005,14.312647 -14.518986,14.312646 C -14.427199,14.312647 -14.355334,14.337551 -14.303392,14.387357 C -14.250739,14.437165 -14.224413,14.503693 -14.224411,14.586942 C -14.224413,14.628923 -14.233663,14.695095 -14.252161,14.785459 L -14.396246,15.471731 L -14.589427,15.471731 L -14.438938,14.75344 C -14.423997,14.683711 -14.416526,14.632125 -14.416525,14.598682 C -14.416526,14.560972 -14.429689,14.530376 -14.456015,14.506894 C -14.481631,14.483415 -14.518986,14.471675 -14.568081,14.471674 C -14.666985,14.471675 -14.755215,14.507251 -14.832771,14.578403 C -14.909617,14.649557 -14.966184,14.771585 -15.002471,14.944486 L -15.112403,15.471731 L -15.305584,15.471731 M -13.32468,15.307367 C -13.434968,15.43402 -13.550236,15.497346 -13.670484,15.497346 C -13.777926,15.497346 -13.867579,15.457856 -13.939443,15.378876 C -14.010596,15.299185 -14.046173,15.183917 -14.046173,15.033072 C -14.046173,14.895035 -14.018067,14.769094 -13.961856,14.655249 C -13.904934,14.540693 -13.834137,14.454954 -13.749464,14.39803 C -13.664081,14.341109 -13.578697,14.312647 -13.493313,14.312646 C -13.35243,14.312647 -13.246056,14.380599 -13.174191,14.5165 L -13.046115,13.907073 L -12.854002,13.907073 L -13.180595,15.471731 L -13.358833,15.471731 L -13.32468,15.307367 M -13.854059,14.996784 C -13.85406,15.075764 -13.846233,15.138023 -13.830579,15.183561 C -13.814925,15.229099 -13.788243,15.267166 -13.750531,15.297762 C -13.712821,15.327646 -13.667638,15.342588 -13.614985,15.342588 C -13.527467,15.342588 -13.448131,15.29705 -13.376977,15.205974 C -13.281633,15.085014 -13.23396,14.935593 -13.233959,14.757709 C -13.23396,14.668057 -13.257441,14.597971 -13.304401,14.547452 C -13.351363,14.496934 -13.41042,14.471675 -13.481572,14.471674 C -13.527823,14.471675 -13.570159,14.481992 -13.608581,14.502625 C -13.646292,14.52326 -13.684004,14.558481 -13.721714,14.608288 C -13.758714,14.657384 -13.790022,14.719999 -13.815636,14.796132 C -13.841252,14.872266 -13.85406,14.93915 -13.854059,14.996784"
       id="text2923" />
  </g>
</svg>
