<?xml version="1.0" encoding="UTF-8" standalone="no"?>
<!-- Created with Inkscape (http://www.inkscape.org/) -->
<svg
   xmlns:dc="http://purl.org/dc/elements/1.1/"
   xmlns:cc="http://web.resource.org/cc/"
   xmlns:rdf="http://www.w3.org/1999/02/22-rdf-syntax-ns#"
   xmlns:svg="http://www.w3.org/2000/svg"
   xmlns="http://www.w3.org/2000/svg"
   xmlns:xlink="http://www.w3.org/1999/xlink"
   xmlns:sodipodi="http://sodipodi.sourceforge.net/DTD/sodipodi-0.dtd"
   xmlns:inkscape="http://www.inkscape.org/namespaces/inkscape"
   width="32"
   height="32"
   id="svg7429"
   sodipodi:version="0.32"
   inkscape:version="0.45+devel"
   sodipodi:docbase="C:\Tango\transcend-jetflash-150\32x32"
   sodipodi:docname="transcend-jetflash-150-256MB.svg"
   inkscape:output_extension="org.inkscape.output.svg.inkscape"
   inkscape:export-filename="C:\Tango\transcend-jetflash-150\32x32\transcend-jetflash-150-256MB.png"
   inkscape:export-xdpi="90"
   inkscape:export-ydpi="90"
   version="1.0">
  <defs
     id="defs7431">
    <linearGradient
       inkscape:collect="always"
       id="linearGradient3033">
      <stop
         style="stop-color:#ffffff;stop-opacity:1;"
         offset="0"
         id="stop3035" />
      <stop
         style="stop-color:#ffffff;stop-opacity:0;"
         offset="1"
         id="stop3037" />
    </linearGradient>
    <linearGradient
       id="linearGradient2913">
      <stop
         style="stop-color:#73d216;stop-opacity:1;"
         offset="0"
         id="stop2915" />
      <stop
         id="stop2921"
         offset="0.5130434"
         style="stop-color:#8ae234;stop-opacity:1;" />
      <stop
         style="stop-color:#73d216;stop-opacity:1;"
         offset="1"
         id="stop2917" />
    </linearGradient>
    <linearGradient
       inkscape:collect="always"
       id="linearGradient2906">
      <stop
         style="stop-color:#ffffff;stop-opacity:1;"
         offset="0"
         id="stop2908" />
      <stop
         style="stop-color:#ffffff;stop-opacity:0;"
         offset="1"
         id="stop2910" />
    </linearGradient>
    <linearGradient
       id="linearGradient9697">
      <stop
         style="stop-color:#b3b3b3;stop-opacity:1;"
         offset="0"
         id="stop9699" />
      <stop
         id="stop9707"
         offset="1"
         style="stop-color:#b3b3b3;stop-opacity:0;" />
    </linearGradient>
    <linearGradient
       id="linearGradient4862">
      <stop
         style="stop-color:#ffffff;stop-opacity:1;"
         offset="0"
         id="stop4864" />
      <stop
         style="stop-color:#ffffff;stop-opacity:0;"
         offset="1"
         id="stop4866" />
    </linearGradient>
    <linearGradient
       id="linearGradient9203">
      <stop
         style="stop-color:#f9f9f9;stop-opacity:1;"
         offset="0"
         id="stop9205" />
      <stop
         style="stop-color:#f2f2f2;stop-opacity:1.0000000;"
         offset="1.0000000"
         id="stop9207" />
    </linearGradient>
    <radialGradient
       r="21.38998"
       fy="45.25996"
       fx="24.218407"
       cy="45.25996"
       cx="24.218407"
       gradientTransform="matrix(1,0,0,0.128099,0,39.4622)"
       gradientUnits="userSpaceOnUse"
       id="radialGradient6304"
       xlink:href="#linearGradient6125"
       inkscape:collect="always" />
    <linearGradient
       gradientTransform="translate(58.28617,0)"
       gradientUnits="userSpaceOnUse"
       y2="39.508614"
       x2="24.508614"
       y1="12.495212"
       x1="24.508614"
       id="linearGradient6298"
       xlink:href="#linearGradient6292"
       inkscape:collect="always" />
    <linearGradient
       gradientTransform="translate(58.28617,0)"
       gradientUnits="userSpaceOnUse"
       y2="43.375004"
       x2="24.8125"
       y1="41.000004"
       x1="24.8125"
       id="linearGradient6265"
       xlink:href="#linearGradient6259"
       inkscape:collect="always" />
    <linearGradient
       gradientUnits="userSpaceOnUse"
       y2="62.265625"
       x2="34.09375"
       y1="7.515625"
       x1="20.40625"
       id="linearGradient6253"
       xlink:href="#linearGradient6247"
       inkscape:collect="always" />
    <linearGradient
       gradientTransform="translate(58.28617,0)"
       y2="44.992451"
       x2="28.841305"
       y1="6.2555637"
       x1="22.15266"
       gradientUnits="userSpaceOnUse"
       id="linearGradient6245"
       xlink:href="#linearGradient6235"
       inkscape:collect="always" />
    <radialGradient
       r="3.8890872"
       fy="28.603338"
       fx="33.45499"
       cy="28.603338"
       cx="33.45499"
       gradientTransform="matrix(3.657239,0,0,3.657239,-88.89792,-76.00592)"
       gradientUnits="userSpaceOnUse"
       id="radialGradient6218"
       xlink:href="#linearGradient6151"
       inkscape:collect="always" />
    <linearGradient
       gradientUnits="userSpaceOnUse"
       y2="78.505272"
       x2="30.507824"
       y1="8.6784801"
       x1="16.845879"
       id="linearGradient6216"
       xlink:href="#linearGradient6210"
       inkscape:collect="always" />
    <linearGradient
       y2="47.007381"
       x2="26.443777"
       y1="4.6076145"
       x1="21.617008"
       gradientTransform="matrix(1,0,0,0.982516,74,-7.076703e-2)"
       gradientUnits="userSpaceOnUse"
       id="linearGradient6208"
       xlink:href="#linearGradient6115"
       inkscape:collect="always" />
    <linearGradient
       gradientTransform="translate(74,0)"
       gradientUnits="userSpaceOnUse"
       y2="7.6786127"
       x2="22.101643"
       y1="21.741114"
       x1="29.374996"
       id="linearGradient6202"
       xlink:href="#linearGradient6196"
       inkscape:collect="always" />
    <radialGradient
       r="3.8890872"
       fy="27.974968"
       fx="29.61227"
       cy="27.974968"
       cx="29.61227"
       gradientTransform="matrix(8.342154,0,0,8.342154,-153.6289,-207.0663)"
       gradientUnits="userSpaceOnUse"
       id="radialGradient6161"
       xlink:href="#linearGradient6151"
       inkscape:collect="always" />
    <radialGradient
       gradientUnits="userSpaceOnUse"
       gradientTransform="matrix(1,0,0,0.128099,0,39.4622)"
       r="21.38998"
       fy="45.25996"
       fx="24.218407"
       cy="45.25996"
       cx="24.218407"
       id="radialGradient6131"
       xlink:href="#linearGradient6125"
       inkscape:collect="always" />
    <linearGradient
       gradientTransform="matrix(1,0,0,0.934004,74,1.557982)"
       gradientUnits="userSpaceOnUse"
       y2="46.635937"
       x2="22.797205"
       y1="39.679859"
       x1="22.797205"
       id="linearGradient6105"
       xlink:href="#linearGradient6099"
       inkscape:collect="always" />
    <linearGradient
       id="linearGradient6099">
      <stop
         id="stop6101"
         offset="0"
         style="stop-color:#eeeeec;stop-opacity:1;" />
      <stop
         style="stop-color:#dededa;stop-opacity:1;"
         offset="0.8918919"
         id="stop6107" />
      <stop
         id="stop6103"
         offset="1"
         style="stop-color:#838375;stop-opacity:1;" />
    </linearGradient>
    <linearGradient
       id="linearGradient6115">
      <stop
         id="stop6117"
         offset="0"
         style="stop-color:#555753;stop-opacity:1;" />
      <stop
         id="stop6119"
         offset="1"
         style="stop-color:#3e3f3c;stop-opacity:1;" />
    </linearGradient>
    <linearGradient
       id="linearGradient6125"
       inkscape:collect="always">
      <stop
         id="stop6127"
         offset="0"
         style="stop-color:black;stop-opacity:1;" />
      <stop
         id="stop6129"
         offset="1"
         style="stop-color:black;stop-opacity:0;" />
    </linearGradient>
    <linearGradient
       id="linearGradient6151"
       inkscape:collect="always">
      <stop
         id="stop6153"
         offset="0"
         style="stop-color:#2e3436;stop-opacity:1;" />
      <stop
         id="stop6155"
         offset="1"
         style="stop-color:#2e3436;stop-opacity:0;" />
    </linearGradient>
    <linearGradient
       id="linearGradient6196">
      <stop
         id="stop6198"
         offset="0"
         style="stop-color:#edd400;stop-opacity:1;" />
      <stop
         style="stop-color:#c3af07;stop-opacity:1;"
         offset="0.5"
         id="stop6204" />
      <stop
         id="stop6200"
         offset="1"
         style="stop-color:#ffeb3e;stop-opacity:1;" />
    </linearGradient>
    <linearGradient
       id="linearGradient6210"
       inkscape:collect="always">
      <stop
         id="stop6212"
         offset="0"
         style="stop-color:white;stop-opacity:1;" />
      <stop
         id="stop6214"
         offset="1"
         style="stop-color:white;stop-opacity:0;" />
    </linearGradient>
    <linearGradient
       id="linearGradient6235">
      <stop
         id="stop6237"
         offset="0"
         style="stop-color:#3465a4;stop-opacity:1;" />
      <stop
         id="stop6239"
         offset="1"
         style="stop-color:#2d588f;stop-opacity:1;" />
    </linearGradient>
    <linearGradient
       id="linearGradient6247"
       inkscape:collect="always">
      <stop
         id="stop6249"
         offset="0"
         style="stop-color:white;stop-opacity:1;" />
      <stop
         id="stop6251"
         offset="1"
         style="stop-color:white;stop-opacity:0;" />
    </linearGradient>
    <linearGradient
       id="linearGradient6259">
      <stop
         id="stop6261"
         offset="0"
         style="stop-color:#173764;stop-opacity:1;" />
      <stop
         id="stop6263"
         offset="1"
         style="stop-color:#2d69c0;stop-opacity:1;" />
    </linearGradient>
    <linearGradient
       id="linearGradient6292">
      <stop
         id="stop6294"
         offset="0"
         style="stop-color:#f57900;stop-opacity:1;" />
      <stop
         style="stop-color:#ff9f43;stop-opacity:1;"
         offset="0.27027026"
         id="stop6300" />
      <stop
         id="stop6296"
         offset="1"
         style="stop-color:#cb6400;stop-opacity:1;" />
    </linearGradient>
    <linearGradient
       id="linearGradient6324">
      <stop
         id="stop6326"
         offset="0"
         style="stop-color:#396fb5;stop-opacity:1;" />
      <stop
         id="stop6328"
         offset="1"
         style="stop-color:#3465a4;stop-opacity:0;" />
    </linearGradient>
    <linearGradient
       id="linearGradient6368">
      <stop
         id="stop6370"
         offset="0"
         style="stop-color:#5085c8;stop-opacity:1" />
      <stop
         id="stop6372"
         offset="1"
         style="stop-color:#cfdfef;stop-opacity:0.60194176;" />
    </linearGradient>
    <linearGradient
       id="linearGradient3494">
      <stop
         id="stop3496"
         offset="0"
         style="stop-color:#2e3436;stop-opacity:0.82474226;" />
      <stop
         id="stop3498"
         offset="1"
         style="stop-color:#2e3436;stop-opacity:0;" />
    </linearGradient>
    <linearGradient
       id="linearGradient3506">
      <stop
         id="stop3508"
         offset="0"
         style="stop-color:#555753;stop-opacity:1;" />
      <stop
         id="stop3510"
         offset="1"
         style="stop-color:#555753;stop-opacity:0.22680412;" />
    </linearGradient>
    <linearGradient
       id="linearGradient3470">
      <stop
         id="stop3472"
         offset="0"
         style="stop-color:#729fcf;stop-opacity:1;" />
      <stop
         id="stop3474"
         offset="1"
         style="stop-color:#386da5;stop-opacity:1;" />
    </linearGradient>
    <linearGradient
       id="linearGradient3161">
      <stop
         style="stop-color:#d3d7cf;stop-opacity:1;"
         offset="0"
         id="stop3163" />
      <stop
         style="stop-color:#bbc1b5;stop-opacity:1;"
         offset="1"
         id="stop3165" />
    </linearGradient>
    <linearGradient
       gradientUnits="userSpaceOnUse"
       y2="32.576614"
       x2="29.019531"
       y1="19.002398"
       x1="19.003906"
       id="linearGradient6709"
       xlink:href="#linearGradient4862"
       inkscape:collect="always" />
    <linearGradient
       id="linearGradient6698">
      <stop
         id="stop6700"
         offset="0"
         style="stop-color:#d3d7cf;stop-opacity:1;" />
      <stop
         id="stop6702"
         offset="1"
         style="stop-color:#bbc1b5;stop-opacity:1;" />
    </linearGradient>
    <linearGradient
       id="linearGradient6690">
      <stop
         style="stop-color:#729fcf;stop-opacity:1;"
         offset="0"
         id="stop6692" />
      <stop
         style="stop-color:#386da5;stop-opacity:1;"
         offset="1"
         id="stop6694" />
    </linearGradient>
    <linearGradient
       id="linearGradient6684">
      <stop
         style="stop-color:#555753;stop-opacity:1;"
         offset="0"
         id="stop6686" />
      <stop
         style="stop-color:#555753;stop-opacity:0.22680412;"
         offset="1"
         id="stop6688" />
    </linearGradient>
    <linearGradient
       id="linearGradient6678">
      <stop
         style="stop-color:#2e3436;stop-opacity:0.82474226;"
         offset="0"
         id="stop6680" />
      <stop
         style="stop-color:#2e3436;stop-opacity:0;"
         offset="1"
         id="stop6682" />
    </linearGradient>
    <linearGradient
       id="linearGradient6672">
      <stop
         style="stop-color:#5085c8;stop-opacity:1"
         offset="0"
         id="stop6674" />
      <stop
         style="stop-color:#cfdfef;stop-opacity:0.60194176;"
         offset="1"
         id="stop6676" />
    </linearGradient>
    <linearGradient
       id="linearGradient6666">
      <stop
         style="stop-color:#396fb5;stop-opacity:1;"
         offset="0"
         id="stop6668" />
      <stop
         style="stop-color:#3465a4;stop-opacity:0;"
         offset="1"
         id="stop6670" />
    </linearGradient>
    <linearGradient
       id="linearGradient6658">
      <stop
         style="stop-color:#f57900;stop-opacity:1;"
         offset="0"
         id="stop6660" />
      <stop
         id="stop6662"
         offset="0.27027026"
         style="stop-color:#ff9f43;stop-opacity:1;" />
      <stop
         style="stop-color:#cb6400;stop-opacity:1;"
         offset="1"
         id="stop6664" />
    </linearGradient>
    <linearGradient
       id="linearGradient6652">
      <stop
         style="stop-color:#173764;stop-opacity:1;"
         offset="0"
         id="stop6654" />
      <stop
         style="stop-color:#2d69c0;stop-opacity:1;"
         offset="1"
         id="stop6656" />
    </linearGradient>
    <linearGradient
       id="linearGradient6640">
      <stop
         style="stop-color:#3465a4;stop-opacity:1;"
         offset="0"
         id="stop6642" />
      <stop
         style="stop-color:#2d588f;stop-opacity:1;"
         offset="1"
         id="stop6644" />
    </linearGradient>
    <linearGradient
       id="linearGradient6626">
      <stop
         style="stop-color:#edd400;stop-opacity:1;"
         offset="0"
         id="stop6628" />
      <stop
         id="stop6630"
         offset="0.5"
         style="stop-color:#c3af07;stop-opacity:1;" />
      <stop
         style="stop-color:#ffeb3e;stop-opacity:1;"
         offset="1"
         id="stop6632" />
    </linearGradient>
    <linearGradient
       id="linearGradient6608">
      <stop
         style="stop-color:#555753;stop-opacity:1;"
         offset="0"
         id="stop6610" />
      <stop
         style="stop-color:#3e3f3c;stop-opacity:1;"
         offset="1"
         id="stop6612" />
    </linearGradient>
    <linearGradient
       id="linearGradient6600">
      <stop
         style="stop-color:#eeeeec;stop-opacity:1;"
         offset="0"
         id="stop6602" />
      <stop
         id="stop6604"
         offset="0.8918919"
         style="stop-color:#dededa;stop-opacity:1;" />
      <stop
         style="stop-color:#838375;stop-opacity:1;"
         offset="1"
         id="stop6606" />
    </linearGradient>
    <linearGradient
       inkscape:collect="always"
       xlink:href="#linearGradient6099"
       id="linearGradient6598"
       x1="22.797205"
       y1="39.679859"
       x2="22.797205"
       y2="46.635937"
       gradientUnits="userSpaceOnUse"
       gradientTransform="matrix(1,0,0,0.934004,74,1.557982)" />
    <radialGradient
       inkscape:collect="always"
       xlink:href="#linearGradient6125"
       id="radialGradient6596"
       cx="24.218407"
       cy="45.25996"
       fx="24.218407"
       fy="45.25996"
       r="21.38998"
       gradientTransform="matrix(1,0,0,0.128099,0,39.4622)"
       gradientUnits="userSpaceOnUse" />
    <radialGradient
       inkscape:collect="always"
       xlink:href="#linearGradient6151"
       id="radialGradient6594"
       gradientUnits="userSpaceOnUse"
       gradientTransform="matrix(8.342154,0,0,8.342154,-153.6289,-207.0663)"
       cx="29.61227"
       cy="27.974968"
       fx="29.61227"
       fy="27.974968"
       r="3.8890872" />
    <linearGradient
       inkscape:collect="always"
       xlink:href="#linearGradient6196"
       id="linearGradient6592"
       x1="29.374996"
       y1="21.741114"
       x2="22.101643"
       y2="7.6786127"
       gradientUnits="userSpaceOnUse"
       gradientTransform="translate(74,0)" />
    <linearGradient
       inkscape:collect="always"
       xlink:href="#linearGradient6115"
       id="linearGradient6590"
       gradientUnits="userSpaceOnUse"
       gradientTransform="matrix(1,0,0,0.982516,74,-7.076703e-2)"
       x1="21.617008"
       y1="4.6076145"
       x2="26.443777"
       y2="47.007381" />
    <linearGradient
       inkscape:collect="always"
       xlink:href="#linearGradient6210"
       id="linearGradient6588"
       x1="16.845879"
       y1="8.6784801"
       x2="30.507824"
       y2="78.505272"
       gradientUnits="userSpaceOnUse" />
    <radialGradient
       inkscape:collect="always"
       xlink:href="#linearGradient6151"
       id="radialGradient6586"
       gradientUnits="userSpaceOnUse"
       gradientTransform="matrix(3.657239,0,0,3.657239,-88.89792,-76.00592)"
       cx="33.45499"
       cy="28.603338"
       fx="33.45499"
       fy="28.603338"
       r="3.8890872" />
    <linearGradient
       inkscape:collect="always"
       xlink:href="#linearGradient6235"
       id="linearGradient6584"
       gradientUnits="userSpaceOnUse"
       x1="22.15266"
       y1="6.2555637"
       x2="28.841305"
       y2="44.992451"
       gradientTransform="translate(58.28617,0)" />
    <linearGradient
       inkscape:collect="always"
       xlink:href="#linearGradient6247"
       id="linearGradient6582"
       x1="20.40625"
       y1="7.515625"
       x2="34.09375"
       y2="62.265625"
       gradientUnits="userSpaceOnUse" />
    <linearGradient
       inkscape:collect="always"
       xlink:href="#linearGradient6259"
       id="linearGradient6580"
       x1="24.8125"
       y1="41.000004"
       x2="24.8125"
       y2="43.375004"
       gradientUnits="userSpaceOnUse"
       gradientTransform="translate(58.28617,0)" />
    <linearGradient
       inkscape:collect="always"
       xlink:href="#linearGradient6292"
       id="linearGradient6578"
       x1="24.508614"
       y1="12.495212"
       x2="24.508614"
       y2="39.508614"
       gradientUnits="userSpaceOnUse"
       gradientTransform="translate(58.28617,0)" />
    <radialGradient
       inkscape:collect="always"
       xlink:href="#linearGradient6125"
       id="radialGradient6576"
       gradientUnits="userSpaceOnUse"
       gradientTransform="matrix(1,0,0,0.128099,0,39.4622)"
       cx="24.218407"
       cy="45.25996"
       fx="24.218407"
       fy="45.25996"
       r="21.38998" />
    <linearGradient
       id="linearGradient6570">
      <stop
         id="stop6572"
         offset="0"
         style="stop-color:#f9f9f9;stop-opacity:1;" />
      <stop
         id="stop6574"
         offset="1.0000000"
         style="stop-color:#f2f2f2;stop-opacity:1.0000000;" />
    </linearGradient>
    <linearGradient
       inkscape:collect="always"
       xlink:href="#linearGradient9697"
       id="linearGradient9703"
       x1="-4.4651165"
       y1="12.059034"
       x2="8.3291588"
       y2="12.059034"
       gradientUnits="userSpaceOnUse"
       gradientTransform="matrix(1.0942394,0,0,3.3931208,-2.114093,-17.991998)"
       spreadMethod="pad" />
    <linearGradient
       inkscape:collect="always"
       xlink:href="#linearGradient2906"
       id="linearGradient2912"
       x1="10"
       y1="-12"
       x2="30"
       y2="73"
       gradientUnits="userSpaceOnUse"
       gradientTransform="matrix(0.5653173,0,0,0.6509665,2.1497239,-0.1194117)" />
    <linearGradient
       inkscape:collect="always"
       xlink:href="#linearGradient2913"
       id="linearGradient2919"
       x1="14.796515"
       y1="36.837719"
       x2="32.578289"
       y2="36.837719"
       gradientUnits="userSpaceOnUse"
       gradientTransform="matrix(0.6469985,0,0,0.6817949,0.4720392,-1.2039738)" />
    <filter
       inkscape:collect="always"
       x="-0.13639002"
       width="1.2727799"
       y="-0.23358747"
       height="1.4671749"
       id="filter3015">
      <feGaussianBlur
         inkscape:collect="always"
         stdDeviation="0.84215433"
         id="feGaussianBlur3017" />
    </filter>
    <linearGradient
       inkscape:collect="always"
       xlink:href="#linearGradient3033"
       id="linearGradient3039"
       x1="29"
       y1="16"
       x2="29"
       y2="34.027756"
       gradientUnits="userSpaceOnUse"
       gradientTransform="matrix(0.7778062,0,0,0.6985196,-2.6673493,-0.93013)" />
  </defs>
  <sodipodi:namedview
     id="base"
     pagecolor="#ffffff"
     bordercolor="#000000"
     borderopacity="1"
     inkscape:pageopacity="0.0"
     inkscape:pageshadow="2"
     inkscape:zoom="24.984375"
     inkscape:cx="20.973108"
     inkscape:cy="15.109443"
     inkscape:current-layer="layer1"
     showgrid="true"
     inkscape:grid-bbox="true"
     inkscape:document-units="px"
     showguides="true"
     inkscape:guide-bbox="true"
     inkscape:showpageshadow="true"
     inkscape:window-width="1024"
     inkscape:window-height="724"
     inkscape:window-x="4"
     inkscape:window-y="72"
     gridspacingx="1px"
     gridspacingy="1px"
     inkscape:object-points="false"
     objecttolerance="1"
     gridtolerance="10000"
     guidetolerance="1"
     width="32px"
     height="32px">
    <inkscape:grid
       type="xygrid"
       id="grid4164" />
  </sodipodi:namedview>
  <metadata
     id="metadata7434">
    <rdf:RDF>
      <cc:Work
         rdf:about="">
        <dc:format>image/svg+xml</dc:format>
        <dc:type
           rdf:resource="http://purl.org/dc/dcmitype/StillImage" />
        <dc:title>Transcend JetFlash150 256MB</dc:title>
        <dc:date>2007/05/30</dc:date>
        <dc:creator>
          <cc:Agent>
            <dc:title>Ricardo 'Rick' González</dc:title>
          </cc:Agent>
        </dc:creator>
        <dc:publisher>
          <cc:Agent>
            <dc:title />
          </cc:Agent>
        </dc:publisher>
        <dc:source />
        <dc:subject>
          <rdf:Bag>
            <rdf:li>usb drive pendrive transcend</rdf:li>
          </rdf:Bag>
        </dc:subject>
        <cc:license
           rdf:resource="http://creativecommons.org/licenses/GPL/2.0/" />
        <dc:contributor>
          <cc:Agent>
            <dc:title>Josef 'cornelius' Vybíral</dc:title>
          </cc:Agent>
        </dc:contributor>
      </cc:Work>
      <cc:License
         rdf:about="http://creativecommons.org/licenses/GPL/2.0/">
        <cc:permits
           rdf:resource="http://web.resource.org/cc/Reproduction" />
        <cc:permits
           rdf:resource="http://web.resource.org/cc/Distribution" />
        <cc:requires
           rdf:resource="http://web.resource.org/cc/Notice" />
        <cc:permits
           rdf:resource="http://web.resource.org/cc/DerivativeWorks" />
        <cc:requires
           rdf:resource="http://web.resource.org/cc/ShareAlike" />
        <cc:requires
           rdf:resource="http://web.resource.org/cc/SourceCode" />
      </cc:License>
    </rdf:RDF>
  </metadata>
  <g
     id="layer1"
     inkscape:label="Layer 1"
     inkscape:groupmode="layer">
    <rect
       ry="1.2492193"
       rx="0.64065903"
       y="0.84322041"
       x="10.239415"
       height="3.220834"
       width="10.614214"
       id="rect2425"
       style="opacity:0.7;fill:#ffffff;fill-opacity:1;stroke:none;stroke-width:0.12834676;stroke-linecap:round;stroke-linejoin:round;stroke-miterlimit:4;stroke-dasharray:none;stroke-opacity:1;display:inline" />
    <rect
       style="opacity:1;fill:#ffffff;fill-opacity:1;fill-rule:nonzero;stroke:none;stroke-width:0.704;stroke-linecap:round;stroke-linejoin:round;stroke-miterlimit:0;stroke-dasharray:none;stroke-dashoffset:0;stroke-opacity:1"
       id="rect3312"
       width="0.0079017347"
       height="0.089420028"
       x="13.532964"
       y="3.3612452"
       rx="0.19140634"
       ry="0.089420028" />
    <rect
       transform="matrix(0.9655172,0,0,0.4272459,2.7241379,27.727541)"
       style="opacity:0.31924881;fill:#000000;fill-opacity:1;stroke:none;stroke-width:0.67364258;stroke-linejoin:miter;stroke-miterlimit:4;stroke-dasharray:none;stroke-opacity:1;filter:url(#filter3015)"
       id="rect3891"
       width="14.5"
       height="7.9696693"
       x="6.5"
       y="2.0303304"
       rx="2.1529291"
       ry="3.4758823"
       inkscape:export-filename="/home/christian/graphics/usb-icons.png"
       inkscape:export-xdpi="90"
       inkscape:export-ydpi="90" />
    <rect
       style="opacity:1;fill:url(#linearGradient2919);fill-opacity:1;stroke:#4e9a06;stroke-width:1.00102711;stroke-linecap:round;stroke-linejoin:round;stroke-miterlimit:4;stroke-dasharray:none;stroke-opacity:1;display:inline"
       id="rect5391"
       width="10.998973"
       height="29.998974"
       x="10.500513"
       y="0.50051355"
       rx="0.89468628"
       ry="1.4120612" />
    <path
       style="fill:none;fill-opacity:1;fill-rule:evenodd;stroke:#4e9a06;stroke-width:1;stroke-linecap:square;stroke-linejoin:miter;stroke-miterlimit:4;stroke-dasharray:none;stroke-opacity:1"
       d="M 11.293126,15.492308 L 20.669462,15.492308 L 20.669462,15.492308 L 20.669462,15.492308"
       id="path5495"
       inkscape:export-filename="C:\Tango\transcend-jetflash-150\48x48\path5495.png"
       inkscape:export-xdpi="90"
       inkscape:export-ydpi="90" />
    <rect
       ry="0.53826308"
       rx="0.31210855"
       y="1.5080053"
       x="11.477461"
       height="27.98399"
       width="9.0450783"
       id="rect5433"
       style="opacity:0.5;fill:none;fill-opacity:1;stroke:url(#linearGradient2912);stroke-width:1;stroke-linecap:round;stroke-linejoin:round;stroke-miterlimit:4;stroke-dasharray:none;stroke-opacity:1;display:inline" />
    <text
       xml:space="preserve"
       style="font-size:1.72069025px;fill:#4e9a06;fill-opacity:1"
       x="13.465207"
       y="4.8169942"
       id="text7751"
       transform="scale(0.9742366,1.0264447)"><tspan
         sodipodi:role="line"
         id="tspan7753"
         x="13.465207"
         y="4.8169942"
         style="font-style:normal;font-weight:bold;text-align:justify;text-anchor:start;fill:#4e9a06;fill-opacity:1;font-family:Arial">256MB</tspan></text>
    <path
       inkscape:export-ydpi="90"
       inkscape:export-xdpi="90"
       inkscape:export-filename="C:\Tango\transcend-jetflash-150\48x48\path5495.png"
       id="path2905"
       d="M 11.417344,14.515745 L 15.555527,14.515745 L 15.555527,14.515745 L 15.555527,14.515745"
       style="fill:none;fill-opacity:1;fill-rule:evenodd;stroke:#ffffff;stroke-width:1;stroke-linecap:square;stroke-linejoin:miter;stroke-miterlimit:4;stroke-dasharray:none;stroke-opacity:0.16756759" />
    <path
       style="fill:none;fill-opacity:1;fill-rule:evenodd;stroke:#ffffff;stroke-width:1;stroke-linecap:square;stroke-linejoin:miter;stroke-miterlimit:4;stroke-dasharray:none;stroke-opacity:0.16756759"
       d="M 14.935953,16.508895 L 20.501669,16.508895 L 20.501669,16.508895 L 20.501669,16.508895"
       id="path2929"
       inkscape:export-filename="C:\Tango\transcend-jetflash-150\48x48\path5495.png"
       inkscape:export-xdpi="90"
       inkscape:export-ydpi="90" />
    <path
       sodipodi:nodetypes="cccsccc"
       id="path3031"
       d="M 16.000154,8.4999996 C 17.938274,8.4999996 19.498566,9.7584351 19.498566,9.8295298 L 19.498566,21.367288 C 19.555015,21.402882 17.938274,22.470159 16.000154,22.470159 C 14.062034,22.470159 12.439339,21.435441 12.501743,21.367288 L 12.501743,9.8295298 C 12.501743,9.8295298 14.062034,8.4999996 16.000154,8.4999996 z"
       style="opacity:0.90555576;color:#000000;fill:none;fill-opacity:1;fill-rule:nonzero;stroke:url(#linearGradient3039);stroke-width:1;stroke-linecap:butt;stroke-linejoin:round;marker:none;marker-start:none;marker-mid:none;marker-end:none;stroke-miterlimit:4;stroke-dasharray:none;stroke-dashoffset:0;stroke-opacity:0.25405405;visibility:visible;display:inline;overflow:visible;enable-background:accumulate" />
    <path
       style="opacity:0.90555576;fill:#000000;fill-opacity:1;stroke:#4e9a06;stroke-width:1;stroke-linecap:butt;stroke-linejoin:round;stroke-miterlimit:4;stroke-dasharray:none;stroke-opacity:1"
       d="M 16.000109,9.5 C 17.384481,9.5 18.498976,10.457867 18.498976,10.523868 L 18.498976,21.445547 C 18.539297,21.478589 17.384481,22.469414 16.000109,22.469414 C 14.615738,22.469414 13.456671,21.508817 13.501246,21.445547 L 13.501246,10.523868 C 13.501246,10.523868 14.615738,9.5 16.000109,9.5 z"
       id="rect3289"
       sodipodi:nodetypes="cccsccc" />
    <rect
       style="opacity:1;color:#000000;fill:#2e3436;fill-opacity:1;fill-rule:nonzero;stroke:none;stroke-width:1;stroke-linecap:butt;stroke-linejoin:miter;marker:none;marker-start:none;marker-mid:none;marker-end:none;stroke-miterlimit:4;stroke-dasharray:none;stroke-dashoffset:0;stroke-opacity:0.16756759;visibility:visible;display:inline;overflow:visible;enable-background:accumulate"
       id="rect2927"
       width="2.3881278"
       height="11.619092"
       x="14.805935"
       y="10.417214"
       rx="1.1940639"
       ry="0.65784615" />
    <path
       transform="matrix(0,-1.0496956,0.9526571,0,0,0)"
       style="font-size:2.18347311px;font-style:italic;font-variant:normal;font-weight:normal;font-stretch:normal;text-align:start;line-height:125%;writing-mode:lr-tb;text-anchor:start;fill:#eeeeec;fill-opacity:1;stroke:none;stroke-width:1px;stroke-linecap:butt;stroke-linejoin:miter;stroke-opacity:1;font-family:Arial"
       d="M -19.674351,17.599405 L -19.385425,16.214478 L -19.898243,16.214478 L -19.860927,16.036431 L -18.630592,16.036431 L -18.667907,16.214478 L -19.17646,16.214478 L -19.465386,17.599405 L -19.674351,17.599405 M -18.924849,17.599405 L -18.688164,16.467155 L -18.51758,16.467155 L -18.565557,16.698509 C -18.507274,16.611086 -18.450413,16.546407 -18.394973,16.50447 C -18.338823,16.462536 -18.281606,16.441569 -18.223323,16.441567 C -18.184942,16.441569 -18.137676,16.455429 -18.081525,16.483147 L -18.16042,16.66226 C -18.193827,16.638095 -18.230431,16.626012 -18.270233,16.626011 C -18.337757,16.626012 -18.407056,16.663683 -18.478132,16.739023 C -18.549209,16.814365 -18.605004,16.949766 -18.645518,17.145226 L -18.741471,17.599405 L -18.924849,17.599405 M -17.43224,17.458674 C -17.499053,17.516246 -17.563377,17.558536 -17.625213,17.585545 C -17.68705,17.611844 -17.753152,17.624993 -17.823517,17.624993 C -17.928,17.624993 -18.012225,17.59443 -18.076194,17.533304 C -18.140163,17.471468 -18.172148,17.392573 -18.172148,17.296619 C -18.172148,17.233361 -18.157932,17.177566 -18.129502,17.129234 C -18.10036,17.080191 -18.061979,17.041099 -18.014358,17.011957 C -17.966737,16.982106 -17.908454,16.960783 -17.839509,16.947988 C -17.796153,16.93946 -17.714059,16.932707 -17.593229,16.927731 C -17.471688,16.922757 -17.38462,16.909963 -17.332022,16.88935 C -17.317097,16.836754 -17.309634,16.793042 -17.309633,16.758214 C -17.309634,16.713436 -17.325982,16.678253 -17.358676,16.652665 C -17.403455,16.617128 -17.468845,16.599359 -17.554847,16.599358 C -17.635875,16.599359 -17.702332,16.617483 -17.754217,16.653731 C -17.805393,16.68927 -17.842708,16.74009 -17.866163,16.80619 L -18.061268,16.789132 C -18.021465,16.676832 -17.958563,16.590829 -17.87256,16.531124 C -17.785847,16.471421 -17.676744,16.441569 -17.545252,16.441567 C -17.405232,16.441569 -17.294353,16.474975 -17.212613,16.541786 C -17.150067,16.59154 -17.118794,16.65622 -17.118792,16.735825 C -17.118794,16.796241 -17.127678,16.866251 -17.145446,16.945856 L -17.208349,17.227319 C -17.228251,17.316876 -17.238202,17.38973 -17.238201,17.44588 C -17.238202,17.481418 -17.230384,17.532593 -17.214746,17.599405 L -17.409851,17.599405 C -17.420513,17.562445 -17.427976,17.515535 -17.43224,17.458674 M -17.360808,17.025817 C -17.387818,17.036479 -17.41696,17.044653 -17.448232,17.050339 C -17.478796,17.056025 -17.530327,17.062067 -17.602824,17.068463 C -17.715126,17.078414 -17.794376,17.091208 -17.840575,17.106844 C -17.886775,17.121771 -17.921603,17.145937 -17.945058,17.179343 C -17.968513,17.212749 -17.980241,17.249709 -17.980241,17.290222 C -17.980241,17.344241 -17.961761,17.388663 -17.924801,17.423491 C -17.887131,17.458318 -17.833823,17.475732 -17.764879,17.475732 C -17.70091,17.475732 -17.639429,17.459029 -17.580435,17.425623 C -17.521442,17.391506 -17.474887,17.344241 -17.440769,17.283825 C -17.406653,17.22341 -17.38,17.137408 -17.360808,17.025817 M -16.962068,17.212393 L -16.769095,17.200666 C -16.769096,17.256106 -16.760566,17.303372 -16.743508,17.342463 C -16.72645,17.381556 -16.695176,17.41354 -16.649687,17.438417 C -16.603487,17.463294 -16.549825,17.475732 -16.488698,17.475732 C -16.403407,17.475732 -16.339438,17.458674 -16.296791,17.424557 C -16.254146,17.39044 -16.232823,17.350282 -16.232822,17.304082 C -16.232823,17.270676 -16.245617,17.239047 -16.271204,17.209195 C -16.297503,17.179343 -16.361827,17.142739 -16.464177,17.099381 C -16.565817,17.055314 -16.630852,17.024396 -16.659282,17.006626 C -16.706904,16.977486 -16.742797,16.943369 -16.766963,16.904276 C -16.791129,16.864474 -16.803212,16.818985 -16.803212,16.767809 C -16.803212,16.678253 -16.767674,16.601491 -16.696597,16.537521 C -16.625521,16.473553 -16.526014,16.441569 -16.398076,16.441567 C -16.255923,16.441569 -16.147887,16.474619 -16.073966,16.540719 C -15.999337,16.606111 -15.9606,16.692469 -15.957756,16.799794 L -16.146464,16.812587 C -16.149308,16.744355 -16.173474,16.690337 -16.218962,16.650533 C -16.264452,16.610731 -16.328777,16.590829 -16.411935,16.590828 C -16.478748,16.590829 -16.530634,16.606111 -16.567593,16.636673 C -16.604553,16.667237 -16.623033,16.700287 -16.623033,16.735825 C -16.623033,16.771364 -16.607041,16.802637 -16.575056,16.829646 C -16.553734,16.848126 -16.498649,16.876557 -16.409803,16.914938 C -16.261965,16.978907 -16.168854,17.029372 -16.130472,17.066331 C -16.069347,17.125325 -16.038784,17.197112 -16.038783,17.281693 C -16.038784,17.337844 -16.056198,17.392928 -16.091025,17.446946 C -16.125142,17.500964 -16.177739,17.544321 -16.248815,17.577016 C -16.319181,17.609001 -16.402341,17.624993 -16.498294,17.624993 C -16.629075,17.624993 -16.74031,17.592653 -16.831998,17.527973 C -16.923687,17.463294 -16.967044,17.3581 -16.962068,17.212393 M -15.106969,17.186806 L -14.913996,17.207062 C -14.962329,17.348505 -15.031274,17.453698 -15.120829,17.522643 C -15.209676,17.590876 -15.31096,17.624993 -15.424682,17.624993 C -15.547645,17.624993 -15.647507,17.58519 -15.72427,17.505584 C -15.800322,17.425979 -15.838348,17.314744 -15.838348,17.17188 C -15.838348,17.048207 -15.813826,16.926666 -15.764783,16.807257 C -15.715741,16.687849 -15.64573,16.597226 -15.554752,16.535389 C -15.463064,16.472842 -15.358581,16.441569 -15.241304,16.441567 C -15.119764,16.441569 -15.023455,16.476041 -14.952378,16.544984 C -14.881302,16.613218 -14.845764,16.703841 -14.845763,16.816852 L -15.035537,16.829646 C -15.036249,16.757859 -15.057217,16.701709 -15.09844,16.661194 C -15.138955,16.620682 -15.192617,16.600425 -15.259429,16.600424 C -15.336903,16.600425 -15.40407,16.624946 -15.460931,16.673988 C -15.517793,16.723032 -15.562571,16.797662 -15.595266,16.897879 C -15.62725,16.997387 -15.643243,17.09334 -15.643242,17.185739 C -15.643243,17.282404 -15.62192,17.354902 -15.579273,17.403234 C -15.536628,17.451566 -15.484031,17.475732 -15.421483,17.475732 C -15.358936,17.475732 -15.299232,17.451921 -15.24237,17.4043 C -15.184799,17.356679 -15.139665,17.284181 -15.106969,17.186806 M -13.965124,17.214526 L -13.777481,17.233716 C -13.804491,17.326827 -13.866683,17.415317 -13.964057,17.499187 C -14.060722,17.583058 -14.176222,17.624993 -14.310556,17.624993 C -14.394427,17.624993 -14.471545,17.605802 -14.54191,17.567421 C -14.611565,17.528329 -14.664873,17.471823 -14.701832,17.397903 C -14.738082,17.323984 -14.756206,17.239758 -14.756206,17.145226 C -14.756206,17.021553 -14.727776,16.901789 -14.670914,16.785934 C -14.613342,16.669369 -14.539067,16.583011 -14.448089,16.526859 C -14.357111,16.469999 -14.258671,16.441569 -14.152766,16.441567 C -14.017721,16.441569 -13.91004,16.483504 -13.829723,16.567373 C -13.748696,16.651244 -13.708183,16.765678 -13.708182,16.910673 C -13.708183,16.966113 -13.713158,17.022975 -13.723108,17.081257 L -14.556836,17.081257 C -14.55968,17.103291 -14.561101,17.123193 -14.561101,17.140961 C -14.561101,17.246866 -14.536935,17.327893 -14.488603,17.384043 C -14.43956,17.439483 -14.379856,17.467203 -14.30949,17.467203 C -14.243389,17.467203 -14.178354,17.445525 -14.114384,17.402168 C -14.050416,17.358811 -14.000663,17.296264 -13.965124,17.214526 M -14.525918,16.934128 L -13.890493,16.934128 C -13.889783,16.914228 -13.889428,16.900012 -13.889427,16.891482 C -13.889428,16.794819 -13.913594,16.720899 -13.961925,16.669723 C -14.010258,16.617838 -14.07245,16.591896 -14.148501,16.591895 C -14.230951,16.591896 -14.306292,16.620326 -14.374525,16.677186 C -14.442048,16.734049 -14.492512,16.819696 -14.525918,16.934128 M -13.58131,17.599405 L -13.344625,16.467155 L -13.169776,16.467155 L -13.211356,16.664393 C -13.135305,16.58692 -13.064228,16.530414 -12.998126,16.494875 C -12.932026,16.459338 -12.864503,16.441569 -12.795558,16.441567 C -12.70387,16.441569 -12.632083,16.466445 -12.580196,16.516198 C -12.527601,16.565953 -12.501302,16.632409 -12.501301,16.715568 C -12.501302,16.757504 -12.510542,16.823605 -12.529021,16.913871 L -12.672951,17.599405 L -12.865924,17.599405 L -12.715597,16.881887 C -12.700672,16.812233 -12.693209,16.760702 -12.693208,16.727295 C -12.693209,16.689626 -12.706358,16.659063 -12.732655,16.635607 C -12.758244,16.612152 -12.795559,16.600425 -12.844601,16.600424 C -12.943398,16.600425 -13.031533,16.635963 -13.109006,16.707039 C -13.185769,16.778116 -13.242275,16.900012 -13.278524,17.072728 L -13.388337,17.599405 L -13.58131,17.599405 M -11.602538,17.435218 C -11.712707,17.561735 -11.827851,17.624993 -11.94797,17.624993 C -12.055296,17.624993 -12.144852,17.585545 -12.216639,17.50665 C -12.287716,17.427045 -12.323254,17.311901 -12.323254,17.161218 C -12.323254,17.02333 -12.295179,16.897525 -12.239029,16.783801 C -12.182167,16.669369 -12.111446,16.583722 -12.026865,16.526859 C -11.941573,16.469999 -11.856282,16.441569 -11.770989,16.441567 C -11.630258,16.441569 -11.523999,16.509447 -11.452211,16.645202 L -11.324273,16.036431 L -11.132366,16.036431 L -11.458607,17.599405 L -11.636654,17.599405 L -11.602538,17.435218 M -12.131347,17.124969 C -12.131348,17.203864 -12.123529,17.266056 -12.107892,17.311545 C -12.092256,17.357034 -12.065602,17.39506 -12.027931,17.425623 C -11.990261,17.455475 -11.945127,17.470401 -11.89253,17.470401 C -11.805107,17.470401 -11.725856,17.424912 -11.654779,17.333934 C -11.559537,17.213104 -11.511916,17.063844 -11.511915,16.886152 C -11.511916,16.796596 -11.535371,16.726586 -11.582281,16.67612 C -11.629192,16.625657 -11.688186,16.600425 -11.759261,16.600424 C -11.805462,16.600425 -11.847752,16.610731 -11.886133,16.631342 C -11.923804,16.651955 -11.961475,16.687138 -11.999145,16.736891 C -12.036105,16.785934 -12.067379,16.848482 -12.092966,16.924533 C -12.118554,17.000586 -12.131348,17.067397 -12.131347,17.124969"
       id="text2923" />
  </g>
</svg>
