<?xml version="1.0" encoding="UTF-8" standalone="no"?>
<!-- Created with Inkscape (http://www.inkscape.org/) -->
<svg
   xmlns:dc="http://purl.org/dc/elements/1.1/"
   xmlns:cc="http://web.resource.org/cc/"
   xmlns:rdf="http://www.w3.org/1999/02/22-rdf-syntax-ns#"
   xmlns:svg="http://www.w3.org/2000/svg"
   xmlns="http://www.w3.org/2000/svg"
   xmlns:xlink="http://www.w3.org/1999/xlink"
   xmlns:sodipodi="http://sodipodi.sourceforge.net/DTD/sodipodi-0.dtd"
   xmlns:inkscape="http://www.inkscape.org/namespaces/inkscape"
   width="32"
   height="32"
   id="svg7429"
   sodipodi:version="0.32"
   inkscape:version="0.45+devel"
   sodipodi:docbase="C:\Tango\transcend-jetflash-150\32x32"
   sodipodi:docname="transcend-jetflash-150-4GB.svg"
   inkscape:output_extension="org.inkscape.output.svg.inkscape"
   inkscape:export-filename="C:\Tango\transcend-jetflash-150\32x32\transcend-jetflash-150-4GB.png"
   inkscape:export-xdpi="90"
   inkscape:export-ydpi="90"
   version="1.0">
  <defs
     id="defs7431">
    <linearGradient
       inkscape:collect="always"
       id="linearGradient3033">
      <stop
         style="stop-color:#ffffff;stop-opacity:1;"
         offset="0"
         id="stop3035" />
      <stop
         style="stop-color:#ffffff;stop-opacity:0;"
         offset="1"
         id="stop3037" />
    </linearGradient>
    <linearGradient
       id="linearGradient2913">
      <stop
         style="stop-color:#f57900;stop-opacity:1;"
         offset="0"
         id="stop2915" />
      <stop
         id="stop2921"
         offset="0.5130434"
         style="stop-color:#fcaf3e;stop-opacity:1;" />
      <stop
         style="stop-color:#f57900;stop-opacity:1;"
         offset="1"
         id="stop2917" />
    </linearGradient>
    <linearGradient
       inkscape:collect="always"
       id="linearGradient2906">
      <stop
         style="stop-color:#ffffff;stop-opacity:1;"
         offset="0"
         id="stop2908" />
      <stop
         style="stop-color:#ffffff;stop-opacity:0;"
         offset="1"
         id="stop2910" />
    </linearGradient>
    <linearGradient
       id="linearGradient9697">
      <stop
         style="stop-color:#b3b3b3;stop-opacity:1;"
         offset="0"
         id="stop9699" />
      <stop
         id="stop9707"
         offset="1"
         style="stop-color:#b3b3b3;stop-opacity:0;" />
    </linearGradient>
    <linearGradient
       id="linearGradient4862">
      <stop
         style="stop-color:#ffffff;stop-opacity:1;"
         offset="0"
         id="stop4864" />
      <stop
         style="stop-color:#ffffff;stop-opacity:0;"
         offset="1"
         id="stop4866" />
    </linearGradient>
    <linearGradient
       id="linearGradient9203">
      <stop
         style="stop-color:#f9f9f9;stop-opacity:1;"
         offset="0"
         id="stop9205" />
      <stop
         style="stop-color:#f2f2f2;stop-opacity:1.0000000;"
         offset="1.0000000"
         id="stop9207" />
    </linearGradient>
    <radialGradient
       r="21.38998"
       fy="45.25996"
       fx="24.218407"
       cy="45.25996"
       cx="24.218407"
       gradientTransform="matrix(1,0,0,0.128099,0,39.4622)"
       gradientUnits="userSpaceOnUse"
       id="radialGradient6304"
       xlink:href="#linearGradient6125"
       inkscape:collect="always" />
    <linearGradient
       gradientTransform="translate(58.28617,0)"
       gradientUnits="userSpaceOnUse"
       y2="39.508614"
       x2="24.508614"
       y1="12.495212"
       x1="24.508614"
       id="linearGradient6298"
       xlink:href="#linearGradient6292"
       inkscape:collect="always" />
    <linearGradient
       gradientTransform="translate(58.28617,0)"
       gradientUnits="userSpaceOnUse"
       y2="43.375004"
       x2="24.8125"
       y1="41.000004"
       x1="24.8125"
       id="linearGradient6265"
       xlink:href="#linearGradient6259"
       inkscape:collect="always" />
    <linearGradient
       gradientUnits="userSpaceOnUse"
       y2="62.265625"
       x2="34.09375"
       y1="7.515625"
       x1="20.40625"
       id="linearGradient6253"
       xlink:href="#linearGradient6247"
       inkscape:collect="always" />
    <linearGradient
       gradientTransform="translate(58.28617,0)"
       y2="44.992451"
       x2="28.841305"
       y1="6.2555637"
       x1="22.15266"
       gradientUnits="userSpaceOnUse"
       id="linearGradient6245"
       xlink:href="#linearGradient6235"
       inkscape:collect="always" />
    <radialGradient
       r="3.8890872"
       fy="28.603338"
       fx="33.45499"
       cy="28.603338"
       cx="33.45499"
       gradientTransform="matrix(3.657239,0,0,3.657239,-88.89792,-76.00592)"
       gradientUnits="userSpaceOnUse"
       id="radialGradient6218"
       xlink:href="#linearGradient6151"
       inkscape:collect="always" />
    <linearGradient
       gradientUnits="userSpaceOnUse"
       y2="78.505272"
       x2="30.507824"
       y1="8.6784801"
       x1="16.845879"
       id="linearGradient6216"
       xlink:href="#linearGradient6210"
       inkscape:collect="always" />
    <linearGradient
       y2="47.007381"
       x2="26.443777"
       y1="4.6076145"
       x1="21.617008"
       gradientTransform="matrix(1,0,0,0.982516,74,-7.076703e-2)"
       gradientUnits="userSpaceOnUse"
       id="linearGradient6208"
       xlink:href="#linearGradient6115"
       inkscape:collect="always" />
    <linearGradient
       gradientTransform="translate(74,0)"
       gradientUnits="userSpaceOnUse"
       y2="7.6786127"
       x2="22.101643"
       y1="21.741114"
       x1="29.374996"
       id="linearGradient6202"
       xlink:href="#linearGradient6196"
       inkscape:collect="always" />
    <radialGradient
       r="3.8890872"
       fy="27.974968"
       fx="29.61227"
       cy="27.974968"
       cx="29.61227"
       gradientTransform="matrix(8.342154,0,0,8.342154,-153.6289,-207.0663)"
       gradientUnits="userSpaceOnUse"
       id="radialGradient6161"
       xlink:href="#linearGradient6151"
       inkscape:collect="always" />
    <radialGradient
       gradientUnits="userSpaceOnUse"
       gradientTransform="matrix(1,0,0,0.128099,0,39.4622)"
       r="21.38998"
       fy="45.25996"
       fx="24.218407"
       cy="45.25996"
       cx="24.218407"
       id="radialGradient6131"
       xlink:href="#linearGradient6125"
       inkscape:collect="always" />
    <linearGradient
       gradientTransform="matrix(1,0,0,0.934004,74,1.557982)"
       gradientUnits="userSpaceOnUse"
       y2="46.635937"
       x2="22.797205"
       y1="39.679859"
       x1="22.797205"
       id="linearGradient6105"
       xlink:href="#linearGradient6099"
       inkscape:collect="always" />
    <linearGradient
       id="linearGradient6099">
      <stop
         id="stop6101"
         offset="0"
         style="stop-color:#eeeeec;stop-opacity:1;" />
      <stop
         style="stop-color:#dededa;stop-opacity:1;"
         offset="0.8918919"
         id="stop6107" />
      <stop
         id="stop6103"
         offset="1"
         style="stop-color:#838375;stop-opacity:1;" />
    </linearGradient>
    <linearGradient
       id="linearGradient6115">
      <stop
         id="stop6117"
         offset="0"
         style="stop-color:#555753;stop-opacity:1;" />
      <stop
         id="stop6119"
         offset="1"
         style="stop-color:#3e3f3c;stop-opacity:1;" />
    </linearGradient>
    <linearGradient
       id="linearGradient6125"
       inkscape:collect="always">
      <stop
         id="stop6127"
         offset="0"
         style="stop-color:black;stop-opacity:1;" />
      <stop
         id="stop6129"
         offset="1"
         style="stop-color:black;stop-opacity:0;" />
    </linearGradient>
    <linearGradient
       id="linearGradient6151"
       inkscape:collect="always">
      <stop
         id="stop6153"
         offset="0"
         style="stop-color:#2e3436;stop-opacity:1;" />
      <stop
         id="stop6155"
         offset="1"
         style="stop-color:#2e3436;stop-opacity:0;" />
    </linearGradient>
    <linearGradient
       id="linearGradient6196">
      <stop
         id="stop6198"
         offset="0"
         style="stop-color:#edd400;stop-opacity:1;" />
      <stop
         style="stop-color:#c3af07;stop-opacity:1;"
         offset="0.5"
         id="stop6204" />
      <stop
         id="stop6200"
         offset="1"
         style="stop-color:#ffeb3e;stop-opacity:1;" />
    </linearGradient>
    <linearGradient
       id="linearGradient6210"
       inkscape:collect="always">
      <stop
         id="stop6212"
         offset="0"
         style="stop-color:white;stop-opacity:1;" />
      <stop
         id="stop6214"
         offset="1"
         style="stop-color:white;stop-opacity:0;" />
    </linearGradient>
    <linearGradient
       id="linearGradient6235">
      <stop
         id="stop6237"
         offset="0"
         style="stop-color:#3465a4;stop-opacity:1;" />
      <stop
         id="stop6239"
         offset="1"
         style="stop-color:#2d588f;stop-opacity:1;" />
    </linearGradient>
    <linearGradient
       id="linearGradient6247"
       inkscape:collect="always">
      <stop
         id="stop6249"
         offset="0"
         style="stop-color:white;stop-opacity:1;" />
      <stop
         id="stop6251"
         offset="1"
         style="stop-color:white;stop-opacity:0;" />
    </linearGradient>
    <linearGradient
       id="linearGradient6259">
      <stop
         id="stop6261"
         offset="0"
         style="stop-color:#173764;stop-opacity:1;" />
      <stop
         id="stop6263"
         offset="1"
         style="stop-color:#2d69c0;stop-opacity:1;" />
    </linearGradient>
    <linearGradient
       id="linearGradient6292">
      <stop
         id="stop6294"
         offset="0"
         style="stop-color:#f57900;stop-opacity:1;" />
      <stop
         style="stop-color:#ff9f43;stop-opacity:1;"
         offset="0.27027026"
         id="stop6300" />
      <stop
         id="stop6296"
         offset="1"
         style="stop-color:#cb6400;stop-opacity:1;" />
    </linearGradient>
    <linearGradient
       id="linearGradient6324">
      <stop
         id="stop6326"
         offset="0"
         style="stop-color:#396fb5;stop-opacity:1;" />
      <stop
         id="stop6328"
         offset="1"
         style="stop-color:#3465a4;stop-opacity:0;" />
    </linearGradient>
    <linearGradient
       id="linearGradient6368">
      <stop
         id="stop6370"
         offset="0"
         style="stop-color:#5085c8;stop-opacity:1" />
      <stop
         id="stop6372"
         offset="1"
         style="stop-color:#cfdfef;stop-opacity:0.60194176;" />
    </linearGradient>
    <linearGradient
       id="linearGradient3494">
      <stop
         id="stop3496"
         offset="0"
         style="stop-color:#2e3436;stop-opacity:0.82474226;" />
      <stop
         id="stop3498"
         offset="1"
         style="stop-color:#2e3436;stop-opacity:0;" />
    </linearGradient>
    <linearGradient
       id="linearGradient3506">
      <stop
         id="stop3508"
         offset="0"
         style="stop-color:#555753;stop-opacity:1;" />
      <stop
         id="stop3510"
         offset="1"
         style="stop-color:#555753;stop-opacity:0.22680412;" />
    </linearGradient>
    <linearGradient
       id="linearGradient3470">
      <stop
         id="stop3472"
         offset="0"
         style="stop-color:#729fcf;stop-opacity:1;" />
      <stop
         id="stop3474"
         offset="1"
         style="stop-color:#386da5;stop-opacity:1;" />
    </linearGradient>
    <linearGradient
       id="linearGradient3161">
      <stop
         style="stop-color:#d3d7cf;stop-opacity:1;"
         offset="0"
         id="stop3163" />
      <stop
         style="stop-color:#bbc1b5;stop-opacity:1;"
         offset="1"
         id="stop3165" />
    </linearGradient>
    <linearGradient
       gradientUnits="userSpaceOnUse"
       y2="32.576614"
       x2="29.019531"
       y1="19.002398"
       x1="19.003906"
       id="linearGradient6709"
       xlink:href="#linearGradient4862"
       inkscape:collect="always" />
    <linearGradient
       id="linearGradient6698">
      <stop
         id="stop6700"
         offset="0"
         style="stop-color:#d3d7cf;stop-opacity:1;" />
      <stop
         id="stop6702"
         offset="1"
         style="stop-color:#bbc1b5;stop-opacity:1;" />
    </linearGradient>
    <linearGradient
       id="linearGradient6690">
      <stop
         style="stop-color:#729fcf;stop-opacity:1;"
         offset="0"
         id="stop6692" />
      <stop
         style="stop-color:#386da5;stop-opacity:1;"
         offset="1"
         id="stop6694" />
    </linearGradient>
    <linearGradient
       id="linearGradient6684">
      <stop
         style="stop-color:#555753;stop-opacity:1;"
         offset="0"
         id="stop6686" />
      <stop
         style="stop-color:#555753;stop-opacity:0.22680412;"
         offset="1"
         id="stop6688" />
    </linearGradient>
    <linearGradient
       id="linearGradient6678">
      <stop
         style="stop-color:#2e3436;stop-opacity:0.82474226;"
         offset="0"
         id="stop6680" />
      <stop
         style="stop-color:#2e3436;stop-opacity:0;"
         offset="1"
         id="stop6682" />
    </linearGradient>
    <linearGradient
       id="linearGradient6672">
      <stop
         style="stop-color:#5085c8;stop-opacity:1"
         offset="0"
         id="stop6674" />
      <stop
         style="stop-color:#cfdfef;stop-opacity:0.60194176;"
         offset="1"
         id="stop6676" />
    </linearGradient>
    <linearGradient
       id="linearGradient6666">
      <stop
         style="stop-color:#396fb5;stop-opacity:1;"
         offset="0"
         id="stop6668" />
      <stop
         style="stop-color:#3465a4;stop-opacity:0;"
         offset="1"
         id="stop6670" />
    </linearGradient>
    <linearGradient
       id="linearGradient6658">
      <stop
         style="stop-color:#f57900;stop-opacity:1;"
         offset="0"
         id="stop6660" />
      <stop
         id="stop6662"
         offset="0.27027026"
         style="stop-color:#ff9f43;stop-opacity:1;" />
      <stop
         style="stop-color:#cb6400;stop-opacity:1;"
         offset="1"
         id="stop6664" />
    </linearGradient>
    <linearGradient
       id="linearGradient6652">
      <stop
         style="stop-color:#173764;stop-opacity:1;"
         offset="0"
         id="stop6654" />
      <stop
         style="stop-color:#2d69c0;stop-opacity:1;"
         offset="1"
         id="stop6656" />
    </linearGradient>
    <linearGradient
       id="linearGradient6640">
      <stop
         style="stop-color:#3465a4;stop-opacity:1;"
         offset="0"
         id="stop6642" />
      <stop
         style="stop-color:#2d588f;stop-opacity:1;"
         offset="1"
         id="stop6644" />
    </linearGradient>
    <linearGradient
       id="linearGradient6626">
      <stop
         style="stop-color:#edd400;stop-opacity:1;"
         offset="0"
         id="stop6628" />
      <stop
         id="stop6630"
         offset="0.5"
         style="stop-color:#c3af07;stop-opacity:1;" />
      <stop
         style="stop-color:#ffeb3e;stop-opacity:1;"
         offset="1"
         id="stop6632" />
    </linearGradient>
    <linearGradient
       id="linearGradient6608">
      <stop
         style="stop-color:#555753;stop-opacity:1;"
         offset="0"
         id="stop6610" />
      <stop
         style="stop-color:#3e3f3c;stop-opacity:1;"
         offset="1"
         id="stop6612" />
    </linearGradient>
    <linearGradient
       id="linearGradient6600">
      <stop
         style="stop-color:#eeeeec;stop-opacity:1;"
         offset="0"
         id="stop6602" />
      <stop
         id="stop6604"
         offset="0.8918919"
         style="stop-color:#dededa;stop-opacity:1;" />
      <stop
         style="stop-color:#838375;stop-opacity:1;"
         offset="1"
         id="stop6606" />
    </linearGradient>
    <linearGradient
       inkscape:collect="always"
       xlink:href="#linearGradient6099"
       id="linearGradient6598"
       x1="22.797205"
       y1="39.679859"
       x2="22.797205"
       y2="46.635937"
       gradientUnits="userSpaceOnUse"
       gradientTransform="matrix(1,0,0,0.934004,74,1.557982)" />
    <radialGradient
       inkscape:collect="always"
       xlink:href="#linearGradient6125"
       id="radialGradient6596"
       cx="24.218407"
       cy="45.25996"
       fx="24.218407"
       fy="45.25996"
       r="21.38998"
       gradientTransform="matrix(1,0,0,0.128099,0,39.4622)"
       gradientUnits="userSpaceOnUse" />
    <radialGradient
       inkscape:collect="always"
       xlink:href="#linearGradient6151"
       id="radialGradient6594"
       gradientUnits="userSpaceOnUse"
       gradientTransform="matrix(8.342154,0,0,8.342154,-153.6289,-207.0663)"
       cx="29.61227"
       cy="27.974968"
       fx="29.61227"
       fy="27.974968"
       r="3.8890872" />
    <linearGradient
       inkscape:collect="always"
       xlink:href="#linearGradient6196"
       id="linearGradient6592"
       x1="29.374996"
       y1="21.741114"
       x2="22.101643"
       y2="7.6786127"
       gradientUnits="userSpaceOnUse"
       gradientTransform="translate(74,0)" />
    <linearGradient
       inkscape:collect="always"
       xlink:href="#linearGradient6115"
       id="linearGradient6590"
       gradientUnits="userSpaceOnUse"
       gradientTransform="matrix(1,0,0,0.982516,74,-7.076703e-2)"
       x1="21.617008"
       y1="4.6076145"
       x2="26.443777"
       y2="47.007381" />
    <linearGradient
       inkscape:collect="always"
       xlink:href="#linearGradient6210"
       id="linearGradient6588"
       x1="16.845879"
       y1="8.6784801"
       x2="30.507824"
       y2="78.505272"
       gradientUnits="userSpaceOnUse" />
    <radialGradient
       inkscape:collect="always"
       xlink:href="#linearGradient6151"
       id="radialGradient6586"
       gradientUnits="userSpaceOnUse"
       gradientTransform="matrix(3.657239,0,0,3.657239,-88.89792,-76.00592)"
       cx="33.45499"
       cy="28.603338"
       fx="33.45499"
       fy="28.603338"
       r="3.8890872" />
    <linearGradient
       inkscape:collect="always"
       xlink:href="#linearGradient6235"
       id="linearGradient6584"
       gradientUnits="userSpaceOnUse"
       x1="22.15266"
       y1="6.2555637"
       x2="28.841305"
       y2="44.992451"
       gradientTransform="translate(58.28617,0)" />
    <linearGradient
       inkscape:collect="always"
       xlink:href="#linearGradient6247"
       id="linearGradient6582"
       x1="20.40625"
       y1="7.515625"
       x2="34.09375"
       y2="62.265625"
       gradientUnits="userSpaceOnUse" />
    <linearGradient
       inkscape:collect="always"
       xlink:href="#linearGradient6259"
       id="linearGradient6580"
       x1="24.8125"
       y1="41.000004"
       x2="24.8125"
       y2="43.375004"
       gradientUnits="userSpaceOnUse"
       gradientTransform="translate(58.28617,0)" />
    <linearGradient
       inkscape:collect="always"
       xlink:href="#linearGradient6292"
       id="linearGradient6578"
       x1="24.508614"
       y1="12.495212"
       x2="24.508614"
       y2="39.508614"
       gradientUnits="userSpaceOnUse"
       gradientTransform="translate(58.28617,0)" />
    <radialGradient
       inkscape:collect="always"
       xlink:href="#linearGradient6125"
       id="radialGradient6576"
       gradientUnits="userSpaceOnUse"
       gradientTransform="matrix(1,0,0,0.128099,0,39.4622)"
       cx="24.218407"
       cy="45.25996"
       fx="24.218407"
       fy="45.25996"
       r="21.38998" />
    <linearGradient
       id="linearGradient6570">
      <stop
         id="stop6572"
         offset="0"
         style="stop-color:#f9f9f9;stop-opacity:1;" />
      <stop
         id="stop6574"
         offset="1.0000000"
         style="stop-color:#f2f2f2;stop-opacity:1.0000000;" />
    </linearGradient>
    <linearGradient
       inkscape:collect="always"
       xlink:href="#linearGradient9697"
       id="linearGradient9703"
       x1="-4.4651165"
       y1="12.059034"
       x2="8.3291588"
       y2="12.059034"
       gradientUnits="userSpaceOnUse"
       gradientTransform="matrix(1.0942394,0,0,3.3931208,-2.114093,-17.991998)"
       spreadMethod="pad" />
    <linearGradient
       inkscape:collect="always"
       xlink:href="#linearGradient2906"
       id="linearGradient2912"
       x1="10"
       y1="-12"
       x2="30"
       y2="73"
       gradientUnits="userSpaceOnUse"
       gradientTransform="matrix(0.5653173,0,0,0.6509665,2.1497239,-0.1194117)" />
    <linearGradient
       inkscape:collect="always"
       xlink:href="#linearGradient2913"
       id="linearGradient2919"
       x1="14.796515"
       y1="36.837719"
       x2="32.578289"
       y2="36.837719"
       gradientUnits="userSpaceOnUse"
       gradientTransform="matrix(0.6469985,0,0,0.6817949,0.4720392,-1.2039738)" />
    <filter
       inkscape:collect="always"
       x="-0.13639002"
       width="1.2727799"
       y="-0.23358747"
       height="1.4671749"
       id="filter3015">
      <feGaussianBlur
         inkscape:collect="always"
         stdDeviation="0.84215433"
         id="feGaussianBlur3017" />
    </filter>
    <linearGradient
       inkscape:collect="always"
       xlink:href="#linearGradient3033"
       id="linearGradient3039"
       x1="29"
       y1="16"
       x2="29"
       y2="34.027756"
       gradientUnits="userSpaceOnUse"
       gradientTransform="matrix(0.7778062,0,0,0.6985196,-2.6673493,-0.93013)" />
  </defs>
  <sodipodi:namedview
     id="base"
     pagecolor="#ffffff"
     bordercolor="#000000"
     borderopacity="1"
     inkscape:pageopacity="0.0"
     inkscape:pageshadow="2"
     inkscape:zoom="24.984375"
     inkscape:cx="24.215134"
     inkscape:cy="15.583073"
     inkscape:current-layer="layer1"
     showgrid="true"
     inkscape:grid-bbox="true"
     inkscape:document-units="px"
     showguides="true"
     inkscape:guide-bbox="true"
     inkscape:showpageshadow="true"
     inkscape:window-width="1024"
     inkscape:window-height="724"
     inkscape:window-x="89"
     inkscape:window-y="112"
     gridspacingx="1px"
     gridspacingy="1px"
     inkscape:object-points="false"
     objecttolerance="1"
     gridtolerance="10000"
     guidetolerance="1"
     width="32px"
     height="32px">
    <inkscape:grid
       type="xygrid"
       id="grid4164" />
  </sodipodi:namedview>
  <metadata
     id="metadata7434">
    <rdf:RDF>
      <cc:Work
         rdf:about="">
        <dc:format>image/svg+xml</dc:format>
        <dc:type
           rdf:resource="http://purl.org/dc/dcmitype/StillImage" />
        <dc:title>Transcend JetFlash150 4GB</dc:title>
        <dc:date>2007/05/30</dc:date>
        <dc:creator>
          <cc:Agent>
            <dc:title>Ricardo 'Rick' González</dc:title>
          </cc:Agent>
        </dc:creator>
        <dc:publisher>
          <cc:Agent>
            <dc:title />
          </cc:Agent>
        </dc:publisher>
        <dc:source />
        <dc:subject>
          <rdf:Bag>
            <rdf:li>usb drive pendrive transcend</rdf:li>
          </rdf:Bag>
        </dc:subject>
        <cc:license
           rdf:resource="http://creativecommons.org/licenses/GPL/2.0/" />
        <dc:contributor>
          <cc:Agent>
            <dc:title>Josef 'cornelius' Vybíral</dc:title>
          </cc:Agent>
        </dc:contributor>
      </cc:Work>
      <cc:License
         rdf:about="http://creativecommons.org/licenses/GPL/2.0/">
        <cc:permits
           rdf:resource="http://web.resource.org/cc/Reproduction" />
        <cc:permits
           rdf:resource="http://web.resource.org/cc/Distribution" />
        <cc:requires
           rdf:resource="http://web.resource.org/cc/Notice" />
        <cc:permits
           rdf:resource="http://web.resource.org/cc/DerivativeWorks" />
        <cc:requires
           rdf:resource="http://web.resource.org/cc/ShareAlike" />
        <cc:requires
           rdf:resource="http://web.resource.org/cc/SourceCode" />
      </cc:License>
    </rdf:RDF>
  </metadata>
  <g
     id="layer1"
     inkscape:label="Layer 1"
     inkscape:groupmode="layer">
    <rect
       ry="1.2492193"
       rx="0.64065903"
       y="0.84322041"
       x="10.239415"
       height="3.220834"
       width="10.614214"
       id="rect2425"
       style="opacity:0.7;fill:#ffffff;fill-opacity:1;stroke:none;stroke-width:0.12834676;stroke-linecap:round;stroke-linejoin:round;stroke-miterlimit:4;stroke-dasharray:none;stroke-opacity:1;display:inline" />
    <rect
       style="opacity:1;fill:#ffffff;fill-opacity:1;fill-rule:nonzero;stroke:none;stroke-width:0.704;stroke-linecap:round;stroke-linejoin:round;stroke-miterlimit:0;stroke-dasharray:none;stroke-dashoffset:0;stroke-opacity:1"
       id="rect3312"
       width="0.0079017347"
       height="0.089420028"
       x="13.532964"
       y="3.3612452"
       rx="0.19140634"
       ry="0.089420028" />
    <rect
       transform="matrix(0.9655172,0,0,0.4272459,2.7241379,27.727541)"
       style="opacity:0.31924881;fill:#000000;fill-opacity:1;stroke:none;stroke-width:0.67364258;stroke-linejoin:miter;stroke-miterlimit:4;stroke-dasharray:none;stroke-opacity:1;filter:url(#filter3015)"
       id="rect3891"
       width="14.5"
       height="7.9696693"
       x="6.5"
       y="2.0303304"
       rx="2.1529291"
       ry="3.4758823"
       inkscape:export-filename="/home/christian/graphics/usb-icons.png"
       inkscape:export-xdpi="90"
       inkscape:export-ydpi="90" />
    <rect
       style="opacity:1;fill:url(#linearGradient2919);fill-opacity:1;stroke:#ce5c00;stroke-width:1.00102711;stroke-linecap:round;stroke-linejoin:round;stroke-miterlimit:4;stroke-dasharray:none;stroke-opacity:1;display:inline"
       id="rect5391"
       width="10.998973"
       height="29.998974"
       x="10.500513"
       y="0.50051355"
       rx="0.89468628"
       ry="1.4120612" />
    <path
       style="fill:none;fill-opacity:1;fill-rule:evenodd;stroke:#ce5c00;stroke-width:1;stroke-linecap:square;stroke-linejoin:miter;stroke-miterlimit:4;stroke-dasharray:none;stroke-opacity:1"
       d="M 11.293126,15.505649 L 20.669462,15.505649 L 20.669462,15.505649 L 20.669462,15.505649"
       id="path5495"
       inkscape:export-filename="C:\Tango\transcend-jetflash-150\48x48\path5495.png"
       inkscape:export-xdpi="90"
       inkscape:export-ydpi="90" />
    <rect
       ry="0.53826308"
       rx="0.31210855"
       y="1.5080053"
       x="11.477461"
       height="27.98399"
       width="9.0450783"
       id="rect5433"
       style="opacity:0.5;fill:none;fill-opacity:1;stroke:url(#linearGradient2912);stroke-width:1;stroke-linecap:round;stroke-linejoin:round;stroke-miterlimit:4;stroke-dasharray:none;stroke-opacity:1;display:inline" />
    <text
       xml:space="preserve"
       style="font-size:1.72069025px;fill:#ce5c00;fill-opacity:1"
       x="14.491652"
       y="4.8169942"
       id="text7751"
       transform="scale(0.9742366,1.0264447)"><tspan
         sodipodi:role="line"
         id="tspan7753"
         x="14.491652"
         y="4.8169942"
         style="font-style:normal;font-weight:bold;text-align:justify;text-anchor:start;fill:#ce5c00;fill-opacity:1;font-family:Arial">4GB</tspan></text>
    <path
       inkscape:export-ydpi="90"
       inkscape:export-xdpi="90"
       inkscape:export-filename="C:\Tango\transcend-jetflash-150\48x48\path5495.png"
       id="path2905"
       d="M 11.457367,14.502407 L 15.59555,14.502407 L 15.59555,14.502407 L 15.59555,14.502407"
       style="fill:none;fill-opacity:1;fill-rule:evenodd;stroke:#ffffff;stroke-width:1;stroke-linecap:square;stroke-linejoin:miter;stroke-miterlimit:4;stroke-dasharray:none;stroke-opacity:0.16756759" />
    <path
       style="fill:none;fill-opacity:1;fill-rule:evenodd;stroke:#ffffff;stroke-width:1;stroke-linecap:square;stroke-linejoin:miter;stroke-miterlimit:4;stroke-dasharray:none;stroke-opacity:0.16756759"
       d="M 14.909272,16.50889 L 20.474988,16.50889 L 20.474988,16.50889 L 20.474988,16.50889"
       id="path2929"
       inkscape:export-filename="C:\Tango\transcend-jetflash-150\48x48\path5495.png"
       inkscape:export-xdpi="90"
       inkscape:export-ydpi="90" />
    <path
       sodipodi:nodetypes="cccsccc"
       id="path3031"
       d="M 16.000154,8.4999996 C 17.938274,8.4999996 19.498566,9.7584351 19.498566,9.8295298 L 19.498566,21.367288 C 19.555015,21.402882 17.938274,22.470159 16.000154,22.470159 C 14.062034,22.470159 12.439339,21.435441 12.501743,21.367288 L 12.501743,9.8295298 C 12.501743,9.8295298 14.062034,8.4999996 16.000154,8.4999996 z"
       style="opacity:0.90555576;color:#000000;fill:none;fill-opacity:1;fill-rule:nonzero;stroke:url(#linearGradient3039);stroke-width:1;stroke-linecap:butt;stroke-linejoin:round;marker:none;marker-start:none;marker-mid:none;marker-end:none;stroke-miterlimit:4;stroke-dasharray:none;stroke-dashoffset:0;stroke-opacity:0.25405405;visibility:visible;display:inline;overflow:visible;enable-background:accumulate" />
    <path
       style="opacity:0.90555576;fill:#000000;fill-opacity:1;stroke:#ce5c00;stroke-width:1;stroke-linecap:butt;stroke-linejoin:round;stroke-miterlimit:4;stroke-dasharray:none;stroke-opacity:1"
       d="M 16.000109,9.4999997 C 17.384481,9.4999997 18.498976,10.460126 18.498976,10.526282 L 18.498976,21.473718 C 18.539297,21.506837 17.384481,22.499999 16.000109,22.499999 C 14.615738,22.499999 13.456671,21.537137 13.501246,21.473718 L 13.501246,10.526282 C 13.501246,10.526282 14.615738,9.4999997 16.000109,9.4999997 z"
       id="rect3289"
       sodipodi:nodetypes="cccsccc" />
    <rect
       style="opacity:1;color:#000000;fill:#2e3436;fill-opacity:1;fill-rule:nonzero;stroke:none;stroke-width:1;stroke-linecap:butt;stroke-linejoin:miter;marker:none;marker-start:none;marker-mid:none;marker-end:none;stroke-miterlimit:4;stroke-dasharray:none;stroke-dashoffset:0;stroke-opacity:0.16756759;visibility:visible;display:inline;overflow:visible;enable-background:accumulate"
       id="rect2927"
       width="2.3881302"
       height="12.036306"
       x="14.805935"
       y="10"
       rx="1.1940639"
       ry="0.65784615" />
    <path
       style="font-size:2.18347311px;font-style:italic;font-variant:normal;font-weight:normal;font-stretch:normal;text-align:start;line-height:125%;writing-mode:lr-tb;text-anchor:start;fill:#eeeeec;fill-opacity:1;stroke:none;stroke-width:1px;stroke-linecap:butt;stroke-linejoin:miter;stroke-opacity:1;font-family:Arial"
       d="M 16.766204,20.612051 L 15.446842,20.308767 L 15.446842,20.84707 L 15.277224,20.8079 L 15.277224,19.516422 L 15.446842,19.555591 L 15.446842,20.089417 L 16.766204,20.392701 L 16.766204,20.612051 M 16.766204,19.825302 L 15.687557,19.576855 L 15.687557,19.397794 L 15.907959,19.448155 C 15.824674,19.386976 15.763057,19.327289 15.723106,19.269094 C 15.683157,19.210153 15.663182,19.150093 15.663181,19.088913 C 15.663182,19.048625 15.676386,18.99901 15.702793,18.940069 L 15.873426,19.022884 C 15.850405,19.057952 15.838894,19.096375 15.838893,19.138155 C 15.838894,19.209034 15.87478,19.281777 15.946554,19.356385 C 16.018329,19.430994 16.147319,19.489562 16.333526,19.53209 L 16.766204,19.632811 L 16.766204,19.825302 M 16.632134,18.258517 C 16.686981,18.32865 16.727269,18.396171 16.753,18.46108 C 16.778053,18.52599 16.790579,18.595377 16.790579,18.669239 C 16.790579,18.778914 16.761463,18.867326 16.703231,18.934473 C 16.644323,19.001621 16.569163,19.035195 16.477751,19.035195 C 16.417489,19.035195 16.364335,19.020273 16.318291,18.99043 C 16.271571,18.95984 16.234329,18.919551 16.206567,18.869564 C 16.178128,18.819576 16.157815,18.758397 16.145627,18.686026 C 16.137501,18.640515 16.131069,18.554341 16.126329,18.427506 C 16.121589,18.299926 16.109401,18.208531 16.089764,18.153319 C 16.039659,18.137652 15.998015,18.129818 15.964836,18.129817 C 15.922179,18.129818 15.888662,18.146978 15.864284,18.181297 C 15.830429,18.228302 15.813502,18.296941 15.813501,18.387217 C 15.813502,18.472272 15.830768,18.542031 15.865301,18.596495 C 15.899157,18.650214 15.94757,18.689383 16.010542,18.714004 L 15.99429,18.918805 C 15.887307,18.877024 15.805377,18.810996 15.748497,18.720719 C 15.691621,18.629697 15.663182,18.515172 15.663181,18.377145 C 15.663182,18.230167 15.695006,18.113778 15.758654,18.027977 C 15.806054,17.962321 15.867671,17.929494 15.943507,17.929492 C 16.001063,17.929494 16.067758,17.93882 16.143595,17.957471 L 16.411733,18.0235 C 16.497049,18.044391 16.566454,18.054836 16.619946,18.054835 C 16.653802,18.054836 16.702555,18.04663 16.766204,18.030215 L 16.766204,18.235015 C 16.730993,18.246207 16.686303,18.254041 16.632134,18.258517 M 16.219771,18.183535 C 16.229928,18.211887 16.237714,18.242478 16.243131,18.275304 C 16.248549,18.307387 16.254304,18.361479 16.260397,18.437578 C 16.269878,18.555461 16.282066,18.63865 16.296962,18.687144 C 16.311181,18.73564 16.334203,18.772199 16.366028,18.79682 C 16.397852,18.82144 16.433062,18.833751 16.471657,18.833751 C 16.523119,18.833751 16.565439,18.814353 16.598617,18.775556 C 16.631796,18.736014 16.648386,18.680057 16.648385,18.607687 C 16.648386,18.540539 16.632473,18.476002 16.600648,18.414077 C 16.568147,18.352152 16.523119,18.303283 16.465564,18.26747 C 16.408009,18.231658 16.326078,18.203681 16.219771,18.183535 M 16.397514,17.76498 L 16.386341,17.562417 C 16.439156,17.562418 16.484185,17.553464 16.521426,17.535558 C 16.558667,17.517652 16.589138,17.484824 16.612836,17.437075 C 16.636536,17.388579 16.648386,17.33225 16.648385,17.268085 C 16.648386,17.178556 16.632134,17.111408 16.599632,17.066641 C 16.567132,17.021877 16.528874,16.999494 16.484861,16.999493 C 16.453038,16.999494 16.422906,17.012924 16.394466,17.039783 C 16.366028,17.067389 16.331157,17.134909 16.289852,17.242346 C 16.247871,17.349037 16.218417,17.417304 16.201488,17.447146 C 16.173727,17.497135 16.141225,17.534812 16.103984,17.560179 C 16.066065,17.585546 16.02273,17.598229 15.973977,17.598229 C 15.888662,17.598229 15.815533,17.560925 15.754591,17.486316 C 15.693652,17.411708 15.663182,17.307256 15.663181,17.17296 C 15.663182,17.023742 15.694668,16.910337 15.757639,16.832743 C 15.819934,16.754405 15.902204,16.713743 16.004448,16.710758 L 16.016636,16.908844 C 15.951633,16.911829 15.900173,16.937196 15.862253,16.984946 C 15.824335,17.032695 15.805377,17.100217 15.805376,17.187507 C 15.805377,17.257641 15.819934,17.312105 15.849049,17.350901 C 15.878166,17.389699 15.909652,17.409096 15.943507,17.409096 C 15.977364,17.409096 16.007157,17.392309 16.032886,17.358735 C 16.050492,17.336353 16.077576,17.278531 16.11414,17.185269 C 16.175082,17.030085 16.223157,16.932346 16.258366,16.892057 C 16.314567,16.827894 16.382956,16.795812 16.463532,16.795811 C 16.517025,16.795812 16.569501,16.814092 16.620962,16.85065 C 16.672423,16.886462 16.713726,16.941673 16.744875,17.016281 C 16.775344,17.090144 16.790579,17.177437 16.790579,17.278158 C 16.790579,17.415438 16.75977,17.532201 16.698153,17.628446 C 16.636536,17.724691 16.536323,17.770203 16.397514,17.76498 M 16.373137,15.81769 L 16.392435,15.615127 C 16.527182,15.665862 16.627395,15.738234 16.693075,15.832239 C 16.758078,15.925501 16.790579,16.031819 16.790579,16.151192 C 16.790579,16.280266 16.752661,16.385091 16.676824,16.465668 C 16.600987,16.5455 16.495018,16.585416 16.358918,16.585416 C 16.2411,16.585416 16.125313,16.559675 16.011557,16.508195 C 15.897802,16.456716 15.811471,16.383225 15.75256,16.287726 C 15.692975,16.191482 15.663182,16.081806 15.663181,15.958701 C 15.663182,15.831121 15.696022,15.730026 15.761701,15.655417 C 15.826706,15.580809 15.913037,15.543505 16.020698,15.543504 L 16.032886,15.742708 C 15.964499,15.743456 15.911006,15.765466 15.87241,15.808737 C 15.833815,15.851266 15.814517,15.907595 15.814516,15.977727 C 15.814517,16.059051 15.837877,16.129556 15.884598,16.189243 C 15.93132,16.24893 16.002416,16.295934 16.09789,16.330254 C 16.192687,16.363827 16.284097,16.380615 16.372122,16.380614 C 16.464209,16.380615 16.533275,16.358232 16.579319,16.313466 C 16.625364,16.268701 16.648386,16.213491 16.648385,16.147834 C 16.648386,16.08218 16.625702,16.019508 16.580334,15.95982 C 16.534968,15.899388 16.465902,15.852011 16.373137,15.81769 M 16.399545,14.619101 L 16.417827,14.422133 C 16.506529,14.450486 16.59083,14.515768 16.67073,14.617981 C 16.75063,14.719449 16.790579,14.840689 16.790579,14.981699 C 16.790579,15.069738 16.772298,15.150689 16.735733,15.22455 C 16.698492,15.297667 16.644661,15.353624 16.574241,15.392421 C 16.503821,15.430471 16.423582,15.449496 16.333526,15.449496 C 16.215709,15.449496 16.101615,15.419653 15.991244,15.359965 C 15.880197,15.299532 15.797928,15.221566 15.744435,15.126067 C 15.690267,15.030569 15.663182,14.927236 15.663181,14.816068 C 15.663182,14.674311 15.703132,14.561279 15.78303,14.476971 C 15.862931,14.391917 15.971947,14.349391 16.110077,14.34939 C 16.162893,14.349391 16.217063,14.354613 16.272585,14.365058 L 16.272585,15.240218 C 16.293577,15.243203 16.312536,15.244695 16.329464,15.244695 C 16.430354,15.244695 16.507545,15.219328 16.561037,15.168594 C 16.613853,15.117114 16.640259,15.054443 16.640259,14.98058 C 16.640259,14.911194 16.619608,14.842927 16.578303,14.775778 C 16.537,14.708631 16.477413,14.656406 16.399545,14.619101 M 16.132423,15.207764 L 16.132423,14.540761 C 16.113464,14.540016 16.099922,14.539643 16.091796,14.539642 C 15.999708,14.539643 15.929289,14.56501 15.880535,14.615743 C 15.831107,14.666478 15.806392,14.73176 15.806391,14.811591 C 15.806392,14.898138 15.833477,14.977223 15.887645,15.048847 C 15.941815,15.119726 16.023407,15.172697 16.132423,15.207764 M 16.766204,14.216213 L 15.687557,13.967766 L 15.687557,13.784228 L 15.875457,13.827874 C 15.801653,13.748043 15.747822,13.673434 15.713964,13.604048 C 15.68011,13.534662 15.663182,13.463784 15.663181,13.391412 C 15.663182,13.295168 15.686881,13.219813 15.734278,13.165348 C 15.781677,13.110139 15.844988,13.082533 15.924209,13.082532 C 15.96416,13.082533 16.027131,13.092232 16.113125,13.11163 L 16.766204,13.262712 L 16.766204,13.465275 L 16.082654,13.307478 C 16.016298,13.291811 15.967207,13.283977 15.935382,13.283976 C 15.899495,13.283977 15.870379,13.29778 15.848034,13.325383 C 15.82569,13.352244 15.814517,13.391413 15.814516,13.442893 C 15.814517,13.546599 15.848373,13.639114 15.916084,13.720437 C 15.983796,13.801015 16.099922,13.860329 16.26446,13.89838 L 16.766204,14.01365 L 16.766204,14.216213 M 16.60979,12.139105 C 16.730316,12.254748 16.790579,12.375615 16.790579,12.501703 C 16.790579,12.614363 16.753,12.708369 16.67784,12.783724 C 16.602003,12.858333 16.49231,12.895637 16.348761,12.895637 C 16.217401,12.895637 16.097552,12.866167 15.989213,12.807226 C 15.880197,12.74754 15.798605,12.673303 15.744435,12.584519 C 15.690267,12.494988 15.663182,12.405458 15.663181,12.315927 C 15.663182,12.168202 15.727846,12.056662 15.857174,11.981307 L 15.277224,11.847011 L 15.277224,11.645567 L 16.766204,11.988021 L 16.766204,12.174916 L 16.60979,12.139105 M 16.314228,12.694193 C 16.389389,12.694194 16.448636,12.685986 16.491971,12.669572 C 16.535307,12.653159 16.571533,12.625181 16.600648,12.585638 C 16.629088,12.546096 16.643307,12.498719 16.643307,12.443508 C 16.643307,12.35174 16.599972,12.268551 16.513301,12.193942 C 16.398191,12.093967 16.255997,12.043979 16.086717,12.043978 C 16.001401,12.043979 15.934705,12.0686 15.88663,12.117841 C 15.838555,12.167083 15.814517,12.229009 15.814516,12.303616 C 15.814517,12.352113 15.824335,12.396505 15.843971,12.436793 C 15.863609,12.476336 15.897125,12.515879 15.944523,12.555421 C 15.991245,12.594218 16.050831,12.627046 16.123281,12.653905 C 16.195733,12.680764 16.259382,12.694194 16.314228,12.694193"
       id="text2923" />
  </g>
</svg>
