<?xml version="1.0" encoding="UTF-8" standalone="no"?>
<!-- Created with Inkscape (http://www.inkscape.org/) -->
<svg
   xmlns:dc="http://purl.org/dc/elements/1.1/"
   xmlns:cc="http://web.resource.org/cc/"
   xmlns:rdf="http://www.w3.org/1999/02/22-rdf-syntax-ns#"
   xmlns:svg="http://www.w3.org/2000/svg"
   xmlns="http://www.w3.org/2000/svg"
   xmlns:xlink="http://www.w3.org/1999/xlink"
   xmlns:sodipodi="http://sodipodi.sourceforge.net/DTD/sodipodi-0.dtd"
   xmlns:inkscape="http://www.inkscape.org/namespaces/inkscape"
   width="32"
   height="32"
   id="svg2170"
   sodipodi:version="0.32"
   inkscape:version="0.45.1"
   sodipodi:docbase="/home/dobey/Projects/gnome-icon-theme-extras/Gadgetango/32x32/devices"
   sodipodi:docname="multimedia-player-sandisk-sansa-e200.svg"
   inkscape:output_extension="org.inkscape.output.svg.inkscape"
   version="1.0"
   inkscape:export-filename="/home/klepas/Documents/work/Tango/multimedia-player-e200/32x32/multimedia-player-e200.png"
   inkscape:export-xdpi="90"
   inkscape:export-ydpi="90">
  <defs
     id="defs2172">
    <linearGradient
       id="linearGradient10720">
      <stop
         style="stop-color:#ffffff;stop-opacity:1;"
         offset="0"
         id="stop10722" />
      <stop
         style="stop-color:#5e6259;stop-opacity:1;"
         offset="1"
         id="stop10724" />
    </linearGradient>
    <linearGradient
       id="linearGradient9282">
      <stop
         style="stop-color:#2e3436;stop-opacity:1;"
         offset="0"
         id="stop9284" />
      <stop
         style="stop-color:#000000;stop-opacity:1;"
         offset="1"
         id="stop9286" />
    </linearGradient>
    <linearGradient
       inkscape:collect="always"
       id="linearGradient8881">
      <stop
         style="stop-color:#2e3436;stop-opacity:1;"
         offset="0"
         id="stop8883" />
      <stop
         style="stop-color:#2e3436;stop-opacity:0;"
         offset="1"
         id="stop8885" />
    </linearGradient>
    <linearGradient
       id="linearGradient5710">
      <stop
         style="stop-color:#888a85;stop-opacity:1;"
         offset="0"
         id="stop5712" />
      <stop
         style="stop-color:#888a85;stop-opacity:0;"
         offset="1"
         id="stop5714" />
    </linearGradient>
    <linearGradient
       inkscape:collect="always"
       id="linearGradient3224">
      <stop
         style="stop-color:#eeeeec;stop-opacity:1;"
         offset="0"
         id="stop3226" />
      <stop
         style="stop-color:#eeeeec;stop-opacity:0;"
         offset="1"
         id="stop3228" />
    </linearGradient>
    <linearGradient
       id="linearGradient8644">
      <stop
         id="stop8646"
         offset="0"
         style="stop-color:#ffffff;stop-opacity:1;" />
      <stop
         id="stop8648"
         offset="1"
         style="stop-color:#878787;stop-opacity:1;" />
    </linearGradient>
    <linearGradient
       id="linearGradient5048">
      <stop
         id="stop5050"
         offset="0"
         style="stop-color:black;stop-opacity:0;" />
      <stop
         style="stop-color:black;stop-opacity:1;"
         offset="0.5"
         id="stop5056" />
      <stop
         id="stop5052"
         offset="1"
         style="stop-color:black;stop-opacity:0;" />
    </linearGradient>
    <linearGradient
       id="linearGradient5060"
       inkscape:collect="always">
      <stop
         id="stop5062"
         offset="0"
         style="stop-color:black;stop-opacity:1;" />
      <stop
         id="stop5064"
         offset="1"
         style="stop-color:black;stop-opacity:0;" />
    </linearGradient>
    <linearGradient
       id="linearGradient3624">
      <stop
         id="stop3626"
         offset="0"
         style="stop-color:#ffffff;stop-opacity:1;" />
      <stop
         id="stop3628"
         offset="1"
         style="stop-color:#7a7a7a;stop-opacity:1;" />
    </linearGradient>
    <linearGradient
       id="linearGradient4947">
      <stop
         id="stop4949"
         offset="0"
         style="stop-color:#5c5c5c;stop-opacity:1;" />
      <stop
         id="stop4951"
         offset="1"
         style="stop-color:#ababab;stop-opacity:1;" />
    </linearGradient>
    <linearGradient
       id="linearGradient5047"
       inkscape:collect="always">
      <stop
         id="stop5049"
         offset="0"
         style="stop-color:#000000;stop-opacity:1;" />
      <stop
         id="stop5051"
         offset="1"
         style="stop-color:#000000;stop-opacity:0;" />
    </linearGradient>
    <linearGradient
       id="linearGradient10350"
       inkscape:collect="always">
      <stop
         id="stop10352"
         offset="0"
         style="stop-color:#ffffff;stop-opacity:1;" />
      <stop
         id="stop10354"
         offset="1"
         style="stop-color:#ffffff;stop-opacity:0;" />
    </linearGradient>
    <linearGradient
       id="linearGradient10393">
      <stop
         id="stop10395"
         offset="0"
         style="stop-color:#b0b0b0;stop-opacity:1;" />
      <stop
         id="stop10397"
         offset="1"
         style="stop-color:#5b5b5b;stop-opacity:1;" />
    </linearGradient>
    <linearGradient
       inkscape:collect="always"
       xlink:href="#linearGradient3624"
       id="linearGradient8012"
       gradientUnits="userSpaceOnUse"
       x1="24.5"
       y1="24.941668"
       x2="24.5"
       y2="28.133331"
       gradientTransform="translate(96.014388,0)" />
    <radialGradient
       inkscape:collect="always"
       xlink:href="#linearGradient5047"
       id="radialGradient8269"
       gradientUnits="userSpaceOnUse"
       gradientTransform="matrix(1,0,0,0.30131,0,30.63319)"
       cx="37.53125"
       cy="43.84375"
       fx="37.53125"
       fy="43.84375"
       r="7.15625" />
    <linearGradient
       inkscape:collect="always"
       xlink:href="#linearGradient3224"
       id="linearGradient10760"
       gradientUnits="userSpaceOnUse"
       gradientTransform="matrix(0.764706,0,0,0.7027249,-40.852943,-1.2704373)"
       x1="69.506073"
       y1="13.698171"
       x2="79.408714"
       y2="39.208645" />
    <linearGradient
       inkscape:collect="always"
       xlink:href="#linearGradient8644"
       id="linearGradient10771"
       gradientUnits="userSpaceOnUse"
       gradientTransform="matrix(0.5882352,0,0,0.8333334,-19.382358,-2.4166671)"
       x1="52.937515"
       y1="9.875"
       x2="69.312515"
       y2="22" />
    <linearGradient
       inkscape:collect="always"
       xlink:href="#linearGradient5710"
       id="linearGradient10774"
       gradientUnits="userSpaceOnUse"
       gradientTransform="matrix(0.6666665,0,0,0.6410257,-4.1603795,-2.564086e-2)"
       x1="27.749992"
       y1="15.25"
       x2="50.624996"
       y2="61.625" />
    <linearGradient
       inkscape:collect="always"
       xlink:href="#linearGradient5048"
       id="linearGradient10778"
       gradientUnits="userSpaceOnUse"
       gradientTransform="matrix(2.774389,0,0,1.969706,-1892.179,-872.8854)"
       x1="302.85715"
       y1="366.64789"
       x2="302.85715"
       y2="609.50507" />
    <radialGradient
       inkscape:collect="always"
       xlink:href="#linearGradient5060"
       id="radialGradient10780"
       gradientUnits="userSpaceOnUse"
       gradientTransform="matrix(2.774389,0,0,1.969706,-1891.633,-872.8854)"
       cx="605.71429"
       cy="486.64789"
       fx="605.71429"
       fy="486.64789"
       r="117.14286" />
    <radialGradient
       inkscape:collect="always"
       xlink:href="#linearGradient5060"
       id="radialGradient10782"
       gradientUnits="userSpaceOnUse"
       gradientTransform="matrix(-2.774389,0,0,1.969706,112.7623,-872.8854)"
       cx="605.71429"
       cy="486.64789"
       fx="605.71429"
       fy="486.64789"
       r="117.14286" />
    <linearGradient
       inkscape:collect="always"
       xlink:href="#linearGradient10393"
       id="linearGradient10792"
       x1="57.335133"
       y1="28.591352"
       x2="63.888939"
       y2="40.039333"
       gradientUnits="userSpaceOnUse" />
    <radialGradient
       inkscape:collect="always"
       xlink:href="#linearGradient5047"
       id="radialGradient11686"
       gradientUnits="userSpaceOnUse"
       gradientTransform="matrix(1,0,0,0.30131,0,30.63319)"
       cx="37.53125"
       cy="43.84375"
       fx="37.53125"
       fy="43.84375"
       r="7.15625" />
    <radialGradient
       inkscape:collect="always"
       xlink:href="#linearGradient10393"
       id="radialGradient11690"
       gradientUnits="userSpaceOnUse"
       cx="31.269901"
       cy="36.116917"
       fx="31.269901"
       fy="36.116917"
       r="5.3125" />
    <linearGradient
       inkscape:collect="always"
       xlink:href="#linearGradient10720"
       id="linearGradient11701"
       gradientUnits="userSpaceOnUse"
       x1="10.088817"
       y1="49.193985"
       x2="9.8219881"
       y2="50.832207"
       gradientTransform="matrix(0.6674296,0,0,0.6677638,2.4561961,7.7874286e-2)" />
    <linearGradient
       inkscape:collect="always"
       xlink:href="#linearGradient9282"
       id="linearGradient11703"
       gradientUnits="userSpaceOnUse"
       x1="8.8512592"
       y1="47.832687"
       x2="8.8299723"
       y2="52.440712"
       gradientTransform="matrix(0.6674296,0,0,0.6677638,2.4561961,7.7874286e-2)" />
    <linearGradient
       inkscape:collect="always"
       xlink:href="#linearGradient10720"
       id="linearGradient11706"
       gradientUnits="userSpaceOnUse"
       x1="14.906082"
       y1="49.146111"
       x2="14.761026"
       y2="50.683853"
       gradientTransform="matrix(0.6674296,0,0,0.6677638,2.4561961,7.7874286e-2)" />
    <linearGradient
       inkscape:collect="always"
       xlink:href="#linearGradient9282"
       id="linearGradient11708"
       gradientUnits="userSpaceOnUse"
       x1="13.554059"
       y1="48.268845"
       x2="13.373383"
       y2="51.237896"
       gradientTransform="matrix(0.6674296,0,0,0.6677638,2.4561961,7.7874286e-2)" />
    <linearGradient
       inkscape:collect="always"
       xlink:href="#linearGradient9282"
       id="linearGradient12186"
       x1="31"
       y1="1"
       x2="34"
       y2="5.3838835"
       gradientUnits="userSpaceOnUse"
       gradientTransform="matrix(1,0,0,0.6666667,-12,-0.4999998)" />
    <linearGradient
       inkscape:collect="always"
       xlink:href="#linearGradient10720"
       id="linearGradient12196"
       gradientTransform="matrix(0.6546537,0,0,1.0183501,-12,-0.4999998)"
       x1="48.833069"
       y1="0.96152258"
       x2="50.742477"
       y2="1.8821292"
       gradientUnits="userSpaceOnUse" />
    <linearGradient
       inkscape:collect="always"
       xlink:href="#linearGradient9282"
       id="linearGradient12424"
       x1="10.893235"
       y1="36.43845"
       x2="15.50736"
       y2="44.76833"
       gradientUnits="userSpaceOnUse" />
    <linearGradient
       inkscape:collect="always"
       xlink:href="#linearGradient10350"
       id="linearGradient12430"
       gradientUnits="userSpaceOnUse"
       x1="11.980334"
       y1="35.990837"
       x2="15.065362"
       y2="46.266663" />
    <linearGradient
       inkscape:collect="always"
       xlink:href="#linearGradient4947"
       id="linearGradient12432"
       gradientUnits="userSpaceOnUse"
       x1="13.727494"
       y1="48.561176"
       x2="13.727494"
       y2="37.353321" />
    <linearGradient
       inkscape:collect="always"
       xlink:href="#linearGradient10350"
       id="linearGradient12443"
       gradientUnits="userSpaceOnUse"
       x1="11.980334"
       y1="35.990837"
       x2="15.065362"
       y2="46.266663" />
    <linearGradient
       inkscape:collect="always"
       xlink:href="#linearGradient8881"
       id="linearGradient12445"
       gradientUnits="userSpaceOnUse"
       gradientTransform="matrix(1.0229408,0,0,1.0259135,-6.2315692,-10.874141)"
       x1="14.375"
       y1="37.6875"
       x2="10.9375"
       y2="31.4375" />
    <linearGradient
       inkscape:collect="always"
       xlink:href="#linearGradient10350"
       id="linearGradient5116"
       gradientUnits="userSpaceOnUse"
       x1="11.980334"
       y1="35.990837"
       x2="15.065362"
       y2="46.266663" />
  </defs>
  <sodipodi:namedview
     id="base"
     pagecolor="#ffffff"
     bordercolor="#666666"
     borderopacity="0.14117647"
     inkscape:pageopacity="0.0"
     inkscape:pageshadow="2"
     inkscape:zoom="1"
     inkscape:cx="18.33363"
     inkscape:cy="12.036629"
     inkscape:current-layer="layer1"
     showgrid="true"
     inkscape:grid-bbox="true"
     inkscape:document-units="px"
     borderlayer="false"
     inkscape:window-width="1336"
     inkscape:window-height="828"
     inkscape:window-x="89"
     inkscape:window-y="63"
     width="32px"
     height="32px"
     inkscape:snap-bbox="false"
     objecttolerance="1"
     gridtolerance="1"
     inkscape:snap-nodes="false"
     inkscape:showpageshadow="false">
    <inkscape:grid
       type="xygrid"
       id="grid5115" />
  </sodipodi:namedview>
  <metadata
     id="metadata2175">
    <rdf:RDF>
      <cc:Work
         rdf:about="">
        <dc:format>image/svg+xml</dc:format>
        <dc:type
           rdf:resource="http://purl.org/dc/dcmitype/StillImage" />
        <dc:title>multimedia-player-e200</dc:title>
        <dc:date>2007-08-20</dc:date>
        <dc:creator>
          <cc:Agent>
            <dc:title>Ashley Kyd</dc:title>
          </cc:Agent>
        </dc:creator>
        <dc:rights>
          <cc:Agent>
            <dc:title />
          </cc:Agent>
        </dc:rights>
        <cc:license
           rdf:resource="http://creativecommons.org/licenses/GPL/2.0/" />
        <dc:subject>
          <rdf:Bag>
            <rdf:li>multimedia</rdf:li>
            <rdf:li>player</rdf:li>
            <rdf:li>e200</rdf:li>
          </rdf:Bag>
        </dc:subject>
        <dc:description>A vector representation of a popular proprietary portable music devic </dc:description>
        <dc:identifier>http://techtoucian.net/regulars/art/multimedia-player-e200/</dc:identifier>
        <dc:contributor>
          <cc:Agent>
            <dc:title>Simon Pascal Klein</dc:title>
          </cc:Agent>
        </dc:contributor>
      </cc:Work>
      <cc:License
         rdf:about="http://creativecommons.org/licenses/GPL/2.0/">
        <cc:permits
           rdf:resource="http://web.resource.org/cc/Reproduction" />
        <cc:permits
           rdf:resource="http://web.resource.org/cc/Distribution" />
        <cc:requires
           rdf:resource="http://web.resource.org/cc/Notice" />
        <cc:permits
           rdf:resource="http://web.resource.org/cc/DerivativeWorks" />
        <cc:requires
           rdf:resource="http://web.resource.org/cc/ShareAlike" />
        <cc:requires
           rdf:resource="http://web.resource.org/cc/SourceCode" />
      </cc:License>
    </rdf:RDF>
  </metadata>
  <g
     id="layer1"
     inkscape:label="Layer 1"
     inkscape:groupmode="layer">
    <path
       transform="matrix(0.5594514,0,0,0.61953,-14.993336,1.50162)"
       sodipodi:type="arc"
       style="opacity:0.4835165;color:#000000;fill:url(#radialGradient8269);fill-opacity:1;fill-rule:evenodd;stroke:none;stroke-width:1;stroke-linecap:butt;stroke-linejoin:miter;marker:none;marker-start:none;marker-mid:none;marker-end:none;stroke-miterlimit:4;stroke-dasharray:none;stroke-dashoffset:0;stroke-opacity:1;visibility:visible;display:block;overflow:visible"
       id="path5104"
       sodipodi:cx="37.53125"
       sodipodi:cy="43.84375"
       sodipodi:rx="7.15625"
       sodipodi:ry="2.15625"
       d="M 44.6875,43.84375 A 7.15625,2.15625 0 1 1 30.375,43.84375 A 7.15625,2.15625 0 1 1 44.6875,43.84375 z"
       inkscape:r_cx="true"
       inkscape:r_cy="true" />
    <path
       style="fill:none;fill-opacity:0.75;fill-rule:evenodd;stroke:#2e3436;stroke-width:1.91250217;stroke-linecap:butt;stroke-linejoin:round;stroke-miterlimit:4;stroke-dasharray:none;stroke-opacity:1;display:inline"
       d="M 29.041445,22.090663 C 33.341692,19.53316 25.494161,17.333655 24.165301,18.191826"
       id="path10310"
       sodipodi:nodetypes="cs" />
    <path
       transform="matrix(0.8891827,0,0,0.8891827,-6.2071156,-12.60066)"
       d="M 18.788321,41.231144 A 5.0608273,5.0608273 0 1 1 8.666667,41.231144 A 5.0608273,5.0608273 0 1 1 18.788321,41.231144 z"
       sodipodi:ry="5.0608273"
       sodipodi:rx="5.0608273"
       sodipodi:cy="41.231144"
       sodipodi:cx="13.727494"
       id="path8190"
       style="fill:none;fill-opacity:1;stroke:url(#linearGradient12424);stroke-width:1.12462831;stroke-linecap:round;stroke-linejoin:round;stroke-miterlimit:4;stroke-dasharray:none;stroke-opacity:1;display:inline"
       sodipodi:type="arc"
       inkscape:r_cx="true"
       inkscape:r_cy="true" />
    <path
       transform="matrix(0.7903846,0,0,0.7903846,-4.8553852,-8.5271013)"
       d="M 18.788321,41.231144 A 5.0608273,5.0608273 0 1 1 8.666667,41.231144 A 5.0608273,5.0608273 0 1 1 18.788321,41.231144 z"
       sodipodi:ry="5.0608273"
       sodipodi:rx="5.0608273"
       sodipodi:cy="41.231144"
       sodipodi:cx="13.727494"
       id="path8192"
       style="fill:url(#linearGradient12432);fill-opacity:1;stroke:none;stroke-width:1.79999995;stroke-linecap:round;stroke-linejoin:round;stroke-miterlimit:4;stroke-dasharray:none;stroke-opacity:1;display:inline"
       sodipodi:type="arc"
       inkscape:r_cx="true"
       inkscape:r_cy="true" />
    <path
       inkscape:r_cy="true"
       inkscape:r_cx="true"
       sodipodi:type="arc"
       style="opacity:0.75;fill:none;fill-opacity:1;stroke:url(#linearGradient12430);stroke-width:1.44668639;stroke-linecap:round;stroke-linejoin:round;stroke-miterlimit:4;stroke-dasharray:none;stroke-opacity:1;display:inline"
       id="path10341"
       sodipodi:cx="13.727494"
       sodipodi:cy="41.231144"
       sodipodi:rx="5.0608273"
       sodipodi:ry="5.0608273"
       d="M 18.788321,41.231144 A 5.0608273,5.0608273 0 1 1 8.666667,41.231144 A 5.0608273,5.0608273 0 1 1 18.788321,41.231144 z"
       transform="matrix(0.6908834,0,0,0.6915865,-3.489483,-4.4535426)" />
    <path
       style="fill:url(#linearGradient12445);fill-opacity:1;stroke:none;stroke-width:1.79999994999999990;stroke-linecap:round;stroke-linejoin:round;stroke-miterlimit:4;stroke-dasharray:none;stroke-opacity:1;display:inline"
       d="M 6.1875,21.09375 C 6.1036335,21.185966 6.03125,21.304556 6.03125,21.4375 C 6.0312501,21.720652 6.2801679,21.9375 6.5625,21.9375 C 6.8448309,21.937501 7.0625,21.720652 7.0625,21.4375 C 7.0625,21.386532 7.0453114,21.327972 7.03125,21.28125 C 6.7624982,21.181273 6.4868928,21.112913 6.1875,21.09375 z M 5,21.25 C 4.6709418,21.367512 4.3577911,21.532372 4.09375,21.75 C 4.1882685,21.877255 4.3316869,21.9375 4.5,21.9375 C 4.7823314,21.937501 5.03125,21.720652 5.03125,21.4375 C 5.03125,21.376622 5.0197622,21.30452 5,21.25 z M 5.53125,21.9375 C 5.2489188,21.937501 5.03125,22.185602 5.03125,22.46875 C 5.0312498,22.751904 5.2489183,23.000001 5.53125,23 C 5.8135814,22.999999 6.03125,22.751906 6.03125,22.46875 C 6.0312501,22.185601 5.8135812,21.937501 5.53125,21.9375 z M 7.59375,21.9375 C 7.3114187,21.937501 7.0625,22.185602 7.0625,22.46875 C 7.0625,22.751904 7.3114187,23.000001 7.59375,23 C 7.8760805,22.999999 8.09375,22.751906 8.09375,22.46875 C 8.0937499,22.185601 7.8760805,21.937501 7.59375,21.9375 z M 3.78125,22.0625 C 3.5591858,22.308785 3.3809485,22.595633 3.25,22.90625 C 3.3224561,22.945482 3.3815592,23 3.46875,23 C 3.7510819,22.999999 3.9999994,22.751903 4,22.46875 C 3.9999996,22.30011 3.9079328,22.157311 3.78125,22.0625 z M 4.5,23 C 4.217668,22.999999 3.9999996,23.216848 4,23.5 C 3.9999993,23.783152 4.2176684,24.03125 4.5,24.03125 C 4.7823314,24.031251 5.03125,23.783153 5.03125,23.5 C 5.0312498,23.21685 4.7823317,23 4.5,23 z M 6.5625,23 C 6.2801677,22.999999 6.03125,23.216851 6.03125,23.5 C 6.0312501,23.783152 6.2801679,24.031252 6.5625,24.03125 C 6.8448309,24.031251 7.0625,23.783153 7.0625,23.5 C 7.0625,23.21685 6.8448311,23.000001 6.5625,23 z M 8.625,23 C 8.3426692,22.999999 8.09375,23.216848 8.09375,23.5 C 8.0937499,23.783152 8.3426688,24.03125 8.625,24.03125 C 8.7661666,24.031251 8.8822142,23.968974 8.96875,23.875 C 8.9751129,23.86809 8.962775,23.851033 8.96875,23.84375 C 8.9475211,23.558987 8.9070665,23.287876 8.8125,23.03125 C 8.8029455,23.02697 8.7911552,23.0349 8.78125,23.03125 C 8.7300732,23.012393 8.6841373,23 8.625,23 z M 3.46875,24.03125 C 3.2724952,24.031251 3.1183304,24.125577 3.03125,24.28125 C 3.0466529,24.487863 3.0702083,24.682422 3.125,24.875 C 3.2187021,24.968975 3.327584,25.03125 3.46875,25.03125 C 3.7510819,25.031248 3.9999994,24.783154 4,24.5 C 3.9999993,24.216849 3.7510813,24.031252 3.46875,24.03125 z M 5.53125,24.03125 C 5.2489188,24.031251 5.03125,24.216852 5.03125,24.5 C 5.0312498,24.783152 5.2489183,25.031251 5.53125,25.03125 C 5.8135814,25.031248 6.03125,24.783154 6.03125,24.5 C 6.0312501,24.216849 5.8135812,24.031252 5.53125,24.03125 z M 7.59375,24.03125 C 7.3114187,24.031251 7.0625,24.216852 7.0625,24.5 C 7.0625,24.783152 7.3114187,25.031251 7.59375,25.03125 C 7.8760805,25.031248 8.09375,24.783154 8.09375,24.5 C 8.0937499,24.216849 7.8760805,24.031252 7.59375,24.03125 z M 4.5,25.03125 C 4.217668,25.031248 3.9999996,25.248098 4,25.53125 C 3.9999993,25.814403 4.2176684,26.0625 4.5,26.0625 C 4.7823314,26.062501 5.03125,25.814402 5.03125,25.53125 C 5.0312498,25.248098 4.7823317,25.03125 4.5,25.03125 z M 6.5625,25.03125 C 6.2801677,25.031248 6.03125,25.248098 6.03125,25.53125 C 6.0312501,25.814403 6.2801679,26.0625 6.5625,26.0625 C 6.8448309,26.062501 7.0625,25.814402 7.0625,25.53125 C 7.0625,25.248098 6.8448311,25.03125 6.5625,25.03125 z M 8.625,25.03125 C 8.3426692,25.031248 8.09375,25.248098 8.09375,25.53125 C 8.09375,25.703904 8.1806927,25.874459 8.3125,25.96875 C 8.5302411,25.704775 8.6948782,25.391664 8.8125,25.0625 C 8.7535804,25.036108 8.6955832,25.03125 8.625,25.03125 z M 5.53125,26.0625 C 5.2489188,26.062501 5.03125,26.310599 5.03125,26.59375 C 5.0312499,26.735326 5.0937978,26.843526 5.1875,26.9375 C 5.3799928,26.992237 5.5748125,27.015866 5.78125,27.03125 C 5.936472,26.943917 6.03125,26.790576 6.03125,26.59375 C 6.0312501,26.310599 5.8135812,26.062501 5.53125,26.0625 z M 7.59375,26.0625 C 7.3114187,26.062501 7.0625,26.310599 7.0625,26.59375 C 7.0625,26.680077 7.0868068,26.740507 7.125,26.8125 C 7.4461224,26.680906 7.7465143,26.509629 8,26.28125 C 7.9059822,26.14906 7.7659027,26.062501 7.59375,26.0625 z"
       id="path8725"
       sodipodi:nodetypes="csssccccssccsssccssscccssccsssccsssccssssssccccssccsssccsssccsssccsssccsccccsccsccsccc" />
    <path
       transform="matrix(0.6915865,0,0,0.6922902,-3.4946149,-4.482557)"
       d="M 18.788321,41.231144 A 5.0608273,5.0608273 0 1 1 8.666667,41.231144 A 5.0608273,5.0608273 0 1 1 18.788321,41.231144 z"
       sodipodi:ry="5.0608273"
       sodipodi:rx="5.0608273"
       sodipodi:cy="41.231144"
       sodipodi:cx="13.727494"
       id="path8858"
       style="opacity:0.75;fill:none;fill-opacity:1;stroke:url(#linearGradient12443);stroke-width:1.4452157;stroke-linecap:round;stroke-linejoin:round;stroke-miterlimit:4;stroke-dasharray:none;stroke-opacity:1;display:inline"
       sodipodi:type="arc"
       inkscape:r_cx="true"
       inkscape:r_cy="true" />
    <g
       style="display:inline"
       id="g5022"
       transform="matrix(9.3576059e-3,0,0,1.2542929e-2,24.822987,27.907743)">
      <rect
         y="-150.69685"
         x="-1559.2523"
         height="478.35718"
         width="1339.6335"
         id="rect4173"
         style="opacity:0.40206185;color:#000000;fill:url(#linearGradient10778);fill-opacity:1;fill-rule:nonzero;stroke:none;stroke-width:1;stroke-linecap:round;stroke-linejoin:miter;marker:none;marker-start:none;marker-mid:none;marker-end:none;stroke-miterlimit:4;stroke-dasharray:none;stroke-dashoffset:0;stroke-opacity:1;visibility:visible;display:inline;overflow:visible" />
      <path
         sodipodi:nodetypes="cccc"
         id="path5058"
         d="M -219.61876,-150.68038 C -219.61876,-150.68038 -219.61876,327.65041 -219.61876,327.65041 C -76.744594,328.55086 125.78146,220.48075 125.78138,88.454235 C 125.78138,-43.572302 -33.655436,-150.68036 -219.61876,-150.68038 z"
         style="opacity:0.40206185;color:#000000;fill:url(#radialGradient10780);fill-opacity:1;fill-rule:nonzero;stroke:none;stroke-width:1;stroke-linecap:round;stroke-linejoin:miter;marker:none;marker-start:none;marker-mid:none;marker-end:none;stroke-miterlimit:4;stroke-dasharray:none;stroke-dashoffset:0;stroke-opacity:1;visibility:visible;display:inline;overflow:visible" />
      <path
         style="opacity:0.40206185;color:#000000;fill:url(#radialGradient10782);fill-opacity:1;fill-rule:nonzero;stroke:none;stroke-width:1;stroke-linecap:round;stroke-linejoin:miter;marker:none;marker-start:none;marker-mid:none;marker-end:none;stroke-miterlimit:4;stroke-dasharray:none;stroke-dashoffset:0;stroke-opacity:1;visibility:visible;display:inline;overflow:visible"
         d="M -1559.2523,-150.68038 C -1559.2523,-150.68038 -1559.2523,327.65041 -1559.2523,327.65041 C -1702.1265,328.55086 -1904.6525,220.48075 -1904.6525,88.454235 C -1904.6525,-43.572302 -1745.2157,-150.68036 -1559.2523,-150.68038 z"
         id="path5018"
         sodipodi:nodetypes="cccc" />
    </g>
    <rect
       style="fill:url(#linearGradient12196);fill-opacity:1;stroke:url(#linearGradient12186);stroke-width:0.99999994;stroke-linecap:butt;stroke-linejoin:round;stroke-miterlimit:4;stroke-dasharray:none;stroke-opacity:1"
       id="rect4119"
       width="2"
       height="3.9999998"
       x="19.5"
       y="0.50000024"
       ry="0.53483504"
       rx="0.53483504" />
    <rect
       style="fill:#2e3436;fill-opacity:1;stroke:#000000;stroke-width:1;stroke-linecap:butt;stroke-linejoin:round;stroke-miterlimit:4;stroke-dasharray:none;stroke-opacity:1"
       id="rect3930"
       width="16"
       height="27"
       x="8.5"
       y="2.5"
       rx="2.0869565" />
    <path
       sodipodi:nodetypes="cccccccccccccccc"
       id="path10811"
       d="M 13.572112,25.986094 C 15.358705,27.17306 17.689577,27.195151 19.464358,26.039456 L 16.491581,23.0637 L 13.572112,25.986094 z M 12.057986,24.439027 L 14.961759,21.532346 L 12.020776,18.588418 C 10.874709,20.35194 10.897941,22.655903 12.057986,24.439027 z M 20.986878,24.515411 C 22.152795,22.737446 22.136555,20.39517 20.949265,18.601552 L 18.014101,21.539657 L 20.986878,24.515411 z M 16.484276,20.008301 L 19.403747,17.085909 C 17.617195,15.92333 15.306447,15.905855 13.543295,17.064375 L 16.484276,20.008301 z"
       style="opacity:1;fill:#000000;fill-opacity:1;stroke:none;stroke-width:0.5;stroke-linecap:butt;stroke-linejoin:round;stroke-miterlimit:4;stroke-dasharray:none;stroke-opacity:1" />
    <rect
       rx="1.0625"
       y="3.5"
       x="9.506279"
       height="25.000002"
       width="14"
       id="rect3934"
       style="fill:none;fill-opacity:1;stroke:url(#linearGradient10774);stroke-width:0.99999994;stroke-linecap:butt;stroke-linejoin:round;stroke-miterlimit:4;stroke-dasharray:none;stroke-opacity:1"
       ry="1.0625" />
    <g
       style="display:inline"
       id="g11258"
       transform="matrix(0.6189942,0,0,0.550707,3.2694403,5.4726848)">
      <g
         style="fill:#ffffff;fill-opacity:1"
         id="g11260">
        <path
           sodipodi:type="star"
           style="opacity:1;fill:#ffffff;fill-opacity:1;stroke:none;stroke-width:0.25;stroke-linecap:round;stroke-linejoin:round;stroke-miterlimit:4;stroke-dasharray:none;stroke-opacity:1;display:inline"
           id="path11262"
           sodipodi:sides="3"
           sodipodi:cx="16.875"
           sodipodi:cy="5.75"
           sodipodi:r1="0.6502704"
           sodipodi:r2="0.3251352"
           sodipodi:arg1="0.95613337"
           sodipodi:arg2="2.0033309"
           inkscape:flatsided="false"
           inkscape:rounded="0"
           inkscape:randomized="0"
           d="M 17.25,6.28125 L 16.738712,6.0451923 L 16.227424,5.8091345 L 16.6875,5.484375 L 17.147576,5.1596154 L 17.198788,5.7204327 L 17.25,6.28125 z"
           transform="matrix(0.314794,-0.435197,0.44667,0.307983,21.21828,34.76076)" />
        <path
           sodipodi:type="star"
           style="opacity:1;fill:#ffffff;fill-opacity:1;stroke:none;stroke-width:0.25;stroke-linecap:round;stroke-linejoin:round;stroke-miterlimit:4;stroke-dasharray:none;stroke-opacity:1;display:inline"
           id="path11264"
           sodipodi:sides="3"
           sodipodi:cx="16.875"
           sodipodi:cy="5.75"
           sodipodi:r1="0.6502704"
           sodipodi:r2="0.3251352"
           sodipodi:arg1="0.95613337"
           sodipodi:arg2="2.0033309"
           inkscape:flatsided="false"
           inkscape:rounded="0"
           inkscape:randomized="0"
           d="M 17.25,6.28125 L 16.738712,6.0451923 L 16.227424,5.8091345 L 16.6875,5.484375 L 17.147576,5.1596154 L 17.198788,5.7204327 L 17.25,6.28125 z"
           transform="matrix(0.314794,-0.435197,0.44667,0.307983,20.71828,34.76076)" />
      </g>
      <rect
         ry="0"
         y="28.891544"
         x="29.455418"
         height="0.60214609"
         width="0.10496103"
         id="rect11266"
         style="opacity:1;fill:#ffffff;fill-opacity:1;stroke:none;stroke-width:0.5;stroke-linecap:round;stroke-linejoin:round;stroke-miterlimit:4;stroke-dasharray:none;stroke-opacity:1" />
    </g>
    <rect
       style="fill:#729fcf;fill-opacity:1;stroke:url(#linearGradient10771);stroke-width:1.00000012;stroke-linecap:butt;stroke-linejoin:miter;stroke-miterlimit:4;stroke-dasharray:none;stroke-opacity:1"
       id="rect3952"
       width="9.999999"
       height="10"
       x="11.5"
       y="5.5" />
    <path
       transform="matrix(0.4852818,0,0,0.4857677,-13.241303,4.546214)"
       d="M 68.875,35 A 7.5625,7.5625 0 1 1 53.75,35 A 7.5625,7.5625 0 1 1 68.875,35 z"
       sodipodi:ry="7.5625"
       sodipodi:rx="7.5625"
       sodipodi:cy="35"
       sodipodi:cx="61.3125"
       id="path3979"
       style="fill:#2e3436;fill-opacity:1;stroke:#7fb5ee;stroke-width:2.05962729;stroke-linecap:butt;stroke-linejoin:miter;stroke-miterlimit:4;stroke-dasharray:none;stroke-opacity:1"
       sodipodi:type="arc" />
    <path
       style="opacity:0.12000002;fill:#000000;fill-opacity:1;fill-rule:evenodd;stroke:none;stroke-width:1;stroke-linecap:butt;stroke-linejoin:miter;stroke-miterlimit:4;stroke-dasharray:none;stroke-opacity:1"
       d="M 13.605808,10.000139 C 13.081573,9.9943582 12.551321,10.168741 12,10.666787 L 12.037343,15 L 21,15 L 20.962655,10.926039 C 18.012934,13.605909 15.877494,10.025184 13.605808,10.000139 z"
       id="path4068" />
    <path
       sodipodi:type="arc"
       style="opacity:0.72043014;fill:url(#linearGradient10792);fill-opacity:1;stroke:none;stroke-width:1.49469244;stroke-linecap:butt;stroke-linejoin:miter;stroke-miterlimit:4;stroke-dasharray:none;stroke-opacity:1"
       id="path4000"
       sodipodi:cx="61.3125"
       sodipodi:cy="35"
       sodipodi:rx="7.5625"
       sodipodi:ry="7.5625"
       d="M 68.875,35 A 7.5625,7.5625 0 1 1 53.75,35 A 7.5625,7.5625 0 1 1 68.875,35 z"
       transform="matrix(-0.4411652,0,0,-0.4416071,43.561485,37.004332)" />
    <path
       style="opacity:0.25806448;fill:url(#linearGradient10760);fill-opacity:1;stroke:none;stroke-width:1;stroke-linecap:butt;stroke-linejoin:round;stroke-miterlimit:4;stroke-dasharray:none;stroke-opacity:1"
       d="M 10.951102,4 C 10.461776,4 10,4.3465014 10,4.9499814 L 10,27.497366 C 10,27.890321 10.534495,27.803995 10.868811,28 C 15.06665,27.596248 15.115609,11.802905 19.61669,7.896306 L 23,4.9598498 C 23,4.3952633 22.634224,4 22.008273,4 L 10.951102,4 z"
       id="rect4053"
       sodipodi:nodetypes="ccccsccc" />
    <rect
       style="fill:none;fill-opacity:1;stroke:#141414;stroke-width:0.99999982;stroke-linecap:butt;stroke-linejoin:round;stroke-miterlimit:4;stroke-dasharray:none;stroke-opacity:1"
       id="rect5762"
       width="12"
       height="23"
       x="10.5"
       y="4.5"
       rx="0.035895169"
       ry="0.035895169" />
    <g
       transform="matrix(1.315757,0,0,1.315757,37.663063,-9.5703671)"
       id="g6589"
       style="fill:#a2a6a7;fill-opacity:1;display:inline" />
    <g
       transform="matrix(-0.6189942,0,0,0.550707,29.766161,5.4726848)"
       id="g3596"
       style="display:inline">
      <g
         id="g3598"
         style="fill:#ffffff;fill-opacity:1">
        <path
           transform="matrix(0.314794,-0.435197,0.44667,0.307983,21.21828,34.76076)"
           d="M 17.25,6.28125 L 16.738712,6.0451923 L 16.227424,5.8091345 L 16.6875,5.484375 L 17.147576,5.1596154 L 17.198788,5.7204327 L 17.25,6.28125 z"
           inkscape:randomized="0"
           inkscape:rounded="0"
           inkscape:flatsided="false"
           sodipodi:arg2="2.0033309"
           sodipodi:arg1="0.95613337"
           sodipodi:r2="0.3251352"
           sodipodi:r1="0.6502704"
           sodipodi:cy="5.75"
           sodipodi:cx="16.875"
           sodipodi:sides="3"
           id="path3600"
           style="opacity:1;fill:#ffffff;fill-opacity:1;stroke:none;stroke-width:0.25;stroke-linecap:round;stroke-linejoin:round;stroke-miterlimit:4;stroke-dasharray:none;stroke-opacity:1;display:inline"
           sodipodi:type="star" />
        <path
           transform="matrix(0.314794,-0.435197,0.44667,0.307983,20.71828,34.76076)"
           d="M 17.25,6.28125 L 16.738712,6.0451923 L 16.227424,5.8091345 L 16.6875,5.484375 L 17.147576,5.1596154 L 17.198788,5.7204327 L 17.25,6.28125 z"
           inkscape:randomized="0"
           inkscape:rounded="0"
           inkscape:flatsided="false"
           sodipodi:arg2="2.0033309"
           sodipodi:arg1="0.95613337"
           sodipodi:r2="0.3251352"
           sodipodi:r1="0.6502704"
           sodipodi:cy="5.75"
           sodipodi:cx="16.875"
           sodipodi:sides="3"
           id="path3602"
           style="opacity:1;fill:#ffffff;fill-opacity:1;stroke:none;stroke-width:0.25;stroke-linecap:round;stroke-linejoin:round;stroke-miterlimit:4;stroke-dasharray:none;stroke-opacity:1;display:inline"
           sodipodi:type="star" />
      </g>
      <rect
         style="opacity:1;fill:#ffffff;fill-opacity:1;stroke:none;stroke-width:0.5;stroke-linecap:round;stroke-linejoin:round;stroke-miterlimit:4;stroke-dasharray:none;stroke-opacity:1"
         id="rect3604"
         width="0.10496103"
         height="0.60214609"
         x="29.455418"
         y="28.891544"
         ry="0" />
    </g>
    <g
       transform="matrix(0.4636934,0,0,0.3755964,5.329539,3.7643934)"
       id="g3616"
       style="display:inline">
      <path
         sodipodi:type="star"
         style="opacity:1;fill:#ffffff;fill-opacity:1;stroke:none;stroke-width:0.25;stroke-linecap:round;stroke-linejoin:round;stroke-miterlimit:4;stroke-dasharray:none;stroke-opacity:1;display:inline"
         id="path3618"
         sodipodi:sides="3"
         sodipodi:cx="16.875"
         sodipodi:cy="5.75"
         sodipodi:r1="0.6502704"
         sodipodi:r2="0.3251352"
         sodipodi:arg1="0.95613337"
         sodipodi:arg2="2.0033309"
         inkscape:flatsided="false"
         inkscape:rounded="0"
         inkscape:randomized="0"
         d="M 17.25,6.28125 L 16.738712,6.0451923 L 16.227424,5.8091345 L 16.6875,5.484375 L 17.147576,5.1596154 L 17.198788,5.7204327 L 17.25,6.28125 z"
         transform="matrix(0.461555,-0.638092,0.654914,0.451569,12.10407,43.22973)" />
      <rect
         style="opacity:1;fill:#ffffff;fill-opacity:1;stroke:none;stroke-width:0.5;stroke-linecap:round;stroke-linejoin:round;stroke-miterlimit:4;stroke-dasharray:none;stroke-opacity:1"
         id="rect3620"
         width="0.15389533"
         height="0.88287503"
         x="24.306477"
         y="34.624207"
         ry="0" />
      <rect
         style="opacity:1;fill:#ffffff;fill-opacity:1;stroke:none;stroke-width:0.5;stroke-linecap:round;stroke-linejoin:round;stroke-miterlimit:4;stroke-dasharray:none;stroke-opacity:1;display:inline"
         id="rect3622"
         width="0.15389533"
         height="0.88287503"
         x="24.682838"
         y="34.620716"
         ry="0" />
    </g>
    <g
       id="layer2"
       inkscape:label="Picture"
       transform="translate(45.010661,-1.0169211)" />
    <g
       transform="matrix(1.315757,0,0,1.315757,88.66679,-8.553446)"
       id="g7288"
       style="fill:#a2a6a7;fill-opacity:1;display:inline" />
    <rect
       inkscape:r_cy="true"
       inkscape:r_cx="true"
       y="23.847883"
       x="122.4425"
       height="1.4142135"
       width="0"
       id="rect10271"
       style="color:#000000;fill:url(#linearGradient8012);fill-opacity:1;fill-rule:nonzero;stroke:none;stroke-width:0.69999999;stroke-linecap:round;stroke-linejoin:miter;marker:none;marker-start:none;marker-mid:none;marker-end:none;stroke-miterlimit:4;stroke-dasharray:none;stroke-dashoffset:0;stroke-opacity:1;visibility:visible;display:inline;overflow:visible" />
    <g
       id="g7355"
       inkscape:label="Picture"
       transform="translate(96.014388,0)" />
    <path
       sodipodi:type="arc"
       style="fill:#2e3436;fill-opacity:1;stroke:#d3d7cf;stroke-width:1.75427377;stroke-linecap:butt;stroke-linejoin:round;stroke-miterlimit:4;stroke-dasharray:none;stroke-opacity:1"
       id="path4002"
       sodipodi:cx="67.153046"
       sodipodi:cy="41.172001"
       sodipodi:rx="1.1711456"
       sodipodi:ry="1.1711456"
       d="M 68.324191,41.172001 A 1.1711456,1.1711456 0 1 1 65.9819,41.172001 A 1.1711456,1.1711456 0 1 1 68.324191,41.172001 z"
       transform="matrix(0.5697511,0,0,0.5703221,-26.09326,2.3507677)" />
    <path
       style="opacity:0.8;fill:#000000;fill-opacity:1;stroke:none;stroke-width:1.49469244;stroke-linecap:butt;stroke-linejoin:miter;stroke-miterlimit:4;stroke-dasharray:none;stroke-opacity:1"
       d="M 16.512541,18.20843 C 14.670896,18.20843 13.176228,19.704595 13.176228,21.548083 C 13.176228,23.391572 14.670896,24.887738 16.512541,24.887738 C 18.354185,24.887738 19.848852,23.391573 19.848853,21.548083 C 19.848853,19.704595 18.354185,18.208429 16.512541,18.20843 z M 16.470836,18.438031 C 18.139827,18.438032 19.494369,19.793931 19.494369,21.464592 C 19.494369,23.135254 18.139827,24.491153 16.470836,24.491153 C 14.801846,24.491153 13.447303,23.135254 13.447303,21.464592 C 13.447305,19.793932 14.801846,18.438031 16.470836,18.438031 z"
       id="path10806" />
    <g
       id="g11659"
       transform="matrix(0.6672624,0,0,0.4642414,-0.3040096,7.7823629)">
      <path
         id="path11270"
         d="M 23.334303,39.25 L 27.040699,39.25"
         style="fill:none;fill-rule:evenodd;stroke:#ffffff;stroke-width:0.18811007;stroke-linecap:butt;stroke-linejoin:miter;stroke-miterlimit:4;stroke-dasharray:none;stroke-opacity:1" />
      <path
         style="fill:none;fill-rule:evenodd;stroke:#ffffff;stroke-width:0.18811007;stroke-linecap:butt;stroke-linejoin:miter;stroke-miterlimit:4;stroke-dasharray:none;stroke-opacity:1"
         d="M 24.460955,39.6875 L 27.070299,39.6875"
         id="path11653" />
      <path
         id="path11655"
         d="M 24.460955,40.0625 L 27.070299,40.0625"
         style="fill:none;fill-rule:evenodd;stroke:#ffffff;stroke-width:0.18811007;stroke-linecap:butt;stroke-linejoin:miter;stroke-miterlimit:4;stroke-dasharray:none;stroke-opacity:1" />
    </g>
    <path
       inkscape:r_cy="true"
       inkscape:r_cx="true"
       d="M 44.6875,43.84375 A 7.15625,2.15625 0 1 1 30.375,43.84375 A 7.15625,2.15625 0 1 1 44.6875,43.84375 z"
       sodipodi:ry="2.15625"
       sodipodi:rx="7.15625"
       sodipodi:cy="43.84375"
       sodipodi:cx="37.53125"
       id="path5045"
       style="opacity:0.4835165;color:#000000;fill:url(#radialGradient11686);fill-opacity:1;fill-rule:evenodd;stroke:none;stroke-width:1;stroke-linecap:butt;stroke-linejoin:miter;marker:none;marker-start:none;marker-mid:none;marker-end:none;stroke-miterlimit:4;stroke-dasharray:none;stroke-dashoffset:0;stroke-opacity:1;visibility:visible;display:block;overflow:visible"
       sodipodi:type="arc"
       transform="matrix(0.768559,0,0,0.9275362,-4.3449796,-10.666665)" />
    <path
       sodipodi:type="arc"
       style="fill:none;fill-opacity:1;fill-rule:nonzero;stroke:#000000;stroke-width:2.07054663;stroke-linecap:butt;stroke-linejoin:miter;stroke-miterlimit:4;stroke-dasharray:none;stroke-dashoffset:0;stroke-opacity:1"
       id="path8891"
       sodipodi:cx="41.365746"
       sodipodi:cy="60.374371"
       sodipodi:rx="8.5736694"
       sodipodi:ry="8.5736694"
       d="M 49.939415,60.374371 A 8.5736694,8.5736694 0 1 1 32.792076,60.374371 A 8.5736694,8.5736694 0 1 1 49.939415,60.374371 z"
       transform="matrix(0.5198539,0,0,0.5203768,3.4954231,-5.4174219)" />
    <path
       sodipodi:type="arc"
       style="color:#000000;fill:url(#radialGradient11690);fill-opacity:1;fill-rule:evenodd;stroke:none;stroke-width:1;stroke-linecap:round;stroke-linejoin:miter;marker:none;marker-start:none;marker-mid:none;marker-end:none;stroke-miterlimit:4;stroke-dasharray:none;stroke-dashoffset:0;stroke-opacity:1;visibility:visible;display:block;overflow:visible"
       id="path9274"
       sodipodi:cx="32.75"
       sodipodi:cy="39.5"
       sodipodi:rx="5.3125"
       sodipodi:ry="5.3125"
       d="M 38.0625,39.5 A 5.3125,5.3125 0 1 1 27.4375,39.5 A 5.3125,5.3125 0 1 1 38.0625,39.5 z"
       inkscape:r_cx="true"
       inkscape:r_cy="true"
       transform="matrix(0.7529412,0,0,0.7529412,0.3366926,-3.7411775)" />
    <path
       inkscape:r_cy="true"
       inkscape:r_cx="true"
       sodipodi:type="arc"
       style="opacity:0.75;fill:none;fill-opacity:1;stroke:url(#linearGradient5116);stroke-width:1.4452157;stroke-linecap:round;stroke-linejoin:round;stroke-miterlimit:4;stroke-dasharray:none;stroke-opacity:1;display:inline"
       id="path5114"
       sodipodi:cx="13.727494"
       sodipodi:cy="41.231144"
       sodipodi:rx="5.0608273"
       sodipodi:ry="5.0608273"
       d="M 18.788321,41.231144 A 5.0608273,5.0608273 0 1 1 8.666667,41.231144 A 5.0608273,5.0608273 0 1 1 18.788321,41.231144 z"
       transform="matrix(0.6915865,0,0,0.6922902,15.505818,-2.543917)" />
    <rect
       ry="0.66776365"
       rx="0.66742951"
       y="32.993408"
       x="7.8692918"
       height="1.3355273"
       width="6.6742954"
       id="rect10288"
       style="fill:url(#linearGradient11706);fill-opacity:1;fill-rule:nonzero;stroke:url(#linearGradient11708);stroke-width:1.00000036;stroke-linecap:butt;stroke-linejoin:miter;stroke-miterlimit:4;stroke-dasharray:none;stroke-dashoffset:0;stroke-opacity:1"
       transform="matrix(0.8658086,-0.5003753,0.4996247,0.866242,0,0)" />
    <rect
       style="fill:url(#linearGradient11701);fill-opacity:1;fill-rule:nonzero;stroke:url(#linearGradient11703);stroke-width:1.00000036;stroke-linecap:butt;stroke-linejoin:miter;stroke-miterlimit:4;stroke-dasharray:none;stroke-dashoffset:0;stroke-opacity:1"
       id="rect9889"
       width="3.3371477"
       height="2.0032914"
       x="7.5157309"
       y="32.647728"
       rx="1.0011444"
       ry="1.0016457"
       transform="matrix(0.8658086,-0.5003753,0.4996247,0.866242,0,0)" />
  </g>
</svg>
