<?xml version="1.0" encoding="UTF-8" standalone="no"?>
<!-- Created with Inkscape (http://www.inkscape.org/) -->
<svg
   xmlns:dc="http://purl.org/dc/elements/1.1/"
   xmlns:cc="http://web.resource.org/cc/"
   xmlns:rdf="http://www.w3.org/1999/02/22-rdf-syntax-ns#"
   xmlns:svg="http://www.w3.org/2000/svg"
   xmlns="http://www.w3.org/2000/svg"
   xmlns:xlink="http://www.w3.org/1999/xlink"
   xmlns:sodipodi="http://sodipodi.sourceforge.net/DTD/sodipodi-0.dtd"
   xmlns:inkscape="http://www.inkscape.org/namespaces/inkscape"
   width="32"
   height="32"
   id="svg2160"
   sodipodi:version="0.32"
   inkscape:version="0.45.1"
   sodipodi:docbase="/home/bellaich/Tango/phones/motorola-v3i/32x32"
   sodipodi:docname="phone-motorola-v3i.svg"
   inkscape:output_extension="org.inkscape.output.svg.inkscape"
   version="1.0"
   inkscape:export-filename="/home/bellaich/Desktop/phone-motorola-v3i.png"
   inkscape:export-xdpi="90"
   inkscape:export-ydpi="90">
  <defs
     id="defs2162">
    <linearGradient
       inkscape:collect="always"
       id="linearGradient3759">
      <stop
         style="stop-color:#555753;stop-opacity:1;"
         offset="0"
         id="stop3761" />
      <stop
         style="stop-color:#555753;stop-opacity:0;"
         offset="1"
         id="stop3763" />
    </linearGradient>
    <linearGradient
       inkscape:collect="always"
       id="linearGradient8656">
      <stop
         style="stop-color:#eeeeec;stop-opacity:1;"
         offset="0"
         id="stop8658" />
      <stop
         style="stop-color:#eeeeec;stop-opacity:0;"
         offset="1"
         id="stop8660" />
    </linearGradient>
    <linearGradient
       id="linearGradient8507">
      <stop
         style="stop-color:#000000;stop-opacity:0;"
         offset="0"
         id="stop8509" />
      <stop
         id="stop8515"
         offset="0.5"
         style="stop-color:#000000;stop-opacity:0;" />
      <stop
         style="stop-color:#000000;stop-opacity:1;"
         offset="1"
         id="stop8511" />
    </linearGradient>
    <linearGradient
       inkscape:collect="always"
       id="linearGradient8456">
      <stop
         style="stop-color:#eeeeec;stop-opacity:1;"
         offset="0"
         id="stop8458" />
      <stop
         style="stop-color:#eeeeec;stop-opacity:0;"
         offset="1"
         id="stop8460" />
    </linearGradient>
    <linearGradient
       inkscape:collect="always"
       id="linearGradient8408">
      <stop
         style="stop-color:#8ae234;stop-opacity:1;"
         offset="0"
         id="stop8410" />
      <stop
         style="stop-color:#8ae234;stop-opacity:0;"
         offset="1"
         id="stop8412" />
    </linearGradient>
    <linearGradient
       inkscape:collect="always"
       id="linearGradient7417">
      <stop
         style="stop-color:#ffffff;stop-opacity:1;"
         offset="0"
         id="stop7419" />
      <stop
         style="stop-color:#ffffff;stop-opacity:0;"
         offset="1"
         id="stop7421" />
    </linearGradient>
    <linearGradient
       id="linearGradient22866">
      <stop
         style="stop-color:#000000;stop-opacity:1;"
         offset="0"
         id="stop22868" />
      <stop
         style="stop-color:#000000;stop-opacity:0.40000001;"
         offset="1"
         id="stop22870" />
    </linearGradient>
    <linearGradient
       id="linearGradient20823">
      <stop
         style="stop-color:#000000;stop-opacity:1;"
         offset="0"
         id="stop20825" />
      <stop
         style="stop-color:#000000;stop-opacity:0;"
         offset="1"
         id="stop20827" />
    </linearGradient>
    <linearGradient
       id="linearGradient20815">
      <stop
         style="stop-color:#ff7301;stop-opacity:1;"
         offset="0"
         id="stop20817" />
      <stop
         style="stop-color:#8e3f00;stop-opacity:1;"
         offset="1"
         id="stop20819" />
    </linearGradient>
    <linearGradient
       id="linearGradient16905">
      <stop
         style="stop-color:#000000;stop-opacity:1;"
         offset="0"
         id="stop16907" />
      <stop
         id="stop16913"
         offset="0.33027524"
         style="stop-color:#000000;stop-opacity:1;" />
      <stop
         style="stop-color:#3e3e3e;stop-opacity:0.7647059;"
         offset="0.80952781"
         id="stop8564" />
      <stop
         style="stop-color:#000000;stop-opacity:1;"
         offset="1"
         id="stop16909" />
    </linearGradient>
    <linearGradient
       id="linearGradient9136">
      <stop
         style="stop-color:#ffffff;stop-opacity:1;"
         offset="0"
         id="stop9138" />
      <stop
         id="stop9144"
         offset="0.5"
         style="stop-color:#f2f3f2;stop-opacity:1;" />
      <stop
         style="stop-color:#91978b;stop-opacity:1;"
         offset="1"
         id="stop9140" />
    </linearGradient>
    <linearGradient
       id="linearGradient4547"
       inkscape:collect="always">
      <stop
         id="stop4549"
         offset="0"
         style="stop-color:white;stop-opacity:1;" />
      <stop
         id="stop4551"
         offset="1"
         style="stop-color:white;stop-opacity:0;" />
    </linearGradient>
    <linearGradient
       inkscape:collect="always"
       xlink:href="#linearGradient8456"
       id="linearGradient8462"
       x1="40.646133"
       y1="40.739796"
       x2="40.563629"
       y2="42.085102"
       gradientUnits="userSpaceOnUse"
       gradientTransform="matrix(1,0,0,0.7463368,-2.0993398,10.687745)" />
    <radialGradient
       inkscape:collect="always"
       xlink:href="#linearGradient8408"
       id="radialGradient8749"
       gradientUnits="userSpaceOnUse"
       cx="45.09375"
       cy="38.78125"
       fx="45.09375"
       fy="38.78125"
       r="1.96875" />
    <linearGradient
       inkscape:collect="always"
       xlink:href="#linearGradient7417"
       id="linearGradient8751"
       gradientUnits="userSpaceOnUse"
       x1="45.127937"
       y1="36.937691"
       x2="45.16481"
       y2="40.086533" />
    <radialGradient
       inkscape:collect="always"
       xlink:href="#linearGradient8507"
       id="radialGradient8765"
       gradientUnits="userSpaceOnUse"
       gradientTransform="matrix(1.4119244,-7.688285e-2,7.6882793e-2,1.4119232,-21.556828,-12.507962)"
       cx="45.09375"
       cy="38.78125"
       fx="45.09375"
       fy="38.78125"
       r="1.96875" />
    <linearGradient
       inkscape:collect="always"
       xlink:href="#linearGradient7417"
       id="linearGradient8767"
       gradientUnits="userSpaceOnUse"
       x1="45.127937"
       y1="36.937691"
       x2="45.16481"
       y2="40.086533" />
    <linearGradient
       inkscape:collect="always"
       xlink:href="#linearGradient4547"
       id="linearGradient2759"
       gradientUnits="userSpaceOnUse"
       gradientTransform="matrix(0.588235,0,0,0.5551228,0.9999993,3.0137395)"
       x1="20.080355"
       y1="4.426187"
       x2="22.453627"
       y2="25.181578" />
    <linearGradient
       inkscape:collect="always"
       xlink:href="#linearGradient8656"
       id="linearGradient2763"
       gradientUnits="userSpaceOnUse"
       gradientTransform="matrix(0.5861927,0,0,0.5433033,-1.8864728,-1.3274533)"
       x1="16.983896"
       y1="30.789368"
       x2="17.065989"
       y2="3.9362223" />
    <linearGradient
       inkscape:collect="always"
       xlink:href="#linearGradient20823"
       id="linearGradient2772"
       gradientUnits="userSpaceOnUse"
       gradientTransform="matrix(0.6363673,0,0,0.5365587,30.233359,12.999717)"
       x1="-24.026669"
       y1="33.455204"
       x2="-24.026669"
       y2="19.483265" />
    <linearGradient
       inkscape:collect="always"
       xlink:href="#linearGradient16905"
       id="linearGradient2776"
       gradientUnits="userSpaceOnUse"
       gradientTransform="matrix(0.7368421,0,0,0.5626016,-55.597321,-7.4453311)"
       x1="107.16781"
       y1="25.441957"
       x2="86.130547"
       y2="25.506374" />
    <linearGradient
       inkscape:collect="always"
       xlink:href="#linearGradient3759"
       id="linearGradient3765"
       x1="29.321079"
       y1="-5.8526282"
       x2="24.196079"
       y2="11.272372"
       gradientUnits="userSpaceOnUse"
       gradientTransform="matrix(0.7528589,0,0,0.7769427,-1.7927532,-2.1854791)" />
    <filter
       inkscape:collect="always"
       x="-0.062353828"
       width="1.1247077"
       y="-0.53585325"
       height="2.0717065"
       id="filter3724">
      <feGaussianBlur
         inkscape:collect="always"
         stdDeviation="0.63150915"
         id="feGaussianBlur3726" />
    </filter>
  </defs>
  <sodipodi:namedview
     id="base"
     pagecolor="#ffffff"
     bordercolor="#565656"
     borderopacity="1"
     inkscape:pageopacity="0.0"
     inkscape:pageshadow="2"
     inkscape:zoom="31.999999"
     inkscape:cx="20.092742"
     inkscape:cy="12.436097"
     inkscape:current-layer="layer1"
     showgrid="true"
     inkscape:document-units="px"
     inkscape:grid-bbox="true"
     showguides="true"
     inkscape:guide-bbox="true"
     inkscape:window-width="1449"
     inkscape:window-height="1382"
     inkscape:window-x="651"
     inkscape:window-y="48"
     width="32px"
     height="32px"
     borderlayer="true"
     inkscape:showpageshadow="true"
     gridspacingx="0.5px"
     gridspacingy="0.5px"
     gridempspacing="2" />
  <metadata
     id="metadata2165">
    <rdf:RDF>
      <cc:Work
         rdf:about="">
        <dc:format>image/svg+xml</dc:format>
        <dc:type
           rdf:resource="http://purl.org/dc/dcmitype/StillImage" />
        <dc:date>Sept 2007</dc:date>
        <dc:creator>
          <cc:Agent>
            <dc:title>F.Bellaiche &lt;frederic.bellaiche@gmail.com&gt;</dc:title>
          </cc:Agent>
        </dc:creator>
        <cc:license
           rdf:resource="http://creativecommons.org/licenses/GPL/2.0/" />
        <dc:title>Motorola V3i</dc:title>
      </cc:Work>
      <cc:License
         rdf:about="http://creativecommons.org/licenses/GPL/2.0/">
        <cc:permits
           rdf:resource="http://web.resource.org/cc/Reproduction" />
        <cc:permits
           rdf:resource="http://web.resource.org/cc/Distribution" />
        <cc:requires
           rdf:resource="http://web.resource.org/cc/Notice" />
        <cc:permits
           rdf:resource="http://web.resource.org/cc/DerivativeWorks" />
        <cc:requires
           rdf:resource="http://web.resource.org/cc/ShareAlike" />
        <cc:requires
           rdf:resource="http://web.resource.org/cc/SourceCode" />
      </cc:License>
    </rdf:RDF>
  </metadata>
  <g
     id="layer1"
     inkscape:label="Layer 1"
     inkscape:groupmode="layer">
    <path
       sodipodi:type="arc"
       style="opacity:0.25;fill:#2e3436;fill-opacity:0.74117647;fill-rule:evenodd;stroke:none;stroke-width:1px;stroke-linecap:butt;stroke-linejoin:miter;stroke-opacity:1;filter:url(#filter3724)"
       id="path2755"
       sodipodi:cx="23.290331"
       sodipodi:cy="42.343147"
       sodipodi:rx="12.153399"
       sodipodi:ry="1.4142137"
       d="M 35.44373 42.343147 A 12.153399 1.4142137 0 1 1  11.136931,42.343147 A 12.153399 1.4142137 0 1 1  35.44373 42.343147 z"
       transform="matrix(0.9050966,0,0,1.0606601,-5.0799983,-14.411687)" />
    <path
       sodipodi:nodetypes="cccccssscccc"
       id="path6203"
       d="M 11.365931,0.53382049 L 19.723691,0.53382049 C 20.479464,0.53382049 22.235152,1.2787959 22.752815,1.6944192 C 23.660495,1.676453 24.545376,2.3636406 24.545376,3.1305252 L 24.545376,27.245108 C 24.545376,28.683681 23.16293,29.50322 21.623615,29.841814 C 19.411991,30.328287 18.828046,30.545376 16.016237,30.545376 C 13.204431,30.545376 12.595705,30.328926 10.376389,29.841814 C 8.8366448,29.503859 7.4546256,28.683681 7.4546256,27.245108 L 7.4546256,3.1305252 C 7.4546256,2.366655 8.1782717,1.7873908 8.9631578,1.8055589 C 9.5254652,1.305811 10.606768,0.53382049 11.365931,0.53382049 z "
       style="fill:#babdb6;fill-opacity:1;stroke:#000000;stroke-width:0.9092508;stroke-linecap:round;stroke-miterlimit:4;stroke-opacity:1" />
    <path
       style="opacity:1;fill:url(#linearGradient3765);fill-opacity:1;stroke:none;stroke-width:0.99999994;stroke-linecap:round;stroke-miterlimit:4;stroke-opacity:1"
       d="M 11.116505,0.53986998 C 10.317085,0.53986998 9.1843569,1.3188702 8.5922337,1.8296725 C 7.7657301,1.8111024 7,2.4057112 7,3.1864777 L 7,7.4579019 C 8.5611422,5.4531725 11.990699,4.0575132 15.990292,4.0575132 C 19.989887,4.0575132 23.438861,5.4531725 25,7.4579019 L 25,3.1864777 C 25,2.4026301 24.072324,1.694054 23.116506,1.7124177 C 22.571394,1.287601 20.708471,0.53986998 19.912623,0.53986998 L 11.116505,0.53986998 z "
       id="rect2168"
       sodipodi:nodetypes="ccccsccccc" />
    <path
       style="opacity:1;fill:url(#linearGradient2776);fill-opacity:1;stroke:none;stroke-width:1.31792343;stroke-linecap:round;stroke-linejoin:round;stroke-miterlimit:4;stroke-opacity:1"
       d="M 9,8 L 23,8 L 23,20.047841 C 18.253611,21.63049 13.602404,21.323568 9,20.047841 L 9,8 z "
       id="rect13026"
       sodipodi:nodetypes="ccccc" />
    <path
       style="opacity:0.44615383;fill:url(#linearGradient2772);fill-opacity:1;stroke:none;stroke-width:0.99999994;stroke-linecap:round;stroke-miterlimit:4;stroke-dasharray:none;stroke-opacity:1"
       d="M 7.3241262,23.453632 L 7.3241262,27.089912 C 7.3241262,28.56178 8.6957491,29.702788 10.331915,29.956263 C 14.225153,30.559406 18.079409,30.657556 22.115596,29.956263 C 23.743207,29.673465 25.142414,28.56178 25.142422,27.089912 L 25.142422,23.671609 C 18.548579,26.092878 12.504207,26.428397 7.3241262,23.453632 z "
       id="rect3605"
       sodipodi:nodetypes="ccssccc" />
    <path
       style="fill:none;fill-opacity:1;stroke:#888a85;stroke-width:0.99999994;stroke-linecap:round;stroke-miterlimit:4;stroke-dasharray:none;stroke-opacity:1"
       d="M 11.390538,0.53382067 L 19.703916,0.53382067 C 20.455674,0.53382067 22.202041,1.2776697 22.716954,1.6926647 C 23.619816,1.6747256 24.499999,2.3608743 24.499999,3.1265993 L 24.499999,27.204724 C 24.499999,28.641123 23.124893,29.459422 21.593751,29.797504 C 19.393873,30.283242 18.813029,30.500001 16.01615,30.500001 C 13.219275,30.500001 12.613779,30.283879 10.406248,29.797504 C 8.8746821,29.460059 7.4999997,28.641123 7.4999997,27.204724 L 7.4999997,3.1265993 C 7.4999997,2.3638841 8.2198059,1.7854955 9.0005223,1.8036363 C 9.5598437,1.3046439 10.635405,0.53382067 11.390538,0.53382067 z "
       id="path16915"
       sodipodi:nodetypes="cccccssscccc" />
    <rect
       style="fill:#3465a4;fill-opacity:1;stroke:none;stroke-width:1;stroke-linecap:round;stroke-linejoin:round;stroke-miterlimit:4;stroke-dasharray:none;stroke-opacity:1"
       id="rect23869"
       width="12"
       height="8.2380896"
       x="10"
       y="9" />
    <path
       style="fill:#2e3436;fill-opacity:1;stroke:none;stroke-width:0.5;stroke-linecap:round;stroke-linejoin:round;stroke-miterlimit:4;stroke-dasharray:none;stroke-opacity:1"
       d="M 11.415811,1 L 11.434889,2.5520547 C 9.3670141,2.9440944 8.015683,4.0254812 7.0410252,4.8647972 C 7.0241161,4.875522 7.0110645,4.8887037 7.0028667,4.9033375 C 6.9934215,4.9357005 7.0076156,4.969149 7.0410252,4.9932668 C 7.0468094,4.9979202 7.053194,5.0022187 7.0601051,5.006113 C 7.0718701,5.0115777 7.0847158,5.0159018 7.098266,5.0189608 C 7.1216018,5.0276589 7.1479163,5.0320885 7.1745852,5.0318071 C 7.1947444,5.0301316 7.214204,5.0257647 7.2318244,5.0189608 C 7.2535584,5.0134398 7.273136,5.0046525 7.2890636,4.9932668 C 8.225754,4.1866457 9.5474143,3.1118603 11.62569,2.7319123 C 11.6326,2.7280178 11.638986,2.7237189 11.64477,2.7190656 C 11.65832,2.7160066 11.671166,2.7116824 11.682929,2.7062184 C 11.713329,2.6904175 11.733768,2.6674809 11.740168,2.6419838 C 11.740567,2.6377057 11.740219,2.633432 11.740168,2.6291366 L 11.721088,1.0001674"
       id="path9146"
       sodipodi:nodetypes="ccccssssssscsssc" />
    <path
       sodipodi:nodetypes="cccccssscccc"
       id="path8580"
       d="M 11.904541,1.3010282 L 19.208298,1.3010282 C 19.868763,1.3010282 21.794349,2.0324841 22.246729,2.426424 C 23.35,2.441473 23.513442,2.8874734 23.490563,3.6143487 L 23.499999,26.832004 C 23.499999,28.195527 22.213817,28.611153 20.868625,28.93208 C 18.935909,29.393175 18.425604,29.5 15.968395,29.5 C 13.511185,29.5 12.963527,29.375812 11.026084,28.907346 C 10.312265,28.734747 8.459081,28.497313 8.4864888,26.705821 L 8.4864888,3.6143487 C 8.4864888,2.8903305 9.1188793,2.341287 9.8047827,2.3585075 C 10.296175,1.8848318 11.241117,1.3010282 11.904541,1.3010282 z "
       style="opacity:0.5;fill:none;fill-opacity:1;stroke:url(#linearGradient2763);stroke-width:1.00000012;stroke-linecap:round;stroke-miterlimit:4;stroke-dasharray:none;stroke-opacity:1" />
    <path
       style="opacity:0.74230766;fill:url(#linearGradient2759);fill-opacity:1;fill-rule:evenodd;stroke:none;stroke-width:1px;stroke-linecap:butt;stroke-linejoin:miter;stroke-opacity:1"
       d="M 11,16 C 12.736695,15.936558 15.775912,13.177089 21,12.92332 L 21,10 L 11,10 L 11,16 z "
       id="path5268"
       sodipodi:nodetypes="ccccc" />
    <path
       sodipodi:type="arc"
       style="fill:#d3d7cf;fill-opacity:0.75;fill-rule:evenodd;stroke:none;stroke-width:1px;stroke-linecap:butt;stroke-linejoin:miter;stroke-opacity:1"
       id="path3753"
       sodipodi:cx="-0.68750006"
       sodipodi:cy="14.468748"
       sodipodi:rx="1.3125"
       sodipodi:ry="1.28125"
       d="M 0.62499994 14.468748 A 1.3125 1.28125 0 1 1  -2.0000001,14.468748 A 1.3125 1.28125 0 1 1  0.62499994 14.468748 z"
       transform="matrix(0.9523813,0,0,0.9756097,16.904762,5.1341489)" />
    <path
       style="fill:#070808;fill-opacity:0.98814231;fill-rule:evenodd;stroke:none;stroke-width:1px;stroke-linecap:butt;stroke-linejoin:miter;stroke-opacity:1"
       d="M 13.930931,1.1691716 L 13,3.4999999 L 19,3.4999999 L 18.231232,1.1691716 L 13.930931,1.1691716 z "
       id="path3755"
       sodipodi:nodetypes="ccccc" />
    <path
       transform="matrix(0.870749,0,0,0.9095915,16.741498,-10.826064)"
       d="M 0.62499994 14.468748 A 1.3125 1.28125 0 1 1  -2.0000001,14.468748 A 1.3125 1.28125 0 1 1  0.62499994 14.468748 z"
       sodipodi:ry="1.28125"
       sodipodi:rx="1.3125"
       sodipodi:cy="14.468748"
       sodipodi:cx="-0.68750006"
       id="path3757"
       style="opacity:0.58846154;fill:#d3d7cf;fill-opacity:0.75;fill-rule:evenodd;stroke:none;stroke-width:1px;stroke-linecap:butt;stroke-linejoin:miter;stroke-opacity:1"
       sodipodi:type="arc" />
    <path
       style="fill:none;fill-opacity:1;stroke:#555753;stroke-width:0.90925062;stroke-linecap:round;stroke-miterlimit:4;stroke-dasharray:none;stroke-opacity:1"
       d="M 23.545375,23.97287 C 17.959561,25.817018 12.839219,26.072566 8.4510375,23.806848"
       id="path3222"
       sodipodi:nodetypes="cc" />
    <path
       sodipodi:nodetypes="ccccssssssscsssc"
       id="path2753"
       d="M 20.584188,1 L 20.56511,2.5520547 C 22.632985,2.9440944 23.984316,4.0254812 24.958974,4.8647972 C 24.975883,4.875522 24.988935,4.8887037 24.997133,4.9033375 C 25.006578,4.9357005 24.992384,4.969149 24.958974,4.9932668 C 24.95319,4.9979202 24.946805,5.0022187 24.939894,5.006113 C 24.928129,5.0115777 24.915283,5.0159018 24.901733,5.0189608 C 24.878397,5.0276589 24.852083,5.0320885 24.825414,5.0318071 C 24.805255,5.0301316 24.785795,5.0257647 24.768175,5.0189608 C 24.746441,5.0134398 24.726863,5.0046525 24.710936,4.9932668 C 23.774245,4.1866457 22.452585,3.1118603 20.374309,2.7319123 C 20.367399,2.7280178 20.361013,2.7237189 20.355229,2.7190656 C 20.341679,2.7160066 20.328833,2.7116824 20.31707,2.7062184 C 20.28667,2.6904175 20.266231,2.6674809 20.259831,2.6419838 C 20.259432,2.6377057 20.25978,2.633432 20.259831,2.6291366 L 20.278911,1.0001674"
       style="fill:#2e3436;fill-opacity:1;stroke:none;stroke-width:0.5;stroke-linecap:round;stroke-linejoin:round;stroke-miterlimit:4;stroke-dasharray:none;stroke-opacity:1" />
  </g>
</svg>
