<?xml version="1.0" encoding="UTF-8" standalone="no"?>
<!-- Created with Inkscape (http://www.inkscape.org/) -->
<svg
   xmlns:dc="http://purl.org/dc/elements/1.1/"
   xmlns:cc="http://web.resource.org/cc/"
   xmlns:rdf="http://www.w3.org/1999/02/22-rdf-syntax-ns#"
   xmlns:svg="http://www.w3.org/2000/svg"
   xmlns="http://www.w3.org/2000/svg"
   xmlns:xlink="http://www.w3.org/1999/xlink"
   xmlns:sodipodi="http://sodipodi.sourceforge.net/DTD/sodipodi-0.dtd"
   xmlns:inkscape="http://www.inkscape.org/namespaces/inkscape"
   width="22"
   height="22"
   id="svg2"
   sodipodi:version="0.32"
   inkscape:version="0.45"
   version="1.0"
   sodipodi:docbase="/home/ulisse/Desktop/sidewinder/22x22"
   sodipodi:docname="input-gaming-microsoft-sidewinder-gamepad.svg"
   inkscape:output_extension="org.inkscape.output.svg.inkscape"
   sodipodi:modified="true">
  <defs
     id="defs4">
    <linearGradient
       id="linearGradient4285">
      <stop
         id="stop4287"
         offset="0"
         style="stop-color:#ffffff;stop-opacity:0.4714829" />
      <stop
         id="stop4289"
         offset="1"
         style="stop-color:#ffffff;stop-opacity:0;" />
    </linearGradient>
    <radialGradient
       inkscape:collect="always"
       xlink:href="#linearGradient5060"
       id="radialGradient3527"
       gradientUnits="userSpaceOnUse"
       gradientTransform="matrix(-2.03716,0,0,2.018058,-423.3185,-879.5624)"
       cx="605.71429"
       cy="486.64789"
       fx="605.71429"
       fy="486.64789"
       r="117.14286" />
    <linearGradient
       inkscape:collect="always"
       id="linearGradient5060">
      <stop
         style="stop-color:black;stop-opacity:1;"
         offset="0"
         id="stop5062" />
      <stop
         style="stop-color:black;stop-opacity:0;"
         offset="1"
         id="stop5064" />
    </linearGradient>
    <radialGradient
       inkscape:collect="always"
       xlink:href="#linearGradient5060"
       id="radialGradient3525"
       gradientUnits="userSpaceOnUse"
       gradientTransform="matrix(2.03716,0,0,1.969706,-1052.701,-856.2756)"
       cx="605.71429"
       cy="486.64789"
       fx="605.71429"
       fy="486.64789"
       r="117.14286" />
    <linearGradient
       id="linearGradient5048">
      <stop
         style="stop-color:black;stop-opacity:0;"
         offset="0"
         id="stop5050" />
      <stop
         id="stop5056"
         offset="0.5"
         style="stop-color:black;stop-opacity:1;" />
      <stop
         style="stop-color:black;stop-opacity:0;"
         offset="1"
         id="stop5052" />
    </linearGradient>
    <linearGradient
       inkscape:collect="always"
       xlink:href="#linearGradient5048"
       id="linearGradient3523"
       gradientUnits="userSpaceOnUse"
       gradientTransform="matrix(3.781761,0,0,1.969706,-2104.846,-856.0366)"
       x1="302.85715"
       y1="366.64789"
       x2="302.85715"
       y2="609.50507" />
    <linearGradient
       inkscape:collect="always"
       id="linearGradient3324">
      <stop
         style="stop-color:#2e3436;stop-opacity:1;"
         offset="0"
         id="stop3326" />
      <stop
         style="stop-color:#222728;stop-opacity:1"
         offset="1"
         id="stop3328" />
    </linearGradient>
    <linearGradient
       id="linearGradient3314">
      <stop
         style="stop-color:#222627;stop-opacity:1"
         offset="0"
         id="stop3316" />
      <stop
         id="stop3322"
         offset="0.5955056"
         style="stop-color:#717374;stop-opacity:0.49803922;" />
      <stop
         style="stop-color:#ffffff;stop-opacity:0"
         offset="1"
         id="stop3318" />
    </linearGradient>
    <linearGradient
       inkscape:collect="always"
       id="linearGradient3286">
      <stop
         style="stop-color:#d3e757;stop-opacity:1"
         offset="0"
         id="stop3288" />
      <stop
         style="stop-color:#8ae234;stop-opacity:1"
         offset="1"
         id="stop3290" />
    </linearGradient>
    <linearGradient
       inkscape:collect="always"
       id="linearGradient3270">
      <stop
         style="stop-color:#ffffff;stop-opacity:1;"
         offset="0"
         id="stop3272" />
      <stop
         style="stop-color:#ffffff;stop-opacity:0.14117648"
         offset="1"
         id="stop3274" />
    </linearGradient>
    <linearGradient
       id="linearGradient3258">
      <stop
         style="stop-color:#eeeeec;stop-opacity:0"
         offset="0"
         id="stop3260" />
      <stop
         id="stop3266"
         offset="0.89887643"
         style="stop-color:#eeeeec;stop-opacity:0;" />
      <stop
         style="stop-color:#eeeeec;stop-opacity:1"
         offset="1"
         id="stop3262" />
    </linearGradient>
    <linearGradient
       id="linearGradient3179">
      <stop
         style="stop-color:#ffffff;stop-opacity:0.59763312;"
         offset="0"
         id="stop3181" />
      <stop
         style="stop-color:#ffffff;stop-opacity:0;"
         offset="1"
         id="stop3183" />
    </linearGradient>
    <linearGradient
       id="linearGradient3171"
       inkscape:collect="always">
      <stop
         id="stop3173"
         offset="0"
         style="stop-color:#282d2f;stop-opacity:1" />
      <stop
         id="stop3175"
         offset="1"
         style="stop-color:#80888a;stop-opacity:1" />
    </linearGradient>
    <radialGradient
       inkscape:collect="always"
       xlink:href="#linearGradient3171"
       id="radialGradient3157"
       cx="14.968866"
       cy="16.328753"
       fx="14.968866"
       fy="16.328753"
       r="3.3772664"
       gradientTransform="matrix(1.0189087,-1.4001348e-2,8.2184022e-3,0.8069498,-0.5421119,3.7561524)"
       gradientUnits="userSpaceOnUse" />
    <linearGradient
       inkscape:collect="always"
       xlink:href="#linearGradient4285"
       id="linearGradient3234"
       gradientUnits="userSpaceOnUse"
       x1="21.75"
       y1="15.013864"
       x2="22.417242"
       y2="16.681803" />
    <linearGradient
       inkscape:collect="always"
       xlink:href="#linearGradient4285"
       id="linearGradient3242"
       gradientUnits="userSpaceOnUse"
       x1="21.75"
       y1="14.969669"
       x2="22.417242"
       y2="16.681803" />
    <linearGradient
       inkscape:collect="always"
       xlink:href="#linearGradient3270"
       id="linearGradient3276"
       x1="5.7123113"
       y1="0.11349382"
       x2="10.230892"
       y2="15.608551"
       gradientUnits="userSpaceOnUse" />
    <radialGradient
       inkscape:collect="always"
       xlink:href="#linearGradient3286"
       id="radialGradient3292"
       cx="24.5"
       cy="13.5"
       fx="24.5"
       fy="13.5"
       r="1.5"
       gradientTransform="matrix(0.4653379,-4.7522042e-7,2.3153045e-7,0.5101104,-0.4007817,-2.3864787)"
       gradientUnits="userSpaceOnUse" />
    <radialGradient
       inkscape:collect="always"
       xlink:href="#linearGradient3314"
       id="radialGradient3320"
       cx="24"
       cy="13.625989"
       fx="24"
       fy="13.625989"
       r="19"
       gradientTransform="matrix(0.4473732,7.1090093e-8,-3.933382e-8,0.2494,0.2630416,2.8288848)"
       gradientUnits="userSpaceOnUse" />
    <radialGradient
       inkscape:collect="always"
       xlink:href="#linearGradient3324"
       id="radialGradient3368"
       cx="23.996136"
       cy="16.498117"
       fx="23.996136"
       fy="16.498117"
       r="22.996136"
       gradientTransform="matrix(0.4667468,-2.7433812e-8,1.4444586e-8,0.2526237,-0.2001205,3.1951027)"
       gradientUnits="userSpaceOnUse" />
    <linearGradient
       inkscape:collect="always"
       xlink:href="#linearGradient3179"
       id="linearGradient3227"
       gradientUnits="userSpaceOnUse"
       x1="21.75"
       y1="14.969669"
       x2="22.417242"
       y2="16.681803" />
    <linearGradient
       inkscape:collect="always"
       xlink:href="#linearGradient3179"
       id="linearGradient3280"
       gradientUnits="userSpaceOnUse"
       x1="21.75"
       y1="14.969669"
       x2="22.417242"
       y2="16.681803" />
    <linearGradient
       inkscape:collect="always"
       xlink:href="#linearGradient3179"
       id="linearGradient3288"
       gradientUnits="userSpaceOnUse"
       x1="21.75"
       y1="14.969669"
       x2="22.417242"
       y2="16.681803" />
    <linearGradient
       inkscape:collect="always"
       xlink:href="#linearGradient3179"
       id="linearGradient3310"
       gradientUnits="userSpaceOnUse"
       x1="21.75"
       y1="14.969669"
       x2="22.417242"
       y2="16.681803" />
    <linearGradient
       inkscape:collect="always"
       xlink:href="#linearGradient3179"
       id="linearGradient3312"
       gradientUnits="userSpaceOnUse"
       x1="21.75"
       y1="14.969669"
       x2="22.417242"
       y2="16.681803" />
    <radialGradient
       inkscape:collect="always"
       xlink:href="#linearGradient3258"
       id="radialGradient3314"
       gradientUnits="userSpaceOnUse"
       gradientTransform="matrix(0.9793982,0,0,0.845576,-12.995256,-20.996893)"
       cx="24.5"
       cy="42.253849"
       fx="24.5"
       fy="42.253849"
       r="6.5" />
  </defs>
  <sodipodi:namedview
     id="base"
     pagecolor="#ffffff"
     bordercolor="#f6aaaa"
     borderopacity="1"
     inkscape:pageopacity="0.0"
     inkscape:pageshadow="2"
     inkscape:zoom="1"
     inkscape:cx="25.336891"
     inkscape:cy="6.0367205"
     inkscape:document-units="px"
     inkscape:current-layer="layer1"
     width="22px"
     height="22px"
     inkscape:showpageshadow="false"
     showgrid="false"
     gridspacingx="0.5px"
     gridspacingy="0.5px"
     gridempspacing="2"
     inkscape:grid-points="true"
     inkscape:window-width="1019"
     inkscape:window-height="726"
     inkscape:window-x="179"
     inkscape:window-y="38"
     showguides="true"
     inkscape:guide-bbox="true" />
  <metadata
     id="metadata7">
    <rdf:RDF>
      <cc:Work
         rdf:about="">
        <dc:format>image/svg+xml</dc:format>
        <dc:type
           rdf:resource="http://purl.org/dc/dcmitype/StillImage" />
        <dc:creator>
          <cc:Agent>
            <dc:title>Ulisse Perusin</dc:title>
          </cc:Agent>
        </dc:creator>
        <cc:license
           rdf:resource="http://creativecommons.org/licenses/GPL/2.0/" />
        <dc:title>Microsoft Sidewinder Gamepad</dc:title>
        <dc:source>uli.peru@gmail.com</dc:source>
        <dc:subject>
          <rdf:Bag>
            <rdf:li>Microsoft Sidewinder Gamepad</rdf:li>
          </rdf:Bag>
        </dc:subject>
      </cc:Work>
      <cc:License
         rdf:about="http://creativecommons.org/licenses/GPL/2.0/">
        <cc:permits
           rdf:resource="http://web.resource.org/cc/Reproduction" />
        <cc:permits
           rdf:resource="http://web.resource.org/cc/Distribution" />
        <cc:requires
           rdf:resource="http://web.resource.org/cc/Notice" />
        <cc:permits
           rdf:resource="http://web.resource.org/cc/DerivativeWorks" />
        <cc:requires
           rdf:resource="http://web.resource.org/cc/ShareAlike" />
        <cc:requires
           rdf:resource="http://web.resource.org/cc/SourceCode" />
      </cc:License>
    </rdf:RDF>
  </metadata>
  <g
     inkscape:label="Livello 1"
     inkscape:groupmode="layer"
     id="layer1">
    <path
       style="opacity:1;fill:url(#radialGradient3368);fill-opacity:1;fill-rule:evenodd;stroke:#1c2021;stroke-width:0.99999994;stroke-linecap:round;stroke-linejoin:round;stroke-miterlimit:4;stroke-dashoffset:0;stroke-opacity:1"
       d="M 21.5,15.513702 C 21.458744,18.826282 18.800482,17.915319 16,12 C 14,14 8,14 6,12 C 3.1995189,17.915319 0.49999992,18.790791 0.49999992,15.750315 C 0.49999992,10.329135 4.1206892,2.4999999 10.999999,2.4999999 C 17.87931,2.4999999 21.5,10.308222 21.5,15.513702 z "
       id="path2167"
       sodipodi:nodetypes="cccczc" />
    <path
       style="opacity:0.57088126;fill:url(#radialGradient3320);fill-opacity:1;fill-rule:evenodd;stroke:none;stroke-width:1;stroke-linecap:round;stroke-linejoin:round;stroke-miterlimit:4;stroke-dashoffset:0;stroke-opacity:1"
       d="M 2.5,9.3 C 4.2366647,5.8946584 7.3390064,3 11.223685,3 C 15.160898,3 17.907547,5.8909851 19.5,9.3 C 15.345223,9.282924 15.921054,12 11,12 C 6.5263161,12 7.1630763,9.3296812 2.5,9.3 z "
       id="path3312"
       sodipodi:nodetypes="czcsc" />
    <path
       sodipodi:type="inkscape:offset"
       inkscape:radius="-0.97389001"
       inkscape:original="M 11 2.5 C 4.1206902 2.5 0.50000001 10.32882 0.5 15.75 C 0.5 18.790476 3.1995189 17.915319 6 12 C 8 14 14 14 16 12 C 18.800482 17.915319 21.458744 18.81258 21.5 15.5 C 21.5 10.29452 17.879311 2.4999999 11 2.5 z "
       xlink:href="#path2167"
       style="opacity:0.27203064;fill:none;fill-opacity:1;fill-rule:evenodd;stroke:url(#linearGradient3276);stroke-width:1;stroke-linecap:round;stroke-linejoin:round;stroke-miterlimit:4;stroke-dashoffset:0;stroke-opacity:1"
       id="path3268"
       inkscape:href="#path2167"
       d="M 11,3.46875 C 7.9297818,3.46875 5.609463,5.1758071 3.96875,7.625 C 2.328037,10.074193 1.46875,13.256223 1.46875,15.75 C 1.46875,16.29393 1.6021932,16.425177 1.59375,16.4375 C 1.636842,16.423562 1.6388722,16.420057 1.71875,16.375 C 2.3577725,16.014542 3.7685968,14.458814 5.125,11.59375 C 5.2592902,11.308473 5.5233699,11.105853 5.8336868,11.049996 C 6.1440036,10.994139 6.4621622,11.091956 6.6875,11.3125 C 7.3431779,11.968178 9.162315,12.53125 11,12.53125 C 12.837685,12.53125 14.656822,11.968178 15.3125,11.3125 C 15.537838,11.091956 15.855996,10.994139 16.166313,11.049996 C 16.47663,11.105853 16.74071,11.308473 16.875,11.59375 C 18.232396,14.46091 19.650417,16.020578 20.25,16.34375 C 20.312026,16.377182 20.308521,16.363472 20.34375,16.375 C 20.358758,16.335816 20.523375,16.132323 20.53125,15.5 C 20.53125,13.123057 19.671319,10.008961 18.03125,7.59375 C 16.391181,5.1785394 14.071837,3.46875 11,3.46875 z " />
    <path
       style="opacity:0.11494254;fill:url(#radialGradient3314);fill-opacity:1;fill-rule:evenodd;stroke:none;stroke-width:1;stroke-linecap:round;stroke-linejoin:round;stroke-miterlimit:4;stroke-dashoffset:0;stroke-opacity:1"
       d="M 15,11 L 7,11 C 7.9230767,9.8888889 9.1538455,9 11,9 C 12.846154,9 14.076925,9.8888889 15,11 z "
       id="path3247"
       sodipodi:nodetypes="ccsc" />
    <g
       id="g3230"
       transform="matrix(0.4742122,0,0,0.3832615,-4.6613882,0.961019)">
      <path
         transform="matrix(0.4907242,0,0,0.7535841,25.028667,12.223889)"
         d="M 20.594486 18.5 A 4.2972426 3.5 0 1 1  12,18.5 A 4.2972426 3.5 0 1 1  20.594486 18.5 z"
         sodipodi:ry="3.5"
         sodipodi:rx="4.2972426"
         sodipodi:cy="18.5"
         sodipodi:cx="16.297243"
         id="path3224"
         style="opacity:1;fill:#1c2021;fill-opacity:1;fill-rule:evenodd;stroke:none;stroke-width:3.60896707;stroke-linecap:round;stroke-linejoin:round;stroke-miterlimit:4;stroke-dasharray:none;stroke-dashoffset:0;stroke-opacity:1"
         sodipodi:type="arc" />
      <path
         transform="matrix(0.9037551,0,0,1.3045923,12.315065,4.6677816)"
         d="M 23.5 15.5 A 1.75 1.5 0 1 1  20,15.5 A 1.75 1.5 0 1 1  23.5 15.5 z"
         sodipodi:ry="1.5"
         sodipodi:rx="1.75"
         sodipodi:cy="15.5"
         sodipodi:cx="21.75"
         id="path3226"
         style="opacity:1;fill:url(#linearGradient3234);fill-opacity:1;fill-rule:evenodd;stroke:none;stroke-width:1;stroke-linecap:round;stroke-linejoin:round;stroke-miterlimit:4;stroke-dasharray:none;stroke-dashoffset:0;stroke-opacity:1"
         sodipodi:type="arc" />
    </g>
    <g
       id="g3236"
       transform="matrix(0.2848117,0,0,0.2873827,1.6091098,-0.4719513)">
      <path
         transform="matrix(0.4085284,0,0,0.4970973,26.31439,16.803705)"
         d="M 20.594486 18.5 A 4.2972426 3.5 0 1 1  12,18.5 A 4.2972426 3.5 0 1 1  20.594486 18.5 z"
         sodipodi:ry="3.5"
         sodipodi:rx="4.2972426"
         sodipodi:cy="18.5"
         sodipodi:cx="16.297243"
         id="path3238"
         style="opacity:1;fill:#2e3436;fill-opacity:1;fill-rule:evenodd;stroke:#1c2021;stroke-width:7.7563796;stroke-linecap:round;stroke-linejoin:round;stroke-miterlimit:4;stroke-dasharray:none;stroke-dashoffset:0;stroke-opacity:1"
         sodipodi:type="arc" />
      <path
         transform="matrix(1.5047542,0,0,1.7398403,-1.5116729,-2.7073611)"
         d="M 23.5 15.5 A 1.75 1.5 0 1 1  20,15.5 A 1.75 1.5 0 1 1  23.5 15.5 z"
         sodipodi:ry="1.5"
         sodipodi:rx="1.75"
         sodipodi:cy="15.5"
         sodipodi:cx="21.75"
         id="path3240"
         style="opacity:1;fill:url(#linearGradient3242);fill-opacity:1;fill-rule:evenodd;stroke:none;stroke-width:1;stroke-linecap:round;stroke-linejoin:round;stroke-miterlimit:4;stroke-dasharray:none;stroke-dashoffset:0;stroke-opacity:1"
         sodipodi:type="arc" />
    </g>
    <path
       style="fill:url(#radialGradient3292);fill-opacity:1;fill-rule:evenodd;stroke:none;stroke-width:1;stroke-linecap:round;stroke-linejoin:round;stroke-miterlimit:4;stroke-dashoffset:0;stroke-opacity:1"
       d="M 12,5 L 10,5 C 10,4.4480014 10.447999,4 11,4 C 11.552,4 12,4.4480014 12,5 z "
       id="path3244"
       sodipodi:nodetypes="ccsc" />
    <g
       id="g3364"
       transform="matrix(0.5428094,0,0,0.467305,-1.5538802,-0.5513296)">
      <path
         transform="matrix(0.8380764,0,0,0.9254989,1.2402478,1.1390237)"
         d="M 20.594486 18.5 A 4.2972426 3.5 0 1 1  12,18.5 A 4.2972426 3.5 0 1 1  20.594486 18.5 z"
         sodipodi:ry="3.5"
         sodipodi:rx="4.2972426"
         sodipodi:cy="18.5"
         sodipodi:cx="16.297243"
         id="path3142"
         style="opacity:1;fill:#3e3e3e;fill-opacity:1;fill-rule:evenodd;stroke:#1c2021;stroke-width:2.25448012;stroke-linecap:round;stroke-linejoin:round;stroke-miterlimit:4;stroke-dasharray:none;stroke-dashoffset:0;stroke-opacity:1"
         sodipodi:type="arc" />
      <path
         sodipodi:nodetypes="ccccc"
         id="path3146"
         d="M 15.758534,18.299247 C 16.679667,21.509142 12.995133,21.509142 13.916266,18.299247 C 11.152865,19.369212 11.152865,15.089352 13.916266,16.159317 C 13.421615,13.558755 16.204449,13.058713 15.758534,16.159317 C 18.521935,15.089352 18.521935,19.369212 15.758534,18.299247 z "
         style="fill:url(#radialGradient3157);fill-opacity:1;fill-rule:evenodd;stroke:none;stroke-width:1.03648961;stroke-linecap:round;stroke-linejoin:round;stroke-miterlimit:4;stroke-dashoffset:0;stroke-opacity:1" />
    </g>
    <g
       style="opacity:0.44827588;display:inline"
       transform="matrix(9.0358886e-3,0,0,1.0447581e-2,-10.289734,16.650712)"
       id="g2612">
      <g
         transform="translate(0,-59.82244)"
         id="g2623">
        <g
           id="g3518"
           transform="matrix(1.043479,0,0,1,3126.228,-59.82246)">
          <rect
             style="opacity:0.40206185;color:#000000;fill:url(#linearGradient3523);fill-opacity:1;fill-rule:nonzero;stroke:none;stroke-width:1;stroke-linecap:round;stroke-linejoin:miter;marker:none;marker-start:none;marker-mid:none;marker-end:none;stroke-miterlimit:4;stroke-dasharray:none;stroke-dashoffset:0;stroke-opacity:1;visibility:visible;display:inline;overflow:visible"
             id="rect6709"
             width="1826.0504"
             height="478.35718"
             x="-1651.0347"
             y="-133.84804" />
          <path
             style="opacity:0.40206185;color:#000000;fill:url(#radialGradient3525);fill-opacity:1;fill-rule:nonzero;stroke:none;stroke-width:1;stroke-linecap:round;stroke-linejoin:miter;marker:none;marker-start:none;marker-mid:none;marker-end:none;stroke-miterlimit:4;stroke-dasharray:none;stroke-dashoffset:0;stroke-opacity:1;visibility:visible;display:inline;overflow:visible"
             d="M 175.01578,-134.07052 C 175.01578,-134.07052 175.01578,344.26027 175.01578,344.26027 C 279.92447,345.16072 428.63395,237.09061 428.63389,105.06409 C 428.63389,-26.962449 311.56369,-134.0705 175.01578,-134.07052 z "
             id="path6711"
             sodipodi:nodetypes="cccc" />
          <path
             sodipodi:nodetypes="cccc"
             id="path6713"
             d="M -1651.0346,-133.82723 C -1651.0346,-133.82723 -1651.0346,344.50356 -1651.0346,344.50356 C -1755.9433,345.40401 -1904.6528,237.3339 -1904.6528,105.30739 C -1904.6528,-26.719152 -1787.5825,-133.82721 -1651.0346,-133.82723 z "
             style="opacity:0.40206185;color:#000000;fill:url(#radialGradient3527);fill-opacity:1;fill-rule:nonzero;stroke:none;stroke-width:1;stroke-linecap:round;stroke-linejoin:miter;marker:none;marker-start:none;marker-mid:none;marker-end:none;stroke-miterlimit:4;stroke-dasharray:none;stroke-dashoffset:0;stroke-opacity:1;visibility:visible;display:inline;overflow:visible" />
        </g>
      </g>
    </g>
    <g
       id="g3221"
       transform="matrix(0.7499994,0,0,0.7499993,3.2500108,-2.9999908)">
      <path
         transform="matrix(0.2327074,0,0,0.2857144,15.207511,8.7142844)"
         d="M 20.594486 18.5 A 4.2972426 3.5 0 1 1  12,18.5 A 4.2972426 3.5 0 1 1  20.594486 18.5 z"
         sodipodi:ry="3.5"
         sodipodi:rx="4.2972426"
         sodipodi:cy="18.5"
         sodipodi:cx="16.297243"
         id="path3223"
         style="opacity:1;fill:#1c2021;fill-opacity:1;fill-rule:evenodd;stroke:none;stroke-width:3.89133692;stroke-linecap:round;stroke-linejoin:round;stroke-miterlimit:4;stroke-dasharray:none;stroke-dashoffset:0;stroke-opacity:1"
         sodipodi:type="arc" />
      <path
         transform="matrix(0.380953,0,0,0.4444451,10.714273,6.4444354)"
         d="M 23.5 15.5 A 1.75 1.5 0 1 1  20,15.5 A 1.75 1.5 0 1 1  23.5 15.5 z"
         sodipodi:ry="1.5"
         sodipodi:rx="1.75"
         sodipodi:cy="15.5"
         sodipodi:cx="21.75"
         id="path3225"
         style="opacity:1;fill:url(#linearGradient3227);fill-opacity:1;fill-rule:evenodd;stroke:none;stroke-width:1;stroke-linecap:round;stroke-linejoin:round;stroke-miterlimit:4;stroke-dasharray:none;stroke-dashoffset:0;stroke-opacity:1"
         sodipodi:type="arc" />
    </g>
    <g
       id="g3274"
       transform="matrix(0.7499994,0,0,0.7499993,1.2500108,-1.9999915)">
      <path
         transform="matrix(0.2327074,0,0,0.2857144,15.207511,8.7142844)"
         d="M 20.594486 18.5 A 4.2972426 3.5 0 1 1  12,18.5 A 4.2972426 3.5 0 1 1  20.594486 18.5 z"
         sodipodi:ry="3.5"
         sodipodi:rx="4.2972426"
         sodipodi:cy="18.5"
         sodipodi:cx="16.297243"
         id="path3276"
         style="opacity:1;fill:#1c2021;fill-opacity:1;fill-rule:evenodd;stroke:none;stroke-width:3.89133692;stroke-linecap:round;stroke-linejoin:round;stroke-miterlimit:4;stroke-dasharray:none;stroke-dashoffset:0;stroke-opacity:1"
         sodipodi:type="arc" />
      <path
         transform="matrix(0.380953,0,0,0.4444451,10.714273,6.4444354)"
         d="M 23.5 15.5 A 1.75 1.5 0 1 1  20,15.5 A 1.75 1.5 0 1 1  23.5 15.5 z"
         sodipodi:ry="1.5"
         sodipodi:rx="1.75"
         sodipodi:cy="15.5"
         sodipodi:cx="21.75"
         id="path3278"
         style="opacity:1;fill:url(#linearGradient3280);fill-opacity:1;fill-rule:evenodd;stroke:none;stroke-width:1;stroke-linecap:round;stroke-linejoin:round;stroke-miterlimit:4;stroke-dasharray:none;stroke-dashoffset:0;stroke-opacity:1"
         sodipodi:type="arc" />
    </g>
    <g
       id="g3282"
       transform="matrix(0.7499994,0,0,0.7499993,-0.7499892,-0.9999915)">
      <path
         transform="matrix(0.2327074,0,0,0.2857144,15.207511,8.7142844)"
         d="M 20.594486 18.5 A 4.2972426 3.5 0 1 1  12,18.5 A 4.2972426 3.5 0 1 1  20.594486 18.5 z"
         sodipodi:ry="3.5"
         sodipodi:rx="4.2972426"
         sodipodi:cy="18.5"
         sodipodi:cx="16.297243"
         id="path3284"
         style="opacity:1;fill:#1c2021;fill-opacity:1;fill-rule:evenodd;stroke:none;stroke-width:3.89133692;stroke-linecap:round;stroke-linejoin:round;stroke-miterlimit:4;stroke-dasharray:none;stroke-dashoffset:0;stroke-opacity:1"
         sodipodi:type="arc" />
      <path
         transform="matrix(0.380953,0,0,0.4444451,10.714273,6.4444354)"
         d="M 23.5 15.5 A 1.75 1.5 0 1 1  20,15.5 A 1.75 1.5 0 1 1  23.5 15.5 z"
         sodipodi:ry="1.5"
         sodipodi:rx="1.75"
         sodipodi:cy="15.5"
         sodipodi:cx="21.75"
         id="path3286"
         style="opacity:1;fill:url(#linearGradient3288);fill-opacity:1;fill-rule:evenodd;stroke:none;stroke-width:1;stroke-linecap:round;stroke-linejoin:round;stroke-miterlimit:4;stroke-dasharray:none;stroke-dashoffset:0;stroke-opacity:1"
         sodipodi:type="arc" />
    </g>
    <g
       id="g3296"
       transform="matrix(0.7499994,0,0,0.7499993,1.2500108,-3.9999908)">
      <path
         transform="matrix(0.2327074,0,0,0.2857144,15.207511,8.7142844)"
         d="M 20.594486 18.5 A 4.2972426 3.5 0 1 1  12,18.5 A 4.2972426 3.5 0 1 1  20.594486 18.5 z"
         sodipodi:ry="3.5"
         sodipodi:rx="4.2972426"
         sodipodi:cy="18.5"
         sodipodi:cx="16.297243"
         id="path3298"
         style="opacity:1;fill:#1c2021;fill-opacity:1;fill-rule:evenodd;stroke:none;stroke-width:3.89133692;stroke-linecap:round;stroke-linejoin:round;stroke-miterlimit:4;stroke-dasharray:none;stroke-dashoffset:0;stroke-opacity:1"
         sodipodi:type="arc" />
      <path
         transform="matrix(0.380953,0,0,0.4444451,10.714273,6.4444354)"
         d="M 23.5 15.5 A 1.75 1.5 0 1 1  20,15.5 A 1.75 1.5 0 1 1  23.5 15.5 z"
         sodipodi:ry="1.5"
         sodipodi:rx="1.75"
         sodipodi:cy="15.5"
         sodipodi:cx="21.75"
         id="path3300"
         style="opacity:1;fill:url(#linearGradient3310);fill-opacity:1;fill-rule:evenodd;stroke:none;stroke-width:1;stroke-linecap:round;stroke-linejoin:round;stroke-miterlimit:4;stroke-dasharray:none;stroke-dashoffset:0;stroke-opacity:1"
         sodipodi:type="arc" />
    </g>
    <g
       id="g3302"
       transform="matrix(0.7499994,0,0,0.7499993,-0.7499892,-2.9999908)">
      <path
         transform="matrix(0.2327074,0,0,0.2857144,15.207511,8.7142844)"
         d="M 20.594486 18.5 A 4.2972426 3.5 0 1 1  12,18.5 A 4.2972426 3.5 0 1 1  20.594486 18.5 z"
         sodipodi:ry="3.5"
         sodipodi:rx="4.2972426"
         sodipodi:cy="18.5"
         sodipodi:cx="16.297243"
         id="path3304"
         style="opacity:1;fill:#1c2021;fill-opacity:1;fill-rule:evenodd;stroke:none;stroke-width:3.89133692;stroke-linecap:round;stroke-linejoin:round;stroke-miterlimit:4;stroke-dasharray:none;stroke-dashoffset:0;stroke-opacity:1"
         sodipodi:type="arc" />
      <path
         transform="matrix(0.380953,0,0,0.4444451,10.714273,6.4444354)"
         d="M 23.5 15.5 A 1.75 1.5 0 1 1  20,15.5 A 1.75 1.5 0 1 1  23.5 15.5 z"
         sodipodi:ry="1.5"
         sodipodi:rx="1.75"
         sodipodi:cy="15.5"
         sodipodi:cx="21.75"
         id="path3306"
         style="opacity:1;fill:url(#linearGradient3312);fill-opacity:1;fill-rule:evenodd;stroke:none;stroke-width:1;stroke-linecap:round;stroke-linejoin:round;stroke-miterlimit:4;stroke-dasharray:none;stroke-dashoffset:0;stroke-opacity:1"
         sodipodi:type="arc" />
    </g>
  </g>
</svg>
