<?xml version="1.0" encoding="UTF-8" standalone="no"?>
<!-- Created with Inkscape (http://www.inkscape.org/) -->
<svg
   xmlns:dc="http://purl.org/dc/elements/1.1/"
   xmlns:cc="http://web.resource.org/cc/"
   xmlns:rdf="http://www.w3.org/1999/02/22-rdf-syntax-ns#"
   xmlns:svg="http://www.w3.org/2000/svg"
   xmlns="http://www.w3.org/2000/svg"
   xmlns:xlink="http://www.w3.org/1999/xlink"
   xmlns:sodipodi="http://sodipodi.sourceforge.net/DTD/sodipodi-0.dtd"
   xmlns:inkscape="http://www.inkscape.org/namespaces/inkscape"
   width="22"
   height="22"
   id="svg2"
   sodipodi:version="0.32"
   inkscape:version="0.45"
   version="1.0"
   sodipodi:docbase="/home/ulisse/Desktop/sixaxis/22x22"
   sodipodi:docname="input-gaming-sony-sixaxis.svg"
   inkscape:output_extension="org.inkscape.output.svg.inkscape"
   sodipodi:modified="true">
  <defs
     id="defs4">
    <linearGradient
       id="linearGradient3250"
       inkscape:collect="always">
      <stop
         id="stop3252"
         offset="0"
         style="stop-color:#60696d;stop-opacity:1" />
      <stop
         id="stop3254"
         offset="1"
         style="stop-color:#1a1d1e;stop-opacity:1" />
    </linearGradient>
    <linearGradient
       id="linearGradient3281"
       inkscape:collect="always">
      <stop
         id="stop3283"
         offset="0"
         style="stop-color:#ffffff;stop-opacity:0.7794677" />
      <stop
         id="stop3285"
         offset="1"
         style="stop-color:#ffffff;stop-opacity:0.12547529" />
    </linearGradient>
    <linearGradient
       id="linearGradient3346">
      <stop
         style="stop-color:#6b6f70;stop-opacity:1"
         offset="0"
         id="stop3348" />
      <stop
         id="stop3350"
         offset="1"
         style="stop-color:#1e2223;stop-opacity:1" />
    </linearGradient>
    <linearGradient
       id="linearGradient3315">
      <stop
         style="stop-color:#7a7f80;stop-opacity:1;"
         offset="0"
         id="stop3317" />
      <stop
         id="stop3319"
         offset="1"
         style="stop-color:#7a7f80;stop-opacity:0" />
    </linearGradient>
    <linearGradient
       inkscape:collect="always"
       id="linearGradient3244">
      <stop
         style="stop-color:#2e3436;stop-opacity:1;"
         offset="0"
         id="stop3246" />
      <stop
         style="stop-color:#23282a;stop-opacity:1"
         offset="1"
         id="stop3248" />
    </linearGradient>
    <radialGradient
       inkscape:collect="always"
       xlink:href="#linearGradient5060"
       id="radialGradient3527"
       gradientUnits="userSpaceOnUse"
       gradientTransform="matrix(-2.03716,0,0,2.018058,-423.3185,-879.5624)"
       cx="605.71429"
       cy="486.64789"
       fx="605.71429"
       fy="486.64789"
       r="117.14286" />
    <linearGradient
       inkscape:collect="always"
       id="linearGradient5060">
      <stop
         style="stop-color:black;stop-opacity:1;"
         offset="0"
         id="stop5062" />
      <stop
         style="stop-color:black;stop-opacity:0;"
         offset="1"
         id="stop5064" />
    </linearGradient>
    <radialGradient
       inkscape:collect="always"
       xlink:href="#linearGradient5060"
       id="radialGradient3525"
       gradientUnits="userSpaceOnUse"
       gradientTransform="matrix(2.03716,0,0,1.969706,-1052.701,-856.2756)"
       cx="605.71429"
       cy="486.64789"
       fx="605.71429"
       fy="486.64789"
       r="117.14286" />
    <linearGradient
       id="linearGradient5048">
      <stop
         style="stop-color:black;stop-opacity:0;"
         offset="0"
         id="stop5050" />
      <stop
         id="stop5056"
         offset="0.5"
         style="stop-color:black;stop-opacity:1;" />
      <stop
         style="stop-color:black;stop-opacity:0;"
         offset="1"
         id="stop5052" />
    </linearGradient>
    <linearGradient
       inkscape:collect="always"
       xlink:href="#linearGradient5048"
       id="linearGradient3523"
       gradientUnits="userSpaceOnUse"
       gradientTransform="matrix(3.781761,0,0,1.969706,-2104.846,-856.0366)"
       x1="302.85715"
       y1="366.64789"
       x2="302.85715"
       y2="609.50507" />
    <linearGradient
       inkscape:collect="always"
       id="linearGradient3384">
      <stop
         style="stop-color:#2e3436;stop-opacity:1;"
         offset="0"
         id="stop3386" />
      <stop
         style="stop-color:#202425;stop-opacity:1"
         offset="1"
         id="stop3388" />
    </linearGradient>
    <linearGradient
       inkscape:collect="always"
       id="linearGradient3209">
      <stop
         style="stop-color:#ffffff;stop-opacity:1;"
         offset="0"
         id="stop3211" />
      <stop
         style="stop-color:#ffffff;stop-opacity:0.12547529"
         offset="1"
         id="stop3213" />
    </linearGradient>
    <linearGradient
       id="linearGradient3160">
      <stop
         id="stop3168"
         offset="0"
         style="stop-color:#7a7f80;stop-opacity:1;" />
      <stop
         style="stop-color:#2e3436;stop-opacity:1"
         offset="1"
         id="stop3164" />
    </linearGradient>
    <radialGradient
       inkscape:collect="always"
       xlink:href="#linearGradient3315"
       id="radialGradient3203"
       gradientUnits="userSpaceOnUse"
       gradientTransform="matrix(-0.1838057,-8.0076032e-2,-0.1865962,0.4389772,15.857051,3.8980789)"
       cx="37.529655"
       cy="28.437492"
       fx="37.529655"
       fy="28.437492"
       r="8.0226622" />
    <linearGradient
       inkscape:collect="always"
       xlink:href="#linearGradient3281"
       id="linearGradient3215"
       x1="8.866066"
       y1="3.0442712"
       x2="11.431453"
       y2="14.151058"
       gradientUnits="userSpaceOnUse" />
    <linearGradient
       inkscape:collect="always"
       xlink:href="#linearGradient3209"
       id="linearGradient3300"
       gradientUnits="userSpaceOnUse"
       x1="24.84"
       y1="26.208334"
       x2="22.791668"
       y2="22" />
    <linearGradient
       inkscape:collect="always"
       xlink:href="#linearGradient3209"
       id="linearGradient3324"
       gradientUnits="userSpaceOnUse"
       x1="24.84"
       y1="26.208334"
       x2="22.791668"
       y2="22" />
    <linearGradient
       inkscape:collect="always"
       xlink:href="#linearGradient3209"
       id="linearGradient3330"
       gradientUnits="userSpaceOnUse"
       x1="24.84"
       y1="26.208334"
       x2="22.791668"
       y2="22" />
    <linearGradient
       inkscape:collect="always"
       xlink:href="#linearGradient3209"
       id="linearGradient3336"
       gradientUnits="userSpaceOnUse"
       x1="24.84"
       y1="26.208334"
       x2="22.791668"
       y2="22" />
    <radialGradient
       inkscape:collect="always"
       xlink:href="#linearGradient3315"
       id="radialGradient2252"
       gradientUnits="userSpaceOnUse"
       gradientTransform="matrix(0.1594244,-7.317083e-2,0.2100826,0.4673642,6.2839841,3.0896709)"
       cx="35.724964"
       cy="28.063814"
       fx="35.724964"
       fy="28.063814"
       r="8.0226622" />
    <radialGradient
       inkscape:collect="always"
       xlink:href="#linearGradient3244"
       id="radialGradient3250"
       cx="23.90407"
       cy="23.829546"
       fx="23.90407"
       fy="23.829546"
       r="2"
       gradientUnits="userSpaceOnUse"
       gradientTransform="translate(9.594037e-2,0.1704381)" />
    <radialGradient
       inkscape:collect="always"
       xlink:href="#linearGradient3244"
       id="radialGradient3258"
       cx="24"
       cy="24"
       fx="24"
       fy="24"
       r="2"
       gradientUnits="userSpaceOnUse" />
    <radialGradient
       inkscape:collect="always"
       xlink:href="#linearGradient3244"
       id="radialGradient3266"
       cx="24"
       cy="24"
       fx="24"
       fy="24"
       r="2"
       gradientUnits="userSpaceOnUse" />
    <radialGradient
       inkscape:collect="always"
       xlink:href="#linearGradient3244"
       id="radialGradient3274"
       cx="24"
       cy="24"
       fx="24"
       fy="24"
       r="2"
       gradientUnits="userSpaceOnUse" />
    <linearGradient
       inkscape:collect="always"
       xlink:href="#linearGradient3384"
       id="linearGradient3268"
       gradientUnits="userSpaceOnUse"
       gradientTransform="matrix(0.5714287,0,0,0.6666671,-0.6593409,-0.6666742)"
       x1="8.25"
       y1="18.96875"
       x2="8.53125"
       y2="20.34375" />
    <linearGradient
       inkscape:collect="always"
       xlink:href="#linearGradient3384"
       id="linearGradient3270"
       gradientUnits="userSpaceOnUse"
       gradientTransform="matrix(0.5714287,0,0,0.6363637,1.9670318,-0.1212142)"
       x1="12.75"
       y1="18.8125"
       x2="14"
       y2="20.59375" />
    <linearGradient
       inkscape:collect="always"
       xlink:href="#linearGradient3384"
       id="linearGradient3272"
       gradientUnits="userSpaceOnUse"
       gradientTransform="matrix(0.6363637,0,0,0.509091,0.8181818,1.1393932)"
       x1="10.1875"
       y1="16.78125"
       x2="10.84375"
       y2="19.0625" />
    <linearGradient
       inkscape:collect="always"
       xlink:href="#linearGradient3384"
       id="linearGradient3274"
       gradientUnits="userSpaceOnUse"
       gradientTransform="matrix(0.6666667,0,0,0.5714283,2.8351648e-7,2.2857202)"
       x1="10.5"
       y1="21.25"
       x2="11.3125"
       y2="23.15625" />
    <radialGradient
       inkscape:collect="always"
       xlink:href="#linearGradient3346"
       id="radialGradient3241"
       cx="15.198864"
       cy="7.688632"
       fx="15.198864"
       fy="7.688632"
       r="14.570813"
       gradientTransform="matrix(0.724138,0,0,0.3925111,-0.586207,3.5203329)"
       gradientUnits="userSpaceOnUse" />
    <radialGradient
       inkscape:collect="always"
       xlink:href="#linearGradient3250"
       id="radialGradient3248"
       gradientUnits="userSpaceOnUse"
       gradientTransform="matrix(0.5823399,-2.3827524e-2,2.6302859e-2,0.6428366,6.069214,9.396761)"
       cx="15.807842"
       cy="25.258278"
       fx="15.807842"
       fy="25.258278"
       r="3.4285715" />
    <radialGradient
       inkscape:collect="always"
       xlink:href="#linearGradient3250"
       id="radialGradient3259"
       gradientUnits="userSpaceOnUse"
       gradientTransform="matrix(0.5823399,-2.3827524e-2,2.6302859e-2,0.6428366,6.069214,9.396761)"
       cx="15.807842"
       cy="25.258278"
       fx="15.807842"
       fy="25.258278"
       r="3.4285715" />
    <linearGradient
       inkscape:collect="always"
       xlink:href="#linearGradient3160"
       id="linearGradient3269"
       x1="16.173321"
       y1="7.1715727"
       x2="9.6776314"
       y2="14"
       gradientUnits="userSpaceOnUse" />
    <linearGradient
       inkscape:collect="always"
       xlink:href="#linearGradient3160"
       id="linearGradient3273"
       gradientUnits="userSpaceOnUse"
       x1="16.173321"
       y1="7.1715727"
       x2="9.6776314"
       y2="14" />
  </defs>
  <sodipodi:namedview
     id="base"
     pagecolor="#ffffff"
     bordercolor="#f6aaaa"
     borderopacity="1"
     inkscape:pageopacity="0.0"
     inkscape:pageshadow="2"
     inkscape:zoom="22.627417"
     inkscape:cx="11.20215"
     inkscape:cy="9.5577096"
     inkscape:document-units="px"
     inkscape:current-layer="layer1"
     width="22px"
     height="22px"
     inkscape:showpageshadow="false"
     showgrid="false"
     gridspacingx="0.5px"
     gridspacingy="0.5px"
     gridempspacing="2"
     inkscape:grid-points="true"
     inkscape:window-width="1044"
     inkscape:window-height="853"
     inkscape:window-x="28"
     inkscape:window-y="54" />
  <metadata
     id="metadata7">
    <rdf:RDF>
      <cc:Work
         rdf:about="">
        <dc:format>image/svg+xml</dc:format>
        <dc:type
           rdf:resource="http://purl.org/dc/dcmitype/StillImage" />
        <dc:creator>
          <cc:Agent>
            <dc:title>Ulisse Perusin</dc:title>
          </cc:Agent>
        </dc:creator>
        <cc:license
           rdf:resource="http://creativecommons.org/licenses/GPL/2.0/" />
        <dc:title>input-gaming-sony-sixaxis</dc:title>
        <dc:subject>
          <rdf:Bag>
            <rdf:li>input gaming sony sixaxis</rdf:li>
          </rdf:Bag>
        </dc:subject>
        <dc:source>uli.peru@gmail.com</dc:source>
      </cc:Work>
      <cc:License
         rdf:about="http://creativecommons.org/licenses/GPL/2.0/">
        <cc:permits
           rdf:resource="http://web.resource.org/cc/Reproduction" />
        <cc:permits
           rdf:resource="http://web.resource.org/cc/Distribution" />
        <cc:requires
           rdf:resource="http://web.resource.org/cc/Notice" />
        <cc:permits
           rdf:resource="http://web.resource.org/cc/DerivativeWorks" />
        <cc:requires
           rdf:resource="http://web.resource.org/cc/ShareAlike" />
        <cc:requires
           rdf:resource="http://web.resource.org/cc/SourceCode" />
      </cc:License>
    </rdf:RDF>
  </metadata>
  <g
     inkscape:label="Livello 1"
     inkscape:groupmode="layer"
     id="layer1"
     style="display:inline">
    <path
       style="opacity:1;fill:url(#radialGradient3241);fill-opacity:1;stroke:none;stroke-width:1;stroke-miterlimit:4;display:inline"
       d="M 4,3.5 L 3,5 C 2.3034103,5.450741 1.3650943,6.8068859 1.2347292,7.8795879 C 1.0098875,9.729689 0.67223465,13.413918 0.44739295,15.264018 C 0.22255105,16.651592 1.3602749,17.579593 2.4772888,17.579594 C 3.8263395,17.579594 4.4903465,16.656312 4.9400301,15.5 L 6.5,12.5 L 15.5,12.5 L 17,15.5 C 17.449684,16.656312 18.11369,17.579594 19.462741,17.579594 C 20.579754,17.579593 21.717478,16.651592 21.492636,15.264018 C 21.267795,13.413918 20.71373,9.729689 20.488888,7.8795879 C 20.360685,6.8246749 19.67708,5.45341 19,5 L 18,3.5 L 16,3.5 L 15.5,4.5 L 6.5,4.5 L 6,3.5 L 4,3.5 z "
       id="path3321"
       sodipodi:nodetypes="ccscsccccscsccccccc" />
    <g
       style="opacity:0.44827588;display:inline"
       transform="matrix(9.0358885e-3,0,0,1.2537098e-2,-10.289733,17.180855)"
       id="g2612">
      <g
         transform="translate(0,-59.82244)"
         id="g2623">
        <g
           id="g3518"
           transform="matrix(1.043479,0,0,1,3126.228,-59.82246)">
          <rect
             style="opacity:0.40206185;color:#000000;fill:url(#linearGradient3523);fill-opacity:1;fill-rule:nonzero;stroke:none;stroke-width:1;stroke-linecap:round;stroke-linejoin:miter;marker:none;marker-start:none;marker-mid:none;marker-end:none;stroke-miterlimit:4;stroke-dasharray:none;stroke-dashoffset:0;stroke-opacity:1;visibility:visible;display:inline;overflow:visible"
             id="rect6709"
             width="1826.0504"
             height="478.35718"
             x="-1651.0347"
             y="-133.84804" />
          <path
             style="opacity:0.40206185;color:#000000;fill:url(#radialGradient3525);fill-opacity:1;fill-rule:nonzero;stroke:none;stroke-width:1;stroke-linecap:round;stroke-linejoin:miter;marker:none;marker-start:none;marker-mid:none;marker-end:none;stroke-miterlimit:4;stroke-dasharray:none;stroke-dashoffset:0;stroke-opacity:1;visibility:visible;display:inline;overflow:visible"
             d="M 175.01578,-134.07052 C 175.01578,-134.07052 175.01578,344.26027 175.01578,344.26027 C 279.92447,345.16072 428.63395,237.09061 428.63389,105.06409 C 428.63389,-26.962449 311.56369,-134.0705 175.01578,-134.07052 z "
             id="path6711"
             sodipodi:nodetypes="cccc" />
          <path
             sodipodi:nodetypes="cccc"
             id="path6713"
             d="M -1651.0346,-133.82723 C -1651.0346,-133.82723 -1651.0346,344.50356 -1651.0346,344.50356 C -1755.9433,345.40401 -1904.6528,237.3339 -1904.6528,105.30739 C -1904.6528,-26.719152 -1787.5825,-133.82721 -1651.0346,-133.82723 z "
             style="opacity:0.40206185;color:#000000;fill:url(#radialGradient3527);fill-opacity:1;fill-rule:nonzero;stroke:none;stroke-width:1;stroke-linecap:round;stroke-linejoin:miter;marker:none;marker-start:none;marker-mid:none;marker-end:none;stroke-miterlimit:4;stroke-dasharray:none;stroke-dashoffset:0;stroke-opacity:1;visibility:visible;display:inline;overflow:visible" />
        </g>
      </g>
    </g>
    <path
       style="opacity:1;fill:url(#radialGradient2252);fill-opacity:1;stroke:none;stroke-width:1;stroke-miterlimit:4;stroke-dasharray:none;display:inline"
       d="M 14.414335,9.269523 L 17.026741,15.418636 C 17.476424,16.57495 18.15095,17.5 19.5,17.5 C 20.617014,17.5 21.748418,16.57495 21.523576,15.187374 C 21.298735,13.337274 20.709905,9.732048 20.485063,7.8819479 C 20.260222,6.0318479 19.074856,5.1067969 17.337278,5.1067969 C 15.599701,5.1067969 13.514968,6.7256349 14.414335,9.269523 z "
       id="path2250"
       sodipodi:nodetypes="ccscccc" />
    <path
       style="opacity:1;fill:url(#radialGradient3203);fill-opacity:1;stroke:none;stroke-width:1;stroke-miterlimit:4;stroke-dasharray:none;display:inline"
       d="M 7.3089497,9.269523 L 4.9732599,15.418636 C 4.5235764,16.57495 3.8490507,17.5 2.5,17.5 C 1.382986,17.5 0.25158205,16.57495 0.47642395,15.187374 C 0.70126575,13.337274 1.0133789,9.732048 1.2382207,7.8819479 C 1.4630625,6.0318479 2.6484284,5.1067969 4.386006,5.1067969 C 6.1235837,5.1067969 8.2083167,6.7256349 7.3089497,9.269523 z "
       id="path3172"
       sodipodi:nodetypes="ccscccc" />
    <path
       style="opacity:1;fill:none;fill-opacity:1;stroke:#262b2d;stroke-width:1;stroke-linejoin:round;stroke-miterlimit:4;stroke-dasharray:none;stroke-opacity:1;display:inline"
       d="M 3.5,3.5 L 3.5,4.5 C 2.7571825,4.9517888 1.6374673,5.9002622 1.5,7 C 1.2666824,8.8665392 0.7333175,13.133459 0.5,15 C 0.2666823,16.399904 1.3408786,17.5 2.5,17.5 C 3.8999053,17.5 4.5333645,16.666587 5,15.5 L 6,12.5 L 16,12.5 L 17,15.5 C 17.466636,16.666587 18.100094,17.5 19.5,17.5 C 20.659122,17.5 21.733318,16.399904 21.5,15 C 21.266683,13.133459 20.733317,8.8665392 20.5,7 C 20.362533,5.9002622 19.242818,4.9517888 18.5,4.5 L 18.5,3.5 L 15.5,3.5 L 15.5,4.5 L 6.5,4.5 L 6.5,3.5 L 3.5,3.5 z "
       id="path3194"
       sodipodi:nodetypes="ccscsccccscsccccccc" />
    <path
       sodipodi:type="inkscape:offset"
       inkscape:radius="-0.96493876"
       inkscape:original="M 3.5 3.5 L 3.5 4.5 C 2.7571825 4.9517888 1.6374673 5.9002622 1.5 7 C 1.2666824 8.8665392 0.7333175 13.133459 0.5 15 C 0.2666823 16.399904 1.3408786 17.5 2.5 17.5 C 3.8999053 17.5 4.5333645 16.666587 5 15.5 L 6 12.5 L 16 12.5 L 17 15.5 C 17.466636 16.666587 18.100094 17.5 19.5 17.5 C 20.659122 17.5 21.733318 16.399904 21.5 15 C 21.266683 13.133459 20.733317 8.8665392 20.5 7 C 20.362533 5.9002622 19.242818 4.9517888 18.5 4.5 L 18.5 3.5 L 15.5 3.5 L 15.5 4.5 L 6.5 4.5 L 6.5 3.5 L 3.5 3.5 z "
       xlink:href="#path3194"
       style="opacity:0.70114938;fill:none;fill-opacity:1;stroke:url(#linearGradient3215);stroke-width:1;stroke-linejoin:miter;stroke-miterlimit:4;stroke-opacity:1;display:inline"
       id="path3207"
       inkscape:href="#path3194"
       d="M 4.46875,4.46875 L 4.46875,4.5 C 4.4634885,4.8336626 4.2862197,5.1409287 4,5.3125 C 3.4016365,5.6764305 2.5346967,6.5974268 2.46875,7.125 C 2.2354324,8.991539 1.7020675,13.258459 1.46875,15.125 C 1.4585732,15.135654 1.4481538,15.146073 1.4375,15.15625 C 1.2966169,16.001547 1.951413,16.53125 2.5,16.53125 C 3.0084653,16.53125 3.2142472,16.420625 3.4375,16.21875 C 3.6559998,16.021173 3.8907324,15.687061 4.09375,15.1875 L 4.09375,15.15625 L 5.09375,12.1875 C 5.2252534,11.798077 5.5889869,11.534684 6,11.53125 L 16,11.53125 C 16.411013,11.534684 16.774747,11.798077 16.90625,12.1875 L 17.90625,15.15625 L 17.90625,15.1875 C 18.109268,15.687061 18.344,16.021173 18.5625,16.21875 C 18.785753,16.420625 18.991534,16.53125 19.5,16.53125 C 20.048588,16.53125 20.703383,16.001547 20.5625,15.15625 C 20.551846,15.146073 20.541427,15.135654 20.53125,15.125 C 20.297933,13.25846 19.764567,8.9915399 19.53125,7.125 C 19.465303,6.5974269 18.598364,5.6764304 18,5.3125 C 17.71378,5.1409287 17.536511,4.8336626 17.53125,4.5 L 17.53125,4.46875 L 16.46875,4.46875 L 16.46875,4.5 C 16.469742,4.7572313 16.367996,5.0042135 16.186105,5.1861049 C 16.004214,5.3679963 15.757231,5.4697421 15.5,5.46875 L 6.5,5.46875 C 6.2427687,5.4697421 5.9957865,5.3679963 5.8138951,5.1861049 C 5.6320037,5.0042135 5.5302579,4.7572313 5.53125,4.5 L 5.53125,4.46875 L 4.46875,4.46875 z " />
    <path
       sodipodi:type="arc"
       style="opacity:1;fill:url(#linearGradient3273);fill-opacity:1;stroke:none;stroke-width:1;stroke-linejoin:miter;stroke-miterlimit:4;stroke-dasharray:none;stroke-opacity:1;display:inline"
       id="path3271"
       sodipodi:cx="13.5"
       sodipodi:cy="10"
       sodipodi:rx="3.5"
       sodipodi:ry="4"
       d="M 17 10 A 3.5 4 0 1 1  10,10 A 3.5 4 0 1 1  17 10 z"
       transform="matrix(-1,0,0,0.875,30.5,-0.75)" />
    <rect
       style="opacity:1;fill:#252a2c;fill-opacity:1;stroke:none;stroke-width:1.00000012;stroke-linejoin:round;stroke-miterlimit:4;stroke-dasharray:none;stroke-opacity:1"
       id="rect3252"
       width="1"
       height="1"
       x="9"
       y="7" />
    <g
       id="g3468"
       transform="matrix(0.5385746,0,0,0.52549,-3.093952,-2.5252982)">
      <path
         transform="matrix(0.9475813,0,0,0.9514934,14.567554,-6.6123202)"
         d="M 26 24 A 2 2 0 1 1  22,24 A 2 2 0 1 1  26 24 z"
         sodipodi:ry="2"
         sodipodi:rx="2"
         sodipodi:cy="24"
         sodipodi:cx="24"
         id="path3296"
         style="opacity:1;fill:url(#radialGradient3266);fill-opacity:1;stroke:none;stroke-width:2;stroke-linejoin:round;stroke-miterlimit:4;stroke-dasharray:none;stroke-opacity:1;display:inline"
         sodipodi:type="arc" />
      <path
         transform="matrix(0.5685488,0,0,0.3805973,22.906269,6.3279917)"
         d="M 26 24 A 2 2 0 1 1  22,24 A 2 2 0 1 1  26 24 z"
         sodipodi:ry="2"
         sodipodi:rx="2"
         sodipodi:cy="24"
         sodipodi:cx="24"
         id="path3298"
         style="opacity:0.20689655;fill:url(#linearGradient3300);fill-opacity:1;stroke:none;stroke-width:1;stroke-linejoin:round;stroke-miterlimit:4;stroke-dasharray:none;stroke-opacity:1;display:inline"
         sodipodi:type="arc" />
    </g>
    <g
       id="g3473"
       transform="matrix(0.5276591,0,0,0.5254899,-3.2084946,-2.2529352)">
      <path
         transform="matrix(0.9475815,0,0,0.9514931,11.766109,-3.3246399)"
         d="M 26 24 A 2 2 0 1 1  22,24 A 2 2 0 1 1  26 24 z"
         sodipodi:ry="2"
         sodipodi:rx="2"
         sodipodi:cy="24"
         sodipodi:cx="24"
         id="path3320"
         style="opacity:1;fill:url(#radialGradient3258);fill-opacity:1;stroke:none;stroke-width:2;stroke-linejoin:round;stroke-miterlimit:4;stroke-dasharray:none;stroke-opacity:1;display:inline"
         sodipodi:type="arc" />
      <path
         transform="matrix(0.5685488,0,0,0.3805973,20.104829,9.6156648)"
         d="M 26 24 A 2 2 0 1 1  22,24 A 2 2 0 1 1  26 24 z"
         sodipodi:ry="2"
         sodipodi:rx="2"
         sodipodi:cy="24"
         sodipodi:cx="24"
         id="path3322"
         style="opacity:0.20689655;fill:url(#linearGradient3324);fill-opacity:1;stroke:none;stroke-width:1;stroke-linejoin:round;stroke-miterlimit:4;stroke-dasharray:none;stroke-opacity:1;display:inline"
         sodipodi:type="arc" />
    </g>
    <g
       id="g3483"
       transform="matrix(0.5276593,0,0,0.5254901,-2.3702027,-2.2529389)">
      <path
         transform="matrix(0.9475813,0,0,0.9514932,17.758049,-3.3246423)"
         d="M 26 24 A 2 2 0 1 1  22,24 A 2 2 0 1 1  26 24 z"
         sodipodi:ry="2"
         sodipodi:rx="2"
         sodipodi:cy="24"
         sodipodi:cx="24"
         id="path3326"
         style="opacity:1;fill:url(#radialGradient3250);fill-opacity:1;stroke:none;stroke-width:2;stroke-linejoin:round;stroke-miterlimit:4;stroke-dasharray:none;stroke-opacity:1;display:inline"
         sodipodi:type="arc" />
      <path
         transform="matrix(0.5685488,0,0,0.3805973,26.096764,9.6156648)"
         d="M 26 24 A 2 2 0 1 1  22,24 A 2 2 0 1 1  26 24 z"
         sodipodi:ry="2"
         sodipodi:rx="2"
         sodipodi:cy="24"
         sodipodi:cx="24"
         id="path3328"
         style="opacity:0.20689655;fill:url(#linearGradient3330);fill-opacity:1;stroke:none;stroke-width:1;stroke-linejoin:round;stroke-miterlimit:4;stroke-dasharray:none;stroke-opacity:1;display:inline"
         sodipodi:type="arc" />
    </g>
    <path
       sodipodi:type="arc"
       style="opacity:1;fill:url(#linearGradient3269);fill-opacity:1;stroke:none;stroke-width:1;stroke-linejoin:miter;stroke-miterlimit:4;stroke-dasharray:none;stroke-opacity:1"
       id="path3261"
       sodipodi:cx="13.5"
       sodipodi:cy="10"
       sodipodi:rx="3.5"
       sodipodi:ry="4"
       d="M 17 10 A 3.5 4 0 1 1  10,10 A 3.5 4 0 1 1  17 10 z"
       transform="matrix(1,0,0,0.875,-8.5,-0.75)" />
    <g
       id="g3259"
       transform="matrix(0.8125,0,0,0.75,-0.4375001,-1.2499998)">
      <path
         sodipodi:nodetypes="cccccc"
         id="rect3353"
         d="M 3.0000002,11 L 4.2307694,11 L 6.0769232,12.333333 L 4.2307694,13.666667 L 3.0000002,13.666667 L 3.0000002,11 z "
         style="fill:url(#linearGradient3268);fill-opacity:1;stroke:none;stroke-width:1;stroke-linejoin:round;stroke-miterlimit:4;stroke-opacity:1;display:inline" />
      <path
         sodipodi:nodetypes="cccccc"
         id="path3366"
         d="M 10.307693,11 L 9.0769234,11 L 7.3076924,12.333333 L 9.0769234,13.666667 L 10.307693,13.666667 L 10.307693,11 z "
         style="fill:url(#linearGradient3270);fill-opacity:1;stroke:none;stroke-width:1;stroke-linejoin:round;stroke-miterlimit:4;stroke-opacity:1;display:inline" />
      <path
         sodipodi:nodetypes="cccccc"
         id="path3372"
         d="M 5.4615386,8.3333334 L 5.4615386,9.666667 L 6.6923078,11.666666 L 7.923077,9.666667 L 7.923077,8.3333334 L 5.4615386,8.3333334 z "
         style="fill:url(#linearGradient3272);fill-opacity:1;stroke:none;stroke-width:1;stroke-linejoin:round;stroke-miterlimit:4;stroke-opacity:1;display:inline" />
      <path
         sodipodi:nodetypes="cccccc"
         id="path3378"
         d="M 5.4615386,16.333333 L 5.4615386,15 L 6.6923078,13 L 7.923077,15 L 7.923077,16.333333 L 5.4615386,16.333333 z "
         style="fill:url(#linearGradient3274);fill-opacity:1;stroke:none;stroke-width:1;stroke-linejoin:round;stroke-miterlimit:4;stroke-opacity:1;display:inline" />
    </g>
    <g
       id="g3295"
       transform="matrix(0.7999997,0,0,0.8,-2.1999932,-2.3999997)">
      <path
         transform="matrix(0.625,0,0,0.625,9.0000005,0.4999997)"
         d="M 26 24 A 2 2 0 1 1  22,24 A 2 2 0 1 1  26 24 z"
         sodipodi:ry="2"
         sodipodi:rx="2"
         sodipodi:cy="24"
         sodipodi:cx="24"
         id="path3332"
         style="fill:url(#radialGradient3274);fill-opacity:1;stroke:none;stroke-width:2;stroke-linejoin:round;stroke-miterlimit:4;stroke-dasharray:none;stroke-opacity:1;display:inline"
         sodipodi:type="arc" />
      <path
         transform="matrix(0.375,0,0,0.25,14.5,8.9999996)"
         d="M 26 24 A 2 2 0 1 1  22,24 A 2 2 0 1 1  26 24 z"
         sodipodi:ry="2"
         sodipodi:rx="2"
         sodipodi:cy="24"
         sodipodi:cx="24"
         id="path3334"
         style="opacity:0.20689655;fill:url(#linearGradient3336);fill-opacity:1;stroke:none;stroke-width:1;stroke-linejoin:round;stroke-miterlimit:4;stroke-dasharray:none;stroke-opacity:1;display:inline"
         sodipodi:type="arc" />
    </g>
    <rect
       y="7"
       x="18"
       height="1"
       width="1"
       id="rect3300"
       style="opacity:1;fill:#d74141;fill-opacity:1;stroke:none;stroke-width:0.30385137;stroke-linejoin:miter;stroke-miterlimit:4;stroke-dasharray:none;stroke-opacity:1;display:inline" />
    <rect
       y="6"
       x="16"
       height="1"
       width="1"
       id="rect3302"
       style="opacity:1;fill:#78ba38;fill-opacity:1;stroke:none;stroke-width:0.30385137;stroke-linejoin:miter;stroke-miterlimit:4;stroke-dasharray:none;stroke-opacity:1;display:inline" />
    <rect
       y="8"
       x="15"
       height="1"
       width="1"
       id="rect3343"
       style="opacity:1;fill:#b980b3;fill-opacity:1;stroke:none;stroke-width:0.30385137;stroke-linejoin:miter;stroke-miterlimit:4;stroke-dasharray:none;stroke-opacity:1;display:inline" />
    <rect
       y="9"
       x="17"
       height="1"
       width="1"
       id="rect3305"
       style="opacity:1;fill:#729fcf;fill-opacity:1;stroke:none;stroke-width:0.30385137;stroke-linejoin:miter;stroke-miterlimit:4;stroke-dasharray:none;stroke-opacity:1;display:inline" />
    <rect
       style="opacity:1;fill:#252a2c;fill-opacity:1;stroke:none;stroke-width:1.00000012;stroke-linejoin:round;stroke-miterlimit:4;stroke-dasharray:none;stroke-opacity:1;display:inline"
       id="rect2269"
       width="1"
       height="1"
       x="12"
       y="7" />
    <path
       sodipodi:type="arc"
       style="opacity:1;fill:url(#radialGradient3248);fill-opacity:1;stroke:none;stroke-width:1.99999976;stroke-linejoin:miter;stroke-miterlimit:4;stroke-dasharray:none;stroke-opacity:1;display:inline"
       id="path3246"
       sodipodi:cx="16.5"
       sodipodi:cy="26"
       sodipodi:rx="3"
       sodipodi:ry="3"
       d="M 19.5 26 A 3 3 0 1 1  13.5,26 A 3 3 0 1 1  19.5 26 z"
       transform="matrix(0.8333333,0,0,0.8333333,-5.7499994,-9.666666)" />
    <path
       sodipodi:type="arc"
       style="opacity:1;fill:url(#radialGradient3259);fill-opacity:1;stroke:none;stroke-width:1.99999976;stroke-linejoin:miter;stroke-miterlimit:4;stroke-dasharray:none;stroke-opacity:1;display:inline"
       id="path3256"
       sodipodi:cx="16.5"
       sodipodi:cy="26"
       sodipodi:rx="3"
       sodipodi:ry="3"
       d="M 19.5 26 A 3 3 0 1 1  13.5,26 A 3 3 0 1 1  19.5 26 z"
       transform="matrix(0.8333333,0,0,0.8333333,0.2500005,-9.666666)" />
  </g>
</svg>
