<?xml version="1.0" encoding="UTF-8" standalone="no"?>
<!-- Created with Inkscape (http://www.inkscape.org/) -->
<svg
   xmlns:dc="http://purl.org/dc/elements/1.1/"
   xmlns:cc="http://web.resource.org/cc/"
   xmlns:rdf="http://www.w3.org/1999/02/22-rdf-syntax-ns#"
   xmlns:svg="http://www.w3.org/2000/svg"
   xmlns="http://www.w3.org/2000/svg"
   xmlns:xlink="http://www.w3.org/1999/xlink"
   xmlns:sodipodi="http://sodipodi.sourceforge.net/DTD/sodipodi-0.dtd"
   xmlns:inkscape="http://www.inkscape.org/namespaces/inkscape"
   width="22"
   height="22"
   id="svg2"
   sodipodi:version="0.32"
   inkscape:version="0.45.1"
   version="1.0"
   sodipodi:docbase="/home/ulisse/Desktop/logitech-rumblepad2/22x22"
   sodipodi:docname="input-gaming-logitech-cordless-rumblepad2.svg"
   inkscape:output_extension="org.inkscape.output.svg.inkscape">
  <defs
     id="defs4">
    <linearGradient
       id="linearGradient3237"
       inkscape:collect="always">
      <stop
         id="stop3239"
         offset="0"
         style="stop-color:#ffffff;stop-opacity:1;" />
      <stop
         id="stop3241"
         offset="1"
         style="stop-color:#ffffff;stop-opacity:0.07843138" />
    </linearGradient>
    <linearGradient
       id="linearGradient3240"
       inkscape:collect="always">
      <stop
         id="stop3242"
         offset="0"
         style="stop-color:#dcdfdf;stop-opacity:1" />
      <stop
         id="stop3244"
         offset="1"
         style="stop-color:#1f2225;stop-opacity:1" />
    </linearGradient>
    <linearGradient
       id="linearGradient3547">
      <stop
         id="stop3549"
         offset="0"
         style="stop-color:#e0e0e0;stop-opacity:1;" />
      <stop
         id="stop3551"
         offset="1"
         style="stop-color:#eaeaea;stop-opacity:0;" />
    </linearGradient>
    <linearGradient
       id="linearGradient3381"
       inkscape:collect="always">
      <stop
         id="stop3383"
         offset="0"
         style="stop-color:#95bce7;stop-opacity:1" />
      <stop
         id="stop3385"
         offset="1"
         style="stop-color:#3327a8;stop-opacity:1" />
    </linearGradient>
    <linearGradient
       id="linearGradient3291">
      <stop
         style="stop-color:#6c7682;stop-opacity:1"
         offset="0"
         id="stop3293" />
      <stop
         id="stop3314"
         offset="0.62921351"
         style="stop-color:#929ba5;stop-opacity:1;" />
      <stop
         style="stop-color:#57616e;stop-opacity:1"
         offset="1"
         id="stop3295" />
    </linearGradient>
    <linearGradient
       inkscape:collect="always"
       id="linearGradient3272">
      <stop
         style="stop-color:#cacecf;stop-opacity:1"
         offset="0"
         id="stop3274" />
      <stop
         style="stop-color:#363b41;stop-opacity:1"
         offset="1"
         id="stop3276" />
    </linearGradient>
    <radialGradient
       inkscape:collect="always"
       xlink:href="#linearGradient5060"
       id="radialGradient3527"
       gradientUnits="userSpaceOnUse"
       gradientTransform="matrix(-2.03716,0,0,2.018058,-423.3185,-879.5624)"
       cx="605.71429"
       cy="486.64789"
       fx="605.71429"
       fy="486.64789"
       r="117.14286" />
    <linearGradient
       inkscape:collect="always"
       id="linearGradient5060">
      <stop
         style="stop-color:black;stop-opacity:1;"
         offset="0"
         id="stop5062" />
      <stop
         style="stop-color:black;stop-opacity:0;"
         offset="1"
         id="stop5064" />
    </linearGradient>
    <radialGradient
       inkscape:collect="always"
       xlink:href="#linearGradient5060"
       id="radialGradient3525"
       gradientUnits="userSpaceOnUse"
       gradientTransform="matrix(2.03716,0,0,1.969706,-1052.701,-856.2756)"
       cx="605.71429"
       cy="486.64789"
       fx="605.71429"
       fy="486.64789"
       r="117.14286" />
    <linearGradient
       id="linearGradient5048">
      <stop
         style="stop-color:black;stop-opacity:0;"
         offset="0"
         id="stop5050" />
      <stop
         id="stop5056"
         offset="0.5"
         style="stop-color:black;stop-opacity:1;" />
      <stop
         style="stop-color:black;stop-opacity:0;"
         offset="1"
         id="stop5052" />
    </linearGradient>
    <linearGradient
       inkscape:collect="always"
       xlink:href="#linearGradient5048"
       id="linearGradient3523"
       gradientUnits="userSpaceOnUse"
       gradientTransform="matrix(3.781761,0,0,1.969706,-2104.846,-856.0366)"
       x1="302.85715"
       y1="366.64789"
       x2="302.85715"
       y2="609.50507" />
    <radialGradient
       inkscape:collect="always"
       xlink:href="#linearGradient3291"
       id="radialGradient3303"
       gradientUnits="userSpaceOnUse"
       gradientTransform="matrix(0.4567676,9.7430663e-5,-8.7382568e-5,0.4144674,5.4576171e-2,3.7923927)"
       cx="23.981812"
       cy="7.0927701"
       fx="24.241272"
       fy="0.82238239"
       r="23.025204" />
    <linearGradient
       inkscape:collect="always"
       xlink:href="#linearGradient3237"
       id="linearGradient3311"
       x1="12.83507"
       y1="1.923056"
       x2="21.067362"
       y2="16.75"
       gradientUnits="userSpaceOnUse" />
    <linearGradient
       inkscape:collect="always"
       xlink:href="#linearGradient3240"
       id="linearGradient3322"
       x1="23.155817"
       y1="-10.88088"
       x2="27.275034"
       y2="-2.9218237"
       gradientUnits="userSpaceOnUse" />
    <linearGradient
       inkscape:collect="always"
       xlink:href="#linearGradient3381"
       id="linearGradient3379"
       gradientUnits="userSpaceOnUse"
       x1="71.930679"
       y1="12.944366"
       x2="73.208023"
       y2="18.612705" />
    <linearGradient
       inkscape:collect="always"
       xlink:href="#linearGradient3381"
       id="linearGradient3391"
       x1="72.217941"
       y1="20.643417"
       x2="72.251732"
       y2="15.362213"
       gradientUnits="userSpaceOnUse" />
    <linearGradient
       inkscape:collect="always"
       xlink:href="#linearGradient3381"
       id="linearGradient3395"
       gradientUnits="userSpaceOnUse"
       x1="72.217941"
       y1="20.643417"
       x2="72.251732"
       y2="15.362213" />
    <linearGradient
       inkscape:collect="always"
       xlink:href="#linearGradient3381"
       id="linearGradient3397"
       gradientUnits="userSpaceOnUse"
       x1="71.930679"
       y1="12.944366"
       x2="73.208023"
       y2="18.612705" />
    <radialGradient
       inkscape:collect="always"
       xlink:href="#linearGradient3547"
       id="radialGradient3545"
       cx="-6"
       cy="21.706213"
       fx="-6.2578349"
       fy="20.763403"
       r="3"
       gradientTransform="matrix(1,0,0,2.4312623,0,-31.067285)"
       gradientUnits="userSpaceOnUse" />
    <radialGradient
       inkscape:collect="always"
       xlink:href="#linearGradient3547"
       id="radialGradient3561"
       gradientUnits="userSpaceOnUse"
       gradientTransform="matrix(1,0,0,2.4312623,0,-31.067285)"
       cx="-6"
       cy="21.706213"
       fx="-6.7346997"
       fy="20.483507"
       r="3" />
    <radialGradient
       inkscape:collect="always"
       xlink:href="#linearGradient3272"
       id="radialGradient3246"
       cx="27.295389"
       cy="-2.8980801"
       fx="27.295389"
       fy="-2.8980801"
       r="4.8357038"
       gradientTransform="matrix(1.0054835,0.2586294,-0.2292453,0.7908306,-9.5887338e-2,-7.973789)"
       gradientUnits="userSpaceOnUse" />
  </defs>
  <sodipodi:namedview
     id="base"
     pagecolor="#ffffff"
     bordercolor="#f6aaaa"
     borderopacity="1"
     inkscape:pageopacity="0.0"
     inkscape:pageshadow="2"
     inkscape:zoom="1"
     inkscape:cx="19.815922"
     inkscape:cy="6.7168494"
     inkscape:document-units="px"
     inkscape:current-layer="layer1"
     width="22px"
     height="22px"
     inkscape:showpageshadow="false"
     showgrid="false"
     gridspacingx="0.5px"
     gridspacingy="0.5px"
     gridempspacing="2"
     inkscape:grid-points="true"
     inkscape:window-width="1044"
     inkscape:window-height="853"
     inkscape:window-x="192"
     inkscape:window-y="44"
     showguides="true"
     inkscape:guide-bbox="true" />
  <metadata
     id="metadata7">
    <rdf:RDF>
      <cc:Work
         rdf:about="">
        <dc:format>image/svg+xml</dc:format>
        <dc:type
           rdf:resource="http://purl.org/dc/dcmitype/StillImage" />
        <dc:creator>
          <cc:Agent>
            <dc:title>Ulisse Perusin</dc:title>
          </cc:Agent>
        </dc:creator>
        <cc:license
           rdf:resource="http://creativecommons.org/licenses/GPL/2.0/" />
        <dc:title>input-gaming-logitech-cordless-rumblepad2</dc:title>
        <dc:subject>
          <rdf:Bag>
            <rdf:li>input gaming logitech rumblepad</rdf:li>
          </rdf:Bag>
        </dc:subject>
        <dc:source>uli.peru@gmail.com</dc:source>
      </cc:Work>
      <cc:License
         rdf:about="http://creativecommons.org/licenses/GPL/2.0/">
        <cc:permits
           rdf:resource="http://web.resource.org/cc/Reproduction" />
        <cc:permits
           rdf:resource="http://web.resource.org/cc/Distribution" />
        <cc:requires
           rdf:resource="http://web.resource.org/cc/Notice" />
        <cc:permits
           rdf:resource="http://web.resource.org/cc/DerivativeWorks" />
        <cc:requires
           rdf:resource="http://web.resource.org/cc/ShareAlike" />
        <cc:requires
           rdf:resource="http://web.resource.org/cc/SourceCode" />
      </cc:License>
    </rdf:RDF>
  </metadata>
  <g
     inkscape:label="Livello 1"
     inkscape:groupmode="layer"
     id="layer1"
     style="display:inline">
    <g
       style="opacity:0.44827588;display:inline"
       transform="matrix(9.0358885e-3,0,0,1.2537098e-2,-10.289734,17.180855)"
       id="g2612">
      <g
         transform="translate(0,-59.82244)"
         id="g2623">
        <g
           id="g3518"
           transform="matrix(1.043479,0,0,1,3126.228,-59.82246)">
          <rect
             style="opacity:0.40206185;color:#000000;fill:url(#linearGradient3523);fill-opacity:1;fill-rule:nonzero;stroke:none;stroke-width:1;stroke-linecap:round;stroke-linejoin:miter;marker:none;marker-start:none;marker-mid:none;marker-end:none;stroke-miterlimit:4;stroke-dasharray:none;stroke-dashoffset:0;stroke-opacity:1;visibility:visible;display:inline;overflow:visible"
             id="rect6709"
             width="1826.0504"
             height="478.35718"
             x="-1651.0347"
             y="-133.84804" />
          <path
             style="opacity:0.40206185;color:#000000;fill:url(#radialGradient3525);fill-opacity:1;fill-rule:nonzero;stroke:none;stroke-width:1;stroke-linecap:round;stroke-linejoin:miter;marker:none;marker-start:none;marker-mid:none;marker-end:none;stroke-miterlimit:4;stroke-dasharray:none;stroke-dashoffset:0;stroke-opacity:1;visibility:visible;display:inline;overflow:visible"
             d="M 175.01578,-134.07052 C 175.01578,-134.07052 175.01578,344.26027 175.01578,344.26027 C 279.92447,345.16072 428.63395,237.09061 428.63389,105.06409 C 428.63389,-26.962449 311.56369,-134.0705 175.01578,-134.07052 z "
             id="path6711"
             sodipodi:nodetypes="cccc" />
          <path
             sodipodi:nodetypes="cccc"
             id="path6713"
             d="M -1651.0346,-133.82723 C -1651.0346,-133.82723 -1651.0346,344.50356 -1651.0346,344.50356 C -1755.9433,345.40401 -1904.6528,237.3339 -1904.6528,105.30739 C -1904.6528,-26.719152 -1787.5825,-133.82721 -1651.0346,-133.82723 z "
             style="opacity:0.40206185;color:#000000;fill:url(#radialGradient3527);fill-opacity:1;fill-rule:nonzero;stroke:none;stroke-width:1;stroke-linecap:round;stroke-linejoin:miter;marker:none;marker-start:none;marker-mid:none;marker-end:none;stroke-miterlimit:4;stroke-dasharray:none;stroke-dashoffset:0;stroke-opacity:1;visibility:visible;display:inline;overflow:visible" />
        </g>
      </g>
    </g>
    <g
       id="g3531"
       transform="matrix(0.4566258,0,0,0.3968249,-0.1783564,2.2012155)">
      <path
         sodipodi:nodetypes="cccscc"
         id="rect3247"
         d="M 12.533523,16.665524 L 36.525217,16.665524 L 36.525217,21.825216 C 30.787195,22.341185 32.046068,25.952969 24.492826,25.952969 C 16.939581,25.952969 18.198455,22.341185 12.533523,21.825216 L 12.533523,16.665524 z "
         style="fill:#5775a2;fill-opacity:1;stroke:#4d6a96;stroke-width:2.34920192;stroke-linejoin:round;stroke-miterlimit:4;stroke-opacity:1" />
    </g>
    <path
       style="fill:url(#radialGradient3303);fill-opacity:1;stroke:#3e434b;stroke-width:0.99999988;stroke-linejoin:round;stroke-miterlimit:4;stroke-opacity:1"
       d="M 5.904045,3.4956239 C 7.7577783,3.4956239 8.0255188,4.5 11.008071,4.5 C 13.990623,4.5 15.481899,3.5 16.563014,3.4956239 C 21.447002,3.5 22.587647,17.720363 20.502198,17.496004 C 18.88018,17.496004 17.470267,12.5 15.978991,12 C 13.958112,11.350746 8.1808321,11.328264 6.0371509,12 C 4.545875,12.5 3.1234444,17.496004 1.5014276,17.496004 C -0.58402282,17.720363 0.56913926,3.5 5.904045,3.4956239 z "
       id="rect3242"
       sodipodi:nodetypes="cscccccc" />
    <path
       sodipodi:type="arc"
       style="opacity:0.60919542;fill:url(#radialGradient3561);fill-opacity:1;stroke:none;stroke-width:1;stroke-linejoin:round;stroke-miterlimit:4;stroke-dasharray:none;stroke-opacity:1;display:inline"
       id="path3559"
       sodipodi:cx="-6"
       sodipodi:cy="21.706213"
       sodipodi:rx="3"
       sodipodi:ry="7.293787"
       d="M -3 21.706213 A 3 7.293787 0 1 1  -9,21.706213 A 3 7.293787 0 1 1  -3 21.706213 z"
       transform="matrix(-0.5762364,0,0.1975091,0.5478141,10.505407,-0.88661)" />
    <path
       sodipodi:type="arc"
       style="opacity:0.70582371;fill:url(#radialGradient3545);fill-opacity:1;stroke:none;stroke-width:1;stroke-linejoin:round;stroke-miterlimit:4;stroke-dasharray:none;stroke-opacity:1"
       id="path3537"
       sodipodi:cx="-6"
       sodipodi:cy="21.706213"
       sodipodi:rx="3"
       sodipodi:ry="7.293787"
       d="M -3 21.706213 A 3 7.293787 0 1 1  -9,21.706213 A 3 7.293787 0 1 1  -3 21.706213 z"
       transform="matrix(0.5762361,0,-0.1975091,0.5478142,11.494591,-0.8866112)" />
    <path
       sodipodi:type="inkscape:offset"
       inkscape:radius="-1.0047024"
       inkscape:original="M 5.90625 3.5 C 0.57134426 3.5043761 -0.58545047 17.724359 1.5 17.5 C 3.1220168 17.5 4.5399741 12.5 6.03125 12 C 8.1749312 11.328264 13.947871 11.350746 15.96875 12 C 17.460026 12.5 18.877983 17.5 20.5 17.5 C 22.585449 17.724359 21.446489 3.5043762 16.5625 3.5 C 15.481385 3.5043761 13.982552 4.5 11 4.5 C 8.0174478 4.5 7.7599832 3.5000001 5.90625 3.5 z "
       xlink:href="#rect3242"
       style="opacity:0.48275859;fill:none;fill-opacity:1;stroke:url(#linearGradient3311);stroke-width:1;stroke-linejoin:round;stroke-miterlimit:4;stroke-opacity:1"
       id="path3301"
       inkscape:href="#rect3242"
       d="M 5.90625,4.5 C 5.0188259,4.5007279 4.257617,5.0803421 3.53125,6.25 C 2.804883,7.4196579 2.2376452,9.1001621 1.90625,10.78125 C 1.5748548,12.462338 1.4710861,14.170981 1.5625,15.34375 C 1.5975808,15.79381 1.6504724,16.044742 1.71875,16.28125 C 1.7955934,16.222666 1.7635905,16.270645 1.90625,16.09375 C 2.2153456,15.710478 2.5706025,15.085052 2.9375,14.4375 C 3.3043975,13.789948 3.6823187,13.102702 4.09375,12.5 C 4.5051813,11.897298 4.9129125,11.332684 5.71875,11.0625 C 5.718588,11.052084 5.718588,11.041666 5.71875,11.03125 C 7.0392118,10.617475 9.0423684,10.497109 11.0625,10.5 C 13.082632,10.502891 15.008775,10.622438 16.28125,11.03125 C 16.281412,11.041666 16.281412,11.052084 16.28125,11.0625 C 17.087088,11.332684 17.494819,11.897298 17.90625,12.5 C 18.317681,13.102702 18.695603,13.789948 19.0625,14.4375 C 19.429397,15.085052 19.784654,15.710478 20.09375,16.09375 C 20.236409,16.270645 20.204407,16.222666 20.28125,16.28125 C 20.351322,16.044089 20.39904,15.766868 20.4375,15.3125 C 20.536982,14.137202 20.459428,12.435363 20.15625,10.75 C 19.853072,9.0646371 19.327203,7.3915753 18.65625,6.21875 C 17.985297,5.0459247 17.295992,4.5006572 16.5625,4.5 C 16.328474,4.5009473 15.70971,4.7063553 14.78125,4.96875 C 13.85279,5.2311447 12.603071,5.5 11,5.5 C 9.3964373,5.5 8.3998046,5.2037216 7.6875,4.9375 C 6.9751954,4.6712784 6.6524537,4.5 5.90625,4.5 z " />
    <g
       id="g3368"
       transform="matrix(0.4999631,0,0,0.4999857,-1.749391,-1.2498352)">
      <path
         transform="matrix(0.9275363,0,0,0.9846154,-11.326089,20.115387)"
         d="M 30 -4.6875029 A 4.3124995 4.0625 0 1 1  21.375,-4.6875029 A 4.3124995 4.0625 0 1 1  30 -4.6875029 z"
         sodipodi:ry="4.0625"
         sodipodi:rx="4.3124995"
         sodipodi:cy="-4.6875029"
         sodipodi:cx="25.6875"
         id="path3270"
         style="opacity:1;fill:url(#radialGradient3246);fill-opacity:1;stroke:url(#linearGradient3322);stroke-width:2.09292436;stroke-linejoin:round;stroke-miterlimit:4;stroke-dasharray:none;stroke-opacity:1"
         sodipodi:type="arc" />
    </g>
    <path
       sodipodi:type="arc"
       style="opacity:1;fill:url(#linearGradient3391);fill-opacity:1;stroke:url(#linearGradient3379);stroke-width:1.66666698;stroke-linejoin:round;stroke-miterlimit:4;stroke-dasharray:none;stroke-opacity:1;display:inline"
       id="path3375"
       sodipodi:cx="72.5"
       sodipodi:cy="18.5"
       sodipodi:rx="2.5"
       sodipodi:ry="2.5"
       d="M 75 18.5 A 2.5 2.5 0 1 1  70,18.5 A 2.5 2.5 0 1 1  75 18.5 z"
       transform="matrix(0.6,0,0,0.6,-29.5,-1.0999999)" />
    <g
       style="display:inline"
       id="g3487"
       transform="matrix(0.5999997,0,0,0.6,-7.0999922,-0.3)">
      <path
         transform="matrix(0.6666667,0,0,1,12.666666,5)"
         d="M 21.5 8 A 1.5 1 0 1 1  18.5,8 A 1.5 1 0 1 1  21.5 8 z"
         sodipodi:ry="1"
         sodipodi:rx="1.5"
         sodipodi:cy="8"
         sodipodi:cx="20"
         id="path3489"
         style="opacity:1;fill:#2b2f34;fill-opacity:1;stroke:none;stroke-width:1;stroke-linejoin:round;stroke-miterlimit:4;stroke-dasharray:none;stroke-opacity:1;display:inline"
         sodipodi:type="arc" />
    </g>
    <path
       sodipodi:type="arc"
       style="opacity:1;fill:url(#linearGradient3395);fill-opacity:1;stroke:url(#linearGradient3397);stroke-width:1.66666651;stroke-linejoin:round;stroke-miterlimit:4;stroke-dasharray:none;stroke-opacity:1;display:inline"
       id="path3393"
       sodipodi:cx="72.5"
       sodipodi:cy="18.5"
       sodipodi:rx="2.5"
       sodipodi:ry="2.5"
       d="M 75 18.5 A 2.5 2.5 0 1 1  70,18.5 A 2.5 2.5 0 1 1  75 18.5 z"
       transform="matrix(0.6,0,0,0.6,-35.5,-1.0999998)" />
    <g
       id="g3429"
       transform="matrix(0.4584995,0,0,0.4558344,0.5987662,0.8904012)">
      <path
         transform="matrix(0.9999997,0,0,1.5,12.500006,2.5)"
         d="M 21.5 8 A 1.5 1 0 1 1  18.5,8 A 1.5 1 0 1 1  21.5 8 z"
         sodipodi:ry="1"
         sodipodi:rx="1.5"
         sodipodi:cy="8"
         sodipodi:cx="20"
         id="path3423"
         style="opacity:1;fill:#2b2f34;fill-opacity:1;stroke:none;stroke-width:1;stroke-linejoin:round;stroke-miterlimit:4;stroke-dasharray:none;stroke-opacity:1;display:inline"
         sodipodi:type="arc" />
    </g>
    <rect
       style="opacity:0.41762456;fill:#eeeeec;fill-opacity:1;stroke:none;stroke-width:1;stroke-linejoin:round;stroke-miterlimit:4;stroke-dasharray:none;stroke-opacity:1"
       id="rect3528"
       width="0"
       height="0.65685427"
       x="15.66654"
       y="10.264935" />
    <g
       style="display:inline"
       id="g2275"
       transform="matrix(0.4584995,0,0,0.4558344,1.5987663,-0.1095988)">
      <path
         transform="matrix(0.9999997,0,0,1.5,12.500006,2.5)"
         d="M 21.5 8 A 1.5 1 0 1 1  18.5,8 A 1.5 1 0 1 1  21.5 8 z"
         sodipodi:ry="1"
         sodipodi:rx="1.5"
         sodipodi:cy="8"
         sodipodi:cx="20"
         id="path2277"
         style="opacity:1;fill:#2b2f34;fill-opacity:1;stroke:none;stroke-width:1;stroke-linejoin:round;stroke-miterlimit:4;stroke-dasharray:none;stroke-opacity:1;display:inline"
         sodipodi:type="arc" />
    </g>
    <g
       style="display:inline"
       id="g2283"
       transform="matrix(0.4584995,0,0,0.4558344,2.5987662,-1.1095988)">
      <path
         transform="matrix(0.9999997,0,0,1.5,12.500006,2.5)"
         d="M 21.5 8 A 1.5 1 0 1 1  18.5,8 A 1.5 1 0 1 1  21.5 8 z"
         sodipodi:ry="1"
         sodipodi:rx="1.5"
         sodipodi:cy="8"
         sodipodi:cx="20"
         id="path2285"
         style="opacity:1;fill:#2b2f34;fill-opacity:1;stroke:none;stroke-width:1;stroke-linejoin:round;stroke-miterlimit:4;stroke-dasharray:none;stroke-opacity:1;display:inline"
         sodipodi:type="arc" />
    </g>
    <g
       style="display:inline"
       id="g2291"
       transform="matrix(0.4584995,0,0,0.4558344,1.5987662,1.8904012)">
      <path
         transform="matrix(0.9999997,0,0,1.5,12.500006,2.5)"
         d="M 21.5 8 A 1.5 1 0 1 1  18.5,8 A 1.5 1 0 1 1  21.5 8 z"
         sodipodi:ry="1"
         sodipodi:rx="1.5"
         sodipodi:cy="8"
         sodipodi:cx="20"
         id="path2293"
         style="opacity:1;fill:#2b2f34;fill-opacity:1;stroke:none;stroke-width:1;stroke-linejoin:round;stroke-miterlimit:4;stroke-dasharray:none;stroke-opacity:1;display:inline"
         sodipodi:type="arc" />
    </g>
    <g
       style="display:inline"
       id="g2299"
       transform="matrix(0.4584995,0,0,0.4558344,2.5987662,0.8904012)">
      <path
         transform="matrix(0.9999997,0,0,1.5,12.500006,2.5)"
         d="M 21.5 8 A 1.5 1 0 1 1  18.5,8 A 1.5 1 0 1 1  21.5 8 z"
         sodipodi:ry="1"
         sodipodi:rx="1.5"
         sodipodi:cy="8"
         sodipodi:cx="20"
         id="path2301"
         style="opacity:1;fill:#2b2f34;fill-opacity:1;stroke:none;stroke-width:1;stroke-linejoin:round;stroke-miterlimit:4;stroke-dasharray:none;stroke-opacity:1;display:inline"
         sodipodi:type="arc" />
    </g>
    <g
       style="display:inline"
       id="g2307"
       transform="matrix(0.4584995,0,0,0.4558344,3.5987662,-0.1095988)">
      <path
         transform="matrix(0.9999997,0,0,1.5,12.500006,2.5)"
         d="M 21.5 8 A 1.5 1 0 1 1  18.5,8 A 1.5 1 0 1 1  21.5 8 z"
         sodipodi:ry="1"
         sodipodi:rx="1.5"
         sodipodi:cy="8"
         sodipodi:cx="20"
         id="path2309"
         style="opacity:1;fill:#2b2f34;fill-opacity:1;stroke:none;stroke-width:1;stroke-linejoin:round;stroke-miterlimit:4;stroke-dasharray:none;stroke-opacity:1;display:inline"
         sodipodi:type="arc" />
    </g>
    <g
       style="display:inline"
       id="g2396"
       transform="matrix(0.5999997,0,0,0.6,-6.0999922,-1.3)">
      <path
         transform="matrix(0.6666667,0,0,1,12.666666,5)"
         d="M 21.5 8 A 1.5 1 0 1 1  18.5,8 A 1.5 1 0 1 1  21.5 8 z"
         sodipodi:ry="1"
         sodipodi:rx="1.5"
         sodipodi:cy="8"
         sodipodi:cx="20"
         id="path2398"
         style="opacity:1;fill:#2b2f34;fill-opacity:1;stroke:none;stroke-width:1;stroke-linejoin:round;stroke-miterlimit:4;stroke-dasharray:none;stroke-opacity:1;display:inline"
         sodipodi:type="arc" />
    </g>
    <g
       style="display:inline"
       id="g2404"
       transform="matrix(0.5999997,0,0,0.6,-3.0999922,-1.3)">
      <path
         transform="matrix(0.6666667,0,0,1,12.666666,5)"
         d="M 21.5 8 A 1.5 1 0 1 1  18.5,8 A 1.5 1 0 1 1  21.5 8 z"
         sodipodi:ry="1"
         sodipodi:rx="1.5"
         sodipodi:cy="8"
         sodipodi:cx="20"
         id="path2406"
         style="opacity:1;fill:#2b2f34;fill-opacity:1;stroke:none;stroke-width:1;stroke-linejoin:round;stroke-miterlimit:4;stroke-dasharray:none;stroke-opacity:1;display:inline"
         sodipodi:type="arc" />
    </g>
  </g>
</svg>
