<?xml version="1.0" encoding="UTF-8" standalone="no"?>
<!-- Created with Inkscape (http://www.inkscape.org/) -->
<svg
   xmlns:dc="http://purl.org/dc/elements/1.1/"
   xmlns:cc="http://web.resource.org/cc/"
   xmlns:rdf="http://www.w3.org/1999/02/22-rdf-syntax-ns#"
   xmlns:svg="http://www.w3.org/2000/svg"
   xmlns="http://www.w3.org/2000/svg"
   xmlns:xlink="http://www.w3.org/1999/xlink"
   xmlns:sodipodi="http://sodipodi.sourceforge.net/DTD/sodipodi-0.dtd"
   xmlns:inkscape="http://www.inkscape.org/namespaces/inkscape"
   width="24"
   height="24"
   id="svg2160"
   sodipodi:version="0.32"
   inkscape:version="0.45.1"
   sodipodi:docbase="/storage/Development/Art/Tango/Players/iriver_T20/24x24"
   sodipodi:docname="multimedia-player-iriver-t20-red.svg"
   inkscape:output_extension="org.inkscape.output.svg.inkscape"
   inkscape:export-filename="/storage/Development/Art/Tango/Players/iriver_T20/24x24/multimedia-player-iriver-t20-red.png"
   inkscape:export-xdpi="90"
   inkscape:export-ydpi="90"
   version="1.0">
  <defs
     id="defs2162">
    <linearGradient
       id="linearGradient3990">
      <stop
         id="stop3992"
         offset="0"
         style="stop-color:#ffffff;stop-opacity:1;" />
      <stop
         id="stop3994"
         offset="1"
         style="stop-color:#ffffff;stop-opacity:0.39215687" />
    </linearGradient>
    <linearGradient
       id="linearGradient3481">
      <stop
         style="stop-color:#ffffff;stop-opacity:0.58823532"
         offset="0"
         id="stop3484" />
      <stop
         style="stop-color:#ffffff;stop-opacity:0"
         offset="1"
         id="stop3486" />
    </linearGradient>
    <linearGradient
       inkscape:collect="always"
       id="linearGradient3422">
      <stop
         style="stop-color:#babdb6;stop-opacity:1"
         offset="0"
         id="stop3424" />
      <stop
         style="stop-color:#ffffff;stop-opacity:0;"
         offset="1"
         id="stop3426" />
    </linearGradient>
    <linearGradient
       id="linearGradient3389"
       inkscape:collect="always">
      <stop
         id="stop3391"
         offset="0"
         style="stop-color:#eeeeec;stop-opacity:1;" />
      <stop
         id="stop3393"
         offset="1"
         style="stop-color:#eeeeec;stop-opacity:0.29411766" />
    </linearGradient>
    <linearGradient
       id="linearGradient3383">
      <stop
         id="stop3385"
         offset="0"
         style="stop-color:#ffffff;stop-opacity:1" />
      <stop
         id="stop3387"
         offset="1"
         style="stop-color:#ffffff;stop-opacity:0;" />
    </linearGradient>
    <linearGradient
       inkscape:collect="always"
       id="linearGradient3441">
      <stop
         style="stop-color:#d3d7cf;stop-opacity:1"
         offset="0"
         id="stop3443" />
      <stop
         style="stop-color:#888a85;stop-opacity:0"
         offset="1"
         id="stop3445" />
    </linearGradient>
    <radialGradient
       inkscape:collect="always"
       xlink:href="#linearGradient3441"
       id="radialGradient3740"
       gradientUnits="userSpaceOnUse"
       gradientTransform="matrix(-4.4311925e-8,0.5888129,-1.2791758,-9.6266215e-8,70.570519,29.192404)"
       cx="22.153694"
       cy="42.638229"
       fx="14.969233"
       fy="43.460312"
       r="4.7592001" />
    <linearGradient
       id="linearGradient3356"
       inkscape:collect="always">
      <stop
         id="stop3358"
         offset="0"
         style="stop-color:#555753;stop-opacity:1" />
      <stop
         id="stop3360"
         offset="1"
         style="stop-color:#2e3436;stop-opacity:1" />
    </linearGradient>
    <linearGradient
       inkscape:collect="always"
       id="linearGradient3340">
      <stop
         style="stop-color:#d3d7cf;stop-opacity:1"
         offset="0"
         id="stop3342" />
      <stop
         style="stop-color:#2e3436;stop-opacity:1"
         offset="1"
         id="stop3344" />
    </linearGradient>
    <linearGradient
       id="linearGradient3332">
      <stop
         id="stop3334"
         offset="0"
         style="stop-color:#ffffff;stop-opacity:0" />
      <stop
         style="stop-color:#ffffff;stop-opacity:0;"
         offset="0.5"
         id="stop3338" />
      <stop
         id="stop3336"
         offset="1"
         style="stop-color:#ffffff;stop-opacity:0" />
    </linearGradient>
    <linearGradient
       inkscape:collect="always"
       id="linearGradient3433">
      <stop
         style="stop-color:#eeeeec;stop-opacity:1"
         offset="0"
         id="stop3435" />
      <stop
         style="stop-color:#000000;stop-opacity:1"
         offset="1"
         id="stop3437" />
    </linearGradient>
    <linearGradient
       id="linearGradient3469">
      <stop
         style="stop-color:#888a85;stop-opacity:1"
         offset="0"
         id="stop3471" />
      <stop
         style="stop-color:#2e3436;stop-opacity:1"
         offset="1"
         id="stop3473" />
    </linearGradient>
    <linearGradient
       inkscape:collect="always"
       id="linearGradient3649">
      <stop
         style="stop-color:#ffffff;stop-opacity:1"
         offset="0"
         id="stop3651" />
      <stop
         style="stop-color:#eeeeec;stop-opacity:0.19607843"
         offset="1"
         id="stop3653" />
    </linearGradient>
    <linearGradient
       inkscape:collect="always"
       id="linearGradient3497">
      <stop
         style="stop-color:#555753;stop-opacity:1"
         offset="0"
         id="stop3499" />
      <stop
         style="stop-color:#2e3436;stop-opacity:1"
         offset="1"
         id="stop3501" />
    </linearGradient>
    <linearGradient
       inkscape:collect="always"
       id="linearGradient3704">
      <stop
         style="stop-color:#eeeeec;stop-opacity:1"
         offset="0"
         id="stop3706" />
      <stop
         style="stop-color:#2e3436;stop-opacity:1"
         offset="1"
         id="stop3708" />
    </linearGradient>
    <linearGradient
       inkscape:collect="always"
       id="linearGradient3453">
      <stop
         style="stop-color:#eeeeec;stop-opacity:1;"
         offset="0"
         id="stop3455" />
      <stop
         style="stop-color:#eeeeec;stop-opacity:0;"
         offset="1"
         id="stop3457" />
    </linearGradient>
    <linearGradient
       inkscape:collect="always"
       id="linearGradient3479">
      <stop
         style="stop-color:#babdb6;stop-opacity:1"
         offset="0"
         id="stop3481" />
      <stop
         style="stop-color:#ffffff;stop-opacity:0"
         offset="1"
         id="stop3483" />
    </linearGradient>
    <linearGradient
       inkscape:collect="always"
       id="linearGradient3505">
      <stop
         style="stop-color:#555753;stop-opacity:1"
         offset="0"
         id="stop3507" />
      <stop
         style="stop-color:#2e3436;stop-opacity:1"
         offset="1"
         id="stop3509" />
    </linearGradient>
    <linearGradient
       inkscape:collect="always"
       id="linearGradient3626">
      <stop
         style="stop-color:#000000;stop-opacity:1;"
         offset="0"
         id="stop3628" />
      <stop
         style="stop-color:#000000;stop-opacity:0;"
         offset="1"
         id="stop3630" />
    </linearGradient>
    <linearGradient
       inkscape:collect="always"
       id="linearGradient3666">
      <stop
         style="stop-color:#d3d7cf;stop-opacity:1"
         offset="0"
         id="stop3668" />
      <stop
         style="stop-color:#babdb6;stop-opacity:1"
         offset="1"
         id="stop3670" />
    </linearGradient>
    <linearGradient
       inkscape:collect="always"
       id="linearGradient4101">
      <stop
         style="stop-color:#000000;stop-opacity:1;"
         offset="0"
         id="stop4103" />
      <stop
         style="stop-color:#000000;stop-opacity:0;"
         offset="1"
         id="stop4105" />
    </linearGradient>
    <linearGradient
       inkscape:collect="always"
       id="linearGradient3323">
      <stop
         style="stop-color:#204a87;stop-opacity:1"
         offset="0"
         id="stop3325" />
      <stop
         style="stop-color:#729fcf;stop-opacity:1"
         offset="1"
         id="stop3327" />
    </linearGradient>
    <linearGradient
       inkscape:collect="always"
       id="linearGradient3315">
      <stop
         style="stop-color:#555753;stop-opacity:1"
         offset="0"
         id="stop3317" />
      <stop
         style="stop-color:#2e3436;stop-opacity:1"
         offset="1"
         id="stop3319" />
    </linearGradient>
    <linearGradient
       id="linearGradient3229">
      <stop
         style="stop-color:#ffffff;stop-opacity:1;"
         offset="0"
         id="stop3231" />
      <stop
         style="stop-color:#ffffff;stop-opacity:0.49803922;"
         offset="1"
         id="stop3233" />
    </linearGradient>
    <linearGradient
       inkscape:collect="always"
       id="linearGradient3208">
      <stop
         style="stop-color:#ffffff;stop-opacity:1;"
         offset="0"
         id="stop3210" />
      <stop
         style="stop-color:#ffffff;stop-opacity:0;"
         offset="1"
         id="stop3212" />
    </linearGradient>
    <linearGradient
       inkscape:collect="always"
       id="linearGradient3194">
      <stop
         style="stop-color:#888a85;stop-opacity:1"
         offset="0"
         id="stop3196" />
      <stop
         style="stop-color:#2e3436;stop-opacity:1"
         offset="1"
         id="stop3198" />
    </linearGradient>
    <linearGradient
       inkscape:collect="always"
       id="linearGradient3178">
      <stop
         style="stop-color:#2e3436;stop-opacity:1;"
         offset="0"
         id="stop3180" />
      <stop
         style="stop-color:#555753;stop-opacity:1"
         offset="1"
         id="stop3182" />
    </linearGradient>
    <linearGradient
       inkscape:collect="always"
       id="linearGradient3161">
      <stop
         style="stop-color:#555753;stop-opacity:1"
         offset="0"
         id="stop3163" />
      <stop
         style="stop-color:#888a85;stop-opacity:1"
         offset="1"
         id="stop3165" />
    </linearGradient>
    <linearGradient
       inkscape:collect="always"
       id="linearGradient3153">
      <stop
         style="stop-color:#555753;stop-opacity:1"
         offset="0"
         id="stop3155" />
      <stop
         style="stop-color:#888a85;stop-opacity:1"
         offset="1"
         id="stop3157" />
    </linearGradient>
    <linearGradient
       inkscape:collect="always"
       xlink:href="#linearGradient4101"
       id="linearGradient11865"
       gradientUnits="userSpaceOnUse"
       gradientTransform="matrix(0.952381,0,0,1,1.1428571,-8.5)"
       x1="24"
       y1="38"
       x2="24"
       y2="41" />
    <radialGradient
       inkscape:collect="always"
       xlink:href="#linearGradient4101"
       id="radialGradient11867"
       gradientUnits="userSpaceOnUse"
       gradientTransform="matrix(-1.883825,0,0,1.883825,88.77213,-42.08535)"
       cx="45"
       cy="38"
       fx="45"
       fy="38"
       r="1.5" />
    <radialGradient
       inkscape:collect="always"
       xlink:href="#linearGradient4101"
       id="radialGradient11869"
       gradientUnits="userSpaceOnUse"
       gradientTransform="matrix(1.883825,0,0,1.883825,-40.77213,-42.08535)"
       cx="45"
       cy="38"
       fx="45"
       fy="38"
       r="1.5" />
    <linearGradient
       inkscape:collect="always"
       xlink:href="#linearGradient3666"
       id="linearGradient11891"
       gradientUnits="userSpaceOnUse"
       gradientTransform="matrix(0.75,0,0,1,2.25,0)"
       x1="9"
       y1="19"
       x2="11"
       y2="22" />
    <radialGradient
       inkscape:collect="always"
       xlink:href="#linearGradient3422"
       id="radialGradient5007"
       gradientUnits="userSpaceOnUse"
       gradientTransform="matrix(0.3630692,0.2040106,-7.5386569e-2,0.1364917,7.8276775,7.4156492)"
       cx="9.4331875"
       cy="67.936577"
       fx="7.6304936"
       fy="64.277374"
       r="9.796875" />
    <linearGradient
       inkscape:collect="always"
       xlink:href="#linearGradient3389"
       id="linearGradient5009"
       gradientUnits="userSpaceOnUse"
       gradientTransform="matrix(0.486025,0,0,0.5013565,1.0963974,-1.4064717)"
       x1="27.046633"
       y1="31.068466"
       x2="24.042566"
       y2="44.744698" />
    <radialGradient
       inkscape:collect="always"
       xlink:href="#linearGradient3383"
       id="radialGradient5012"
       gradientUnits="userSpaceOnUse"
       gradientTransform="matrix(0.3100106,0.2384697,-5.5220704e-2,7.6679544e-2,4.7487293,14.891602)"
       cx="8.5104361"
       cy="20.591095"
       fx="10.693726"
       fy="22.914587"
       r="10.483515" />
    <radialGradient
       inkscape:collect="always"
       xlink:href="#linearGradient3340"
       id="radialGradient5027"
       gradientUnits="userSpaceOnUse"
       gradientTransform="matrix(0,0.421634,-0.4197303,0,23.587722,7.5031032)"
       cx="19.756857"
       cy="30.102192"
       fx="19.756857"
       fy="30.102192"
       r="12.534315" />
    <linearGradient
       inkscape:collect="always"
       xlink:href="#linearGradient3497"
       id="linearGradient5029"
       gradientUnits="userSpaceOnUse"
       gradientTransform="matrix(0.3822858,-0.3585336,0.3285259,0.4142414,-9.3492917,10.030361)"
       x1="19.817204"
       y1="27.31498"
       x2="12.502855"
       y2="39.791191" />
    <radialGradient
       inkscape:collect="always"
       xlink:href="#linearGradient3626"
       id="radialGradient5040"
       gradientUnits="userSpaceOnUse"
       gradientTransform="matrix(1,0,0,0.1458333,0,34.59375)"
       cx="24"
       cy="40.5"
       fx="24"
       fy="40.5"
       r="24" />
    <linearGradient
       inkscape:collect="always"
       xlink:href="#linearGradient3505"
       id="linearGradient2411"
       gradientUnits="userSpaceOnUse"
       gradientTransform="matrix(0.3362022,-0.3705912,0.3276705,0.3938304,-1.9813426,2.7382576)"
       x1="16.97543"
       y1="33"
       x2="10.305349"
       y2="42.777863" />
    <radialGradient
       inkscape:collect="always"
       xlink:href="#linearGradient3704"
       id="radialGradient2414"
       gradientUnits="userSpaceOnUse"
       gradientTransform="matrix(1.3495093,0.3773801,-0.3045414,1.4274039,4.0054821,-24.820081)"
       cx="21.606197"
       cy="38.297729"
       fx="18.682728"
       fy="37.614277"
       r="5.4873896" />
    <linearGradient
       inkscape:collect="always"
       xlink:href="#linearGradient3356"
       id="linearGradient2416"
       gradientUnits="userSpaceOnUse"
       x1="11.15362"
       y1="36.413475"
       x2="25.948906"
       y2="44.372898" />
    <linearGradient
       inkscape:collect="always"
       xlink:href="#linearGradient3649"
       id="linearGradient2418"
       gradientUnits="userSpaceOnUse"
       x1="12.408402"
       y1="36.590809"
       x2="25.416071"
       y2="43.609634" />
    <radialGradient
       inkscape:collect="always"
       xlink:href="#linearGradient3479"
       id="radialGradient2420"
       gradientUnits="userSpaceOnUse"
       gradientTransform="matrix(-8.5861627e-2,0.128437,-0.6954368,-0.4649074,30.203383,49.383309)"
       cx="6.8653107"
       cy="27.699711"
       fx="6.8653107"
       fy="27.699711"
       r="10.271023" />
    <linearGradient
       inkscape:collect="always"
       xlink:href="#linearGradient3453"
       id="linearGradient2422"
       gradientUnits="userSpaceOnUse"
       x1="21.940926"
       y1="34.081852"
       x2="14.677274"
       y2="44.691303" />
    <radialGradient
       inkscape:collect="always"
       xlink:href="#linearGradient3626"
       id="radialGradient2424"
       gradientUnits="userSpaceOnUse"
       gradientTransform="matrix(1,0,0,0.1458333,0,34.59375)"
       cx="24"
       cy="40.5"
       fx="34.868992"
       fy="39.556511"
       r="24" />
    <linearGradient
       inkscape:collect="always"
       xlink:href="#linearGradient3208"
       id="linearGradient2359"
       gradientUnits="userSpaceOnUse"
       gradientTransform="matrix(0.4193548,0,0,0.4615385,2.0645158,-2.8461546)"
       x1="21.985907"
       y1="14.015255"
       x2="23.992373"
       y2="26.984745" />
    <linearGradient
       inkscape:collect="always"
       xlink:href="#linearGradient3161"
       id="linearGradient2380"
       gradientUnits="userSpaceOnUse"
       x1="38.766346"
       y1="14.795614"
       x2="42.066467"
       y2="27.686766"
       gradientTransform="matrix(0.4662218,0,0,0.4654355,0.9262846,-3.3864046)" />
    <linearGradient
       inkscape:collect="always"
       xlink:href="#linearGradient3178"
       id="linearGradient2383"
       gradientUnits="userSpaceOnUse"
       x1="44.09734"
       y1="13"
       x2="-13.980821"
       y2="20.10911"
       gradientTransform="matrix(0.4662218,0,0,0.4654355,0.9262846,-3.3864046)" />
    <linearGradient
       inkscape:collect="always"
       xlink:href="#linearGradient3153"
       id="linearGradient2386"
       gradientUnits="userSpaceOnUse"
       x1="-20.012493"
       y1="21.015255"
       x2="41.983696"
       y2="27.686766"
       gradientTransform="matrix(0.4662218,0,0,0.4654355,0.9262846,-3.3864046)" />
    <linearGradient
       inkscape:collect="always"
       xlink:href="#linearGradient3194"
       id="linearGradient2390"
       gradientUnits="userSpaceOnUse"
       x1="24"
       y1="15.90587"
       x2="26.977339"
       y2="22.979937"
       gradientTransform="matrix(0.4662218,0,0,0.491237,0.9262846,-3.657283)" />
    <linearGradient
       inkscape:collect="always"
       xlink:href="#linearGradient3315"
       id="linearGradient2392"
       gradientUnits="userSpaceOnUse"
       x1="27.046925"
       y1="17.02515"
       x2="28.780621"
       y2="21.494915"
       gradientTransform="matrix(0.4662218,0,0,0.491237,0.9262846,-3.657283)" />
    <linearGradient
       inkscape:collect="always"
       xlink:href="#linearGradient3323"
       id="linearGradient3376"
       gradientUnits="userSpaceOnUse"
       x1="23.954235"
       y1="17.5"
       x2="25"
       y2="23.5"
       gradientTransform="matrix(0.4506513,0,0,0.3320341,1.7402303,-0.3105972)" />
    <radialGradient
       inkscape:collect="always"
       xlink:href="#linearGradient3433"
       id="radialGradient3385"
       gradientUnits="userSpaceOnUse"
       gradientTransform="matrix(0.2226569,0.2174912,-0.261642,0.2669534,12.614709,8.1627553)"
       cx="17.258368"
       cy="19.512949"
       fx="12.999953"
       fy="19.740644"
       r="10.483515" />
  </defs>
  <sodipodi:namedview
     id="base"
     pagecolor="#ffffff"
     bordercolor="#666666"
     borderopacity="1.0"
     inkscape:pageopacity="0.0"
     inkscape:pageshadow="2"
     inkscape:zoom="16.083333"
     inkscape:cx="27.335704"
     inkscape:cy="13.175451"
     inkscape:current-layer="layer1"
     showgrid="true"
     inkscape:grid-bbox="true"
     inkscape:document-units="px"
     gridspacingx="0.5px"
     gridspacingy="0.5px"
     gridempspacing="2"
     inkscape:grid-points="true"
     inkscape:window-width="1400"
     inkscape:window-height="981"
     inkscape:window-x="0"
     inkscape:window-y="25"
     showguides="true"
     inkscape:guide-bbox="true"
     width="24px"
     height="24px" />
  <metadata
     id="metadata2165">
    <rdf:RDF>
      <cc:Work
         rdf:about="">
        <dc:format>image/svg+xml</dc:format>
        <dc:type
           rdf:resource="http://purl.org/dc/dcmitype/StillImage" />
        <dc:title>iriver T20 (red)</dc:title>
        <dc:subject>
          <rdf:Bag>
            <rdf:li>multimedia player iriver T20 portable audio</rdf:li>
          </rdf:Bag>
        </dc:subject>
        <dc:date>2007-09-12</dc:date>
        <dc:creator>
          <cc:Agent>
            <dc:title>André Wyrwa</dc:title>
          </cc:Agent>
        </dc:creator>
        <cc:license
           rdf:resource="http://creativecommons.org/licenses/GPL/2.0/" />
      </cc:Work>
      <cc:License
         rdf:about="http://creativecommons.org/licenses/GPL/2.0/">
        <cc:permits
           rdf:resource="http://web.resource.org/cc/Reproduction" />
        <cc:permits
           rdf:resource="http://web.resource.org/cc/Distribution" />
        <cc:requires
           rdf:resource="http://web.resource.org/cc/Notice" />
        <cc:permits
           rdf:resource="http://web.resource.org/cc/DerivativeWorks" />
        <cc:requires
           rdf:resource="http://web.resource.org/cc/ShareAlike" />
        <cc:requires
           rdf:resource="http://web.resource.org/cc/SourceCode" />
      </cc:License>
    </rdf:RDF>
  </metadata>
  <g
     id="layer1"
     inkscape:label="Layer 1"
     inkscape:groupmode="layer">
    <g
       id="g3543"
       style="opacity:0.65"
       transform="matrix(0.4782609,0,0,0.6666662,0.5217391,-8.6666504)">
      <path
         sodipodi:nodetypes="ccccc"
         id="rect4094"
         d="M 4,29.5 L 44,29.5 L 44,32.5 L 4,32.5 L 4,29.5 z "
         style="opacity:1;fill:url(#linearGradient11865);fill-opacity:1;stroke:none;stroke-width:0.25;stroke-linecap:round;stroke-linejoin:round;stroke-miterlimit:4;stroke-opacity:1" />
      <path
         sodipodi:nodetypes="ccccc"
         id="path2573"
         d="M 4,29.5 L 1,29.5 L 1,32.5 L 4,32.5 L 4,29.5 z "
         style="opacity:1;fill:url(#radialGradient11867);fill-opacity:1;stroke:none;stroke-width:0.25;stroke-linecap:round;stroke-linejoin:round;stroke-miterlimit:4;stroke-opacity:1" />
      <path
         sodipodi:nodetypes="ccccc"
         id="path3566"
         d="M 44,29.5 L 47,29.5 L 47,32.5 L 44,32.5 L 44,29.5 z "
         style="opacity:1;fill:url(#radialGradient11869);fill-opacity:1;stroke:none;stroke-width:0.25;stroke-linecap:round;stroke-linejoin:round;stroke-miterlimit:4;stroke-opacity:1" />
    </g>
    <path
       style="fill:none;fill-rule:evenodd;stroke:#000000;stroke-width:1px;stroke-linecap:butt;stroke-linejoin:miter;stroke-opacity:1"
       d="M 10.499999,14.499999 C 6.4999996,15.499999 1.1935479,14.308077 2.9425944,11.262618"
       id="path3732"
       sodipodi:nodetypes="cc" />
    <path
       style="fill:none;fill-rule:evenodd;stroke:#000000;stroke-width:1px;stroke-linecap:butt;stroke-linejoin:miter;stroke-opacity:1"
       d="M 2.9999996,15.999999 C -0.50000044,13.499999 3.5877564,10.974762 3.5877564,10.974762"
       id="path3517"
       sodipodi:nodetypes="cc" />
    <path
       style="fill:url(#linearGradient2390);fill-opacity:1;stroke:url(#linearGradient2392);stroke-width:1.00000012;stroke-linecap:round;stroke-linejoin:round;stroke-miterlimit:4;stroke-dashoffset:0;stroke-opacity:1"
       d="M 2,1.5 L 20.5,1.5 C 21.5,1.5 22.5,2.5 22.5,3.5 L 22.5,9.5 C 22.5,10.5 21.5,11.5 20.5,11.5 L 2,11.5 C 2,11.5 1.5,10.5 1.5,10.5 L 1.5,2.5 C 1.5,2.5 2,1.5 2,1.5 z "
       id="rect2168"
       sodipodi:nodetypes="ccccccccc" />
    <rect
       style="fill:#555753;fill-opacity:1;stroke:none;stroke-width:1;stroke-linecap:round;stroke-linejoin:round;stroke-miterlimit:4;stroke-dasharray:none;stroke-dashoffset:0;stroke-opacity:1"
       id="rect3151"
       width="17"
       height="3"
       x="1.9999995"
       y="4.999999" />
    <path
       style="fill:url(#linearGradient2386);fill-opacity:1;stroke:none;stroke-width:1;stroke-linecap:round;stroke-linejoin:round;stroke-miterlimit:4;stroke-dashoffset:0;stroke-opacity:1"
       d="M 1.9999996,7.9999993 L 18.999999,7.9999993 L 20.499999,9.4999993 L 2.9999996,9.4999993 L 1.9999996,7.9999993 z "
       id="rect3143"
       sodipodi:nodetypes="ccccc" />
    <path
       style="fill:url(#linearGradient2383);fill-opacity:1;stroke:none;stroke-width:1;stroke-linecap:round;stroke-linejoin:round;stroke-miterlimit:4;stroke-dashoffset:0;stroke-opacity:1"
       d="M 1.9999996,4.9999993 L 18.999999,4.9999993 L 20.499999,3.4999993 L 2.9999996,3.4999993 L 1.9999996,4.9999993 z "
       id="path3147"
       sodipodi:nodetypes="ccccc" />
    <path
       style="fill:url(#linearGradient2380);fill-opacity:1;fill-rule:evenodd;stroke:none;stroke-width:1px;stroke-linecap:butt;stroke-linejoin:miter;stroke-opacity:1"
       d="M 18.999999,7.9999993 L 20.499999,9.4999993 L 20.499999,3.4999993 L 18.999999,4.9999993 L 18.999999,7.9999993 z "
       id="path3149"
       sodipodi:nodetypes="ccccc" />
    <path
       sodipodi:nodetypes="ccccccccccccc"
       style="opacity:0.85;fill:#ef2929;fill-opacity:1;stroke:none;stroke-width:0.50000006;stroke-linecap:round;stroke-linejoin:round;stroke-miterlimit:4;stroke-dasharray:none;stroke-dashoffset:0;stroke-opacity:1"
       d="M 2.5,2 C 2.3707525,2 1.9799659,3.2176616 2,3 L 1.9999996,3.4999993 L 20.499999,3.4999993 C 20.499999,3.4999993 20.499999,9.4999993 20.499999,9.4999993 L 1.9999996,9.4999993 L 2,10 C 2,10.142877 2.3707524,11 2.5,11 L 20.499999,10.999999 C 21.499999,10.999999 21.999999,10.499999 21.999999,9.4999993 L 21.999999,3.4999993 C 21.999999,2.4999993 21.499999,1.9999993 20.499999,1.9999993 L 2.5,2 z "
       id="path3338" />
    <path
       sodipodi:nodetypes="ccccccccc"
       id="path3188"
       d="M 2.8353137,2.4999994 L 2.5080059,2.8332088 L 2.5080059,10.163809 L 2.8353137,10.497019 L 20.837242,10.497019 C 21.128718,10.53719 21.491858,10.163809 21.491858,9.8306003 L 21.491858,3.1664176 C 21.491858,2.8332088 21.16455,2.4999994 20.837242,2.4999994 L 2.8353137,2.4999994 z "
       style="opacity:0.35;fill:none;fill-opacity:1;stroke:#ffffff;stroke-width:1.00000012;stroke-linecap:round;stroke-linejoin:round;stroke-miterlimit:4;stroke-dashoffset:0;stroke-opacity:1" />
    <rect
       style="fill:#2e3436;fill-opacity:1;stroke:none;stroke-width:1;stroke-linecap:round;stroke-linejoin:round;stroke-miterlimit:4;stroke-dasharray:none;stroke-dashoffset:0;stroke-opacity:1"
       id="rect3192"
       width="13"
       height="3"
       x="4.9999995"
       y="4.999999"
       ry="0.50000006"
       rx="0.49999997" />
    <rect
       style="fill:url(#linearGradient3376);fill-opacity:1;stroke:none;stroke-width:1.00000012;stroke-linecap:round;stroke-linejoin:round;stroke-miterlimit:4;stroke-dasharray:none;stroke-dashoffset:0;stroke-opacity:0.39215686"
       id="rect3202"
       width="9.0130262"
       height="1.9922045"
       x="8.499999"
       y="5.499999"
       rx="0.5"
       ry="0.50000006" />
    <path
       style="opacity:0.25;fill:url(#linearGradient2359);fill-opacity:1;stroke:none;stroke-width:1;stroke-linecap:round;stroke-linejoin:round;stroke-miterlimit:4;stroke-dashoffset:0;stroke-opacity:1"
       d="M 5.209677,4.9999993 L 17.790321,4.9999993 C 17.906483,4.9999993 17.999999,5.1029223 17.999999,5.2307682 L 17.999999,5.6923067 C 13.979122,6.1229117 10.661289,7.7692303 4.9999996,7.9999993 L 4.9999996,5.2307682 C 4.9999996,5.1029223 5.0935157,4.9999993 5.209677,4.9999993 z "
       id="path3331"
       sodipodi:nodetypes="ccccccc" />
    <g
       id="g4402"
       transform="matrix(0,-0.1577326,0.25,0,-5.5000004,10.339186)"
       style="fill:#888a85;fill-opacity:1;stroke:none;stroke-width:0.4477379;stroke-miterlimit:4;stroke-dasharray:none;stroke-opacity:0.49803922">
      <path
         id="path4399"
         d="M 18.152343,37 L 19.285156,37 L 19.285156,38.748047 L 19.996093,38.748047 L 19.996093,39.1875 L 18,39.1875 L 18,38.748047 L 18.71289,38.748047 L 18.71289,37.439453 L 18.152343,37.439453 L 18.152343,37"
         style="font-size:4px;font-style:normal;font-weight:normal;fill:#888a85;fill-opacity:1;stroke:none;stroke-width:0.4477379;stroke-linecap:butt;stroke-linejoin:miter;stroke-miterlimit:4;stroke-dasharray:none;stroke-opacity:0.49803922;font-family:Bitstream Vera Sans Mono" />
      <path
         id="path4397"
         d="M 18.71289,36 L 19.285156,36 L 19.285156,36.667969 L 18.71289,36.667969 L 18.71289,36"
         style="font-size:4px;font-style:normal;font-weight:normal;fill:#888a85;fill-opacity:1;stroke:none;stroke-width:0.4477379;stroke-linecap:butt;stroke-linejoin:miter;stroke-miterlimit:4;stroke-dasharray:none;stroke-opacity:0.49803922;font-family:Bitstream Vera Sans Mono" />
      <path
         id="path4395"
         d="M 20.580078,39.087891 L 20.580078,37.400391 L 20,37.400391 L 20,36.960938 L 21.152344,36.960938 L 21.152344,39.087891 C 21.152342,39.259767 21.179035,39.381511 21.232422,39.453125 C 21.285806,39.52474 21.376301,39.560548 21.503906,39.560547 L 21.960937,39.560547 L 21.960937,40 L 21.34375,40 C 21.071613,40 20.876301,39.929688 20.757813,39.789063 C 20.639322,39.648438 20.580077,39.414715 20.580078,39.087891"
         style="font-size:4px;font-style:normal;font-weight:normal;fill:#888a85;fill-opacity:1;stroke:none;stroke-width:0.4477379;stroke-linecap:butt;stroke-linejoin:miter;stroke-miterlimit:4;stroke-dasharray:none;stroke-opacity:0.49803922;font-family:Bitstream Vera Sans Mono" />
      <path
         id="path4393"
         d="M 22.15625,37 L 23.289063,37 L 23.289063,38.748047 L 24,38.748047 L 24,39.1875 L 22.003907,39.1875 L 22.003907,38.748047 L 22.716797,38.748047 L 22.716797,37.439453 L 22.15625,37.439453 L 22.15625,37"
         style="font-size:4px;font-style:normal;font-weight:normal;fill:#888a85;fill-opacity:1;stroke:none;stroke-width:0.4477379;stroke-linecap:butt;stroke-linejoin:miter;stroke-miterlimit:4;stroke-dasharray:none;stroke-opacity:0.49803922;font-family:Bitstream Vera Sans Mono" />
      <path
         id="path4391"
         d="M 22.716797,36 L 23.289063,36 L 23.289063,36.667969 L 22.716797,36.667969 L 22.716797,36"
         style="font-size:4px;font-style:normal;font-weight:normal;fill:#888a85;fill-opacity:1;stroke:none;stroke-width:0.4477379;stroke-linecap:butt;stroke-linejoin:miter;stroke-miterlimit:4;stroke-dasharray:none;stroke-opacity:0.49803922;font-family:Bitstream Vera Sans Mono" />
      <path
         id="path4389"
         d="M 26.095703,37 L 25.40039,39.1875 L 24.695312,39.1875 L 24,37 L 24.580078,37 L 25.046875,38.707032 L 25.515625,37 L 26.095703,37"
         style="font-size:4px;font-style:normal;font-weight:normal;fill:#888a85;fill-opacity:1;stroke:none;stroke-width:0.4477379;stroke-linecap:butt;stroke-linejoin:miter;stroke-miterlimit:4;stroke-dasharray:none;stroke-opacity:0.49803922;font-family:Bitstream Vera Sans Mono" />
      <path
         id="path4387"
         d="M 27.46875,37 C 27.147134,37.000002 26.904947,37.105471 26.71875,37.3125 C 26.532552,37.519533 26.4375,37.830731 26.4375,38.1875 C 26.4375,38.55599 26.526041,38.834636 26.71875,39.03125 C 26.91276,39.226563 27.196614,39.3125 27.5625,39.3125 C 27.716144,39.3125 27.861977,39.308594 28,39.28125 C 28.138018,39.253907 28.273436,39.210938 28.40625,39.15625 L 28.40625,38.625 C 28.266925,38.707032 28.127602,38.77474 28,38.8125 C 27.872394,38.850261 27.725259,38.875 27.59375,38.875 C 27.39453,38.875 27.25651,38.803386 27.15625,38.71875 C 27.055989,38.634115 27.001302,38.515626 27,38.34375 L 28.5,38.34375 L 28.5,38.125 C 28.499998,37.776044 28.398435,37.503909 28.21875,37.3125 C 28.040363,37.119793 27.792967,37.000002 27.46875,37 z M 27.46875,37.46875 C 27.614582,37.468752 27.70703,37.484377 27.78125,37.5625 C 27.856769,37.639324 27.903644,37.75521 27.90625,37.90625 L 27,37.90625 C 27.014322,37.759116 27.078124,37.673179 27.15625,37.59375 C 27.234374,37.513023 27.337238,37.468752 27.46875,37.46875 z "
         style="font-size:4px;font-style:normal;font-weight:normal;fill:#888a85;fill-opacity:1;stroke:none;stroke-width:0.4477379;stroke-linecap:butt;stroke-linejoin:miter;stroke-miterlimit:4;stroke-dasharray:none;stroke-opacity:0.49803922;font-family:Bitstream Vera Sans Mono" />
      <path
         id="text4378"
         d="M 30.679688,37.65625 C 30.617185,37.59896 30.543618,37.555991 30.458985,37.527344 C 30.375649,37.4987 30.283852,37.484377 30.183594,37.484375 C 30.062498,37.484377 29.956379,37.505861 29.865235,37.548828 C 29.775389,37.590496 29.705728,37.651694 29.65625,37.732422 C 29.624999,37.781903 29.602864,37.841798 29.589844,37.912109 C 29.578124,37.982423 29.572265,38.089194 29.572266,38.232422 L 29.572266,39.240234 L 29,39.240234 L 29,37.052734 L 29.572266,37.052734 L 29.572266,37.392578 C 29.628254,37.26758 29.714192,37.171226 29.830078,37.103516 C 29.945962,37.034507 30.081379,37.000002 30.236328,37 C 30.314451,37.000002 30.390623,37.009768 30.464844,37.029297 C 30.540363,37.047528 30.611977,37.074872 30.679688,37.111328 L 30.679688,37.65625"
         style="font-size:4px;font-style:normal;font-weight:normal;fill:#888a85;fill-opacity:1;stroke:none;stroke-width:0.4477379;stroke-linecap:butt;stroke-linejoin:miter;stroke-miterlimit:4;stroke-dasharray:none;stroke-opacity:0.49803922;font-family:Bitstream Vera Sans Mono" />
    </g>
    <rect
       style="fill:#2e3436;fill-opacity:1;stroke:none;stroke-width:0.5;stroke-linecap:round;stroke-linejoin:round;stroke-miterlimit:4;stroke-dasharray:none;stroke-dashoffset:0;stroke-opacity:0.29411765"
       id="rect3662"
       width="1.3986654"
       height="2"
       x="4.9999995"
       y="5.499999"
       rx="0.49999997"
       ry="0.50000006" />
    <g
       id="g3678"
       transform="matrix(0.4662218,0,0,0.6321022,1.1046707,-6.4062491)">
      <rect
         ry="0.79101145"
         rx="1.0724509"
         y="19"
         x="9"
         height="3"
         width="1.5"
         id="rect3664"
         style="opacity:1;fill:url(#linearGradient11891);fill-opacity:1;stroke:none;stroke-width:0.5;stroke-linecap:round;stroke-linejoin:round;stroke-miterlimit:4;stroke-dasharray:none;stroke-dashoffset:0;stroke-opacity:0.29411765" />
      <path
         transform="matrix(0,-0.8276812,1.2081947,0,0,0)"
         style="font-size:1.1151911px;font-style:normal;font-weight:normal;fill:#888a85;fill-opacity:1;stroke:none;stroke-width:1px;stroke-linecap:butt;stroke-linejoin:miter;stroke-opacity:1;font-family:Bitstream Vera Sans"
         d="M -26.278236,7.6628581 L -26.168241,7.6628581 L -26.168241,7.9961086 L -25.768559,7.9961086 L -25.768559,7.6628581 L -25.658564,7.6628581 L -25.658564,8.4758368 L -25.768559,8.4758368 L -25.768559,8.0886781 L -26.168241,8.0886781 L -26.168241,8.4758368 L -26.278236,8.4758368 L -26.278236,7.6628581 M -25.109681,7.7374583 C -25.189545,7.737459 -25.253074,7.7672264 -25.300266,7.8267607 C -25.347095,7.8862962 -25.37051,7.9674306 -25.37051,8.0701642 C -25.37051,8.1725356 -25.347095,8.2534885 -25.300266,8.3130232 C -25.253074,8.3725583 -25.189545,8.4023257 -25.109681,8.4023256 C -25.029818,8.4023257 -24.966653,8.3725583 -24.920186,8.3130232 C -24.873357,8.2534885 -24.849942,8.1725356 -24.849942,8.0701642 C -24.849942,7.9674306 -24.873357,7.8862962 -24.920186,7.8267607 C -24.966653,7.7672264 -25.029818,7.737459 -25.109681,7.7374583 M -25.109681,7.6481559 C -24.995694,7.6481567 -24.904577,7.686455 -24.836329,7.763051 C -24.768082,7.8392854 -24.733958,7.9416564 -24.733958,8.0701642 C -24.733958,8.1983098 -24.768082,8.3006808 -24.836329,8.3772774 C -24.904577,8.4535112 -24.995694,8.491628 -25.109681,8.491628 C -25.224032,8.491628 -25.315513,8.4535112 -25.384123,8.3772774 C -25.45237,8.3010438 -25.486494,8.1986728 -25.486494,8.0701642 C -25.486494,7.9416564 -25.45237,7.8392854 -25.384123,7.763051 C -25.315513,7.686455 -25.224032,7.6481567 -25.109681,7.6481559 M -24.561887,7.6628581 L -24.451893,7.6628581 L -24.451893,8.3832672 L -24.056021,8.3832672 L -24.056021,8.4758368 L -24.561887,8.4758368 L -24.561887,7.6628581 M -23.831132,7.7532496 L -23.831132,8.3854453 L -23.698267,8.3854453 C -23.586095,8.3854454 -23.504053,8.3600341 -23.452141,8.3092115 C -23.399867,8.2583892 -23.37373,8.1781623 -23.373729,8.0685306 C -23.37373,7.9596258 -23.399867,7.8799434 -23.452141,7.8294833 C -23.504053,7.7786615 -23.586095,7.7532503 -23.698267,7.7532496 L -23.831132,7.7532496 M -23.941126,7.6628581 L -23.715148,7.6628581 C -23.557598,7.6628589 -23.441977,7.695712 -23.368284,7.7614175 C -23.294592,7.8267613 -23.257746,7.9291323 -23.257745,8.0685306 C -23.257746,8.2086558 -23.294774,8.3115713 -23.368829,8.3772774 C -23.442885,8.4429837 -23.558324,8.4758368 -23.715148,8.4758368 L -23.941126,8.4758368 L -23.941126,7.6628581"
         id="text3674" />
    </g>
    <path
       sodipodi:type="arc"
       style="opacity:0.35;fill:url(#radialGradient2424);fill-opacity:1;stroke:none;stroke-width:1;stroke-miterlimit:4;stroke-dasharray:none;stroke-opacity:1"
       id="path3742"
       sodipodi:cx="24"
       sodipodi:cy="40.5"
       sodipodi:rx="24"
       sodipodi:ry="3.5"
       d="M 48 40.5 A 24 3.5 0 1 1  0,40.5 A 24 3.5 0 1 1  48 40.5 z"
       transform="matrix(0.1979166,0,0,0.5714285,11.999999,-7.1428528)" />
    <path
       style="fill:#2e3436;fill-opacity:1;fill-rule:evenodd;stroke:url(#linearGradient2411);stroke-width:0.99999988px;stroke-linecap:round;stroke-linejoin:round;stroke-opacity:1"
       d="M 10.499999,15.028329 C 10.499999,15.028329 14.474703,15.932184 16.474853,15.237478 C 18.056109,14.688267 20.480927,12.803527 20.500747,11.554805 C 20.510352,10.949697 15.872584,8.4238933 15.838457,11.48158 C 15.838457,11.48158 14.517361,12.110076 14.508829,12.874497 C 13.844957,12.851259 10.50853,14.263908 10.50853,14.263908 L 10.499999,15.028329 z "
       id="path3575"
       sodipodi:nodetypes="csscccc" />
    <path
       sodipodi:type="inkscape:offset"
       inkscape:radius="-0.96856028"
       inkscape:original="M 4.5 33.5 L 3.5 34.5 C 3.5 34.5 8.5 41.5 12.5 43.5 C 15.662278 45.081139 21.57047 45.786353 23.5 44.5 C 29.5 40.5 19.5 30.5 15.5 34.5 C 15.5 34.5 13.5 36.5 12.5 37.5 C 11.5 36.5 4.5 33.5 4.5 33.5 z "
       style="opacity:0.6;fill:url(#radialGradient2420);fill-opacity:1;fill-rule:evenodd;stroke:url(#linearGradient2422);stroke-width:2.22826767px;stroke-linecap:round;stroke-linejoin:round;stroke-opacity:1"
       id="path3581"
       d="M 17.5,34.59375 C 16.993149,34.640557 16.544818,34.830182 16.1875,35.1875 C 16.1875,35.1875 14.1875,37.1875 13.1875,38.1875 C 13.005638,38.370727 12.758159,38.473779 12.5,38.473779 C 12.241841,38.473779 11.994362,38.370727 11.8125,38.1875 C 11.790792,38.165792 11.147197,37.72131 10.375,37.3125 C 9.6028025,36.90369 8.647708,36.433514 7.71875,36 C 6.2628829,35.320595 5.4365731,34.94866 4.90625,34.71875 C 5.2897066,35.23977 5.866804,36.079919 7.21875,37.625 C 8.9348844,39.586297 11.197392,41.754946 12.9375,42.625 C 14.354351,43.333425 16.552157,43.922254 18.5625,44.125 C 20.572843,44.327746 22.451591,44.032273 22.96875,43.6875 C 27.314706,40.790196 21.047954,34.266099 17.5,34.59375 z "
       transform="matrix(0.3359805,-0.2942315,0.3274544,0.3126822,-1.6454654,4.997325)" />
    <path
       sodipodi:type="arc"
       style="fill:url(#radialGradient2414);fill-opacity:1;stroke:url(#linearGradient2416);stroke-width:2.05532408;stroke-linecap:round;stroke-linejoin:round;stroke-miterlimit:4;stroke-dasharray:none;stroke-opacity:1"
       id="path3573"
       sodipodi:cx="21.5"
       sodipodi:cy="38"
       sodipodi:rx="6.9007277"
       sodipodi:ry="7.5"
       d="M 28.400728 38 A 6.9007277 7.5 0 1 1  14.599272,38 A 6.9007277 7.5 0 1 1  28.400728 38 z"
       transform="matrix(0.4040917,0.3034935,-0.2820954,0.373946,20.047003,-7.7350593)" />
    <path
       sodipodi:type="inkscape:offset"
       inkscape:radius="-0.93079919"
       inkscape:original="M 21.5 30.5 C 17.690798 30.5 14.59375 33.86 14.59375 38 C 14.59375 42.14 17.690798 45.5 21.5 45.5 C 25.309202 45.5 28.40625 42.14 28.40625 38 C 28.40625 33.86 25.309202 30.5 21.5 30.5 z "
       style="opacity:0.75;fill:none;fill-opacity:1;stroke:url(#linearGradient2418);stroke-width:2.49453664;stroke-linecap:round;stroke-linejoin:round;stroke-miterlimit:4;stroke-dasharray:none;stroke-opacity:1"
       id="path3626"
       d="M 21.5,31.4375 C 18.238154,31.4375 15.53125,34.324208 15.53125,38 C 15.53125,41.675792 18.238154,44.5625 21.5,44.5625 C 24.761846,44.5625 27.46875,41.675792 27.46875,38 C 27.46875,34.324208 24.761846,31.4375 21.5,31.4375 z "
       transform="matrix(0.3336551,0.2495239,-0.2329239,0.3074479,19.705139,-4.0389498)" />
    <path
       sodipodi:type="arc"
       style="opacity:0.5;fill:url(#radialGradient5040);fill-opacity:1;stroke:none;stroke-width:1;stroke-miterlimit:4;stroke-dasharray:none;stroke-opacity:1"
       id="path3750"
       sodipodi:cx="24"
       sodipodi:cy="40.5"
       sodipodi:rx="24"
       sodipodi:ry="3.5"
       d="M 48 40.5 A 24 3.5 0 1 1  0,40.5 A 24 3.5 0 1 1  48 40.5 z"
       transform="matrix(0.1989256,0,0,0.4285716,5.9999996,4.1428496)" />
    <path
       style="fill:url(#radialGradient5027);fill-opacity:1;stroke:url(#linearGradient5029);stroke-width:1.00000024;stroke-linecap:round;stroke-linejoin:round;stroke-miterlimit:4;stroke-dasharray:none;stroke-opacity:1"
       d="M 9.982124,14.5 C 9.7327203,14.5 9.2205405,14.64553 8.8909807,14.954613 C 8.5246058,15.298226 8.2362947,15.798899 8.2362947,16.318457 C 7.9868906,16.578236 7.7374866,17.357576 7.7374866,17.877135 C 6.4904663,16.578236 2.99357,15.534442 2.9988079,15.539117 L 2.4999998,16.058678 C 2.4999998,16.058677 5.542385,19.952157 7.4880825,21.075673 C 8.323298,21.557956 8.9999996,21.499999 9.982124,21.514052 C 10.97974,21.514052 11.229145,21.514052 11.727953,21.514052 C 12.725569,21.514052 13.336732,21.397025 13.97259,20.734712 C 14.970207,19.695595 14.471399,17.617355 13.271141,16.269748 C 12.272593,15.148612 11.229145,14.5 9.982124,14.5 z "
       id="path2454"
       sodipodi:nodetypes="csccccsccssc" />
    <path
       style="fill:url(#radialGradient3385);fill-opacity:1;fill-rule:evenodd;stroke:none;stroke-width:1px;stroke-linecap:butt;stroke-linejoin:miter;stroke-opacity:1"
       d="M 3.4999996,16.499999 C 3.4999996,16.499999 5.6013339,18.968738 6.9999996,19.999999 C 7.6659956,20.49105 8.8131236,21.090731 9.9999996,20.999999 C 12.097998,20.999999 12.751096,20.641985 12.751096,19.245678 C 12.751096,16.453066 8.7882108,15.289477 8.5550992,16.453066 C 8.5550992,16.453066 8.2331104,17.801846 7.9999996,18.499999 C 6.368223,17.103693 3.4999996,15.999999 3.4999996,15.999999 L 3.4999996,16.499999 z "
       id="path3354"
       sodipodi:nodetypes="cscscccc" />
    <path
       style="opacity:0.8;fill:url(#radialGradient5012);fill-opacity:1;fill-rule:evenodd;stroke:none;stroke-width:1px;stroke-linecap:butt;stroke-linejoin:miter;stroke-opacity:1"
       d="M 2.9999996,16.239922 C 2.9999996,16.239922 5.553571,19.118999 6.9464284,20.18219 C 7.6096587,20.688445 8.8035714,21.518231 9.4999996,20.558538 C 9.4999996,19.598845 8.8035714,19.118999 7.6428568,18.159307 C 5.7857138,16.719768 3.2321423,15.999999 3.2321423,15.999999 L 2.9999996,16.239922 z "
       id="path3379"
       sodipodi:nodetypes="cscccc" />
    <path
       style="opacity:0.5;fill:url(#radialGradient5007);fill-opacity:1;fill-rule:evenodd;stroke:url(#linearGradient5009);stroke-width:0.99999994px;stroke-linecap:round;stroke-linejoin:round;stroke-opacity:1"
       d="M 9.4999996,15.499999 C 9.2569865,15.990224 7.9999996,18.509773 7.9999996,18.999999 C 6.2989118,17.52932 4.5190409,16.999999 3.9999996,16.499999 C 4.186369,16.761217 4.0268917,16.629005 4.7415855,17.349876 C 5.7136353,18.330328 6.9286983,19.555895 7.6577356,20.046122 C 8.386773,20.536347 8.9999996,20.499999 10.087861,20.536347 C 12.999999,20.499999 13.514165,20.725483 13.499999,19.499999 C 13.499999,16.999999 11.330076,15.722073 9.4999996,15.499999 z "
       id="path3451"
       sodipodi:nodetypes="cccssccc" />
  </g>
</svg>
