<?xml version="1.0" encoding="UTF-8" standalone="no"?>
<!-- Created with Inkscape (http://www.inkscape.org/) -->
<svg
   xmlns:dc="http://purl.org/dc/elements/1.1/"
   xmlns:cc="http://web.resource.org/cc/"
   xmlns:rdf="http://www.w3.org/1999/02/22-rdf-syntax-ns#"
   xmlns:svg="http://www.w3.org/2000/svg"
   xmlns="http://www.w3.org/2000/svg"
   xmlns:xlink="http://www.w3.org/1999/xlink"
   xmlns:sodipodi="http://sodipodi.sourceforge.net/DTD/sodipodi-0.dtd"
   xmlns:inkscape="http://www.inkscape.org/namespaces/inkscape"
   width="16"
   height="16"
   id="svg2"
   sodipodi:version="0.32"
   inkscape:version="0.45"
   version="1.0"
   sodipodi:docbase="/home/ulisse/Desktop/sixaxis/16x16"
   sodipodi:docname="input-gaming-sony-sixaxis.svg"
   inkscape:output_extension="org.inkscape.output.svg.inkscape"
   sodipodi:modified="true"
   inkscape:export-filename="/home/ulisse/Desktop/sixaxis/16x16/input-gaming-sony-sixaxis.png"
   inkscape:export-xdpi="90"
   inkscape:export-ydpi="90">
  <defs
     id="defs4">
    <linearGradient
       id="linearGradient3178">
      <stop
         style="stop-color:#121415;stop-opacity:1;"
         offset="0"
         id="stop3180" />
      <stop
         id="stop3188"
         offset="0.17977528"
         style="stop-color:#262b2d;stop-opacity:1;" />
      <stop
         id="stop3186"
         offset="0.73273575"
         style="stop-color:#262b2d;stop-opacity:1;" />
      <stop
         style="stop-color:#101213;stop-opacity:1;"
         offset="1"
         id="stop3182" />
    </linearGradient>
    <linearGradient
       id="linearGradient3250"
       inkscape:collect="always">
      <stop
         id="stop3252"
         offset="0"
         style="stop-color:#60696d;stop-opacity:1" />
      <stop
         id="stop3254"
         offset="1"
         style="stop-color:#1a1d1e;stop-opacity:1" />
    </linearGradient>
    <linearGradient
       id="linearGradient3281"
       inkscape:collect="always">
      <stop
         id="stop3283"
         offset="0"
         style="stop-color:#ffffff;stop-opacity:0.7794677" />
      <stop
         id="stop3285"
         offset="1"
         style="stop-color:#ffffff;stop-opacity:0.12547529" />
    </linearGradient>
    <linearGradient
       id="linearGradient3346">
      <stop
         style="stop-color:#6b6f70;stop-opacity:1"
         offset="0"
         id="stop3348" />
      <stop
         id="stop3350"
         offset="1"
         style="stop-color:#1e2223;stop-opacity:1" />
    </linearGradient>
    <linearGradient
       id="linearGradient3315">
      <stop
         style="stop-color:#7a7f80;stop-opacity:1;"
         offset="0"
         id="stop3317" />
      <stop
         id="stop3319"
         offset="1"
         style="stop-color:#7a7f80;stop-opacity:0" />
    </linearGradient>
    <linearGradient
       inkscape:collect="always"
       id="linearGradient3384">
      <stop
         style="stop-color:#2e3436;stop-opacity:1;"
         offset="0"
         id="stop3386" />
      <stop
         style="stop-color:#202425;stop-opacity:1"
         offset="1"
         id="stop3388" />
    </linearGradient>
    <linearGradient
       id="linearGradient3160">
      <stop
         id="stop3168"
         offset="0"
         style="stop-color:#7a7f80;stop-opacity:1;" />
      <stop
         style="stop-color:#2e3436;stop-opacity:1"
         offset="1"
         id="stop3164" />
    </linearGradient>
    <radialGradient
       inkscape:collect="always"
       xlink:href="#linearGradient3315"
       id="radialGradient3203"
       gradientUnits="userSpaceOnUse"
       gradientTransform="matrix(-0.1297075,-5.4406035e-2,-0.1108414,0.2243218,10.793038,5.4806463)"
       cx="37.982616"
       cy="28.752317"
       fx="37.982616"
       fy="28.752317"
       r="8.0226622" />
    <linearGradient
       inkscape:collect="always"
       xlink:href="#linearGradient3281"
       id="linearGradient3215"
       x1="5.816668"
       y1="0.65778583"
       x2="7.2928929"
       y2="6.6380486"
       gradientUnits="userSpaceOnUse" />
    <radialGradient
       inkscape:collect="always"
       xlink:href="#linearGradient3315"
       id="radialGradient2252"
       gradientUnits="userSpaceOnUse"
       gradientTransform="matrix(0.1143017,-4.5903342e-2,9.7268564e-2,0.2048696,6.0397149,5.7724574)"
       cx="37.993977"
       cy="30.155405"
       fx="37.993977"
       fy="30.155405"
       r="8.0226622" />
    <linearGradient
       inkscape:collect="always"
       xlink:href="#linearGradient3384"
       id="linearGradient3268"
       gradientUnits="userSpaceOnUse"
       gradientTransform="matrix(0.48147,0,0,0.4708265,0.7809174,2.9188265)"
       x1="8.25"
       y1="18.96875"
       x2="8.53125"
       y2="20.34375" />
    <linearGradient
       inkscape:collect="always"
       xlink:href="#linearGradient3384"
       id="linearGradient3270"
       gradientUnits="userSpaceOnUse"
       gradientTransform="matrix(0.4938152,0,0,0.4494251,1.8414335,3.3040519)"
       x1="12.75"
       y1="18.8125"
       x2="14"
       y2="20.59375" />
    <linearGradient
       inkscape:collect="always"
       xlink:href="#linearGradient3384"
       id="linearGradient3272"
       gradientUnits="userSpaceOnUse"
       gradientTransform="matrix(0.4468187,0,0,0.4314482,2.3322271,3.1782115)"
       x1="10.1875"
       y1="16.78125"
       x2="10.84375"
       y2="19.0625" />
    <linearGradient
       inkscape:collect="always"
       xlink:href="#linearGradient3384"
       id="linearGradient3274"
       gradientUnits="userSpaceOnUse"
       gradientTransform="matrix(0.4680957,0,0,0.4842782,1.7577463,3.0197278)"
       x1="10.5"
       y1="21.25"
       x2="11.3125"
       y2="23.15625" />
    <radialGradient
       inkscape:collect="always"
       xlink:href="#linearGradient3346"
       id="radialGradient3241"
       cx="15.198864"
       cy="7.688632"
       fx="15.198864"
       fy="7.688632"
       r="14.570813"
       gradientTransform="matrix(0.5156624,0,0,0.2778881,-0.250597,3.3328051)"
       gradientUnits="userSpaceOnUse" />
    <linearGradient
       inkscape:collect="always"
       xlink:href="#linearGradient3160"
       id="linearGradient3269"
       x1="16.173321"
       y1="7.1715727"
       x2="9.6776314"
       y2="14"
       gradientUnits="userSpaceOnUse" />
    <linearGradient
       inkscape:collect="always"
       xlink:href="#linearGradient3160"
       id="linearGradient3273"
       gradientUnits="userSpaceOnUse"
       x1="15.164052"
       y1="5.5363884"
       x2="14.956883"
       y2="11.304155" />
    <radialGradient
       inkscape:collect="always"
       xlink:href="#linearGradient3250"
       id="radialGradient3242"
       gradientUnits="userSpaceOnUse"
       gradientTransform="matrix(0.5625235,-4.9037734e-2,4.9179722e-2,0.5641523,5.9023626,11.725765)"
       cx="16.061508"
       cy="25.087502"
       fx="16.061508"
       fy="25.087502"
       r="3.4285715" />
    <radialGradient
       inkscape:collect="always"
       xlink:href="#linearGradient3250"
       id="radialGradient3246"
       gradientUnits="userSpaceOnUse"
       gradientTransform="matrix(0.5625235,-4.9037734e-2,4.9179722e-2,0.5641523,5.9023626,11.725765)"
       cx="15.980236"
       cy="24.669167"
       fx="15.980236"
       fy="24.669167"
       r="3.4285715" />
    <linearGradient
       inkscape:collect="always"
       xlink:href="#linearGradient3178"
       id="linearGradient3184"
       x1="1.0215565"
       y1="7.5"
       x2="15.322193"
       y2="7.5"
       gradientUnits="userSpaceOnUse" />
  </defs>
  <sodipodi:namedview
     id="base"
     pagecolor="#ffffff"
     bordercolor="#f6aaaa"
     borderopacity="1"
     inkscape:pageopacity="0.0"
     inkscape:pageshadow="2"
     inkscape:zoom="32"
     inkscape:cx="10.714124"
     inkscape:cy="9.8908821"
     inkscape:document-units="px"
     inkscape:current-layer="layer1"
     width="16px"
     height="16px"
     inkscape:showpageshadow="false"
     showgrid="true"
     gridspacingx="0.5px"
     gridspacingy="0.5px"
     gridempspacing="2"
     inkscape:grid-points="true"
     inkscape:window-width="1044"
     inkscape:window-height="699"
     inkscape:window-x="97"
     inkscape:window-y="71"
     showguides="true"
     inkscape:guide-bbox="true" />
  <metadata
     id="metadata7">
    <rdf:RDF>
      <cc:Work
         rdf:about="">
        <dc:format>image/svg+xml</dc:format>
        <dc:type
           rdf:resource="http://purl.org/dc/dcmitype/StillImage" />
        <dc:creator>
          <cc:Agent>
            <dc:title>Ulisse Perusin</dc:title>
          </cc:Agent>
        </dc:creator>
        <cc:license
           rdf:resource="http://creativecommons.org/licenses/GPL/2.0/" />
        <dc:title>input-gaming-sony-sixaxis</dc:title>
        <dc:subject>
          <rdf:Bag>
            <rdf:li>input gaming sony sixaxis</rdf:li>
          </rdf:Bag>
        </dc:subject>
        <dc:source>uli.peru@gmail.com</dc:source>
      </cc:Work>
      <cc:License
         rdf:about="http://creativecommons.org/licenses/GPL/2.0/">
        <cc:permits
           rdf:resource="http://web.resource.org/cc/Reproduction" />
        <cc:permits
           rdf:resource="http://web.resource.org/cc/Distribution" />
        <cc:requires
           rdf:resource="http://web.resource.org/cc/Notice" />
        <cc:permits
           rdf:resource="http://web.resource.org/cc/DerivativeWorks" />
        <cc:requires
           rdf:resource="http://web.resource.org/cc/ShareAlike" />
        <cc:requires
           rdf:resource="http://web.resource.org/cc/SourceCode" />
      </cc:License>
    </rdf:RDF>
  </metadata>
  <g
     inkscape:label="Livello 1"
     inkscape:groupmode="layer"
     id="layer1"
     style="display:inline">
    <path
       style="opacity:1;fill:url(#radialGradient3241);fill-opacity:1;stroke:none;stroke-width:1;stroke-miterlimit:4;display:inline"
       d="M 2.5,2.5 L 2.5,4 C 2.0039549,4.3191135 1.5928337,5.740554 1.5,6.5 C 1.3398891,7.809826 0.6191847,9.550805 0.4590737,10.86063 C 0.2989627,11.842998 1.1091417,12.5 1.904573,12.5 C 3.5531754,12.133418 3.5,10.5 4,9.5 L 12.5,9.5 C 12.001287,11.237702 13,11.5 14,12.5 C 14.79543,12.5 15.605609,11.842998 15.445498,10.86063 C 15.285388,9.550805 14.917196,7.7288753 14.757085,6.4190493 C 14.665791,5.6721973 14.482153,4.321003 14,4 L 13.5,2.5 L 11.5,2.5 L 11,3.5 L 5,3.5 L 5,2.5 L 2.5,2.5 z "
       id="path3321"
       sodipodi:nodetypes="ccsccccccsccccccc" />
    <path
       style="opacity:1;fill:url(#radialGradient2252);fill-opacity:1;stroke:none;stroke-width:1;stroke-miterlimit:4;stroke-dasharray:none;display:inline"
       d="M 10.431365,7.1578703 L 12.291673,11.149056 C 12.611894,11.89958 13.092228,12.5 14.052893,12.5 C 14.848324,12.5 15.654003,11.89958 15.493892,10.998951 C 15.333781,9.798112 14.914472,7.4580798 14.754361,6.257241 C 14.594251,5.0564022 13.750146,4.4559822 12.512808,4.4559822 C 11.27547,4.4559822 9.790921,5.5067164 10.431365,7.1578703 z "
       id="path2250"
       sodipodi:nodetypes="ccscccc" />
    <path
       style="opacity:1;fill:url(#radialGradient3203);fill-opacity:1;stroke:none;stroke-width:1;stroke-miterlimit:4;stroke-dasharray:none;display:inline"
       d="M 5.3715843,7.1578704 L 3.7083277,11.149056 C 3.3881058,11.89958 2.9077726,12.5 1.9471067,12.5 C 1.1516754,12.5 0.3459968,11.89958 0.5061079,10.998951 C 0.6662189,9.7981119 0.8884762,7.4580798 1.0485873,6.257241 C 1.2086982,5.0564022 2.0528033,4.4559822 3.2901412,4.4559822 C 4.5274791,4.4559822 6.0120281,5.5067164 5.3715843,7.1578704 z "
       id="path3172"
       sodipodi:nodetypes="ccscccc" />
    <path
       style="opacity:1;fill:none;fill-opacity:1;stroke:url(#linearGradient3184);stroke-width:1;stroke-linejoin:round;stroke-miterlimit:4;stroke-dasharray:none;stroke-opacity:1;display:inline"
       d="M 2.5,2.5 L 2.5,3.5 C 1.9710358,3.854977 1.5,4.1303929 1.5,5 C 1.5,6.0814075 1.5,5.5 1.5,6.5 C 1.5,7 0.5,9 0.5,10.5 C 0.5,12 0.6745837,12.5 1.5,12.5 C 4,12.5 3,10.5 4,9.5 L 12,9.5 C 13,10.5 12,12.5 14.5,12.5 C 15.325417,12.5 15.5,12 15.5,10.5 C 15.5,9.5129295 14.5,7 14.5,6.5 C 14.5,6 14.5,6 14.5,5 C 14.5,4.1303929 14.028965,3.854977 13.5,3.5 L 13.5,2.5 L 11.5,2.5 L 11,3.5 L 5,3.5 L 4.7955272,2.5000001 L 2.5,2.5 z "
       id="path3194"
       sodipodi:nodetypes="ccssccccccssccccccc" />
    <path
       sodipodi:type="inkscape:offset"
       inkscape:radius="-0.96493876"
       inkscape:original="M 2.5 2.5 L 2.5 3.5 C 1.9710358 3.854977 1.5 4.1303929 1.5 5 C 1.5 6.0814075 1.5 5.5 1.5 6.5 C 1.5 7 0.5 9 0.5 10.5 C 0.5 12 0.6745837 12.5 1.5 12.5 C 4 12.5 3 10.5 4 9.5 L 12 9.5 C 13 10.5 12 12.5 14.5 12.5 C 15.325417 12.5 15.5 12 15.5 10.5 C 15.5 9.5129295 14.5 7 14.5 6.5 C 14.5 6 14.5 6 14.5 5 C 14.5 4.1303929 14.028965 3.854977 13.5 3.5 L 13.5 2.5 L 11.5 2.5 L 11 3.5 L 5 3.5 L 4.78125 2.5 L 2.5 2.5 z "
       xlink:href="#path3194"
       style="opacity:0.70114938;fill:none;fill-opacity:1;stroke:url(#linearGradient3215);stroke-width:1;stroke-linejoin:round;stroke-miterlimit:4;stroke-opacity:1;display:inline"
       id="path3207"
       inkscape:href="#path3194"
       d="M 3.5625,9.15625 C 3.4947338,9.3760952 3.3506596,9.5644998 3.15625,9.6875 C 2.7884735,9.909888 2.2462699,10.562368 2.21875,10.78125 C 2.0521493,12.106324 1.6656926,15.119646 1.5,16.4375 C 1.4898232,16.448154 1.4794038,16.458573 1.46875,16.46875 C 1.3943986,16.91227 1.7278943,17.125 1.9375,17.125 C 2.2386101,17.125 2.3237756,17.073093 2.4375,16.96875 C 2.5512244,16.864407 2.6721278,16.630145 2.8125,16.28125 L 2.84375,16.28125 L 3.53125,14.21875 C 3.6627534,13.829327 4.0264869,13.565934 4.4375,13.5625 L 11.5625,13.5625 C 11.973513,13.565934 12.337247,13.829327 12.46875,14.21875 L 13.15625,16.28125 L 13.1875,16.28125 C 13.327873,16.630145 13.448776,16.864407 13.5625,16.96875 C 13.676224,17.073093 13.76139,17.125 14.0625,17.125 C 14.272108,17.125 14.605602,16.912271 14.53125,16.46875 C 14.520596,16.458573 14.510177,16.448154 14.5,16.4375 C 14.334308,15.119646 13.94785,12.106325 13.78125,10.78125 C 13.75373,10.562367 13.211527,9.9098878 12.84375,9.6875 C 12.64934,9.5644998 12.505266,9.3760952 12.4375,9.15625 L 12.125,9.15625 C 12.004438,9.5580204 11.638146,9.8358971 11.21875,9.84375 L 4.78125,9.84375 C 4.3502876,9.8496485 3.9676621,9.5690565 3.84375,9.15625 L 3.5625,9.15625 z " />
    <path
       sodipodi:type="arc"
       style="opacity:1;fill:url(#linearGradient3273);fill-opacity:1;stroke:none;stroke-width:1;stroke-linejoin:miter;stroke-miterlimit:4;stroke-dasharray:none;stroke-opacity:1;display:inline"
       id="path3271"
       sodipodi:cx="13.5"
       sodipodi:cy="10"
       sodipodi:rx="3.5"
       sodipodi:ry="4"
       d="M 17 10 A 3.5 4 0 1 1  10,10 A 3.5 4 0 1 1  17 10 z"
       transform="matrix(-0.569248,0,0,0.5,20.177216,0.5)" />
    <rect
       style="opacity:1;fill:#252a2c;fill-opacity:1;stroke:none;stroke-width:1.00000012;stroke-linejoin:round;stroke-miterlimit:4;stroke-dasharray:none;stroke-opacity:1"
       id="rect3252"
       width="1"
       height="1"
       x="6"
       y="5" />
    <path
       sodipodi:type="arc"
       style="opacity:1;fill:url(#linearGradient3269);fill-opacity:1;stroke:none;stroke-width:1;stroke-linejoin:miter;stroke-miterlimit:4;stroke-dasharray:none;stroke-opacity:1"
       id="path3261"
       sodipodi:cx="13.5"
       sodipodi:cy="10"
       sodipodi:rx="3.5"
       sodipodi:ry="4"
       d="M 17 10 A 3.5 4 0 1 1  10,10 A 3.5 4 0 1 1  17 10 z"
       transform="matrix(0.5714287,0,0,0.5,-4.2142873,0.5)" />
    <g
       id="g3259"
       transform="matrix(0.5785854,0,0,0.5309814,-0.2357563,-0.924845)">
      <path
         sodipodi:nodetypes="cccccc"
         id="rect3353"
         d="M 3.8641768,11.158291 L 4.9011888,11.158291 L 6.4567068,12.099943 L 4.9011888,13.041596 L 3.8641768,13.041596 L 3.8641768,11.158291 z "
         style="fill:url(#linearGradient3268);fill-opacity:1;stroke:none;stroke-width:1;stroke-linejoin:round;stroke-miterlimit:4;stroke-opacity:1;display:inline" />
      <path
         sodipodi:nodetypes="cccccc"
         id="path3366"
         d="M 9.0492368,11.158291 L 7.9856347,11.158291 L 6.4567068,12.099943 L 7.9856347,13.041596 L 9.0492368,13.041596 L 9.0492368,11.158291 z "
         style="fill:url(#linearGradient3270);fill-opacity:1;stroke:none;stroke-width:1;stroke-linejoin:round;stroke-miterlimit:4;stroke-opacity:1;display:inline" />
      <path
         sodipodi:nodetypes="cccccc"
         id="path3372"
         d="M 5.5925302,9.2749859 L 5.5925302,10.404969 L 6.4567068,12.099944 L 7.3208835,10.404969 L 7.3208835,9.2749859 L 5.5925302,9.2749859 z "
         style="fill:url(#linearGradient3272);fill-opacity:1;stroke:none;stroke-width:1;stroke-linejoin:round;stroke-miterlimit:4;stroke-opacity:1;display:inline" />
      <path
         sodipodi:nodetypes="cccccc"
         id="path3378"
         d="M 5.5925302,14.924901 L 5.5925302,13.794919 L 6.4567068,12.099944 L 7.3208835,13.794919 L 7.3208835,14.924901 L 5.5925302,14.924901 z "
         style="fill:url(#linearGradient3274);fill-opacity:1;stroke:none;stroke-width:1;stroke-linejoin:round;stroke-miterlimit:4;stroke-opacity:1;display:inline" />
    </g>
    <rect
       y="5"
       x="13"
       height="1"
       width="1"
       id="rect3300"
       style="opacity:1;fill:#c75151;fill-opacity:1;stroke:none;stroke-width:0.30385137;stroke-linejoin:miter;stroke-miterlimit:4;stroke-dasharray:none;stroke-opacity:1;display:inline" />
    <rect
       y="3.9999998"
       x="12"
       height="1"
       width="1"
       id="rect3302"
       style="opacity:1;fill:#78ab47;fill-opacity:1;stroke:none;stroke-width:0.30385137;stroke-linejoin:miter;stroke-miterlimit:4;stroke-dasharray:none;stroke-opacity:1;display:inline" />
    <rect
       y="5"
       x="11.000001"
       height="0.99999976"
       width="0.99999976"
       id="rect3343"
       style="opacity:1;fill:#b585b0;fill-opacity:1;stroke:none;stroke-width:0.30385137;stroke-linejoin:miter;stroke-miterlimit:4;stroke-dasharray:none;stroke-opacity:1;display:inline" />
    <rect
       y="6"
       x="12"
       height="1"
       width="1"
       id="rect3305"
       style="opacity:1;fill:#779fca;fill-opacity:1;stroke:none;stroke-width:0.30385137;stroke-linejoin:miter;stroke-miterlimit:4;stroke-dasharray:none;stroke-opacity:1;display:inline" />
    <rect
       style="opacity:1;fill:#252a2c;fill-opacity:1;stroke:none;stroke-width:1.00000012;stroke-linejoin:round;stroke-miterlimit:4;stroke-dasharray:none;stroke-opacity:1;display:inline"
       id="rect2269"
       width="1"
       height="1"
       x="9"
       y="5" />
    <path
       sodipodi:type="arc"
       style="opacity:1;fill:url(#radialGradient3242);fill-opacity:1;stroke:none;stroke-width:1.99999976;stroke-linejoin:miter;stroke-miterlimit:4;stroke-dasharray:none;stroke-opacity:1;display:inline"
       id="path3239"
       sodipodi:cx="16.5"
       sodipodi:cy="26"
       sodipodi:rx="3"
       sodipodi:ry="3"
       d="M 19.5 26 A 3 3 0 1 1  13.5,26 A 3 3 0 1 1  19.5 26 z"
       transform="matrix(0.6666667,0,0,0.6666667,-5.0000004,-8.3333343)" />
    <path
       sodipodi:type="arc"
       style="opacity:1;fill:url(#radialGradient3246);fill-opacity:1;stroke:none;stroke-width:1.99999976;stroke-linejoin:miter;stroke-miterlimit:4;stroke-dasharray:none;stroke-opacity:1;display:inline"
       id="path3244"
       sodipodi:cx="16.5"
       sodipodi:cy="26"
       sodipodi:rx="3"
       sodipodi:ry="3"
       d="M 19.5 26 A 3 3 0 1 1  13.5,26 A 3 3 0 1 1  19.5 26 z"
       transform="matrix(0.6666667,0,0,0.6666667,-1.0000005,-8.3333343)" />
  </g>
</svg>
