<?xml version="1.0" encoding="UTF-8" standalone="no"?>
<!-- Created with Inkscape (http://www.inkscape.org/) -->
<svg
   xmlns:dc="http://purl.org/dc/elements/1.1/"
   xmlns:cc="http://web.resource.org/cc/"
   xmlns:rdf="http://www.w3.org/1999/02/22-rdf-syntax-ns#"
   xmlns:svg="http://www.w3.org/2000/svg"
   xmlns="http://www.w3.org/2000/svg"
   xmlns:xlink="http://www.w3.org/1999/xlink"
   xmlns:sodipodi="http://sodipodi.sourceforge.net/DTD/sodipodi-0.dtd"
   xmlns:inkscape="http://www.inkscape.org/namespaces/inkscape"
   width="16"
   height="16"
   id="svg2"
   sodipodi:version="0.32"
   inkscape:version="0.45"
   version="1.0"
   sodipodi:docbase="/home/ulisse/Desktop/sidewinder/16x16"
   sodipodi:docname="input-gaming-microsoft-sidewinder-gamepad.svg"
   inkscape:output_extension="org.inkscape.output.svg.inkscape"
   sodipodi:modified="true">
  <defs
     id="defs4">
    <linearGradient
       id="linearGradient4285">
      <stop
         id="stop4287"
         offset="0"
         style="stop-color:#ffffff;stop-opacity:0.34911242;" />
      <stop
         id="stop4289"
         offset="1"
         style="stop-color:#ffffff;stop-opacity:0;" />
    </linearGradient>
    <linearGradient
       inkscape:collect="always"
       id="linearGradient3324">
      <stop
         style="stop-color:#2e3436;stop-opacity:1;"
         offset="0"
         id="stop3326" />
      <stop
         style="stop-color:#222728;stop-opacity:1"
         offset="1"
         id="stop3328" />
    </linearGradient>
    <linearGradient
       id="linearGradient3314">
      <stop
         style="stop-color:#222627;stop-opacity:1"
         offset="0"
         id="stop3316" />
      <stop
         id="stop3322"
         offset="0.5955056"
         style="stop-color:#717374;stop-opacity:0.49803922;" />
      <stop
         style="stop-color:#ffffff;stop-opacity:0.12927757"
         offset="1"
         id="stop3318" />
    </linearGradient>
    <linearGradient
       inkscape:collect="always"
       id="linearGradient3286">
      <stop
         style="stop-color:#d3e757;stop-opacity:1"
         offset="0"
         id="stop3288" />
      <stop
         style="stop-color:#8ae234;stop-opacity:1"
         offset="1"
         id="stop3290" />
    </linearGradient>
    <linearGradient
       inkscape:collect="always"
       id="linearGradient3270">
      <stop
         style="stop-color:#ffffff;stop-opacity:1;"
         offset="0"
         id="stop3272" />
      <stop
         style="stop-color:#ffffff;stop-opacity:0.14117648"
         offset="1"
         id="stop3274" />
    </linearGradient>
    <linearGradient
       id="linearGradient3171"
       inkscape:collect="always">
      <stop
         id="stop3173"
         offset="0"
         style="stop-color:#282d2f;stop-opacity:1" />
      <stop
         id="stop3175"
         offset="1"
         style="stop-color:#80888a;stop-opacity:1" />
    </linearGradient>
    <radialGradient
       inkscape:collect="always"
       xlink:href="#linearGradient3171"
       id="radialGradient3157"
       cx="14.51326"
       cy="17.336676"
       fx="14.51326"
       fy="17.336676"
       r="3.3772664"
       gradientTransform="matrix(1.0140166,-0.1112237,8.514627e-2,0.9637987,-1.8047853,2.4479259)"
       gradientUnits="userSpaceOnUse" />
    <linearGradient
       inkscape:collect="always"
       xlink:href="#linearGradient4285"
       id="linearGradient3242"
       gradientUnits="userSpaceOnUse"
       x1="21.75"
       y1="14.969669"
       x2="22.417242"
       y2="16.681803" />
    <linearGradient
       inkscape:collect="always"
       xlink:href="#linearGradient3270"
       id="linearGradient3276"
       x1="1.8998113"
       y1="-2.1990061"
       x2="8"
       y2="11.796051"
       gradientUnits="userSpaceOnUse" />
    <radialGradient
       inkscape:collect="always"
       xlink:href="#linearGradient3286"
       id="radialGradient3292"
       cx="24.5"
       cy="13.5"
       fx="24.5"
       fy="13.5"
       r="1.5"
       gradientTransform="matrix(0.4487187,-4.7522039e-7,2.232615e-7,0.5101104,-2.9578967,-3.3864783)"
       gradientUnits="userSpaceOnUse" />
    <radialGradient
       inkscape:collect="always"
       xlink:href="#linearGradient3314"
       id="radialGradient3320"
       cx="24.000008"
       cy="17.081427"
       fx="24.000008"
       fy="17.081427"
       r="19"
       gradientTransform="matrix(0.3421089,4.7393392e-8,-3.0078804e-8,0.1662667,-0.2106154,2.8859233)"
       gradientUnits="userSpaceOnUse" />
    <radialGradient
       inkscape:collect="always"
       xlink:href="#linearGradient3324"
       id="radialGradient3368"
       cx="23.996136"
       cy="16.498117"
       fx="23.996136"
       fy="16.498117"
       r="22.996136"
       gradientTransform="matrix(0.3333906,-2.0171844e-8,1.0317561e-8,0.185752,-8.6111427e-5,3.011103)"
       gradientUnits="userSpaceOnUse" />
    <linearGradient
       inkscape:collect="always"
       xlink:href="#linearGradient4285"
       id="linearGradient2247"
       gradientUnits="userSpaceOnUse"
       x1="21.75"
       y1="14.969669"
       x2="22.417242"
       y2="16.681803" />
    <linearGradient
       inkscape:collect="always"
       xlink:href="#linearGradient4285"
       id="linearGradient2255"
       gradientUnits="userSpaceOnUse"
       x1="21.75"
       y1="14.969669"
       x2="22.417242"
       y2="16.681803" />
    <linearGradient
       inkscape:collect="always"
       xlink:href="#linearGradient4285"
       id="linearGradient2263"
       gradientUnits="userSpaceOnUse"
       x1="21.75"
       y1="14.969669"
       x2="22.417242"
       y2="16.681803" />
    <linearGradient
       inkscape:collect="always"
       xlink:href="#linearGradient4285"
       id="linearGradient2271"
       gradientUnits="userSpaceOnUse"
       x1="21.75"
       y1="14.969669"
       x2="22.417242"
       y2="16.681803" />
    <linearGradient
       inkscape:collect="always"
       xlink:href="#linearGradient4285"
       id="linearGradient4223"
       gradientUnits="userSpaceOnUse"
       x1="21.75"
       y1="14.969669"
       x2="22.417242"
       y2="16.681803" />
  </defs>
  <sodipodi:namedview
     id="base"
     pagecolor="#ffffff"
     bordercolor="#f6aaaa"
     borderopacity="1"
     inkscape:pageopacity="0.0"
     inkscape:pageshadow="2"
     inkscape:zoom="1"
     inkscape:cx="13.159336"
     inkscape:cy="9.0655176"
     inkscape:document-units="px"
     inkscape:current-layer="layer1"
     width="16px"
     height="16px"
     inkscape:showpageshadow="false"
     showgrid="false"
     gridspacingx="0.5px"
     gridspacingy="0.5px"
     gridempspacing="2"
     inkscape:grid-points="true"
     inkscape:window-width="1019"
     inkscape:window-height="726"
     inkscape:window-x="179"
     inkscape:window-y="38"
     showguides="true"
     inkscape:guide-bbox="true" />
  <metadata
     id="metadata7">
    <rdf:RDF>
      <cc:Work
         rdf:about="">
        <dc:format>image/svg+xml</dc:format>
        <dc:type
           rdf:resource="http://purl.org/dc/dcmitype/StillImage" />
        <dc:creator>
          <cc:Agent>
            <dc:title>Ulisse Perusin</dc:title>
          </cc:Agent>
        </dc:creator>
        <cc:license
           rdf:resource="http://creativecommons.org/licenses/GPL/2.0/" />
        <dc:title>Microsoft Sidewinder Gamepad</dc:title>
        <dc:source>uli.peru@gmail.com</dc:source>
        <dc:subject>
          <rdf:Bag>
            <rdf:li>Microsoft Sidewinder Gamepad</rdf:li>
          </rdf:Bag>
        </dc:subject>
      </cc:Work>
      <cc:License
         rdf:about="http://creativecommons.org/licenses/GPL/2.0/">
        <cc:permits
           rdf:resource="http://web.resource.org/cc/Reproduction" />
        <cc:permits
           rdf:resource="http://web.resource.org/cc/Distribution" />
        <cc:requires
           rdf:resource="http://web.resource.org/cc/Notice" />
        <cc:permits
           rdf:resource="http://web.resource.org/cc/DerivativeWorks" />
        <cc:requires
           rdf:resource="http://web.resource.org/cc/ShareAlike" />
        <cc:requires
           rdf:resource="http://web.resource.org/cc/SourceCode" />
      </cc:License>
    </rdf:RDF>
  </metadata>
  <g
     inkscape:label="Livello 1"
     inkscape:groupmode="layer"
     id="layer1">
    <path
       style="opacity:1;fill:url(#radialGradient3368);fill-opacity:1;fill-rule:evenodd;stroke:#1c2021;stroke-width:0.99999988;stroke-linecap:round;stroke-linejoin:round;stroke-miterlimit:4;stroke-dashoffset:0;stroke-opacity:1"
       d="M 15.5,12.068862 C 15.470531,14.504574 13.500345,13.849482 11.5,9.5 C 10.153639,10.915776 6.0229625,10.907655 4.5,9.5 C 2.4996564,13.849482 0.49999989,14.478477 0.49999989,12.242842 C 0.49999989,8.256695 1.9999982,2.4999998 7.9999991,2.4999999 C 14,2.5 15.5,8.2413178 15.5,12.068862 z "
       id="path2167"
       sodipodi:nodetypes="cccczc" />
    <path
       style="opacity:0.57088126;fill:url(#radialGradient3320);fill-opacity:1;fill-rule:evenodd;stroke:none;stroke-width:1;stroke-linecap:round;stroke-linejoin:round;stroke-miterlimit:4;stroke-dashoffset:0;stroke-opacity:1"
       d="M 1.5,7.1999997 C 2.8280377,4.9297723 5.2004167,3 8.1710535,3 C 11.181863,3 13.282242,4.9273233 14.5,7.1999997 C 11.322819,7.1886155 11.763159,10 8,10 C 4.5789475,10 5.0658819,7.2197868 1.5,7.1999997 z "
       id="path3312"
       sodipodi:nodetypes="czcsc" />
    <path
       sodipodi:type="inkscape:offset"
       inkscape:radius="-0.97389001"
       inkscape:original="M 8 2.5 C 1.9999991 2.4999999 0.50000001 8.2638533 0.5 12.25 C 0.5 14.485635 2.4996564 13.849482 4.5 9.5 C 6.0229625 10.907655 10.153639 10.915776 11.5 9.5 C 13.500345 13.849482 15.470531 14.498212 15.5 12.0625 C 15.5 8.2349558 14.000001 2.5 8 2.5 z "
       xlink:href="#path2167"
       style="opacity:0.27203064;fill:none;fill-opacity:1;fill-rule:evenodd;stroke:url(#linearGradient3276);stroke-width:0.9890157;stroke-linecap:round;stroke-linejoin:round;stroke-miterlimit:4;stroke-dashoffset:0;stroke-opacity:1"
       id="path3268"
       inkscape:href="#path2167"
       d="M 8,3.46875 C 5.3118528,3.46875 3.8381401,4.6609084 2.84375,6.375 C 1.8493599,8.0890916 1.46875,10.379086 1.46875,12.25 C 1.46875,12.318954 1.4629273,12.261084 1.46875,12.3125 C 1.9043251,11.968351 2.7612126,10.971941 3.625,9.09375 C 3.7556844,8.8149894 4.010473,8.6144287 4.3121283,8.5528664 C 4.6137837,8.4913041 4.9267857,8.5759892 5.15625,8.78125 C 5.5961206,9.1878169 6.8358505,9.592855 8.0625,9.59375 C 9.2891495,9.594645 10.45145,9.190554 10.78125,8.84375 C 11.001725,8.607357 11.325118,8.4957496 11.644463,8.545843 C 11.963809,8.5959364 12.237496,8.8012034 12.375,9.09375 C 13.23653,10.967032 14.089388,11.955184 14.5,12.28125 C 14.524434,12.186138 14.528866,12.259545 14.53125,12.0625 C 14.53125,10.275949 14.14932,8.0316891 13.15625,6.34375 C 12.16318,4.6558109 10.689711,3.46875 8,3.46875 z "
       transform="matrix(1,0,0,1.0223359,0,-7.7477782e-2)" />
    <g
       id="g3236"
       transform="matrix(0.2435707,0,0,0.2483515,1.7511299e-2,0.588641)">
      <path
         transform="matrix(0.4085284,0,0,0.4970973,26.31439,16.803705)"
         d="M 20.594486 18.5 A 4.2972426 3.5 0 1 1  12,18.5 A 4.2972426 3.5 0 1 1  20.594486 18.5 z"
         sodipodi:ry="3.5"
         sodipodi:rx="4.2972426"
         sodipodi:cy="18.5"
         sodipodi:cx="16.297243"
         id="path3238"
         style="opacity:1;fill:#2e3436;fill-opacity:1;fill-rule:evenodd;stroke:#1c2021;stroke-width:9.02240372;stroke-linecap:round;stroke-linejoin:round;stroke-miterlimit:4;stroke-dasharray:none;stroke-dashoffset:0;stroke-opacity:1"
         sodipodi:type="arc" />
      <path
         transform="matrix(1.5047542,0,0,1.7398403,-1.5116729,-2.7073611)"
         d="M 23.5 15.5 A 1.75 1.5 0 1 1  20,15.5 A 1.75 1.5 0 1 1  23.5 15.5 z"
         sodipodi:ry="1.5"
         sodipodi:rx="1.75"
         sodipodi:cy="15.5"
         sodipodi:cx="21.75"
         id="path3240"
         style="opacity:1;fill:url(#linearGradient3242);fill-opacity:1;fill-rule:evenodd;stroke:none;stroke-width:1;stroke-linecap:round;stroke-linejoin:round;stroke-miterlimit:4;stroke-dasharray:none;stroke-dashoffset:0;stroke-opacity:1"
         sodipodi:type="arc" />
    </g>
    <path
       style="fill:url(#radialGradient3292);fill-opacity:1;fill-rule:evenodd;stroke:none;stroke-width:1;stroke-linecap:round;stroke-linejoin:round;stroke-miterlimit:4;stroke-dashoffset:0;stroke-opacity:1"
       d="M 9,4 L 7.0714286,4 C 7.0714286,3.4480013 7.5034275,3 8.0357143,3 C 8.568,3 9,3.4480013 9,4 z "
       id="path3244"
       sodipodi:nodetypes="ccsc" />
    <g
       id="g3364"
       transform="matrix(0.387721,0,0,0.3504384,-0.9670574,-1.0069827)">
      <path
         transform="matrix(1.2003857,0,0,1.2229578,-5.4624838,-2.6298129)"
         d="M 20.594486 18.5 A 4.2972426 3.5 0 1 1  12,18.5 A 4.2972426 3.5 0 1 1  20.594486 18.5 z"
         sodipodi:ry="3.5"
         sodipodi:rx="4.2972426"
         sodipodi:cy="18.5"
         sodipodi:cx="16.297243"
         id="path3142"
         style="opacity:1;fill:#3e3e3e;fill-opacity:1;fill-rule:evenodd;stroke:#1c2021;stroke-width:2.23907399;stroke-linecap:round;stroke-linejoin:round;stroke-miterlimit:4;stroke-dasharray:none;stroke-dashoffset:0;stroke-opacity:1"
         sodipodi:type="arc" />
      <path
         sodipodi:nodetypes="ccccccccccccc"
         id="path3146"
         d="M 15.39008,19.994906 L 15.39008,22.848474 L 12.810906,22.848474 L 12.810906,19.994906 L 10.231732,19.994906 L 10.231732,17.141337 L 12.810906,17.141337 L 12.810906,14.287769 L 15.39008,14.287769 L 15.39008,17.141337 L 17.969254,17.141337 L 17.969254,19.994906 L 15.39008,19.994906 z "
         style="fill:url(#radialGradient3157);fill-opacity:1;fill-rule:evenodd;stroke:none;stroke-width:1.03648961;stroke-linecap:round;stroke-linejoin:round;stroke-miterlimit:4;stroke-dashoffset:0;stroke-opacity:1" />
    </g>
    <g
       id="g2241"
       transform="matrix(0.2398415,0,0,0.2433992,3.1445118,1.7481438)">
      <path
         transform="matrix(0.4085284,0,0,0.4970973,26.31439,16.803705)"
         d="M 20.594486 18.5 A 4.2972426 3.5 0 1 1  12,18.5 A 4.2972426 3.5 0 1 1  20.594486 18.5 z"
         sodipodi:ry="3.5"
         sodipodi:rx="4.2972426"
         sodipodi:cy="18.5"
         sodipodi:cx="16.297243"
         id="path2243"
         style="opacity:1;fill:#2e3436;fill-opacity:1;fill-rule:evenodd;stroke:#1c2021;stroke-width:9.1843071;stroke-linecap:round;stroke-linejoin:round;stroke-miterlimit:4;stroke-dasharray:none;stroke-dashoffset:0;stroke-opacity:1"
         sodipodi:type="arc" />
      <path
         transform="matrix(1.5047542,0,0,1.7398403,-1.5116729,-2.7073611)"
         d="M 23.5 15.5 A 1.75 1.5 0 1 1  20,15.5 A 1.75 1.5 0 1 1  23.5 15.5 z"
         sodipodi:ry="1.5"
         sodipodi:rx="1.75"
         sodipodi:cy="15.5"
         sodipodi:cx="21.75"
         id="path2245"
         style="opacity:1;fill:url(#linearGradient2247);fill-opacity:1;fill-rule:evenodd;stroke:none;stroke-width:1;stroke-linecap:round;stroke-linejoin:round;stroke-miterlimit:4;stroke-dasharray:none;stroke-dashoffset:0;stroke-opacity:1"
         sodipodi:type="arc" />
    </g>
    <g
       id="g2249"
       transform="matrix(0.2398415,0,0,0.2433992,5.1445118,0.7481438)">
      <path
         transform="matrix(0.4085284,0,0,0.4970973,26.31439,16.803705)"
         d="M 20.594486 18.5 A 4.2972426 3.5 0 1 1  12,18.5 A 4.2972426 3.5 0 1 1  20.594486 18.5 z"
         sodipodi:ry="3.5"
         sodipodi:rx="4.2972426"
         sodipodi:cy="18.5"
         sodipodi:cx="16.297243"
         id="path2251"
         style="opacity:1;fill:#2e3436;fill-opacity:1;fill-rule:evenodd;stroke:#1c2021;stroke-width:9.1843071;stroke-linecap:round;stroke-linejoin:round;stroke-miterlimit:4;stroke-dasharray:none;stroke-dashoffset:0;stroke-opacity:1"
         sodipodi:type="arc" />
      <path
         transform="matrix(1.5047542,0,0,1.7398403,-1.5116729,-2.7073611)"
         d="M 23.5 15.5 A 1.75 1.5 0 1 1  20,15.5 A 1.75 1.5 0 1 1  23.5 15.5 z"
         sodipodi:ry="1.5"
         sodipodi:rx="1.75"
         sodipodi:cy="15.5"
         sodipodi:cx="21.75"
         id="path2253"
         style="opacity:1;fill:url(#linearGradient2255);fill-opacity:1;fill-rule:evenodd;stroke:none;stroke-width:1;stroke-linecap:round;stroke-linejoin:round;stroke-miterlimit:4;stroke-dasharray:none;stroke-dashoffset:0;stroke-opacity:1"
         sodipodi:type="arc" />
    </g>
    <g
       id="g2257"
       transform="matrix(0.2398415,0,0,0.2433992,2.170827,-0.2696908)">
      <path
         transform="matrix(0.4085284,0,0,0.4970973,26.31439,16.803705)"
         d="M 20.594486 18.5 A 4.2972426 3.5 0 1 1  12,18.5 A 4.2972426 3.5 0 1 1  20.594486 18.5 z"
         sodipodi:ry="3.5"
         sodipodi:rx="4.2972426"
         sodipodi:cy="18.5"
         sodipodi:cx="16.297243"
         id="path2259"
         style="opacity:1;fill:#2e3436;fill-opacity:1;fill-rule:evenodd;stroke:#1c2021;stroke-width:9.1843071;stroke-linecap:round;stroke-linejoin:round;stroke-miterlimit:4;stroke-dasharray:none;stroke-dashoffset:0;stroke-opacity:1"
         sodipodi:type="arc" />
      <path
         transform="matrix(1.5047542,0,0,1.7398403,-1.5116729,-2.7073611)"
         d="M 23.5 15.5 A 1.75 1.5 0 1 1  20,15.5 A 1.75 1.5 0 1 1  23.5 15.5 z"
         sodipodi:ry="1.5"
         sodipodi:rx="1.75"
         sodipodi:cy="15.5"
         sodipodi:cx="21.75"
         id="path2261"
         style="opacity:1;fill:url(#linearGradient2263);fill-opacity:1;fill-rule:evenodd;stroke:none;stroke-width:1;stroke-linecap:round;stroke-linejoin:round;stroke-miterlimit:4;stroke-dasharray:none;stroke-dashoffset:0;stroke-opacity:1"
         sodipodi:type="arc" />
    </g>
    <g
       id="g2265"
       transform="matrix(0.2398415,0,0,0.2433992,4.1445118,-1.2518562)"
       inkscape:transform-center-y="0.50891729">
      <path
         transform="matrix(0.4085284,0,0,0.4970973,26.31439,16.803705)"
         d="M 20.594486 18.5 A 4.2972426 3.5 0 1 1  12,18.5 A 4.2972426 3.5 0 1 1  20.594486 18.5 z"
         sodipodi:ry="3.5"
         sodipodi:rx="4.2972426"
         sodipodi:cy="18.5"
         sodipodi:cx="16.297243"
         id="path2267"
         style="opacity:1;fill:#2e3436;fill-opacity:1;fill-rule:evenodd;stroke:#1c2021;stroke-width:9.1843071;stroke-linecap:round;stroke-linejoin:round;stroke-miterlimit:4;stroke-dasharray:none;stroke-dashoffset:0;stroke-opacity:1"
         sodipodi:type="arc" />
      <path
         transform="matrix(1.5047542,0,0,1.7398403,-1.5116729,-2.7073611)"
         d="M 23.5 15.5 A 1.75 1.5 0 1 1  20,15.5 A 1.75 1.5 0 1 1  23.5 15.5 z"
         sodipodi:ry="1.5"
         sodipodi:rx="1.75"
         sodipodi:cy="15.5"
         sodipodi:cx="21.75"
         id="path2269"
         style="opacity:1;fill:url(#linearGradient2271);fill-opacity:1;fill-rule:evenodd;stroke:none;stroke-width:1;stroke-linecap:round;stroke-linejoin:round;stroke-miterlimit:4;stroke-dasharray:none;stroke-dashoffset:0;stroke-opacity:1"
         sodipodi:type="arc" />
    </g>
    <g
       id="g4217"
       transform="matrix(0.2435707,0,0,0.2483515,1.04132,2.6230899)">
      <path
         transform="matrix(0.4085284,0,0,0.4970973,26.31439,16.803705)"
         d="M 20.594486 18.5 A 4.2972426 3.5 0 1 1  12,18.5 A 4.2972426 3.5 0 1 1  20.594486 18.5 z"
         sodipodi:ry="3.5"
         sodipodi:rx="4.2972426"
         sodipodi:cy="18.5"
         sodipodi:cx="16.297243"
         id="path4219"
         style="opacity:1;fill:#2e3436;fill-opacity:1;fill-rule:evenodd;stroke:#1c2021;stroke-width:9.02240372;stroke-linecap:round;stroke-linejoin:round;stroke-miterlimit:4;stroke-dasharray:none;stroke-dashoffset:0;stroke-opacity:1"
         sodipodi:type="arc" />
      <path
         transform="matrix(1.5047542,0,0,1.7398403,-1.5116729,-2.7073611)"
         d="M 23.5 15.5 A 1.75 1.5 0 1 1  20,15.5 A 1.75 1.5 0 1 1  23.5 15.5 z"
         sodipodi:ry="1.5"
         sodipodi:rx="1.75"
         sodipodi:cy="15.5"
         sodipodi:cx="21.75"
         id="path4221"
         style="opacity:1;fill:url(#linearGradient4223);fill-opacity:1;fill-rule:evenodd;stroke:none;stroke-width:1;stroke-linecap:round;stroke-linejoin:round;stroke-miterlimit:4;stroke-dasharray:none;stroke-dashoffset:0;stroke-opacity:1"
         sodipodi:type="arc" />
    </g>
  </g>
</svg>
