<?xml version="1.0" encoding="UTF-8" standalone="no"?>
<!-- Created with Inkscape (http://www.inkscape.org/) -->
<svg
   xmlns:dc="http://purl.org/dc/elements/1.1/"
   xmlns:cc="http://web.resource.org/cc/"
   xmlns:rdf="http://www.w3.org/1999/02/22-rdf-syntax-ns#"
   xmlns:svg="http://www.w3.org/2000/svg"
   xmlns="http://www.w3.org/2000/svg"
   xmlns:xlink="http://www.w3.org/1999/xlink"
   xmlns:sodipodi="http://sodipodi.sourceforge.net/DTD/sodipodi-0.dtd"
   xmlns:inkscape="http://www.inkscape.org/namespaces/inkscape"
   width="16"
   height="16"
   id="svg2"
   sodipodi:version="0.32"
   inkscape:version="0.45.1"
   version="1.0"
   sodipodi:docbase="/home/ulisse/Desktop/logitech-rumblepad2/16x16"
   sodipodi:docname="input-gaming-logitech-cordless-rumblepad2.svg"
   inkscape:output_extension="org.inkscape.output.svg.inkscape">
  <defs
     id="defs4">
    <linearGradient
       id="linearGradient3237"
       inkscape:collect="always">
      <stop
         id="stop3239"
         offset="0"
         style="stop-color:#ffffff;stop-opacity:1;" />
      <stop
         id="stop3241"
         offset="1"
         style="stop-color:#ffffff;stop-opacity:0.07843138" />
    </linearGradient>
    <linearGradient
       id="linearGradient3547">
      <stop
         id="stop3549"
         offset="0"
         style="stop-color:#e0e0e0;stop-opacity:1;" />
      <stop
         id="stop3551"
         offset="1"
         style="stop-color:#eaeaea;stop-opacity:0;" />
    </linearGradient>
    <linearGradient
       id="linearGradient3291">
      <stop
         style="stop-color:#6c7682;stop-opacity:1"
         offset="0"
         id="stop3293" />
      <stop
         id="stop3314"
         offset="0.62921351"
         style="stop-color:#929ba5;stop-opacity:1;" />
      <stop
         style="stop-color:#57616e;stop-opacity:1"
         offset="1"
         id="stop3295" />
    </linearGradient>
    <radialGradient
       inkscape:collect="always"
       xlink:href="#linearGradient3291"
       id="radialGradient3303"
       gradientUnits="userSpaceOnUse"
       gradientTransform="matrix(0.320655,6.9578384e-5,-6.1343373e-5,0.2959846,0.3453413,2.711932)"
       cx="23.981812"
       cy="7.0927701"
       fx="23.872118"
       fy="0.89712536"
       r="23.025204" />
    <radialGradient
       inkscape:collect="always"
       xlink:href="#linearGradient3547"
       id="radialGradient3545"
       cx="-6"
       cy="21.706213"
       fx="-6.2578349"
       fy="20.763403"
       r="3"
       gradientTransform="matrix(1,0,0,2.4312623,0,-31.067285)"
       gradientUnits="userSpaceOnUse" />
    <radialGradient
       inkscape:collect="always"
       xlink:href="#linearGradient3547"
       id="radialGradient3561"
       gradientUnits="userSpaceOnUse"
       gradientTransform="matrix(1,0,0,2.4312623,0,-31.067285)"
       cx="-6"
       cy="21.706213"
       fx="-6.7346997"
       fy="20.483507"
       r="3" />
    <linearGradient
       inkscape:collect="always"
       xlink:href="#linearGradient3237"
       id="linearGradient3229"
       gradientUnits="userSpaceOnUse"
       x1="12.83507"
       y1="1.923056"
       x2="15.092812"
       y2="10.3125" />
  </defs>
  <sodipodi:namedview
     id="base"
     pagecolor="#ffffff"
     bordercolor="#f6aaaa"
     borderopacity="1"
     inkscape:pageopacity="0.0"
     inkscape:pageshadow="2"
     inkscape:zoom="1"
     inkscape:cx="10.868473"
     inkscape:cy="8.2083648"
     inkscape:document-units="px"
     inkscape:current-layer="layer1"
     width="16px"
     height="16px"
     inkscape:showpageshadow="false"
     showgrid="false"
     gridspacingx="0.5px"
     gridspacingy="0.5px"
     gridempspacing="2"
     inkscape:grid-points="true"
     inkscape:window-width="1044"
     inkscape:window-height="853"
     inkscape:window-x="192"
     inkscape:window-y="44"
     showguides="true"
     inkscape:guide-bbox="true" />
  <metadata
     id="metadata7">
    <rdf:RDF>
      <cc:Work
         rdf:about="">
        <dc:format>image/svg+xml</dc:format>
        <dc:type
           rdf:resource="http://purl.org/dc/dcmitype/StillImage" />
        <dc:creator>
          <cc:Agent>
            <dc:title>Ulisse Perusin</dc:title>
          </cc:Agent>
        </dc:creator>
        <cc:license
           rdf:resource="http://creativecommons.org/licenses/GPL/2.0/" />
        <dc:title>input-gaming-logitech-cordless-rumblepad2</dc:title>
        <dc:subject>
          <rdf:Bag>
            <rdf:li>input gaming logitech rumblepad</rdf:li>
          </rdf:Bag>
        </dc:subject>
        <dc:source>uli.peru@gmail.com</dc:source>
      </cc:Work>
      <cc:License
         rdf:about="http://creativecommons.org/licenses/GPL/2.0/">
        <cc:permits
           rdf:resource="http://web.resource.org/cc/Reproduction" />
        <cc:permits
           rdf:resource="http://web.resource.org/cc/Distribution" />
        <cc:requires
           rdf:resource="http://web.resource.org/cc/Notice" />
        <cc:permits
           rdf:resource="http://web.resource.org/cc/DerivativeWorks" />
        <cc:requires
           rdf:resource="http://web.resource.org/cc/ShareAlike" />
        <cc:requires
           rdf:resource="http://web.resource.org/cc/SourceCode" />
      </cc:License>
    </rdf:RDF>
  </metadata>
  <g
     inkscape:label="Livello 1"
     inkscape:groupmode="layer"
     id="layer1"
     style="display:inline">
    <path
       style="fill:#5775a2;fill-opacity:1;stroke:#4d6a96;stroke-width:1;stroke-linejoin:round;stroke-miterlimit:4;stroke-opacity:1"
       d="M 5.0591041,6.5272328 L 11.061315,6.5272328 L 11.061315,8.1787701 C 9.6257842,8.3439235 9.9407272,9.4999997 8.0510674,9.4999997 C 6.1614062,9.4999997 6.4763497,8.3439235 5.0591041,8.1787701 L 5.0591041,6.5272328 z "
       id="rect3247"
       sodipodi:nodetypes="cccscc" />
    <path
       style="fill:url(#radialGradient3303);fill-opacity:1;stroke:#3e434b;stroke-width:0.99999988;stroke-linejoin:round;stroke-miterlimit:4;stroke-opacity:1"
       d="M 3.5,2.5 C 4.5,2.5 5.5,3 8.0362076,3.5 C 10.5,3 11.5,2.5 12.5,2.5 C 15.5,2.5 16.5,12 14.5,12.5 C 12.800238,12.001876 12.518478,8.8570656 11.471588,8.5 L 4.6008273,8.5 C 3.5539379,8.8570656 3.1389555,12.001876 1.5,12.5 C -0.5,12 0.5,2.5 3.5,2.5 z "
       id="rect3242"
       sodipodi:nodetypes="cccccccc" />
    <path
       sodipodi:type="arc"
       style="opacity:0.60919542;fill:url(#radialGradient3561);fill-opacity:1;stroke:none;stroke-width:1;stroke-linejoin:round;stroke-miterlimit:4;stroke-dasharray:none;stroke-opacity:1;display:inline"
       id="path3559"
       sodipodi:cx="-6"
       sodipodi:cy="21.706213"
       sodipodi:rx="3"
       sodipodi:ry="7.293787"
       d="M -3 21.706213 A 3 7.293787 0 1 1  -9,21.706213 A 3 7.293787 0 1 1  -3 21.706213 z"
       transform="matrix(-0.4481839,0,0.1536182,0.4107045,7.2264269,-0.9192486)" />
    <path
       sodipodi:type="arc"
       style="opacity:0.70582371;fill:url(#radialGradient3545);fill-opacity:1;stroke:none;stroke-width:1;stroke-linejoin:round;stroke-miterlimit:4;stroke-dasharray:none;stroke-opacity:1"
       id="path3537"
       sodipodi:cx="-6"
       sodipodi:cy="21.706213"
       sodipodi:rx="3"
       sodipodi:ry="7.293787"
       d="M -3 21.706213 A 3 7.293787 0 1 1  -9,21.706213 A 3 7.293787 0 1 1  -3 21.706213 z"
       transform="matrix(0.4481836,0,-0.1536182,0.4107046,8.7735711,-0.9104333)" />
    <path
       sodipodi:type="inkscape:offset"
       inkscape:radius="-1.0047024"
       inkscape:original="M 3.5 2.5 C 0.5 2.5 -0.5 12 1.5 12.5 C 3.1389555 12.001876 3.5468607 8.8570656 4.59375 8.5 L 11.46875 8.5 C 12.51564 8.8570656 12.800238 12.001876 14.5 12.5 C 16.5 12 15.5 2.5 12.5 2.5 C 11.5 2.5 10.495043 3 8.03125 3.5 C 5.4950424 3 4.5 2.5 3.5 2.5 z "
       xlink:href="#rect3242"
       style="opacity:0.48275859;fill:none;fill-opacity:1;stroke:url(#linearGradient3229);stroke-width:1;stroke-linejoin:miter;stroke-miterlimit:4;stroke-opacity:1"
       id="path3301"
       inkscape:href="#rect3242"
       d="M 4.375,3.5625 C 3.8640269,3.5629154 3.3969188,3.9039579 2.90625,4.6875 C 2.4155812,5.4710421 2.0139624,6.6125129 1.78125,7.78125 C 1.5531238,8.9269544 1.5069897,10.081577 1.5625,10.875 C 1.7071582,10.654349 1.8400119,10.466723 2,10.1875 C 2.2620989,9.7300663 2.5359483,9.2275016 2.84375,8.78125 C 3.1515517,8.3349984 3.4586498,7.8567839 4.15625,7.625 C 5.1690101,7.3105075 6.6054265,7.2479287 8.0625,7.25 C 9.5195735,7.2520713 10.892865,7.3123123 11.875,7.625 C 12.5726,7.8567837 12.879698,8.3349984 13.1875,8.78125 C 13.495302,9.2275016 13.769151,9.7300663 14.03125,10.1875 C 14.199711,10.481511 14.349249,10.679049 14.5,10.90625 C 14.565031,10.109821 14.491344,8.9426814 14.28125,7.78125 C 14.069065,6.6082604 13.703039,5.4114198 13.25,4.625 C 12.796961,3.8385802 12.389456,3.5628458 12,3.5625 C 11.921494,3.5628149 11.487665,3.6825066 10.8125,3.875 C 10.137335,4.0674934 9.2101864,4.28125 8.03125,4.28125 C 6.8518265,4.28125 6.0872452,4.0707486 5.5625,3.875 C 5.0377548,3.6792514 4.8563519,3.5625 4.375,3.5625 z " />
    <path
       sodipodi:type="arc"
       style="fill:#828b96;fill-opacity:1;stroke:#2b2f34;stroke-width:3.80512309;stroke-linejoin:round;stroke-miterlimit:4;stroke-dasharray:none;stroke-opacity:1"
       id="path3270"
       sodipodi:cx="25.6875"
       sodipodi:cy="-4.6875029"
       sodipodi:rx="4.3124995"
       sodipodi:ry="4.0625"
       d="M 30 -4.6875029 A 4.3124995 4.0625 0 1 1  21.375,-4.6875029 A 4.3124995 4.0625 0 1 1  30 -4.6875029 z"
       transform="matrix(0.2550725,0,0,0.2707692,-3.0521748,5.7692314)" />
    <path
       sodipodi:type="arc"
       style="opacity:1;fill:#7e99d8;fill-opacity:1;stroke:#3327a8;stroke-width:2.27272701;stroke-linejoin:round;stroke-miterlimit:4;stroke-dasharray:none;stroke-opacity:1;display:inline"
       id="path3393"
       sodipodi:cx="72.5"
       sodipodi:cy="18.5"
       sodipodi:rx="2.5"
       sodipodi:ry="2.5"
       d="M 75 18.5 A 2.5 2.5 0 1 1  70,18.5 A 2.5 2.5 0 1 1  75 18.5 z"
       transform="matrix(0.44,0,0,0.44,-26.4,-0.64)" />
    <rect
       style="opacity:0.41762456;fill:#eeeeec;fill-opacity:1;stroke:none;stroke-width:1;stroke-linejoin:round;stroke-miterlimit:4;stroke-dasharray:none;stroke-opacity:1"
       id="rect3528"
       width="0"
       height="0.4690809"
       x="11.330364"
       y="7.3341851" />
    <path
       sodipodi:type="arc"
       style="opacity:1;fill:#7e99d8;fill-opacity:1;stroke:#3327a8;stroke-width:2.27272701;stroke-linejoin:round;stroke-miterlimit:4;stroke-dasharray:none;stroke-opacity:1;display:inline"
       id="path3201"
       sodipodi:cx="72.5"
       sodipodi:cy="18.5"
       sodipodi:rx="2.5"
       sodipodi:ry="2.5"
       d="M 75 18.5 A 2.5 2.5 0 1 1  70,18.5 A 2.5 2.5 0 1 1  75 18.5 z"
       transform="matrix(0.44,0,0,0.44,-21.4,-0.64)" />
    <path
       sodipodi:type="arc"
       style="fill:#1f2226;fill-opacity:1;stroke:none;stroke-width:1;stroke-linejoin:round;stroke-miterlimit:4;stroke-dasharray:none;stroke-opacity:1;display:inline"
       id="path3213"
       sodipodi:cx="20"
       sodipodi:cy="8"
       sodipodi:rx="1.5"
       sodipodi:ry="1"
       d="M 21.5 8 A 1.5 1 0 1 1  18.5,8 A 1.5 1 0 1 1  21.5 8 z"
       transform="matrix(0.4,0,0,0.6,3.5,0.7)" />
    <path
       sodipodi:type="arc"
       style="fill:#1f2226;fill-opacity:1;stroke:none;stroke-width:1;stroke-linejoin:round;stroke-miterlimit:4;stroke-dasharray:none;stroke-opacity:1;display:inline"
       id="path3217"
       sodipodi:cx="20"
       sodipodi:cy="8"
       sodipodi:rx="1.5"
       sodipodi:ry="1"
       d="M 21.5 8 A 1.5 1 0 1 1  18.5,8 A 1.5 1 0 1 1  21.5 8 z"
       transform="matrix(0.4,0,0,0.6,4.5,-0.3)" />
    <path
       sodipodi:type="arc"
       style="fill:#1f2226;fill-opacity:1;stroke:none;stroke-width:1;stroke-linejoin:round;stroke-miterlimit:4;stroke-dasharray:none;stroke-opacity:1;display:inline"
       id="path3221"
       sodipodi:cx="20"
       sodipodi:cy="8"
       sodipodi:rx="1.5"
       sodipodi:ry="1"
       d="M 21.5 8 A 1.5 1 0 1 1  18.5,8 A 1.5 1 0 1 1  21.5 8 z"
       transform="matrix(0.4,0,0,0.6,4.5,1.7)" />
    <path
       sodipodi:type="arc"
       style="fill:#1f2226;fill-opacity:1;stroke:none;stroke-width:1;stroke-linejoin:round;stroke-miterlimit:4;stroke-dasharray:none;stroke-opacity:1;display:inline"
       id="path3225"
       sodipodi:cx="20"
       sodipodi:cy="8"
       sodipodi:rx="1.5"
       sodipodi:ry="1"
       d="M 21.5 8 A 1.5 1 0 1 1  18.5,8 A 1.5 1 0 1 1  21.5 8 z"
       transform="matrix(0.4,0,0,0.6,5.5,0.7)" />
    <path
       sodipodi:type="arc"
       style="fill:#1f2226;fill-opacity:1;stroke:none;stroke-width:1;stroke-linejoin:round;stroke-miterlimit:4;stroke-dasharray:none;stroke-opacity:1;display:inline"
       id="path3242"
       sodipodi:cx="20"
       sodipodi:cy="8"
       sodipodi:rx="1.5"
       sodipodi:ry="1"
       d="M 21.5 8 A 1.5 1 0 1 1  18.5,8 A 1.5 1 0 1 1  21.5 8 z"
       transform="matrix(0.4,0,0,0.6,-1.5,-0.3)" />
    <path
       sodipodi:type="arc"
       style="fill:#1f2226;fill-opacity:1;stroke:none;stroke-width:1;stroke-linejoin:round;stroke-miterlimit:4;stroke-dasharray:none;stroke-opacity:1;display:inline"
       id="path3244"
       sodipodi:cx="20"
       sodipodi:cy="8"
       sodipodi:rx="1.5"
       sodipodi:ry="1"
       d="M 21.5 8 A 1.5 1 0 1 1  18.5,8 A 1.5 1 0 1 1  21.5 8 z"
       transform="matrix(0.4,0,0,0.6,1.5,-0.3)" />
  </g>
</svg>
