<?xml version="1.0" encoding="UTF-8" standalone="no"?>
<!-- Created with Inkscape (http://www.inkscape.org/) -->
<svg
   xmlns:dc="http://purl.org/dc/elements/1.1/"
   xmlns:cc="http://web.resource.org/cc/"
   xmlns:rdf="http://www.w3.org/1999/02/22-rdf-syntax-ns#"
   xmlns:svg="http://www.w3.org/2000/svg"
   xmlns="http://www.w3.org/2000/svg"
   xmlns:xlink="http://www.w3.org/1999/xlink"
   xmlns:sodipodi="http://sodipodi.sourceforge.net/DTD/sodipodi-0.dtd"
   xmlns:inkscape="http://www.inkscape.org/namespaces/inkscape"
   width="16"
   height="16"
   id="svg2160"
   sodipodi:version="0.32"
   inkscape:version="0.45.1"
   sodipodi:docbase="/storage/Development/Art/Tango/Players/iriver_T60/16x16"
   sodipodi:docname="multimedia-player-iriver-t60-blue.svg"
   inkscape:output_extension="org.inkscape.output.svg.inkscape"
   inkscape:export-filename="/storage/Development/Art/Tango/Players/iriver_T60/16x16/multimedia-player-iriver-t60-blue.png"
   inkscape:export-xdpi="90"
   inkscape:export-ydpi="90"
   version="1.0">
  <defs
     id="defs2162">
    <linearGradient
       id="linearGradient4792">
      <stop
         style="stop-color:#ffffff;stop-opacity:1;"
         offset="0"
         id="stop4794" />
      <stop
         id="stop4796"
         offset="0.2"
         style="stop-color:#d3d3d3;stop-opacity:1;" />
      <stop
         style="stop-color:#d3d3d3;stop-opacity:1;"
         offset="0.80000001"
         id="stop4798" />
      <stop
         style="stop-color:#888888;stop-opacity:1;"
         offset="1"
         id="stop4800" />
    </linearGradient>
    <linearGradient
       id="linearGradient4087"
       inkscape:collect="always">
      <stop
         id="stop4089"
         offset="0"
         style="stop-color:#ffffff;stop-opacity:1" />
      <stop
         id="stop4091"
         offset="1"
         style="stop-color:#2e3436;stop-opacity:1" />
    </linearGradient>
    <linearGradient
       id="linearGradient4079">
      <stop
         id="stop4081"
         offset="0"
         style="stop-color:#729fcf;stop-opacity:1" />
      <stop
         id="stop4083"
         offset="1"
         style="stop-color:#204a87;stop-opacity:1" />
    </linearGradient>
    <linearGradient
       id="linearGradient4065">
      <stop
         id="stop4067"
         offset="0"
         style="stop-color:#d2e1f0;stop-opacity:1;" />
      <stop
         style="stop-color:#729fcf;stop-opacity:1;"
         offset="0.2"
         id="stop4069" />
      <stop
         id="stop4071"
         offset="0.80000001"
         style="stop-color:#729fcf;stop-opacity:1;" />
      <stop
         id="stop4073"
         offset="1"
         style="stop-color:#204a87;stop-opacity:1" />
    </linearGradient>
    <linearGradient
       id="linearGradient3383">
      <stop
         id="stop3385"
         offset="0"
         style="stop-color:#ffffff;stop-opacity:1" />
      <stop
         id="stop3387"
         offset="1"
         style="stop-color:#ffffff;stop-opacity:0;" />
    </linearGradient>
    <linearGradient
       id="linearGradient3685">
      <stop
         style="stop-color:#abe5f7;stop-opacity:1"
         offset="0"
         id="stop3687" />
      <stop
         style="stop-color:#3ebbe2;stop-opacity:1"
         offset="1"
         id="stop3689" />
    </linearGradient>
    <linearGradient
       id="linearGradient3469">
      <stop
         style="stop-color:#888a85;stop-opacity:1"
         offset="0"
         id="stop3471" />
      <stop
         style="stop-color:#2e3436;stop-opacity:1"
         offset="1"
         id="stop3473" />
    </linearGradient>
    <linearGradient
       id="linearGradient4454">
      <stop
         style="stop-color:#555753;stop-opacity:1"
         offset="0"
         id="stop4456" />
      <stop
         style="stop-color:#204a87;stop-opacity:1"
         offset="1"
         id="stop4458" />
    </linearGradient>
    <linearGradient
       inkscape:collect="always"
       id="linearGradient4443">
      <stop
         style="stop-color:#ffffff;stop-opacity:1;"
         offset="0"
         id="stop4445" />
      <stop
         style="stop-color:#ffffff;stop-opacity:0;"
         offset="1"
         id="stop4447" />
    </linearGradient>
    <linearGradient
       inkscape:collect="always"
       id="linearGradient3662">
      <stop
         style="stop-color:#2e3436;stop-opacity:1"
         offset="0"
         id="stop3664" />
      <stop
         style="stop-color:#3465a4;stop-opacity:1"
         offset="1"
         id="stop3666" />
    </linearGradient>
    <linearGradient
       inkscape:collect="always"
       id="linearGradient4370">
      <stop
         style="stop-color:#2e3436;stop-opacity:1"
         offset="0"
         id="stop4372" />
      <stop
         style="stop-color:#888a85;stop-opacity:1"
         offset="1"
         id="stop4374" />
    </linearGradient>
    <linearGradient
       inkscape:collect="always"
       id="linearGradient4362">
      <stop
         style="stop-color:#eeeeec;stop-opacity:1"
         offset="0"
         id="stop4364" />
      <stop
         style="stop-color:#d3d7cf;stop-opacity:1"
         offset="1"
         id="stop4366" />
    </linearGradient>
    <linearGradient
       id="linearGradient3173">
      <stop
         style="stop-color:#555753;stop-opacity:1"
         offset="0"
         id="stop3175" />
      <stop
         id="stop3181"
         offset="0.2"
         style="stop-color:#2e3436;stop-opacity:1;" />
      <stop
         style="stop-color:#2e3436;stop-opacity:1;"
         offset="0.80000001"
         id="stop3183" />
      <stop
         style="stop-color:#000000;stop-opacity:1"
         offset="1"
         id="stop3177" />
    </linearGradient>
    <linearGradient
       inkscape:collect="always"
       xlink:href="#linearGradient4362"
       id="linearGradient4368"
       x1="34"
       y1="22.571428"
       x2="32.720825"
       y2="13.357507"
       gradientUnits="userSpaceOnUse" />
    <radialGradient
       inkscape:collect="always"
       xlink:href="#linearGradient4370"
       id="radialGradient4378"
       cx="34"
       cy="18"
       fx="34.663353"
       fy="19.634518"
       r="4.5714288"
       gradientUnits="userSpaceOnUse"
       gradientTransform="matrix(1,-1.6686157e-6,1.6686105e-6,0.9999969,-2.2407056e-5,9.878933e-5)" />
    <linearGradient
       inkscape:collect="always"
       xlink:href="#linearGradient3662"
       id="linearGradient4431"
       gradientUnits="userSpaceOnUse"
       gradientTransform="matrix(0.6662861,0,0,0.7043478,3.3468226,-3.4043474)"
       x1="23.5"
       y1="12.468769"
       x2="23.5"
       y2="29" />
    <linearGradient
       inkscape:collect="always"
       xlink:href="#linearGradient4443"
       id="linearGradient4452"
       gradientUnits="userSpaceOnUse"
       gradientTransform="matrix(0.8953488,0,0,0.9759431,1.627907,-3.6872587)"
       x1="16.778969"
       y1="12.999999"
       x2="20.05085"
       y2="25" />
    <linearGradient
       inkscape:collect="always"
       xlink:href="#linearGradient3685"
       id="linearGradient3691"
       x1="15.179108"
       y1="11.5"
       x2="16.568016"
       y2="15"
       gradientUnits="userSpaceOnUse"
       gradientTransform="translate(0,1)" />
    <radialGradient
       inkscape:collect="always"
       xlink:href="#linearGradient3685"
       id="radialGradient3701"
       cx="52.5"
       cy="28"
       fx="51.939896"
       fy="27.440136"
       r="1.5"
       gradientUnits="userSpaceOnUse"
       gradientTransform="matrix(1.4980817,0,0,1.4980817,-26.149287,-13.946287)" />
    <linearGradient
       inkscape:collect="always"
       xlink:href="#linearGradient4443"
       id="linearGradient4119"
       gradientUnits="userSpaceOnUse"
       gradientTransform="matrix(0.8953488,0,0,0.9759431,1.627907,-3.6872587)"
       x1="16.778969"
       y1="12.999999"
       x2="20.05085"
       y2="25" />
    <linearGradient
       inkscape:collect="always"
       xlink:href="#linearGradient3662"
       id="linearGradient4123"
       gradientUnits="userSpaceOnUse"
       gradientTransform="matrix(0.6662861,0,0,0.7043478,3.3468226,-3.4043474)"
       x1="23.5"
       y1="12.468769"
       x2="23.5"
       y2="29" />
    <radialGradient
       inkscape:collect="always"
       xlink:href="#linearGradient3685"
       id="radialGradient4125"
       gradientUnits="userSpaceOnUse"
       gradientTransform="matrix(1.4980817,0,0,1.4980817,-26.149287,-13.946287)"
       cx="52.5"
       cy="28"
       fx="51.939896"
       fy="27.440136"
       r="1.5" />
    <linearGradient
       inkscape:collect="always"
       xlink:href="#linearGradient3685"
       id="linearGradient4127"
       gradientUnits="userSpaceOnUse"
       gradientTransform="translate(0,1)"
       x1="15.179108"
       y1="11.5"
       x2="16.568016"
       y2="15" />
    <linearGradient
       inkscape:collect="always"
       xlink:href="#linearGradient3685"
       id="linearGradient4130"
       gradientUnits="userSpaceOnUse"
       x1="15.179108"
       y1="11.5"
       x2="16.568016"
       y2="15"
       gradientTransform="translate(0,0.4999999)" />
    <linearGradient
       inkscape:collect="always"
       xlink:href="#linearGradient3662"
       id="linearGradient4139"
       gradientUnits="userSpaceOnUse"
       gradientTransform="matrix(0.6726543,0,0,0.7306938,3.1350877,-4.1675681)"
       x1="23.5"
       y1="12.468769"
       x2="23.5"
       y2="29" />
    <radialGradient
       inkscape:collect="always"
       xlink:href="#linearGradient3685"
       id="radialGradient4157"
       gradientUnits="userSpaceOnUse"
       gradientTransform="matrix(1.4980817,0,0,1.4980817,-26.149287,-13.946287)"
       cx="52.5"
       cy="28"
       fx="51.939896"
       fy="27.440136"
       r="1.5" />
    <linearGradient
       inkscape:collect="always"
       xlink:href="#linearGradient4065"
       id="linearGradient4075"
       gradientUnits="userSpaceOnUse"
       gradientTransform="matrix(0.3191546,0,0,0.3062609,0.3404231,0.9108205)"
       x1="23.999582"
       y1="6.821568"
       x2="23.999582"
       y2="33.158909" />
    <linearGradient
       inkscape:collect="always"
       xlink:href="#linearGradient4079"
       id="linearGradient4077"
       gradientUnits="userSpaceOnUse"
       gradientTransform="matrix(0.3191546,0,0,0.3062609,0.3404231,0.9108205)"
       x1="49.065804"
       y1="6.821568"
       x2="49.065804"
       y2="36.208279" />
    <radialGradient
       inkscape:collect="always"
       xlink:href="#linearGradient4087"
       id="radialGradient4085"
       gradientUnits="userSpaceOnUse"
       cx="34"
       cy="18"
       fx="32.01017"
       fy="16.01017"
       r="4" />
    <radialGradient
       inkscape:collect="always"
       xlink:href="#linearGradient4087"
       id="radialGradient3299"
       gradientUnits="userSpaceOnUse"
       cx="32.01017"
       cy="16.01017"
       fx="32.01017"
       fy="16.01017"
       r="4"
       gradientTransform="matrix(1.0001209,2.3109158e-2,-2.7406027e-2,1.1860812,0.4349061,-3.7189195)" />
    <radialGradient
       inkscape:collect="always"
       xlink:href="#linearGradient4370"
       id="radialGradient3301"
       gradientUnits="userSpaceOnUse"
       gradientTransform="matrix(1,-1.6686157e-6,1.6686105e-6,0.9999969,-2.2407056e-5,9.878933e-5)"
       cx="34"
       cy="18"
       fx="34.663353"
       fy="19.634518"
       r="4.5714288" />
    <linearGradient
       inkscape:collect="always"
       xlink:href="#linearGradient4362"
       id="linearGradient3303"
       gradientUnits="userSpaceOnUse"
       x1="34"
       y1="22.571428"
       x2="32.720825"
       y2="13.357507" />
  </defs>
  <sodipodi:namedview
     id="base"
     pagecolor="#ffffff"
     bordercolor="#666666"
     borderopacity="1.0"
     inkscape:pageopacity="0.0"
     inkscape:pageshadow="2"
     inkscape:zoom="16.061622"
     inkscape:cx="32.463025"
     inkscape:cy="10.480608"
     inkscape:current-layer="layer1"
     showgrid="true"
     inkscape:grid-bbox="true"
     inkscape:document-units="px"
     gridspacingx="0.5px"
     gridspacingy="0.5px"
     gridempspacing="2"
     inkscape:grid-points="true"
     inkscape:window-width="1400"
     inkscape:window-height="981"
     inkscape:window-x="0"
     inkscape:window-y="25"
     width="16px"
     height="16px" />
  <metadata
     id="metadata2165">
    <rdf:RDF>
      <cc:Work
         rdf:about="">
        <dc:format>image/svg+xml</dc:format>
        <dc:type
           rdf:resource="http://purl.org/dc/dcmitype/StillImage" />
        <dc:title>iriver T60 (blue)</dc:title>
        <dc:date>2007-09-13</dc:date>
        <dc:creator>
          <cc:Agent>
            <dc:title>André Wyrwa</dc:title>
          </cc:Agent>
        </dc:creator>
        <dc:subject>
          <rdf:Bag>
            <rdf:li>multimedia player iriver T60 portable audio</rdf:li>
          </rdf:Bag>
        </dc:subject>
        <cc:license
           rdf:resource="http://creativecommons.org/licenses/GPL/2.0/" />
      </cc:Work>
      <cc:License
         rdf:about="http://creativecommons.org/licenses/GPL/2.0/">
        <cc:permits
           rdf:resource="http://web.resource.org/cc/Reproduction" />
        <cc:permits
           rdf:resource="http://web.resource.org/cc/Distribution" />
        <cc:requires
           rdf:resource="http://web.resource.org/cc/Notice" />
        <cc:permits
           rdf:resource="http://web.resource.org/cc/DerivativeWorks" />
        <cc:requires
           rdf:resource="http://web.resource.org/cc/ShareAlike" />
        <cc:requires
           rdf:resource="http://web.resource.org/cc/SourceCode" />
      </cc:License>
    </rdf:RDF>
  </metadata>
  <g
     id="layer1"
     inkscape:label="Layer 1"
     inkscape:groupmode="layer">
    <path
       style="fill:url(#linearGradient4075);fill-opacity:1.0;stroke:url(#linearGradient4077);stroke-width:0.99999994;stroke-linecap:round;stroke-linejoin:round;stroke-miterlimit:4;stroke-opacity:1"
       d="M 2.5,3.5 L 13.5,3.5 C 13.5,3.5 14.340423,3.7343479 14.5,4.5 C 14.659578,5.2656527 15.5,10.5 15.5,10.5 C 15.5,10.5 15.225819,11.5 14.5,11.5 L 1.5,11.5 C 0.77418057,11.5 0.49999997,10.5 0.49999997,10.5 C 0.49999997,10.5 1.3404228,5.2656527 1.5,4.5 C 1.6595774,3.7343479 2.5,3.5 2.5,3.5 z "
       id="rect2168"
       sodipodi:nodetypes="cczsccszc" />
    <path
       style="opacity:0.5;fill:#ffffff;fill-opacity:0.58823529;stroke:#ffffff;stroke-width:0.99999994;stroke-linecap:round;stroke-linejoin:round;stroke-miterlimit:4;stroke-opacity:1"
       d="M 2.5,4.5 C 2.5,4.5 1.5,10.5 1.5,10.5 L 14.5,10.5 C 14.5,10.5 13.5,4.5 13.5,4.5 L 2.5,4.5 z "
       id="path3291"
       sodipodi:nodetypes="ccccc" />
    <g
       id="g3293">
      <path
         sodipodi:nodetypes="cc"
         id="path3155"
         d="M 1.5,8.5 L 14.5,8.5"
         style="opacity:0.25;fill:none;fill-rule:evenodd;stroke:#ffffff;stroke-width:0.99999994px;stroke-linecap:round;stroke-linejoin:round;stroke-opacity:1" />
      <path
         sodipodi:nodetypes="cc"
         id="path3159"
         d="M 2,6.5 L 14,6.5"
         style="opacity:0.25;fill:none;fill-rule:evenodd;stroke:#ffffff;stroke-width:0.99999994px;stroke-linecap:round;stroke-linejoin:round;stroke-opacity:1" />
    </g>
    <path
       sodipodi:type="arc"
       style="opacity:0.6;fill:url(#radialGradient3301);fill-opacity:1;stroke:url(#linearGradient3303);stroke-width:4;stroke-linecap:round;stroke-linejoin:round;stroke-miterlimit:4;stroke-dasharray:none;stroke-opacity:1"
       id="path3169"
       sodipodi:cx="34"
       sodipodi:cy="18"
       sodipodi:rx="4"
       sodipodi:ry="4"
       d="M 38 18 A 4 4 0 1 1  30,18 A 4 4 0 1 1  38 18 z"
       transform="matrix(0.25,0,0,0.25,3,3)" />
    <g
       id="g4169"
       transform="matrix(0.2971941,0,0,0.3128172,0.4535497,2.5792218)"
       style="stroke:none">
      <rect
         rx="7.9918876"
         ry="7.9918876"
         y="7.7386351"
         x="6.8859043"
         height="15.983775"
         width="23.553631"
         id="rect3171"
         style="fill:#2e3436;fill-opacity:1;stroke:#ffffff;stroke-width:1.63985181;stroke-linecap:round;stroke-linejoin:round;stroke-miterlimit:4;stroke-dasharray:none;stroke-opacity:0.58823529" />
      <path
         id="path4399"
         d="M 15.913385,18 L 15.913385,18.307024 L 16.216536,18.307024 L 16.216536,18 L 15.913385,18 z M 18.11811,18 L 18.11811,18.307024 L 18.421261,18.307024 L 18.421261,18 L 18.11811,18 z M 16.602364,18.448727 L 16.602364,18.661283 L 16.933072,18.661283 L 16.933072,19.464268 C 16.93307,19.618686 16.977979,19.728466 17.043308,19.794909 C 17.108635,19.861352 17.196415,19.889378 17.346456,19.889378 L 17.704725,19.889378 L 17.704725,19.676823 L 17.429134,19.676823 C 17.35878,19.676824 17.320769,19.663425 17.291337,19.62959 C 17.261905,19.595752 17.236218,19.545476 17.236219,19.464268 L 17.236219,18.448727 L 16.602364,18.448727 z M 15.582677,18.472344 L 15.582677,18.684899 L 15.913385,18.684899 L 15.913385,19.298948 L 15.5,19.298948 L 15.5,19.511503 L 16.602364,19.511503 L 16.602364,19.298948 L 16.216536,19.298948 L 16.216536,18.472344 L 15.582677,18.472344 z M 17.787402,18.472344 L 17.787402,18.684899 L 18.11811,18.684899 L 18.11811,19.298948 L 17.704725,19.298948 L 17.704725,19.511503 L 18.807087,19.511503 L 18.807087,19.298948 L 18.421261,19.298948 L 18.421261,18.472344 L 17.787402,18.472344 z M 18.807087,18.472344 L 19.192913,19.511503 L 19.578739,19.511503 L 19.964565,18.472344 L 19.661419,18.472344 L 19.385828,19.27533 L 19.137795,18.472344 L 18.807087,18.472344 z M 20.736219,18.472344 C 20.558903,18.472346 20.425491,18.51623 20.322835,18.614048 C 20.220177,18.711868 20.157481,18.870591 20.157481,19.039158 C 20.157481,19.213263 20.216586,19.347754 20.322835,19.440651 C 20.429799,19.532932 20.589609,19.558737 20.791337,19.558737 C 20.876049,19.558737 20.935714,19.571656 21.011809,19.558737 C 21.087906,19.545817 21.186616,19.513725 21.259845,19.487885 L 21.259845,19.228095 C 21.183027,19.266855 21.082163,19.304724 21.011809,19.322564 C 20.941457,19.340405 20.863844,19.346182 20.791337,19.346182 C 20.681502,19.346181 20.626145,19.315319 20.570866,19.27533 C 20.515589,19.235342 20.461348,19.191218 20.460629,19.110009 L 21.2874,19.110009 L 21.2874,18.991923 C 21.2874,18.827049 21.248673,18.704486 21.149607,18.614048 C 21.051253,18.522998 20.914973,18.472346 20.736219,18.472344 z M 22.251969,18.472344 C 22.166541,18.472346 22.095388,18.486973 22.031497,18.519579 C 21.967601,18.551571 21.924568,18.602222 21.893701,18.661283 L 21.893701,18.495962 L 21.562991,18.495962 L 21.562991,19.535119 L 21.893701,19.535119 L 21.893701,19.062775 C 21.893699,18.995104 21.887241,18.930677 21.893701,18.897454 C 21.900877,18.864233 21.931589,18.849981 21.948818,18.826603 C 21.976099,18.78846 22.009518,18.751822 22.059055,18.732134 C 22.109306,18.711833 22.157645,18.708518 22.224409,18.708517 C 22.279685,18.708518 22.343818,18.718599 22.389763,18.732134 C 22.436426,18.745668 22.465539,18.752299 22.5,18.779369 L 22.5,18.519579 C 22.462669,18.502353 22.4314,18.504574 22.389763,18.495962 C 22.348843,18.486734 22.29504,18.472346 22.251969,18.472344 z M 20.736219,18.684899 C 20.816625,18.684901 20.860654,18.695222 20.901574,18.732134 C 20.943212,18.768432 20.982814,18.826091 20.984254,18.897454 L 20.460629,18.897454 C 20.468526,18.827935 20.527791,18.79328 20.570866,18.755751 C 20.61394,18.717609 20.663711,18.684901 20.736219,18.684899 z "
         style="font-size:4px;font-style:normal;font-weight:normal;fill:#eeeeec;fill-opacity:1;stroke:none;stroke-width:1px;stroke-linecap:butt;stroke-linejoin:miter;stroke-opacity:1;font-family:Bitstream Vera Sans Mono" />
      <g
         id="g4159"
         style="stroke:none">
        <rect
           style="opacity:0.8;fill:url(#linearGradient4139);fill-opacity:1;stroke:none;stroke-linecap:square;stroke-linejoin:round"
           id="rect3660"
           width="16.5"
           height="7"
           x="10.5"
           y="11" />
        <path
           style="font-size:1.95357037px;font-style:normal;font-weight:bold;fill:#76d0ec;fill-opacity:1;stroke:none;stroke-width:1px;stroke-linecap:butt;stroke-linejoin:miter;stroke-opacity:1;font-family:Bitstream Vera Sans Mono"
           d="M 19.071802,11.655839 L 19.425305,11.655839 L 19.604065,12.249296 L 19.78182,11.655839 L 20.137331,11.655839 L 20.137331,13.00856 L 19.882247,13.00856 L 19.882247,11.924933 L 19.723573,12.516578 L 19.48757,12.516578 L 19.326887,11.924933 L 19.326887,13.00856 L 19.071802,13.00856 L 19.071802,11.655839 M 20.383377,12.654297 L 20.383377,11.993793 L 20.677628,11.993793 L 20.677628,12.613526 C 20.677628,12.686614 20.68901,12.738861 20.711773,12.770271 C 20.734536,12.801681 20.772363,12.817385 20.825255,12.817385 C 20.878146,12.817385 20.919322,12.796244 20.94878,12.753962 C 20.978908,12.71168 20.993971,12.652486 20.993972,12.576377 L 20.993972,11.993793 L 21.288223,11.993793 L 21.288223,13.00856 L 20.993972,13.00856 L 20.993972,12.858157 C 20.973217,12.914331 20.937733,12.957822 20.88752,12.988627 C 20.837975,13.019432 20.778054,13.034835 20.707756,13.034835 C 20.600633,13.034835 20.519623,13.002821 20.464723,12.938794 C 20.410492,12.874768 20.383377,12.779935 20.383377,12.654297 M 22.455184,12.025504 L 22.455184,12.257451 C 22.400952,12.226042 22.344378,12.202485 22.285462,12.18678 C 22.227213,12.170472 22.168632,12.162318 22.109715,12.162317 C 22.044102,12.162318 21.994559,12.171076 21.961083,12.188592 C 21.927607,12.205505 21.910869,12.230874 21.910869,12.2647 C 21.910869,12.313023 21.982507,12.352284 22.125783,12.382484 L 22.13683,12.385203 L 22.221189,12.403324 C 22.328309,12.426277 22.406643,12.463425 22.456187,12.514767 C 22.5064,12.565506 22.531506,12.634365 22.531507,12.721344 C 22.531506,12.825842 22.493345,12.904365 22.417021,12.956915 C 22.341365,13.008862 22.227213,13.034835 22.074566,13.034835 C 22.006944,13.034835 21.93765,13.029398 21.866682,13.018527 C 21.795713,13.008258 21.723741,12.992553 21.650764,12.971412 L 21.650764,12.739465 C 21.715707,12.772687 21.781654,12.798056 21.848605,12.815573 C 21.916225,12.83309 21.981503,12.841848 22.044438,12.841848 C 22.113397,12.841848 22.165618,12.832788 22.201103,12.814667 C 22.236586,12.796546 22.254328,12.770271 22.254329,12.735841 C 22.254328,12.702016 22.241608,12.676043 22.216167,12.657922 C 22.191394,12.639801 22.131808,12.620472 22.037408,12.599935 L 21.956061,12.583626 C 21.843583,12.560674 21.761568,12.524734 21.710016,12.475807 C 21.658463,12.426882 21.632687,12.361345 21.632687,12.279196 C 21.632687,12.181344 21.671854,12.105237 21.750187,12.050873 C 21.82852,11.996512 21.938654,11.969331 22.080591,11.96933 C 22.144194,11.969331 22.207463,11.974163 22.270398,11.983826 C 22.334001,11.992888 22.395596,12.00678 22.455184,12.025504 M 22.919155,11.993793 L 23.501632,11.993793 L 23.501632,12.8047 L 23.867185,12.8047 L 23.867185,13.00856 L 22.840823,13.00856 L 22.840823,12.8047 L 23.20738,12.8047 L 23.20738,12.197653 L 22.919155,12.197653 L 22.919155,11.993793 M 23.20738,11.5 L 23.501632,11.5 L 23.501632,11.809866 L 23.20738,11.809866 L 23.20738,11.5 M 25,12.956915 C 24.950456,12.982889 24.897229,13.002217 24.840321,13.014902 C 24.783412,13.02819 24.722151,13.034835 24.65654,13.034835 C 24.483136,13.034835 24.34756,12.987721 24.249811,12.893492 C 24.152062,12.799264 24.103188,12.668795 24.103188,12.502082 C 24.103188,12.334767 24.152397,12.203996 24.250816,12.109766 C 24.349234,12.014934 24.485144,11.967518 24.658549,11.967517 C 24.718804,11.967518 24.776717,11.973861 24.832287,11.986545 C 24.888525,11.99923 24.944429,12.018861 25,12.045437 L 25,12.288257 C 24.95715,12.255036 24.90995,12.229667 24.858399,12.212149 C 24.807514,12.194029 24.754623,12.184968 24.699724,12.184968 C 24.603983,12.184968 24.530336,12.212452 24.478784,12.267417 C 24.427232,12.322384 24.401455,12.400606 24.401456,12.502082 C 24.401455,12.60356 24.427232,12.681479 24.478784,12.735841 C 24.530336,12.790204 24.603983,12.817385 24.699724,12.817385 C 24.756632,12.817385 24.809858,12.808929 24.859402,12.792016 C 24.908945,12.774499 24.955811,12.748224 25,12.71319 L 25,12.956915"
           id="text4068" />
        <path
           sodipodi:type="arc"
           style="fill:url(#radialGradient4157);fill-opacity:1;stroke:none;stroke-width:1;stroke-linecap:round;stroke-linejoin:round;stroke-miterlimit:4;stroke-dasharray:none;stroke-opacity:0.78431373"
           id="path3644"
           sodipodi:cx="52.5"
           sodipodi:cy="28"
           sodipodi:rx="1.5"
           sodipodi:ry="1.5"
           d="M 54 28 A 1.5 1.5 0 1 1  51,28 A 1.5 1.5 0 1 1  54 28 z"
           transform="matrix(0.6666665,0,0,0.6666667,-19.499991,-4.1666677)" />
        <path
           style="fill:url(#linearGradient4130);fill-opacity:1;stroke:none;stroke-width:1;stroke-linecap:round;stroke-linejoin:round;stroke-miterlimit:4;stroke-opacity:0.78431373"
           d="M 15.5,12 C 14.512893,12 13.694004,12.715424 13.53125,13.65625 C 13.226332,13.827608 13,14.125554 13,14.5 C 13,15.052 13.448,15.5 14,15.5 C 14,15.5 14,15 14,14.5 C 14,14.25 14,14.1875 14,14 C 14,13.172 14.671998,12.5 15.5,12.5 C 16.328002,12.5 17,13.172 17,14 C 17,14.1875 17,14.25 17,14.5 C 17,15 17,15.5 17,15.5 C 17.552,15.5 18,15.052 18,14.5 C 18,14.125554 17.773669,13.827608 17.46875,13.65625 C 17.305995,12.715424 16.487105,12 15.5,12 z "
           id="path3651" />
        <path
           sodipodi:type="arc"
           style="opacity:1;fill:#3ebbe2;fill-opacity:1;stroke:none;stroke-width:1;stroke-linecap:round;stroke-linejoin:round;stroke-miterlimit:4;stroke-dasharray:none;stroke-opacity:1"
           id="path4141"
           sodipodi:cx="19.5"
           sodipodi:cy="15"
           sodipodi:rx="0.5"
           sodipodi:ry="0.5"
           d="M 20 15 A 0.5 0.5 0 1 1  19,15 A 0.5 0.5 0 1 1  20 15 z"
           transform="matrix(1.5,0,0,1.5,-9.5,-7.7500001)" />
        <path
           sodipodi:type="arc"
           style="opacity:1;fill:#3ebbe2;fill-opacity:1;stroke:none;stroke-width:1;stroke-linecap:round;stroke-linejoin:round;stroke-miterlimit:4;stroke-dasharray:none;stroke-opacity:1"
           id="path4151"
           sodipodi:cx="19.5"
           sodipodi:cy="15"
           sodipodi:rx="0.5"
           sodipodi:ry="0.5"
           d="M 20 15 A 0.5 0.5 0 1 1  19,15 A 0.5 0.5 0 1 1  20 15 z"
           transform="translate(3.5,-1.5e-7)" />
        <path
           sodipodi:type="arc"
           style="opacity:1;fill:#3ebbe2;fill-opacity:1;stroke:none;stroke-width:1;stroke-linecap:round;stroke-linejoin:round;stroke-miterlimit:4;stroke-dasharray:none;stroke-opacity:1"
           id="path4153"
           sodipodi:cx="19.5"
           sodipodi:cy="15"
           sodipodi:rx="0.5"
           sodipodi:ry="0.5"
           d="M 20 15 A 0.5 0.5 0 1 1  19,15 A 0.5 0.5 0 1 1  20 15 z"
           transform="translate(5,-1.5e-7)" />
        <path
           sodipodi:type="arc"
           style="opacity:1;fill:#3ebbe2;fill-opacity:1;stroke:none;stroke-width:1;stroke-linecap:round;stroke-linejoin:round;stroke-miterlimit:4;stroke-dasharray:none;stroke-opacity:1"
           id="path4155"
           sodipodi:cx="19.5"
           sodipodi:cy="15"
           sodipodi:rx="0.5"
           sodipodi:ry="0.5"
           d="M 20 15 A 0.5 0.5 0 1 1  19,15 A 0.5 0.5 0 1 1  20 15 z"
           transform="translate(2,-1.5e-7)" />
      </g>
      <path
         sodipodi:nodetypes="ccccsc"
         id="rect4433"
         d="M 14.1877,9.2566033 L 23.771301,9.2566033 C 25.368567,9.2566033 26.965834,10.016087 27.764468,11.535055 C 18.264468,13.535055 19.267266,16.629894 10.194533,19.129894 C 9.3958998,18.37041 8.5972664,16.954493 8.5972664,15.332475 C 8.5972664,10.832475 12.590433,9.2566033 14.1877,9.2566033 z "
         style="opacity:0.35;fill:url(#linearGradient4119);fill-opacity:1;stroke:none;stroke-width:0.99999994;stroke-linecap:round;stroke-linejoin:round;stroke-miterlimit:4;stroke-opacity:0.29411765" />
    </g>
  </g>
</svg>
