<?xml version="1.0" encoding="UTF-8" standalone="no"?>
<!-- Created with Inkscape (http://www.inkscape.org/) -->
<svg
   xmlns:dc="http://purl.org/dc/elements/1.1/"
   xmlns:cc="http://web.resource.org/cc/"
   xmlns:rdf="http://www.w3.org/1999/02/22-rdf-syntax-ns#"
   xmlns:svg="http://www.w3.org/2000/svg"
   xmlns="http://www.w3.org/2000/svg"
   xmlns:xlink="http://www.w3.org/1999/xlink"
   xmlns:sodipodi="http://sodipodi.sourceforge.net/DTD/sodipodi-0.dtd"
   xmlns:inkscape="http://www.inkscape.org/namespaces/inkscape"
   width="16px"
   height="16px"
   id="svg4851"
   sodipodi:version="0.32"
   inkscape:version="0.45.1"
   sodipodi:docbase="D:\Icons"
   sodipodi:docname="phone-sony-ericsson-w300i-16x16.svg"
   inkscape:output_extension="org.inkscape.output.svg.inkscape"
   inkscape:export-filename="D:\Icons\phone-sony-ericsson-w300i-16x16.png"
   inkscape:export-xdpi="90"
   inkscape:export-ydpi="90">
  <defs
     id="defs4853">
    <linearGradient
       id="linearGradient22866">
      <stop
         style="stop-color:#000000;stop-opacity:1;"
         offset="0"
         id="stop22868" />
      <stop
         style="stop-color:#000000;stop-opacity:0.40000001;"
         offset="1"
         id="stop22870" />
    </linearGradient>
    <linearGradient
       id="linearGradient4547"
       inkscape:collect="always">
      <stop
         id="stop4549"
         offset="0"
         style="stop-color:white;stop-opacity:1;" />
      <stop
         id="stop4551"
         offset="1"
         style="stop-color:white;stop-opacity:0;" />
    </linearGradient>
    <linearGradient
       inkscape:collect="always"
       id="linearGradient8656">
      <stop
         style="stop-color:#eeeeec;stop-opacity:1;"
         offset="0"
         id="stop8658" />
      <stop
         style="stop-color:#eeeeec;stop-opacity:0;"
         offset="1"
         id="stop8660" />
    </linearGradient>
    <linearGradient
       id="linearGradient20815">
      <stop
         style="stop-color:#ff7301;stop-opacity:1;"
         offset="0"
         id="stop20817" />
      <stop
         style="stop-color:#8e3f00;stop-opacity:1;"
         offset="1"
         id="stop20819" />
    </linearGradient>
    <linearGradient
       id="linearGradient20823">
      <stop
         style="stop-color:#000000;stop-opacity:1;"
         offset="0"
         id="stop20825" />
      <stop
         style="stop-color:#000000;stop-opacity:0;"
         offset="1"
         id="stop20827" />
    </linearGradient>
    <linearGradient
       id="linearGradient16905">
      <stop
         style="stop-color:#000000;stop-opacity:1;"
         offset="0"
         id="stop16907" />
      <stop
         id="stop16913"
         offset="0.33027524"
         style="stop-color:#000000;stop-opacity:1;" />
      <stop
         style="stop-color:#000000;stop-opacity:0;"
         offset="0.80952781"
         id="stop8564" />
      <stop
         style="stop-color:#000000;stop-opacity:1;"
         offset="1"
         id="stop16909" />
    </linearGradient>
    <linearGradient
       id="linearGradient9136">
      <stop
         style="stop-color:#ffffff;stop-opacity:1;"
         offset="0"
         id="stop9138" />
      <stop
         id="stop9144"
         offset="0.5"
         style="stop-color:#f2f3f2;stop-opacity:1;" />
      <stop
         style="stop-color:#91978b;stop-opacity:1;"
         offset="1"
         id="stop9140" />
    </linearGradient>
    <linearGradient
       inkscape:collect="always"
       xlink:href="#linearGradient4547"
       id="linearGradient4908"
       gradientUnits="userSpaceOnUse"
       gradientTransform="matrix(0.2014683,0,0,0.1852857,2.8995128,5.9768609)"
       x1="20.080355"
       y1="4.426187"
       x2="22.453627"
       y2="25.181578" />
    <linearGradient
       inkscape:collect="always"
       xlink:href="#linearGradient8656"
       id="linearGradient4912"
       gradientUnits="userSpaceOnUse"
       gradientTransform="matrix(0.1952178,0,0,0.2252998,2.0239671,0.737978)"
       x1="16.983896"
       y1="30.789368"
       x2="17.065989"
       y2="3.9362223" />
    <linearGradient
       inkscape:collect="always"
       xlink:href="#linearGradient20815"
       id="linearGradient4917"
       gradientUnits="userSpaceOnUse"
       gradientTransform="matrix(0.2291414,0,0,0.2291414,-14.442312,0.164431)"
       x1="93.460129"
       y1="54.84375"
       x2="101.52513"
       y2="54.84375" />
    <linearGradient
       inkscape:collect="always"
       xlink:href="#linearGradient20823"
       id="linearGradient4921"
       gradientUnits="userSpaceOnUse"
       gradientTransform="matrix(0.2357199,0,0,0.2977563,13.135679,4.7721884)"
       x1="-24.026669"
       y1="33.455204"
       x2="-24.026669"
       y2="19.483265" />
    <linearGradient
       inkscape:collect="always"
       xlink:href="#linearGradient16905"
       id="linearGradient4925"
       gradientUnits="userSpaceOnUse"
       gradientTransform="matrix(0.2105262,0,0,0.2185317,-12.478036,0.9249163)"
       x1="107.16781"
       y1="25.441957"
       x2="87.167809"
       y2="25.441957" />
    <linearGradient
       inkscape:collect="always"
       xlink:href="#linearGradient9136"
       id="linearGradient4928"
       gradientUnits="userSpaceOnUse"
       gradientTransform="matrix(0.2291414,0,0,0.2291414,-14.442312,0.6719485)"
       x1="82.81665"
       y1="14.266467"
       x2="82.81665"
       y2="3.625" />
    <radialGradient
       inkscape:collect="always"
       xlink:href="#linearGradient22866"
       id="radialGradient4931"
       gradientUnits="userSpaceOnUse"
       cx="100.66233"
       cy="21.054541"
       fx="100.66233"
       fy="21.054541"
       r="1.7832407" />
  </defs>
  <sodipodi:namedview
     id="base"
     pagecolor="#ffffff"
     bordercolor="#666666"
     borderopacity="1.0"
     inkscape:pageopacity="0.0"
     inkscape:pageshadow="2"
     inkscape:zoom="19.272114"
     inkscape:cx="9.4932015"
     inkscape:cy="5.710754"
     inkscape:current-layer="layer1"
     showgrid="true"
     inkscape:grid-bbox="true"
     inkscape:document-units="px"
     inkscape:window-width="1366"
     inkscape:window-height="721"
     inkscape:window-x="-4"
     inkscape:window-y="-4" />
  <metadata
     id="metadata4856">
    <rdf:RDF>
      <cc:Work
         rdf:about="">
        <dc:format>image/svg+xml</dc:format>
        <dc:type
           rdf:resource="http://purl.org/dc/dcmitype/StillImage" />
      </cc:Work>
    </rdf:RDF>
  </metadata>
  <g
     id="layer1"
     inkscape:label="Layer 1"
     inkscape:groupmode="layer">
    <path
       sodipodi:nodetypes="cccccssscccc"
       id="path6203"
       d="M 6.0938256,1.4999998 L 9.5365495,1.4999998 C 9.847867,1.4999998 10.571069,1.8233652 10.784305,2.0037715 C 11.158196,1.995973 11.522696,2.2942549 11.522696,2.6271302 L 11.522696,13.09435 C 11.522696,13.71878 10.953239,14.07451 10.319166,14.22148 C 9.4081548,14.43264 9.1676161,14.526869 8.0093767,14.526869 C 6.8511393,14.526869 6.6003933,14.432916 5.6862137,14.22148 C 5.0519631,14.074787 4.4826819,13.71878 4.4826819,13.09435 L 4.4826819,2.6271302 C 4.4826819,2.2955633 4.780767,2.0441268 5.1040758,2.0520129 C 5.3357017,1.8350914 5.7811117,1.4999998 6.0938256,1.4999998 z "
       style="fill:#2e3436;fill-opacity:1;stroke:#000000;stroke-width:0.90925044;stroke-linecap:round;stroke-miterlimit:4;stroke-opacity:1" />
    <path
       style="fill:url(#linearGradient4928);fill-opacity:1;stroke:none;stroke-width:0.99999994;stroke-linecap:round;stroke-miterlimit:4;stroke-opacity:1"
       d="M 6.0524713,1.502586 C 5.7576657,1.502586 5.3399445,1.835597 5.1215844,2.0539574 C 4.816791,2.0460189 4.5344095,2.3002054 4.5344095,2.6339715 L 4.5344095,4.4599418 C 5.1101182,3.6029499 6.3748513,3.0063262 7.8497989,3.0063262 C 9.3247475,3.0063262 10.59664,3.6029499 11.172349,4.4599418 L 11.172349,2.6339715 C 11.172349,2.2988883 10.830245,1.9959825 10.477764,2.0038327 C 10.276741,1.8222299 9.5897426,1.502586 9.2962539,1.502586 L 6.0524713,1.502586 z "
       id="rect2168"
       sodipodi:nodetypes="ccccsccccc" />
    <path
       style="fill:url(#linearGradient4925);fill-opacity:1;stroke:none;stroke-width:1.31792343;stroke-linecap:round;stroke-linejoin:round;stroke-miterlimit:4;stroke-opacity:1"
       d="M 5.9783411,7.0438066 C 7.2402744,6.5250046 8.5520517,6.3683743 9.9783411,7.0438066 L 9.9783411,11.604111 C 8.62223,12.218861 7.2933136,12.099643 5.9783411,11.604111 L 5.9783411,7.0438066 z "
       id="rect13026"
       sodipodi:nodetypes="ccccc" />
    <path
       style="fill:none;fill-opacity:1;stroke:#000000;stroke-width:0.9092502;stroke-linecap:round;stroke-miterlimit:4;stroke-dasharray:none;stroke-opacity:1"
       d="M 11.131119,10.749314 C 8.8552052,11.783335 6.7689465,11.926621 4.9810022,10.656225"
       id="path3222"
       sodipodi:nodetypes="cc" />
    <path
       style="fill:url(#linearGradient4921);fill-opacity:1;stroke:none;stroke-width:0.99999994;stroke-linecap:round;stroke-miterlimit:4;stroke-dasharray:none;stroke-opacity:1"
       d="M 4.6497617,10.573453 L 4.6497617,12.59136 C 4.6497617,13.408154 5.157831,14.041341 5.7638907,14.182004 C 7.2060037,14.51671 8.6336766,14.571178 10.12874,14.182004 C 10.731631,14.025068 11.249919,13.408154 11.249921,12.59136 L 11.249921,10.694416 C 8.8074644,12.038068 6.5685405,12.22426 4.6497617,10.573453 z "
       id="rect3605"
       sodipodi:nodetypes="ccssccc" />
    <path
       style="fill:none;fill-opacity:1;stroke:#555753;stroke-width:0.99999982;stroke-linecap:round;stroke-miterlimit:4;stroke-dasharray:none;stroke-opacity:1"
       d="M 6.1002532,1.4999999 L 9.5245087,1.4999999 C 9.8341556,1.4999999 10.553479,1.822802 10.765571,2.0028939 C 11.137456,1.9951091 11.5,2.2928713 11.5,2.6251667 L 11.5,13.074151 C 11.5,13.697494 10.933599,14.052604 10.302927,14.199318 C 9.3968027,14.41011 9.1575548,14.504175 8.0055284,14.504175 C 6.8535035,14.504175 6.6041024,14.410387 5.6948275,14.199318 C 5.0639794,14.05288 4.4977522,13.697494 4.4977522,13.074151 L 4.4977522,2.6251667 C 4.4977522,2.2941775 4.7942378,2.043179 5.1158126,2.0510513 C 5.3461955,1.8345078 5.7892163,1.4999999 6.1002532,1.4999999 z "
       id="path16915"
       sodipodi:nodetypes="cccccssscccc" />
    <path
       id="path17886"
       style="fill:url(#linearGradient4917);fill-opacity:1;stroke:none;stroke-width:0.5;stroke-linecap:round;stroke-linejoin:round;stroke-miterlimit:4;stroke-opacity:1"
       d="M 8.2478683,12.323255 C 8.1291291,12.323255 8.0330483,12.419336 8.0330483,12.538075 C 8.0330483,12.581461 8.0440988,12.602237 8.0450386,12.63888 C 8.0465286,12.696905 7.9726484,12.754061 7.9233075,12.767772 C 7.9026184,12.773522 7.9077025,12.767217 7.882674,12.767217 C 7.7021295,12.769758 7.7603227,12.703594 7.7036575,12.674128 C 7.7036575,12.599625 7.6421077,12.538075 7.5676048,12.538075 C 7.4931019,12.538075 7.4315521,12.599624 7.4315521,12.674128 C 7.4735961,12.758618 7.3758182,12.878786 7.3313024,12.867466 C 7.227247,12.841006 7.2697397,12.728949 7.2453749,12.674128 C 7.2453749,12.599625 7.1838251,12.538075 7.1093222,12.538075 C 7.0348192,12.538075 6.9732695,12.599624 6.9732695,12.674128 C 6.9732695,12.748631 7.0313776,12.834272 7.1058806,12.834271 C 7.2348035,12.920529 7.1813463,12.959769 7.2024106,13.003518 C 7.2024106,13.078022 7.2639603,13.139572 7.3384632,13.139571 C 7.4129662,13.139571 7.4745159,13.078022 7.4745159,13.003518 C 7.4745159,12.969626 7.4593686,12.934142 7.4387129,12.91043 C 7.4504607,12.837461 7.5401085,12.831567 7.5676048,12.810181 C 7.5898125,12.810181 7.6057021,12.787105 7.6248902,12.788698 C 7.6635691,12.791911 7.6996357,12.828036 7.7251394,12.867466 C 7.7383126,12.887833 7.7036575,12.917549 7.7036575,12.946234 C 7.7036575,13.046347 7.7825603,13.13241 7.882674,13.132411 C 7.9827876,13.132411 8.0688513,13.046347 8.0688513,12.946234 C 8.0688513,12.915699 8.050997,12.896527 8.0542521,12.87063 C 8.0609222,12.817566 8.1182736,12.750472 8.1688229,12.741738 C 8.1964002,12.736972 8.2147966,12.752895 8.2478683,12.752895 C 8.3666074,12.752895 8.4698485,12.656815 8.4698485,12.538075 C 8.4698485,12.419336 8.3666074,12.323255 8.2478683,12.323255 z M 8.8212964,12.939573 C 8.8212964,13.036614 8.7249289,13.115372 8.6061898,13.115372 C 8.4874502,13.115372 8.3910817,13.036614 8.3910817,12.939573 C 8.3910817,12.842532 8.4874502,12.763774 8.6061898,12.763774 C 8.7249289,12.763774 8.8212964,12.842532 8.8212964,12.939573 z " />
    <rect
       style="fill:#000000;fill-opacity:1;stroke:none;stroke-width:1;stroke-linecap:round;stroke-linejoin:round;stroke-miterlimit:4;stroke-dasharray:none;stroke-opacity:1"
       id="rect23869"
       width="3.6614285"
       height="2.0380898"
       x="5.9843621"
       y="7.9835706" />
    <path
       style="fill:#2e3436;fill-opacity:1;stroke:none;stroke-width:0.5;stroke-linecap:round;stroke-linejoin:round;stroke-miterlimit:4;stroke-dasharray:none;stroke-opacity:1"
       d="M 6.1717891,2.0825132 C 6.1642232,2.0833521 6.1569199,2.085539 6.1503072,2.0889456 C 6.1375901,2.0941028 6.1274054,2.1032515 6.1216645,2.1146749 C 6.1192393,2.123113 6.1192393,2.1319661 6.1216645,2.1404042 C 6.1200825,2.1515395 6.1225968,2.1628338 6.1288248,2.172566 L 6.2290745,2.269051 L 6.2362348,3.0461485 C 5.4601601,3.2424385 4.886661,3.7838775 4.5208718,4.2041142 C 4.5145257,4.2094841 4.5096278,4.2160839 4.5065506,4.2234111 C 4.5030061,4.2396148 4.5083328,4.2563618 4.5208718,4.2684375 C 4.5230429,4.2707674 4.5254389,4.2729196 4.5280325,4.2748695 C 4.5324475,4.2776056 4.5372684,4.2797708 4.542354,4.2813023 C 4.551112,4.2856572 4.5609876,4.2878751 4.5709967,4.2877343 C 4.5785623,4.2868954 4.5858656,4.2847089 4.5924787,4.2813023 C 4.6006355,4.2785379 4.6079829,4.2741382 4.6139606,4.2684375 C 4.9655008,3.8645709 5.5278644,3.3264372 6.3078418,3.1362013 C 6.3104351,3.1342513 6.3128314,3.1320989 6.3150026,3.129769 C 6.3200877,3.1282374 6.3249088,3.1260723 6.3293237,3.1233366 C 6.3407329,3.1154253 6.3484033,3.1039411 6.3508056,3.091175 C 6.3509552,3.089033 6.3509552,3.0868845 6.3508056,3.0847426 L 6.3436448,2.249754 L 9.5118576,2.2561864 L 9.5046968,3.1233366 C 9.505217,3.138407 9.5130695,3.1525138 9.5261787,3.1619306 C 9.5305946,3.1646664 9.5354157,3.1668315 9.5405003,3.1683629 C 10.25524,3.3631243 10.829333,3.8899175 11.158811,4.2684375 C 11.167619,4.2786864 11.180403,4.2855768 11.194614,4.2877343 C 11.217762,4.2904422 11.240422,4.280264 11.2519,4.2620051 C 11.255692,4.2560649 11.258126,4.2495043 11.259061,4.2427082 C 11.261485,4.2342701 11.261485,4.2254171 11.259061,4.216979 C 11.257356,4.2124105 11.254945,4.2080802 11.2519,4.2041142 C 10.909879,3.8111824 10.328132,3.2914434 9.6192676,3.091175 L 9.6264284,2.2754834 L 9.7051957,2.1854306 C 9.7082407,2.1814647 9.7106514,2.1771342 9.712356,2.172566 C 9.7147803,2.1641278 9.7147803,2.1552747 9.712356,2.1468366 C 9.7114212,2.1400404 9.7089879,2.13348 9.7051957,2.1275396 C 9.7030255,2.1252098 9.7006292,2.1230573 9.6980349,2.1211073 C 9.6958647,2.1187775 9.6934684,2.116625 9.6908741,2.1146749 C 9.6842615,2.1112683 9.6769586,2.1090815 9.6693922,2.1082426 C 9.667222,2.1059128 9.6648257,2.1037603 9.6622314,2.1018102 C 8.494675,1.959856 7.2971005,1.9729798 6.1789494,2.0825132 C 6.1765652,2.0823791 6.1741734,2.0823791 6.1717891,2.0825132 L 6.1717891,2.0825132 z "
       id="path9146"
       sodipodi:nodetypes="csssccccssssssscsssccccsssssssscccsssssscccc" />
    <path
       sodipodi:nodetypes="cccccssscccc"
       id="path8580"
       d="M 6.6167439,1.8279699 L 9.0490903,1.8279699 C 9.2690428,1.8279699 9.9103146,2.1312936 10.060969,2.2946546 C 10.428388,2.3008952 10.482818,2.4858449 10.475199,2.7872691 L 10.460695,12.635858 C 10.460695,13.20129 10.702914,13.047191 9.5843771,13.347912 C 8.935956,13.522242 8.7884324,13.486368 7.9701156,13.486368 C 7.1517989,13.486368 6.9572602,13.512648 6.3065482,13.337656 C 5.5482673,13.133737 5.4516668,13.326437 5.4607952,12.583531 L 5.4784413,2.7872691 C 5.4784413,2.4870298 5.6890434,2.2593496 5.9174676,2.2664906 C 6.0811151,2.0700644 6.3958059,1.8279699 6.6167439,1.8279699 z "
       style="opacity:0.2892562;fill:none;fill-opacity:1;stroke:url(#linearGradient4912);stroke-width:0.99999982;stroke-linecap:round;stroke-miterlimit:4;stroke-dasharray:none;stroke-opacity:1" />
    <path
       style="opacity:0.37603305;fill:none;fill-rule:evenodd;stroke:#d3d7cf;stroke-width:0.99999988px;stroke-linecap:round;stroke-linejoin:miter;stroke-opacity:1"
       d="M 6.9989204,7.4783665 L 9.064344,7.4850752"
       id="path8539"
       sodipodi:nodetypes="cc" />
    <path
       style="opacity:0.33057849;fill:url(#linearGradient4908);fill-opacity:1;fill-rule:evenodd;stroke:none;stroke-width:1px;stroke-linecap:butt;stroke-linejoin:miter;stroke-opacity:1"
       d="M 6.3244757,10.311341 C 6.9192876,10.290166 7.9602074,9.3691262 9.7494389,9.2844245 L 9.7494389,8.3086952 L 6.3244757,8.3086952 L 6.3244757,10.311341 z "
       id="path5268"
       sodipodi:nodetypes="ccccc" />
    <path
       style="color:#000000;fill:#eeeeec;fill-opacity:1;fill-rule:evenodd;stroke:#555753;stroke-width:0.49999991;stroke-linecap:butt;stroke-linejoin:miter;marker:none;marker-start:none;marker-mid:none;marker-end:none;stroke-miterlimit:4;stroke-dasharray:none;stroke-dashoffset:0;stroke-opacity:1;visibility:visible;display:inline;overflow:visible;enable-background:accumulate"
       d="M 7.8190676,3.7707338 C 7.269058,3.7707338 6.8226731,4.2171188 6.8226731,4.7671283 C 6.8226731,5.3171386 7.269058,5.7635224 7.8190676,5.7635224 C 7.9405281,5.7635224 8.053916,5.7410952 8.161578,5.7012479 C 8.2080585,5.9281998 8.4087669,6.0956541 8.6493962,6.0956541 C 8.924401,6.0956541 9.1475931,5.8724619 9.1475936,5.5974566 C 9.1475936,5.3568283 8.9801399,5.1561193 8.7531875,5.1096388 C 8.7930338,5.0019771 8.815462,4.8885888 8.815462,4.7671283 C 8.815462,4.2171188 8.3690777,3.7707338 7.8190676,3.7707338 z "
       id="path6450" />
    <path
       transform="matrix(0.2435115,0,0,0.2435116,-16.69337,-0.3598976)"
       d="M 102.08814 21.054541 A 1.4258121 1.4258121 0 1 1  99.236519,21.054541 A 1.4258121 1.4258121 0 1 1  102.08814 21.054541 z"
       sodipodi:ry="1.4258121"
       sodipodi:rx="1.4258121"
       sodipodi:cy="21.054541"
       sodipodi:cx="100.66233"
       id="path9689"
       style="fill:url(#radialGradient4931);fill-opacity:1;stroke:#d3d7cf;stroke-width:2.05329037;stroke-linecap:round;stroke-linejoin:round;stroke-miterlimit:4;stroke-dasharray:none;stroke-opacity:1"
       sodipodi:type="arc" />
  </g>
</svg>
